<svg viewBox="64 64 896 896" focusable="false" xmlns="http://www.w3.org/2000/svg"><path d="M0 0h24v24H0z" /><path d="M19.41 9H18V7h-2V5.08A7.98 7.98 0 004 12a8 8 0 1015.41-3zM15.5 8a1.5 1.5 0 110 3 1.5 1.5 0 010-3zm-7 0a1.5 1.5 0 110 3 1.5 1.5 0 010-3zm3.5 9.5A5.5 5.5 0 016.89 14h10.22A5.5 5.5 0 0112 17.5z" opacity=".3" /><path d="M7 9.5a1.5 1.5 0 113 0 1.5 1.5 0 01-3 0zm5 8a5.5 5.5 0 005.11-3.5H6.89A5.5 5.5 0 0012 17.5zm3.5-6.5a1.5 1.5 0 100-3 1.5 1.5 0 000 3zM22 1h-2v2h-2v2h2v2h2V5h2V3h-2V1zm-2 11a8 8 0 11-4-6.92V2.84A10 10 0 1021.53 9H19.4c.38.93.6 1.94.6 3z" /></svg>