<svg viewBox="64 64 896 896" focusable="false" xmlns="http://www.w3.org/2000/svg"><path d="M0 0h24v24H0z" /><path d="M12 5v1.4l5 3.57v1.11a6.63 6.63 0 014 .6V5h-9zm7 4h-2V7h2v2z" opacity=".3" /><path d="M12 5h9v6.68c.75.36 1.43.84 2 1.42V3H10v1.97l2 1.43V5z" /><path d="M17 7h2v2h-2zM8 6l-7 5v10h6v-5h2v5h2.68a6.99 6.99 0 01-.68-3v-4H5v5H3v-6.97l5-3.57 5 3.57v1.08a6.74 6.74 0 012-1.42V11L8 6z" /><path d="M8 8.46l-5 3.57V19h2v-5h6v4c0-1.91.76-3.63 2-4.89v-1.08L8 8.46z" opacity=".3" /><path d="M18 13a5 5 0 100 10 5 5 0 000-10zm3 5.5h-2.5V21h-1v-2.5H15v-1h2.5V15h1v2.5H21v1z" /></svg>