<svg viewBox="64 64 896 896" focusable="false" xmlns="http://www.w3.org/2000/svg"><path d="M0 0h24v24H0V0z" /><path d="M19 17.41c-.88-.07-1.75-.22-2.6-.45l-1.2 1.2c1.21.41 2.48.67 3.8.76v-1.51zM6.54 4.95h-1.5c.09 1.32.34 2.58.75 3.79l1.2-1.21c-.24-.83-.39-1.7-.45-2.58z" opacity=".3" /><path d="M20 20.95a1 1 0 001-1v-3.5a1 1 0 00-1-1c-1.25 0-2.45-.2-3.57-.57a1.02 1.02 0 00-1.02.24l-2.2 2.2a15.05 15.05 0 01-6.59-6.59l2.2-2.21a.96.96 0 00.25-1 11.36 11.36 0 01-.57-3.57 1 1 0 00-1-1H4a1 1 0 00-1 1 17 17 0 0017 17zm-3.6-3.99c.85.24 1.72.39 2.6.45v1.5a14.9 14.9 0 01-3.8-.76l1.2-1.19zM5.03 4.95h1.5c.07.88.22 1.75.45 2.58l-1.2 1.21c-.4-1.21-.66-2.47-.75-3.79zm10.97 6h2v-3h3v-2h-3v-3h-2v3h-3v2h3z" /></svg>