<svg viewBox="64 64 896 896" focusable="false" xmlns="http://www.w3.org/2000/svg"><path d="M0 0h24v24H0z" /><path d="M16 7.58l-5.5-2.4L5 7.58v3.6a8.2 8.2 0 005.5 7.74c.25-.08.49-.2.73-.3A6 6 0 0116 11.09V7.58z" opacity=".3" /><path d="M17 13a4 4 0 100 8 4 4 0 000-8zm0 1.38c.62 0 1.12.51 1.12 1.12s-.51 1.12-1.12 1.12-1.12-.51-1.12-1.12.5-1.12 1.12-1.12zm0 5.37c-.93 0-1.74-.46-2.24-1.17.05-.72 1.51-1.08 2.24-1.08s2.19.36 2.24 1.08A2.72 2.72 0 0117 19.75z" opacity=".3" /><circle cx="17" cy="15.5" r="1.12" /><path d="M18 11.09V6.27L10.5 3 3 6.27v4.91c0 4.54 3.2 8.79 7.5 9.82a9.17 9.17 0 001.6-.55 6 6 0 105.9-9.36zM11 17c0 .56.08 1.11.23 1.62-.24.11-.48.22-.73.3A8.2 8.2 0 015 11.18v-3.6l5.5-2.4 5.5 2.4v3.51A6 6 0 0011 17zm6 4a4 4 0 110-8 4 4 0 010 8z" /><path d="M17 17.5c-.73 0-2.19.36-2.24 1.08a2.74 2.74 0 004.48 0c-.05-.72-1.51-1.08-2.24-1.08z" /></svg>