<svg viewBox="64 64 896 896" focusable="false" xmlns="http://www.w3.org/2000/svg"><path d="M0 0h24v24H0V0z" /><path d="M19 3H5a2 2 0 00-2 2v7c0 1.1.9 2 2 2h14a2 2 0 002-2V5a2 2 0 00-2-2zM5 10h3.13c.21.78.67 1.47 1.27 2H5v-2zm14 2h-4.4a4.13 4.13 0 001.27-2H19v2zm0-4h-5v1c0 1.07-.93 2-2 2s-2-.93-2-2V8H5V5h14v3zm-5 7v1c0 .47-.19.9-.48 1.25-.37.45-.92.75-1.52.75s-1.15-.3-1.52-.75A1.96 1.96 0 0110 16v-1H3v4c0 1.1.9 2 2 2h14a2 2 0 002-2v-4h-7zm-9 2h3.13c.02.09.06.17.09.25.24.68.65 1.28 1.18 1.75H5v-2zm14 2h-4.4c.54-.47.95-1.07 1.18-1.75.03-.08.07-.16.09-.25H19v2z" /><path d="M8.13 10H5v2h4.4a4.13 4.13 0 01-1.27-2zm6.47 2H19v-2h-3.13a4.13 4.13 0 01-1.27 2zm-6.38 5.25L8.13 17H5v2h4.4a4.22 4.22 0 01-1.18-1.75zm7.65-.25c-.02.09-.06.17-.09.25A4.04 4.04 0 0114.6 19H19v-2h-3.13z" opacity=".3" /></svg>