<svg viewBox="64 64 896 896" focusable="false" xmlns="http://www.w3.org/2000/svg"><path d="M0 0h24v24H0V0z" /><path d="M4 20h16V4H4v16zm5-2c-.55 0-1-.45-1-1s.45-1 1-1 1 .45 1 1-.45 1-1 1zm0-3c-.55 0-1-.45-1-1s.45-1 1-1 1 .45 1 1-.45 1-1 1zm3 3c-.55 0-1-.45-1-1s.45-1 1-1 1 .45 1 1-.45 1-1 1zm0-3c-.55 0-1-.45-1-1s.45-1 1-1 1 .45 1 1-.45 1-1 1zm3 3c-.55 0-1-.45-1-1s.45-1 1-1 1 .45 1 1-.45 1-1 1zm0-3c-.55 0-1-.45-1-1s.45-1 1-1 1 .45 1 1-.45 1-1 1zm-8-4a5 5 0 0110 0v1H7v-1z" opacity=".3" /><circle cx="15" cy="14" r="1" /><circle cx="12" cy="14" r="1" /><circle cx="15" cy="17" r="1" /><path d="M20 2H4a2 2 0 00-2 2v16c0 1.1.9 2 2 2h16a2 2 0 002-2V4a2 2 0 00-2-2zm0 18H4V4h16v16z" /><path d="M17 11a5 5 0 00-10 0v1h10v-1zm-8.46-.5a3.5 3.5 0 016.93 0H8.54z" /><circle cx="9" cy="17" r="1" /><circle cx="9" cy="14" r="1" /><circle cx="12" cy="17" r="1" /></svg>