<svg viewBox="64 64 896 896" focusable="false" xmlns="http://www.w3.org/2000/svg"><path d="M0 0h24v24H0z" /><path d="M4 15h16v4H4z" opacity=".3" /><circle cx="7" cy="7" r="2" /><path d="M20 13V4.83a2.83 2.83 0 00-4.83-2l-1.25 1.25a1.7 1.7 0 00-.51-.08c-.4 0-.77.12-1.08.32l2.76 2.76a1.99 1.99 0 00.25-1.59l1.25-1.25a.83.83 0 011.41.59V13h-6.85a5.1 5.1 0 01-.82-.72l-1.4-1.55A2.3 2.3 0 007.24 10 2.25 2.25 0 005 12.25V13H2v6c0 1.1.9 2 2 2a1 1 0 001 1h14a1 1 0 001-1 2 2 0 002-2v-6h-2zm0 6H4v-4h16v4z" /></svg>