<svg viewBox="64 64 896 896" focusable="false" xmlns="http://www.w3.org/2000/svg"><path d="M0 0h24v24H0V0z" /><path d="M7.6 7.6a9.1 9.1 0 001.39 6.83l5.45-5.45A9.13 9.13 0 007.6 7.6zM13.12 5c-.93 0-1.82.16-2.67.46 1.91.19 3.79.89 5.44 2.07l1.39-1.39A8.13 8.13 0 0013.12 5zM5 13.12c0 1.49.4 2.91 1.14 4.15l1.39-1.39a11.25 11.25 0 01-2.07-5.44c-.3.86-.46 1.76-.46 2.68z" opacity=".3" /><path d="M13.13 14.56l1.42-1.43L21 19.57 19.57 21zM13.12 3c-2.58 0-5.16.98-7.14 2.95l-.01.01a10.12 10.12 0 000 14.31l14.3-14.31A10.09 10.09 0 0013.12 3zM6.14 17.27a8.06 8.06 0 01-.68-6.82c.19 1.91.89 3.79 2.07 5.44l-1.39 1.38zm2.84-2.84A9.1 9.1 0 017.6 7.6a9.2 9.2 0 016.83 1.38l-5.45 5.45zm1.47-8.97a7.97 7.97 0 016.82.68l-1.39 1.39a11.25 11.25 0 00-5.43-2.07z" /></svg>