<svg viewBox="64 64 896 896" focusable="false" xmlns="http://www.w3.org/2000/svg"><path d="M0 0h24v24H0V0z" /><path d="M19 8a1 1 0 00-1-1h-4a1 1 0 00-1 1v2h6V8zm-8 0a1 1 0 00-1-1H6a1 1 0 00-1 1v2h6V8zm8 4H5a1 1 0 00-1 1v2h16v-2a1 1 0 00-1-1z" opacity=".3" /><path d="M21 10.78V8a3 3 0 00-3-3h-4c-.77 0-1.47.3-2 .78A2.97 2.97 0 0010 5H6a3 3 0 00-3 3v2.78c-.61.55-1 1.34-1 2.22v6h2v-2h16v2h2v-6c0-.88-.39-1.67-1-2.22zM13 8a1 1 0 011-1h4a1 1 0 011 1v2h-6V8zM5 8a1 1 0 011-1h4a1 1 0 011 1v2H5V8zm15 7H4v-2a1 1 0 011-1h14a1 1 0 011 1v2z" /></svg>