<svg viewBox="64 64 896 896" focusable="false" xmlns="http://www.w3.org/2000/svg"><path d="M0 0h24v24H0V0z" /><path d="M4 20h16V4H4v16zm2-7.13c0-1 .62-1.85 1.5-2.2V9c0-1.1.9-2 2-2h5a2 2 0 012 2v1.67c.88.35 1.5 1.2 1.5 2.2V17h-1.5v-1.5h-9V17H6v-4.13z" opacity=".3" /><path d="M20 2H4a2 2 0 00-2 2v16c0 1.1.9 2 2 2h16a2 2 0 002-2V4a2 2 0 00-2-2zm0 18H4V4h16v16z" /><path d="M7.5 15.5h9V17H18v-4.13c0-1-.62-1.85-1.5-2.2V9a2 2 0 00-2-2h-5a2 2 0 00-2 2v1.67c-.88.35-1.5 1.2-1.5 2.2V17h1.5v-1.5zm1.5-7h6v2H9v-2zM8.37 12h7.27c.48 0 .87.39.87.87V14h-9v-1.13H7.5c0-.48.39-.87.87-.87z" /></svg>