<svg viewBox="64 64 896 896" focusable="false" xmlns="http://www.w3.org/2000/svg"><path d="M0 0h24v24H0V0z" /><path d="M4 20h16V4H4v16zm2.45-9.5l-.95-1L7 7.76 6 7h3.65l1.73 3H17v1h-1v2.5l.84 1.46a8.8 8.8 0 001.1-.92L19 15.1c-1.87 1.87-4.36 2.9-7 2.9s-5.13-1.03-7-2.9l1.06-1.06a8 8 0 001.1.92L8 13.5V9.51l-1.55.99z" opacity=".3" /><path d="M15.53 15.71l-.03-.06-.81-1.41a7.72 7.72 0 01-5.4 0l-.81 1.41-.03.06a8.41 8.41 0 007.08 0z" opacity=".3" /><path d="M7.16 14.96a8 8 0 01-1.1-.92L5 15.1c1.87 1.87 4.36 2.9 7 2.9s5.13-1.03 7-2.9l-1.06-1.06a8.8 8.8 0 01-1.1.92L16 13.5V11h1v-1h-5.62L9.65 7H6l1 .76L5.5 9.5l.95 1L8 9.51v3.99l-.84 1.46zm1.32.69l.81-1.41c1.74.65 3.66.65 5.4 0l.81 1.41.03.06a8.41 8.41 0 01-7.08 0l.03-.06z" /><path d="M20 2H4a2 2 0 00-2 2v16c0 1.1.9 2 2 2h16a2 2 0 002-2V4a2 2 0 00-2-2zm0 18H4V4h16v16z" /></svg>