<svg viewBox="64 64 896 896" focusable="false" xmlns="http://www.w3.org/2000/svg"><path d="M0 0h24v24H0z" /><path d="M10 14h.74L8.82 5.56A2 2 0 006.87 4H3v2h3.87l1.42 6.25h-.01A6 6 0 004.09 17H0v2h6v-1a4 4 0 014-4zM19 8h-.82l-1.35-3.69A1.98 1.98 0 0014.96 3H11v2h3.96l1.1 3H10.4l.46 2H15a5 5 0 00-.9 2h-2.79l.46 2h2.33a4.93 4.93 0 004.65 3.99 5.08 5.08 0 005.25-5C24 10.2 21.8 8 19 8zm0 8c-1.68 0-3-1.32-3-3 0-.93.41-1.73 1.05-2.28l.96 2.64 1.88-.68-.97-2.67.09-.01c1.68 0 3 1.32 3 3s-1.33 3-3.01 3z" /><path d="M10 15a3 3 0 100 6 3 3 0 000-6zm0 4c-.55 0-1-.45-1-1s.45-1 1-1 1 .45 1 1-.45 1-1 1z" /></svg>