<svg viewBox="64 64 896 896" focusable="false" xmlns="http://www.w3.org/2000/svg"><path d="M0 0h24v24H0z" /><path d="M11.92 4.86l.94-.34 1.71 4.7-.94.34z" opacity=".3" /><circle cx="10.5" cy="8" opacity=".3" r="1" /><path d="M7 19a2 2 0 00-2 2h14a2 2 0 00-2-2h-4v-2h3a2 2 0 002-2h-8a3 3 0 01-1.53-5.57 2.45 2.45 0 003.68.44l.59 1.61.94-.34.34.94 1.88-.68-.34-.94.94-.34-2.74-7.52-.94.34-.34-.94-1.88.68.34.94-.94.35.56 1.55a2.48 2.48 0 00-2.48 1.86A5.01 5.01 0 0010 17v2H7zm5.86-14.48l1.71 4.7-.94.34-1.71-4.7.94-.34zM10.5 7a1 1 0 011 1 1 1 0 01-1 1 1 1 0 01-1-1 1 1 0 011-1z" /></svg>