<svg viewBox="64 64 896 896" focusable="false" xmlns="http://www.w3.org/2000/svg"><path d="M0 0h24v24H0V0z" /><path d="M13 16h-2a3 3 0 00-3 3v1h8v-1a3 3 0 00-3-3zm-1 3c-.55 0-1-.45-1-1s.45-1 1-1 1 .45 1 1-.45 1-1 1z" opacity=".3" /><path d="M16.13 15.13L18 3h-4V2h-4v1H5a2 2 0 00-2 2v4c0 1.1.9 2 2 2h2.23l.64 4.13A4.98 4.98 0 006 19v1c0 1.1.9 2 2 2h8a2 2 0 002-2v-1c0-1.57-.74-2.95-1.87-3.87zM5 9V5h1.31l.62 4H5zm10.67-4l-1.38 9H9.72L8.33 5h7.34zM16 20H8v-1a3 3 0 013-3h2a3 3 0 013 3v1z" /><circle cx="12" cy="18" r="1" /></svg>