<svg viewBox="64 64 896 896" focusable="false" xmlns="http://www.w3.org/2000/svg"><path d="M0 0h24v24H0V0z" /><path d="M16.5 12a3.5 3.5 0 100-7 3.5 3.5 0 000 7z" opacity=".3" /><circle cx="15.01" cy="18" opacity=".3" r="1" /><circle cx="7" cy="14" opacity=".3" r="2" /><path d="M7 18a4 4 0 100-8 4 4 0 000 8zm0-6c1.1 0 2 .9 2 2s-.9 2-2 2-2-.9-2-2 .9-2 2-2zm11.01 6c0-1.65-1.35-3-3-3s-3 1.35-3 3 1.35 3 3 3 3-1.35 3-3zm-4 0c0-.55.45-1 1-1s1 .45 1 1-.45 1-1 1-1-.45-1-1zm2.49-4a5.51 5.51 0 000-11 5.51 5.51 0 000 11zm0-9a3.5 3.5 0 110 7 3.5 3.5 0 010-7z" /></svg>