<svg viewBox="64 64 896 896" focusable="false" xmlns="http://www.w3.org/2000/svg"><path d="M0 0h24v24H0V0z" /><path d="M13.17 8h-2.34l-1 1H8v6h8V9h-1.83l-1-1zM12 14a2 2 0 01-2-2c0-1.1.9-2 2-2s2 .9 2 2a2 2 0 01-2 2z" opacity=".3" /><path d="M16 7h-1l-1-1h-4L9 7H8a2 2 0 00-2 2v6c0 1.1.9 2 2 2h8a2 2 0 002-2V9a2 2 0 00-2-2zm0 8H8V9h1.83l1-1h2.34l1 1H16v6z" /><circle cx="12" cy="12" r="2" /><path d="M8.57.52L13.05 5V2.05c4.72.47 8.48 4.23 8.95 8.95h2C23.34 3.03 15.49-1.58 8.57.52zM10.95 21.96A10.01 10.01 0 012 13.01H0c.66 7.97 8.51 12.58 15.43 10.48l-4.48-4.48v2.95z" /></svg>