<svg viewBox="64 64 896 896" focusable="false" xmlns="http://www.w3.org/2000/svg"><path d="M0 0h24v24H0V0z" opacity=".87" /><path d="M12 4a8.01 8.01 0 000 16 8.01 8.01 0 000-16zm5 11.59L15.59 17 12 13.41 8.41 17 7 15.59 10.59 12 7 8.41 8.41 7 12 10.59 15.59 7 17 8.41 13.41 12 17 15.59z" opacity=".3" /><path d="M12 2a10 10 0 100 20 10 10 0 100-20zm0 18a8.01 8.01 0 010-16 8.01 8.01 0 010 16zm3.59-13L12 10.59 8.41 7 7 8.41 10.59 12 7 15.59 8.41 17 12 13.41 15.59 17 17 15.59 13.41 12 17 8.41z" /></svg>