<svg viewBox="64 64 896 896" focusable="false" xmlns="http://www.w3.org/2000/svg"><path d="M0 0h24v24H0z" /><path d="M11 3h2v8h-2zM16 13H8a3 3 0 00-3 3v5h2v-3c0-.55.45-1 1-1s1 .45 1 1v3h2v-3c0-.55.45-1 1-1s1 .45 1 1v3h2v-3c0-.55.45-1 1-1s1 .45 1 1v3h2v-5a3 3 0 00-3-3z" opacity=".3" /><path d="M16 11h-1V3a2 2 0 00-2-2h-2a2 2 0 00-2 2v8H8a5 5 0 00-5 5v7h18v-7a5 5 0 00-5-5zm-5-8h2v8h-2V3zm8 18h-2v-3c0-.55-.45-1-1-1s-1 .45-1 1v3h-2v-3c0-.55-.45-1-1-1s-1 .45-1 1v3H9v-3c0-.55-.45-1-1-1s-1 .45-1 1v3H5v-5a3 3 0 013-3h8a3 3 0 013 3v5z" /></svg>