<svg viewBox="64 64 896 896" focusable="false" xmlns="http://www.w3.org/2000/svg"><path d="M0 0h24v24H0V0z" /><path d="M22 15a3 3 0 00-3-3h-1.5v-.5a5.5 5.5 0 00-7.66-5.04L20.79 17.4A3 3 0 0022 15zM2 14a4 4 0 004 4h9.73l-8-8H6a4 4 0 00-4 4z" opacity=".3" /><path d="M19.35 10.04a7.49 7.49 0 00-11-5.07l1.49 1.49a5.5 5.5 0 017.66 5.04v.5H19a3 3 0 011.79 5.4l1.41 1.41a4.97 4.97 0 00-2.85-8.77zM3 5.27l2.77 2.77h-.42A6 6 0 006 20h11.73l2 2 1.41-1.41L4.41 3.86 3 5.27zM7.73 10l8 8H6a4 4 0 110-8h1.73z" /></svg>