<svg viewBox="64 64 896 896" focusable="false" xmlns="http://www.w3.org/2000/svg"><path d="M0 0h24v24H0V0z" /><path d="M19.21 12.04l-1.53-.11-.3-1.5A5.48 5.48 0 007.12 8.96l-.5.95-1.07.11A4 4 0 006 18h13a2.98 2.98 0 00.21-5.96zM12 17l-4-4h2.55v-3h2.91v3H16l-4 4z" opacity=".3" /><path d="M19.35 10.04a7.49 7.49 0 00-14-2A6 6 0 006 20h13a4.98 4.98 0 00.35-9.96zM19 18H6a4 4 0 01-.44-7.97l1.07-.11.5-.95a5.5 5.5 0 0110.26 1.46l.3 1.5 1.53.11A2.98 2.98 0 0119 18zm-5.55-8h-2.9v3H8l4 4 4-4h-2.55z" /></svg>