<svg viewBox="64 64 896 896" focusable="false" xmlns="http://www.w3.org/2000/svg"><path d="M0 0h24v24H0z" /><circle cx="9" cy="10" opacity=".3" r="2" /><path d="M14.48 18.34A12.1 12.1 0 009 17c-2.37 0-4.29.73-5.48 1.34-.62.32-.52.94-.52 1.66h12c0-.71.11-1.34-.52-1.66z" opacity=".3" /><path d="M21 3H3a2 2 0 00-2 2v8h2V5h18v16a2 2 0 002-2V5a2 2 0 00-2-2z" /><path d="M13 10a4 4 0 10-8 0 4 4 0 008 0zm-6 0c0-1.1.9-2 2-2s2 .9 2 2-.9 2-2 2-2-.9-2-2zM15.39 16.56A14.03 14.03 0 009 15c-2.53 0-4.71.7-6.39 1.56A2.97 2.97 0 001 19.22V22h16v-2.78c0-1.12-.61-2.15-1.61-2.66zM15 20H3c0-.72-.1-1.34.52-1.66A12.1 12.1 0 019 17c2.37 0 4.29.73 5.48 1.34.63.32.52.95.52 1.66z" /></svg>