<svg viewBox="64 64 896 896" focusable="false" xmlns="http://www.w3.org/2000/svg"><path d="M0 0h24v24H0V0z" /><path d="M4.94 7.26l2.21 2.21a9.05 9.05 0 019.69 0l2.21-2.21A12.04 12.04 0 0012 5c-2.56 0-5.01.79-7.06 2.26z" opacity=".3" /><circle cx="12" cy="17" opacity=".3" r="3" /><path d="M17 17a5 5 0 10-10 0 5 5 0 0010 0zm-8 0c0-1.65 1.35-3 3-3s3 1.35 3 3-1.35 3-3 3-3-1.35-3-3zM2 7.15l5 5a7.06 7.06 0 0110-.01l5-5a14.15 14.15 0 00-20 .01zm14.84 2.32a9.02 9.02 0 00-9.69.01L4.94 7.26A12.07 12.07 0 0112 5c2.56 0 5 .79 7.05 2.26l-2.21 2.21z" /></svg>