<svg viewBox="64 64 896 896" focusable="false" xmlns="http://www.w3.org/2000/svg"><path d="M0 0h24v24H0z" /><path d="M12 4a8 8 0 100 16 8 8 0 000-16zM8.46 14.45l-1.36-.62a4.28 4.28 0 000-3.66l1.36-.63a5.8 5.8 0 010 4.91zm3.07 1.56l-1.3-.74c.52-.92.78-1.98.78-3.15 0-1.19-.27-2.33-.8-3.4l1.34-.67c.64 1.28.96 2.65.96 4.07a7.8 7.8 0 01-.98 3.89zm3.14 1.32l-1.35-.66c.78-1.6 1.18-3.18 1.18-4.69 0-1.51-.4-3.07-1.18-4.64l1.34-.67A11.7 11.7 0 0116 11.98c0 1.74-.44 3.54-1.33 5.35z" opacity=".3" /><path d="M12 2a10 10 0 100 20 10 10 0 000-20zm0 18a8 8 0 110-16 8 8 0 010 16z" /><path d="M7.1 10.18a4.38 4.38 0 010 3.66l1.37.62a5.81 5.81 0 000-4.9l-1.37.62zM13.33 7.33a10.47 10.47 0 011.18 4.64c0 1.51-.4 3.09-1.18 4.69l1.35.66a12.24 12.24 0 001.33-5.35c0-1.74-.45-3.53-1.33-5.31l-1.35.67zM10.2 8.72c.53 1.07.8 2.21.8 3.4 0 1.17-.26 2.23-.78 3.15l1.3.74c.65-1.15.98-2.45.98-3.89 0-1.42-.32-2.79-.96-4.07l-1.34.67z" /></svg>