<svg viewBox="64 64 896 896" focusable="false" xmlns="http://www.w3.org/2000/svg"><path d="M0 0h24v24H0V0z" /><path d="M22 5H2v14h20V5zM9 6c1.65 0 3 1.35 3 3s-1.35 3-3 3-3-1.35-3-3 1.35-3 3-3zm6 12H3v-1.41C3 14.08 6.97 13 9 13s6 1.08 6 3.58V18zm2.85-4h1.64L21 16l-1.99 1.99A7.51 7.51 0 0116.28 10a7.47 7.47 0 012.73-3.99L21 8l-1.51 2h-1.64a6.05 6.05 0 000 4z" opacity=".3" /><path d="M2 21h20a2 2 0 001.99-2L24 5a2 2 0 00-2-2H2a2 2 0 00-2 2v14c0 1.1.9 2 2 2zM2 5h20v14H2V5zm17.49 5L21 8l-1.99-1.99a7.47 7.47 0 000 11.98L21 16l-1.51-2h-1.64a6.05 6.05 0 010-4h1.64zM9 12c1.65 0 3-1.35 3-3s-1.35-3-3-3-3 1.35-3 3 1.35 3 3 3zm0-4c.55 0 1 .45 1 1s-.45 1-1 1-1-.45-1-1 .45-1 1-1zm0 5c-2.03 0-6 1.08-6 3.58V18h12v-1.41C15 14.08 11.03 13 9 13zm-3.52 3c.74-.5 2.22-1 3.52-1s2.77.49 3.52 1H5.48z" /></svg>