<svg viewBox="64 64 896 896" focusable="false" xmlns="http://www.w3.org/2000/svg"><path d="M0 0h24v24H0z" /><path d="M12 6a6 6 0 10.01 12.01A6 6 0 0012 6zm0 10a4 4 0 110-8 4 4 0 010 8z" opacity=".3" /><circle cx="12" cy="12" opacity=".3" r="2" /><path d="M12 8a4 4 0 100 8 4 4 0 000-8zm0 6a2 2 0 01-2-2c0-1.1.9-2 2-2s2 .9 2 2a2 2 0 01-2 2z" /><path d="M22 5.35A35.64 35.64 0 0012 4c-2.15 0-4.11.86-5.54 2.24.13-.85.4-2.4 1.01-4.24H5.35A35.64 35.64 0 004 12c0 2.15.86 4.11 2.24 5.54-.85-.14-2.4-.4-4.24-1.01v2.12C3.95 19.23 7.44 20 12 20c2.15 0 4.11-.86 5.54-2.24-.14.85-.4 2.4-1.01 4.24h2.12A35.64 35.64 0 0020 12c0-2.15-.86-4.11-2.24-5.54.85.14 2.4.4 4.24 1.01V5.35zM18 12a6 6 0 11-12.01-.01A6 6 0 0118 12z" /></svg>