<svg viewBox="64 64 896 896" focusable="false" xmlns="http://www.w3.org/2000/svg"><path d="M0 0h24v24H0z" /><path d="M19 9.79L11.21 2H5v6.21L12.79 16 19 9.79zM7.25 5.5a1.25 1.25 0 110-2.5 1.25 1.25 0 010 2.5z" opacity=".3" /><path d="M12.79 21L3 11.21v2c0 .53.21 1.04.59 1.41l7.79 7.79a2 2 0 002.83 0l6.21-6.21a2 2 0 000-2.83L12.79 21z" /><path d="M11.38 17.41a2 2 0 002.82 0l6.21-6.21a2 2 0 000-2.83L12.62.58A2 2 0 0011.21 0H5a2 2 0 00-2 2v6.21c0 .53.21 1.04.59 1.41l7.79 7.79zM5 2h6.21L19 9.79 12.79 16 5 8.21V2z" /><circle cx="7.25" cy="4.25" r="1.25" /></svg>