<svg viewBox="64 64 896 896" focusable="false" xmlns="http://www.w3.org/2000/svg"><path d="M0 0h24v24H0z" /><path d="M7 13v-2h1.17L5.12 7.94a8.01 8.01 0 0010.94 10.94L10.17 13H7zm5-9c-1.48 0-2.86.41-4.06 1.12L13.83 11H17v2h-1.17l3.06 3.06A8.01 8.01 0 0012 4z" /><path d="M12 4a8.01 8.01 0 016.88 12.06l1.46 1.46A10 10 0 006.49 3.66l1.46 1.46A7.87 7.87 0 0112 4zm5 9v-2h-3.17l2 2H17zM1.39 4.22l2.27 2.27a10 10 0 0013.85 13.85l2.27 2.27 1.41-1.41L2.81 2.81 1.39 4.22zm3.73 3.72L8.17 11H7v2h3.17l5.88 5.88A8.01 8.01 0 015.12 7.94z" /></svg>