<svg viewBox="64 64 896 896" focusable="false" xmlns="http://www.w3.org/2000/svg"><path d="M0 0h24v24H0V0z" /><path d="M15.99 9h3.43C18.6 7 17 5.4 15 4.58v3.43c.37.28.71.62.99.99zM4 12a7.96 7.96 0 005 7.42v-3.44c-1.23-.93-2-2.4-2-3.99C7 10.4 7.77 8.93 9 8V4.58A7.96 7.96 0 004 12zm11 3.99v3.43c2-.82 3.6-2.42 4.42-4.42h-3.43c-.28.37-.62.71-.99.99z" opacity=".3" /><path d="M14.82 11h7.13A10.01 10.01 0 0013 2.05v7.13c.85.31 1.51.97 1.82 1.82zM15 4.58C17 5.4 18.6 7 19.42 9h-3.43a5.16 5.16 0 00-.99-.99V4.58zM2 12a10 10 0 009 9.95v-7.13A3.01 3.01 0 019 12c0-1.3.84-2.4 2-2.82V2.05A10 10 0 002 12zm7-7.42v3.44a4.99 4.99 0 000 7.97v3.44A7.99 7.99 0 014 12a7.96 7.96 0 015-7.42zm4 10.24v7.13A10.01 10.01 0 0021.95 13h-7.13A3.03 3.03 0 0113 14.82zm2 1.17c.37-.28.71-.61.99-.99h3.43C18.6 17 17 18.6 15 19.42v-3.43z" /></svg>