<svg viewBox="64 64 896 896" focusable="false" xmlns="http://www.w3.org/2000/svg"><path d="M0 0h24v24H0V0z" /><path d="M5.12 11l-.12.34V16h14v-4.66l-.12-.34H5.12zm2.38 4a1.5 1.5 0 110-3 1.5 1.5 0 010 3zm9 0a1.5 1.5 0 110-3 1.5 1.5 0 010 3z" opacity=".3" /><path d="M18.92 5.01A1.5 1.5 0 0017.5 4h-11a1.5 1.5 0 00-1.42 1.01L3 11v8a1 1 0 001 1h1a1 1 0 001-1v-1h12v1a1 1 0 001 1h1a1 1 0 001-1v-8l-2.08-5.99zM6.85 6h10.29l1.04 3H5.81l1.04-3zM19 16H5v-4.66l.12-.34h13.77l.11.34V16z" /><circle cx="7.5" cy="13.5" r="1.5" /><circle cx="16.5" cy="13.5" r="1.5" /></svg>