<svg viewBox="64 64 896 896" focusable="false" xmlns="http://www.w3.org/2000/svg"><path d="M0 0h24v24H0z" /><path d="M10 6.4l1.81 1.45a.5.5 0 01.19.39v4.26a.5.5 0 01-.5.5h-4a.5.5 0 01-.5-.5V8.24c0-.15.07-.3.19-.39L9 6.4V5H6v8c0 1.1.9 2 2 2h6a2 2 0 002-2V5h-6v1.4z" opacity=".3" /><path d="M2 19h18v2H2zM20 3H4v10a4 4 0 004 4h6a4 4 0 004-4v-3h2a2 2 0 002-2V5a2 2 0 00-2-2zM9.5 7.28l1.5 1.2V12H8V8.48l1.5-1.2zM16 13a2 2 0 01-2 2H8a2 2 0 01-2-2V5h3v1.4L7.19 7.85a.5.5 0 00-.19.39v4.26c0 .28.22.5.5.5h4a.5.5 0 00.5-.5V8.24a.5.5 0 00-.19-.39L10 6.4V5h6v8zm4-5h-2V5h2v3z" /></svg>