<svg viewBox="64 64 896 896" focusable="false" xmlns="http://www.w3.org/2000/svg"><path d="M0 0h24v24H0z" /><path d="M7.1 7.01A7 7 0 1019 12V5h-7c-1.84 0-3.58.71-4.9 2.01zm6.78.11a.4.4 0 01.04.52l-2.44 3.33 4.05.4c.44.04.63.59.3.89l-5.16 4.63a.4.4 0 01-.56-.01.4.4 0 01-.04-.52l2.44-3.33-4.05-.4a.51.51 0 01-.3-.89l5.16-4.63a.4.4 0 01.56.01z" opacity=".3" /><path d="M12 3a9 9 0 00-7.03 14.61L3 19.59 4.41 21l1.97-1.97A9.01 9.01 0 0021 12V3h-9zm7 9a6.96 6.96 0 01-7 7 7 7 0 010-14h7v7z" /><path d="M8.46 12.63l4.05.4-2.44 3.33a.4.4 0 00.04.52c.15.15.4.16.56.01l5.16-4.63a.51.51 0 00-.3-.89l-4.05-.4 2.44-3.33a.4.4 0 00-.04-.52.4.4 0 00-.56-.01l-5.16 4.63c-.32.3-.14.85.3.89z" /></svg>