<svg viewBox="64 64 896 896" focusable="false" xmlns="http://www.w3.org/2000/svg"><path d="M0 0h24v24H0V0z" /><path d="M17.5 8c.46 0 .91-.05 1.34-.12a7.99 7.99 0 00-8.18-3.76A7.99 7.99 0 0017.5 8zM8.08 5.03a8.05 8.05 0 00-3.66 4.44 8.05 8.05 0 003.66-4.44z" opacity=".3" /><path d="M12 2a10 10 0 100 20 10 10 0 000-20zm0 2c2.9 0 5.44 1.56 6.84 3.88a7.99 7.99 0 01-8.18-3.76c.43-.07.88-.12 1.34-.12zM8.08 5.03a8.05 8.05 0 01-3.66 4.44 8.05 8.05 0 013.66-4.44zM12 20c-4.41 0-8-3.59-8-8l.01-.15c2.6-.98 4.68-2.99 5.74-5.55a9.94 9.94 0 009.92 3.46A8.01 8.01 0 0112 20z" /><circle cx="9" cy="13" r="1.25" /><circle cx="15" cy="13" r="1.25" /></svg>