<svg viewBox="64 64 896 896" focusable="false" xmlns="http://www.w3.org/2000/svg"><path d="M0 0h24v24H0z" /><path d="M12 4c-.46 0-.91.05-1.34.12a7.99 7.99 0 008.18 3.76A7.99 7.99 0 0012 4zM4.42 9.47a8.01 8.01 0 001.81-1.41l-.72-.72a8.24 8.24 0 00-1.09 2.13z" opacity=".3" /><path d="M9 14.25a1.25 1.25 0 100-2.5 1.25 1.25 0 000 2.5zM17.5 10c.75 0 1.47-.09 2.17-.24a7.88 7.88 0 01-.44 5.64l1.49 1.49A9.98 9.98 0 0012 2c-1.78 0-3.44.47-4.89 1.28l5.33 5.33A9.9 9.9 0 0017.5 10zm-6.84-5.88a7.99 7.99 0 018.18 3.76 7.99 7.99 0 01-8.18-3.76zm-8.77-.4l2.19 2.19a10 10 0 0014.01 14.01l2.19 2.19 1.41-1.41L3.31 2.31 1.89 3.72zm14.77 14.77A8.01 8.01 0 014 12c0-.05.01-.1 0-.14a9.95 9.95 0 003.64-2.39l9.02 9.02zM5.51 7.34l.72.72a8.01 8.01 0 01-1.81 1.41c.26-.77.63-1.48 1.09-2.13z" /></svg>