<svg viewBox="64 64 896 896" focusable="false" xmlns="http://www.w3.org/2000/svg"><path d="M0 0h24v24H0V0z" /><path d="M13 2.05v2.02c1.46.18 2.79.76 3.9 1.62l1.42-1.43A9.95 9.95 0 0013 2.05zm0 17.88v2.02c2.01-.2 3.84-1 5.32-2.21l-1.43-1.43A7.87 7.87 0 0113 19.93zm-8.74-1.61l1.43-1.43A7.87 7.87 0 014.07 13H2.05c.2 2.01 1 3.84 2.21 5.32zM2.05 11h2.02a7.94 7.94 0 011.62-3.9L4.26 5.68A9.95 9.95 0 002.05 11zm16.26-3.9a7.94 7.94 0 011.62 3.9h2.02c-.2-2.01-1-3.84-2.21-5.32L18.31 7.1zM7.1 5.69A7.94 7.94 0 0111 4.07V2.05c-2.01.2-3.84 1-5.32 2.21L7.1 5.69zM5.68 19.74A9.98 9.98 0 0011 21.95v-2.02a7.94 7.94 0 01-3.9-1.62l-1.42 1.43zm16.27-6.73h-2.02a7.95 7.95 0 01-1.62 3.89l1.43 1.43a9.98 9.98 0 002.21-5.32zM9 12a3 3 0 106 0 3 3 0 00-6 0z" /></svg>