<svg viewBox="64 64 896 896" focusable="false" xmlns="http://www.w3.org/2000/svg"><path d="M0 0h24v24H0z" /><path d="M4 20h2v-2h2.23A5.28 5.28 0 017 15c-.02-.53-.73-4.43 6-8 0 0-.8 2.61 2.15 4.63A3.88 3.88 0 0117 15c0 1.13-.39 2.16-1.02 3H18v2h2V4H4v16z" opacity=".3" /><path d="M12.01 12.46c-.15.42-.15.82-.08 1.28.1.55.33 1.04.2 1.6a2.53 2.53 0 01-1.53 1.63c1.28 1.05 3.2.37 3.39-1.32.17-1.54-1.44-1.98-1.98-3.19z" /><path d="M2 2v20h20V2H2zm10 16c-1.58 0-2.97-1.88-3-3.06l-.01-.22c-.13-1.73 1-3.2 2.47-4.37a7.26 7.26 0 002.57 2.92c.58.42.97.86.97 1.73a3 3 0 01-3 3zm8 2h-2v-2h-2.02A4.98 4.98 0 0017 15a3.88 3.88 0 00-1.85-3.37C12.2 9.61 13 7 13 7c-6.73 3.57-6.02 7.47-6 8 .03.96.49 2.07 1.23 3H6v2H4V4h16v16z" /></svg>