<svg viewBox="64 64 896 896" focusable="false" xmlns="http://www.w3.org/2000/svg"><path d="M0 0h24v24H0z" /><path d="M3 16h1.78a2.99 2.99 0 014.44 0H12v-3H3v3zM14 16h.78a2.99 2.99 0 014.44 0H21v-3h-7v3z" opacity=".3" /><path d="M22.9 10.69l-1.44-4.32A2 2 0 0019.56 5H19V4a1 1 0 00-1-1h-1a1 1 0 00-1 1v1h-2a2 2 0 00-2 2v4H1v5c0 1.1.9 2 2 2h1a3 3 0 106 0h4a3 3 0 106 0h3v-6.68c0-.21-.03-.42-.1-.63zM7 19c-.55 0-1-.45-1-1s.45-1 1-1 1 .45 1 1-.45 1-1 1zm5-3H9.22a2.97 2.97 0 00-4.44 0H3v-3h9v3zm2-9h5.56l1.33 4H14V7zm3 12c-.55 0-1-.45-1-1s.45-1 1-1 1 .45 1 1-.45 1-1 1zm4-3h-1.78a2.99 2.99 0 00-4.44 0H14v-3h7v3z" /><path d="M11 8.5h-1v-2h1V5H1v1.5h1v2H1V10h10V8.5zm-5.75 0H3.5v-2h1.75v2zm3.25 0H6.75v-2H8.5v2z" /></svg>