<svg viewBox="64 64 896 896" focusable="false" xmlns="http://www.w3.org/2000/svg"><path d="M0 0h24v24H0z" /><path d="M16 6H8a2 2 0 00-2 2v10c0 1.1.9 2 2 2h8a2 2 0 002-2V8a2 2 0 00-2-2zm-4 12c-1.38 0-2.5-1.1-2.5-2.46 0-1.09.43-1.39 2.5-3.79 2.05 2.38 2.5 2.7 2.5 3.79A2.48 2.48 0 0112 18zm4-8H8V8h8v2z" opacity=".3" /><path d="M16 4h-1V2h-2v2h-2V2H9v2H8a4 4 0 00-4 4v10a4 4 0 004 4h8a4 4 0 004-4V8a4 4 0 00-4-4zm2 14a2 2 0 01-2 2H8a2 2 0 01-2-2V8c0-1.1.9-2 2-2h8a2 2 0 012 2v10z" /><path d="M9.5 15.54C9.5 16.9 10.62 18 12 18s2.5-1.1 2.5-2.46c0-1.09-.45-1.41-2.5-3.79-2.07 2.4-2.5 2.71-2.5 3.79zM8 8h8v2H8z" /></svg>