<svg viewBox="64 64 896 896" focusable="false" xmlns="http://www.w3.org/2000/svg"><path d="M0 0h24v24H0z" /><path d="M5 5v14h14V5H5zm4.5 8v-1h1v1a1 1 0 01-1 1h-1a1 1 0 01-1-1v-2a1 1 0 011-1h1a1 1 0 011 1h-2v2h1zm3 1h-1v-4h1v4zm4-3h-2v.5H16v1h-1.5V14h-1v-4h3v1z" opacity=".3" /><path d="M19 19H5V5h14v14zM5 3a2 2 0 00-2 2v14c0 1.1.9 2 2 2h14a2 2 0 002-2V5a2 2 0 00-2-2H5zm6.5 11h1v-4h-1v4zm2 0h1v-1.5H16v-1h-1.5V11h2v-1h-3v4zm-4-2v1h-1v-2h2a1 1 0 00-1-1h-1a1 1 0 00-1 1v2a1 1 0 001 1h1a1 1 0 001-1v-1h-1z" /></svg>