<svg viewBox="64 64 896 896" focusable="false" xmlns="http://www.w3.org/2000/svg"><path d="M0 0h24v24H0V0z" /><path d="M12 4a8.01 8.01 0 000 16 8.01 8.01 0 000-16zM8 16c-1.1 0-2-.9-2-2s.9-2 2-2 2 .9 2 2-.9 2-2 2zm4-6c-1.1 0-2-.9-2-2s.9-2 2-2 2 .9 2 2-.9 2-2 2zm4 6c-1.1 0-2-.9-2-2s.9-2 2-2 2 .9 2 2-.9 2-2 2z" opacity=".3" /><path d="M12 2a10 10 0 100 20 10 10 0 000-20zm0 18a8.01 8.01 0 010-16 8.01 8.01 0 010 16z" /><circle cx="8" cy="14" r="2" /><circle cx="12" cy="8" r="2" /><circle cx="16" cy="14" r="2" /></svg>