<svg viewBox="64 64 896 896" focusable="false" xmlns="http://www.w3.org/2000/svg"><path d="M0 0h24v24H0z" /><path d="M11.34 9.76L9.93 8.34a5 5 0 00-5.36-1.12l1.04 1.04h2.28v2.14c.4.23.86.35 1.33.35.73 0 1.41-.28 1.92-.8l.2-.19z" opacity=".3" /><path d="M11 6.62l6 5.97V14h-1.41l-2.83-2.83-.2.2c-.46.46-.99.8-1.56 1.03V15h6v2c0 .55.45 1 1 1s1-.45 1-1V6h-8v.62z" opacity=".3" /><path d="M9 4v1.38a6.97 6.97 0 00-7.56 1.55l3.33 3.33h1.11v1.11a4.67 4.67 0 003.11 1.36V15H6v3c0 1.1.9 2 2 2h10a3 3 0 003-3V4H9zm-1.11 6.41V8.26H5.61L4.57 7.22a5.07 5.07 0 015.36 1.12l1.41 1.41-.2.2a2.7 2.7 0 01-3.25.46zM19 17c0 .55-.45 1-1 1s-1-.45-1-1v-2h-6v-2.59c.57-.23 1.1-.57 1.56-1.03l.2-.2L15.59 14H17v-1.41l-6-5.97V6h8v11z" /></svg>