<svg viewBox="64 64 896 896" focusable="false" xmlns="http://www.w3.org/2000/svg"><path d="M0 0h24v24H0z" /><circle cx="12" cy="3.5" r=".75" /><circle cx="12" cy="3.5" r=".75" /><path d="M19 5H5M5 19h14" /><path d="M11 14.17L8.83 12 11 9.83 9.59 8.41 6 12l3.59 3.59zM14.41 15.59L18 12l-3.59-3.59L13 9.83 15.17 12 13 14.17z" /><path d="M19 3h-4.18C14.4 1.84 13.3 1 12 1s-2.4.84-2.82 2H5a2 2 0 00-2 2v14a2.05 2.05 0 00.59 1.42 2 2 0 001.01.55c.13.02.26.03.4.03h14a2 2 0 002-2V5a2 2 0 00-2-2zm-7-.25c.41 0 .75.34.75.75s-.34.75-.75.75-.75-.34-.75-.75.34-.75.75-.75zM19 19H5V5h14v14z" /><path d="M19 5H5M5 19h14" opacity=".3" /><path d="M5 5h14v14H5z" opacity=".3" /></svg>