<svg viewBox="64 64 896 896" focusable="false" xmlns="http://www.w3.org/2000/svg"><path d="M0 0h24v24H0z" /><path d="M12 14.83V19c-3.31 0-6-2.63-6-5.87 0-1.19.36-2.32 1.02-3.28L12 14.83zm0-10.02v4.37l-2.2-2.2L12 4.81" opacity=".3" /><path d="M21.19 21.19L2.81 2.81 1.39 4.22l4.2 4.2a7.73 7.73 0 00-1.6 4.7A7.95 7.95 0 0012 21c1.75 0 3.36-.56 4.67-1.5l3.1 3.1 1.42-1.41zM12 19c-3.31 0-6-2.63-6-5.87 0-1.19.36-2.32 1.02-3.28L12 14.83V19zM8.38 5.56L12 2l5.65 5.56a7.8 7.8 0 011.61 8.87L12 9.17V4.81L9.8 6.97 8.38 5.56z" /></svg>