<svg viewBox="64 64 896 896" focusable="false" xmlns="http://www.w3.org/2000/svg"><path d="M0 0h24v24H0V0zm0 0h24v24H0V0z" /><path d="M4 17h16V7H4v10zm13-9h2v2h-2V8zm0 3h2v2h-2v-2zm-3-3h2v2h-2V8zm0 3h2v2h-2v-2zm-3-3h2v2h-2V8zm0 3h2v2h-2v-2zM8 8h2v2H8V8zm0 3h2v2H8v-2zm0 3h8v2H8v-2zM5 8h2v2H5V8zm0 3h2v2H5v-2z" opacity=".3" /><path d="M20 5H4a2 2 0 00-1.99 2L2 17c0 1.1.9 2 2 2h16a2 2 0 002-2V7a2 2 0 00-2-2zm0 12H4V7h16v10zm-9-9h2v2h-2zm0 3h2v2h-2zM8 8h2v2H8zm0 3h2v2H8zm-3 0h2v2H5zm0-3h2v2H5zm3 6h8v2H8zm6-3h2v2h-2zm0-3h2v2h-2zm3 3h2v2h-2zm0-3h2v2h-2z" /></svg>