<svg viewBox="64 64 896 896" focusable="false" xmlns="http://www.w3.org/2000/svg"><path d="M0 0h24v24H0z" /><path d="M12 4a8.01 8.01 0 000 16 8.01 8.01 0 000-16zm0 15a1.5 1.5 0 01-1.5-1.5h3c0 .83-.67 1.5-1.5 1.5zm3-2.5H9V15h6v1.5zm-.03-2.5H9.03a5 5 0 115.94 0z" opacity=".3" /><path d="M12 2a10 10 0 100 20 10 10 0 000-20zm0 18a8.01 8.01 0 010-16 8.01 8.01 0 010 16z" /><path d="M12 19c.83 0 1.5-.67 1.5-1.5h-3c0 .83.67 1.5 1.5 1.5zM9 15h6v1.5H9zM12 5a5 5 0 00-2.97 9h5.95A4.98 4.98 0 0012 5zm2.43 7.5H9.57A3.47 3.47 0 018.5 10a3.5 3.5 0 017 0c0 .95-.39 1.84-1.07 2.5z" /></svg>