<svg viewBox="64 64 896 896" focusable="false" xmlns="http://www.w3.org/2000/svg"><path d="M0 0h24v24H0V0z" /><path d="M19 17.13v-6.95c-2.1.38-4.05 1.35-5.64 2.83L12 14.28l-1.36-1.27A11.18 11.18 0 005 10.18v6.95a15.1 15.1 0 017 2.83 15.24 15.24 0 017-2.83z" opacity=".3" /><circle cx="12" cy="5" opacity=".3" r="2" /><path d="M16 5a4 4 0 10-8 0 4 4 0 008 0zm-6 0c0-1.1.9-2 2-2s2 .9 2 2-.9 2-2 2-2-.9-2-2zM3 19c3.48 0 6.64 1.35 9 3.55A13.2 13.2 0 0121 19V8c-3.48 0-6.64 1.35-9 3.55A13.15 13.15 0 003 8v11zm2-8.82c2.1.38 4.05 1.35 5.64 2.83L12 14.28l1.36-1.27A11.18 11.18 0 0119 10.18v6.95c-2.53.34-4.93 1.3-7 2.82a15.2 15.2 0 00-7-2.83v-6.94z" /></svg>