<svg viewBox="64 64 896 896" focusable="false" xmlns="http://www.w3.org/2000/svg"><path d="M0 0h24v24H0z" /><path d="M6 10v10h5.29A7 7 0 0118 11v-1H6z" opacity=".3" /><path d="M6 20V10h12v1c.7 0 1.37.1 2 .29V10a2 2 0 00-2-2h-1V6A5 5 0 007 6v2H6a2 2 0 00-2 2v10c0 1.1.9 2 2 2h6.26a7.13 7.13 0 01-.97-2H6zM9 6a3 3 0 116 0v2H9V6z" /><path d="M18 13a5 5 0 100 10 5 5 0 000-10zm0 2a1.5 1.5 0 110 3 1.5 1.5 0 010-3zm0 6a2.98 2.98 0 01-2.48-1.32c.73-.42 1.57-.68 2.48-.68s1.75.26 2.48.68A2.98 2.98 0 0118 21z" /></svg>