<svg viewBox="64 64 896 896" focusable="false" xmlns="http://www.w3.org/2000/svg"><path d="M0 0h24v24H0V0z" /><path d="M12 4a8 8 0 100 16 8 8 0 000-16zm3.5 4a1.5 1.5 0 110 3 1.5 1.5 0 010-3zm-7 0a1.5 1.5 0 110 3 1.5 1.5 0 010-3zm-1.61 9a5.5 5.5 0 0110.22 0H6.89z" opacity=".3" /><circle cx="8.5" cy="9.5" r="1.5" /><path d="M11.99 2A10 10 0 1012 21.99 10 10 0 0011.99 2zM12 20a8 8 0 110-16 8 8 0 010 16zm0-6.5A5.5 5.5 0 006.89 17h10.22A5.5 5.5 0 0012 13.5z" /><circle cx="15.5" cy="9.5" r="1.5" /></svg>