<svg viewBox="64 64 896 896" focusable="false" xmlns="http://www.w3.org/2000/svg"><path d="M0 0h24v24H0z" /><path d="M8.1 14.15a4.01 4.01 0 012.42 5.72 7.99 7.99 0 005.61-1.01A12.13 12.13 0 019.33 13a11.53 11.53 0 01-1.04-8.1 7.97 7.97 0 00-4.3 7.1h.02a5 5 0 014.09 2.15z" opacity=".3" /><path d="M19.78 17.51c-2.47 0-6.57-1.33-8.68-5.43a9.97 9.97 0 01.53-10.07A10 10 0 001.98 12l.02.42A5.05 5.05 0 013.98 12a7.97 7.97 0 014.3-7.1c-.5 2.19-.54 5.04 1.04 8.1a12.09 12.09 0 006.8 5.86 8 8 0 01-5.61 1.01c-.37.7-.94 1.27-1.64 1.64a10.03 10.03 0 0011.48-4.02 9.8 9.8 0 01-.57.02z" /><path d="M7 16h-.18A3 3 0 104 20h3c1.1 0 2-.9 2-2s-.9-2-2-2z" /></svg>