<svg viewBox="64 64 896 896" focusable="false" xmlns="http://www.w3.org/2000/svg"><path d="M0 0h24v24H0z" /><path d="M10.94 8.12L8.9 6.07 9.88 5h4.24l1.83 2H20v10.17l-3.12-3.12a5 5 0 00-5.94-5.93zM12 18a5 5 0 01-4.32-7.49L4.17 7H4v12h12.17l-1.68-1.68c-.73.43-1.58.68-2.49.68z" opacity=".3" /><path d="M8.9 6.07L7.48 4.66 9 3h6l1.83 2H20a2 2 0 012 2v12l-.02.16L20 17.17V7h-4.05l-1.83-2H9.88L8.9 6.07zm11.59 17.24L18.17 21H4a2 2 0 01-2-2V7c0-.59.27-1.12.68-1.49l-2-2L2.1 2.1 7 7l2.01 2.01 1.43 1.43 4.1 4.1 1.43 1.43L19 19l1.82 1.82 1.08 1.08-1.41 1.41zM9.19 12.02A2.9 2.9 0 009 13a3 3 0 003 3c.35 0 .67-.08.98-.19l-3.79-3.79zM16.17 19l-1.68-1.68a5 5 0 01-6.81-6.81L4.17 7H4v12h12.17zm-1.36-7.02l2.08 2.08a5 5 0 00-5.95-5.94l2.08 2.08a3 3 0 011.79 1.78z" /></svg>