<svg viewBox="64 64 896 896" focusable="false" xmlns="http://www.w3.org/2000/svg"><path d="M0 0h24v24H0V0z" /><path d="M18.5 10.2c0 2.57-2.1 5.79-6.16 9.51l-.34.3-.34-.31C7.6 15.99 5.5 12.77 5.5 10.2c0-3.84 2.82-6.7 6.5-6.7s6.5 2.85 6.5 6.7z" fill-opacity=".3" /><path d="M12.01 16a.99.99 0 01-1-1 .99.99 0 01.98-1h.02c.28 0 .51.1.71.29a1 1 0 01-.01 1.41c-.19.2-.43.3-.7.3zm-.88-3.66c0-.45.1-.84.29-1.16a5 5 0 011-1.12c.28-.25.48-.47.61-.66s.19-.4.19-.64a1 1 0 00-.32-.74c-.21-.2-.5-.3-.85-.3-.37 0-.74.1-.96.3-.21.2-.4.45-.4.98H9a3 3 0 013-3c.59 0 1.11.12 1.57.35A2.57 2.57 0 0115 8.66c0 .49-.1.9-.31 1.25s-.48.71-.89 1.09c-.32.3-.53.56-.65.77s-.18.49-.18.81V13h-1.85v-.66h.01zM18 10.2C18 6.57 15.35 4 12 4s-6 2.57-6 6.2c0 2.34 1.95 5.44 6 9.14 4.05-3.7 6-6.8 6-9.14zM12 2c4.2 0 8 3.22 8 8.2 0 3.32-2.67 7.25-8 11.8-5.33-4.55-8-8.48-8-11.8C4 5.22 7.8 2 12 2z" /></svg>