<svg viewBox="64 64 896 896" focusable="false" xmlns="http://www.w3.org/2000/svg"><path d="M0 0h24v24H0V0z" /><path d="M12 6.5c-2.49 0-4 2.02-4 4.5v6h8v-6c0-2.48-1.51-4.5-4-4.5z" opacity=".3" /><path d="M12 22a2 2 0 002-2h-4c0 1.1.9 2 2 2zm6-11c0-3.07-1.63-5.64-4.5-6.32V4a1.5 1.5 0 10-3 0v.68C7.64 5.36 6 7.92 6 11v5l-2 2v1h16v-1l-2-2v-5zm-2 6H8v-6c0-2.48 1.51-4.5 4-4.5s4 2.02 4 4.5v6zM7.58 4.08L6.15 2.65a10.43 10.43 0 00-4.12 7.85h2a8.45 8.45 0 013.55-6.42zm12.39 6.42h2a10.49 10.49 0 00-4.12-7.85l-1.42 1.43a8.5 8.5 0 013.54 6.42z" /></svg>