<svg viewBox="64 64 896 896" focusable="false" xmlns="http://www.w3.org/2000/svg"><path d="M0 0h24v24H0V0z" /><path d="M8 17h8v-.24L8.34 9.1A5.34 5.34 0 008 11v6zm4-10.5c-.19 0-.37.03-.55.06L16 11.1V11c0-2.48-1.51-4.5-4-4.5z" opacity=".3" /><path d="M12 22a2 2 0 002-2h-4c0 1.1.9 2 2 2zm0-15.5c2.49 0 4 2.02 4 4.5v.1l2 2V11c0-3.07-1.63-5.64-4.5-6.32V4a1.5 1.5 0 10-3 0v.68c-.24.06-.47.15-.69.23l1.64 1.64c.18-.02.36-.05.55-.05zM5.41 3.35L4 4.76l2.81 2.81C6.29 8.57 6 9.74 6 11v5l-2 2v1h14.24l1.74 1.74 1.41-1.41L5.41 3.35zM16 17H8v-6c0-.68.12-1.32.34-1.9L16 16.76V17z" /></svg>