<svg viewBox="64 64 896 896" focusable="false" xmlns="http://www.w3.org/2000/svg"><path d="M0 0h24v24H0z" /><path d="M4 6.38v11.25a27.75 27.75 0 018-1.13c3.38 0 5.99.54 8 1.13V6.37a27.8 27.8 0 01-8 1.13c-2.68 0-5.42-.39-8-1.12z" opacity=".3" /><path d="M21.01 4C20.45 4 17.4 5.5 12 5.5c-5.31 0-8.49-1.49-9.01-1.49A1 1 0 002 5.02V19a1 1 0 00.99 1c.57 0 3.55-1.5 9.01-1.5 5.42 0 8.44 1.5 9.01 1.5a1 1 0 00.99-1V5a1 1 0 00-.99-1zM20 17.63a27.8 27.8 0 00-8-1.13c-3.39 0-5.99.54-8 1.13V6.38c2.58.73 5.32 1.12 8 1.12 3.38 0 5.99-.54 8-1.13v11.26z" /></svg>