<svg viewBox="64 64 896 896" focusable="false" xmlns="http://www.w3.org/2000/svg"><path d="M0 0h24v24H0V0z" /><path d="M6.54 4a28.1 28.1 0 010 16h10.91a28.1 28.1 0 010-16H6.54z" opacity=".3" /><path d="M19.94 21.12a26.01 26.01 0 010-18.24.94.94 0 00.06-.31c0-.34-.23-.57-.63-.57H4.63c-.4 0-.63.23-.63.57 0 .1.02.2.06.31a26.02 26.02 0 01.01 18.24.76.76 0 00-.07.31c0 .33.23.57.63.57h14.75c.39 0 .63-.24.63-.57-.01-.1-.03-.2-.07-.31zM17.45 20H6.54a28.1 28.1 0 000-16h10.91a28.1 28.1 0 000 16z" /></svg>