<svg viewBox="64 64 896 896" focusable="false" xmlns="http://www.w3.org/2000/svg"><path d="M0 0h24v24H0V0z" /><path d="M15.95 6l-.59-.65L14.12 4H9.88L8.65 5.35l-.6.65H4v12h16V6h-4.05zM7 12a5 5 0 018.98-3H12a3 3 0 00-2.82 4H7.1c-.06-.32-.1-.66-.1-1zm10 0a5 5 0 01-8.98 3H12a3 3 0 002.82-4h2.08c.07.32.1.66.1 1z" opacity=".3" /><path d="M20 4h-3.17L15 2H9L7.17 4H4a2 2 0 00-2 2v12c0 1.1.9 2 2 2h16a2 2 0 002-2V6a2 2 0 00-2-2zm0 14H4V6h4.05l.59-.65L9.88 4h4.24l1.24 1.35.59.65H20v12zM9 12a3 3 0 013-3h3.98a4.99 4.99 0 00-8.88 4h2.08A3 3 0 019 12zm6 0a3 3 0 01-3 3H8.02a4.99 4.99 0 008.88-4h-2.08a3 3 0 01.18 1z" /></svg>