<svg viewBox="64 64 896 896" focusable="false" xmlns="http://www.w3.org/2000/svg"><path d="M0 0h24v24H0V0z" /><path d="M4 6c0-1.1.9-2 2-2s2 .9 2 2-.9 2-2 2-2-.9-2-2zm2 8c1.1 0 2-.9 2-2s-.9-2-2-2-2 .9-2 2 .9 2 2 2zm6-6c1.1 0 2-.9 2-2s-.9-2-2-2-2 .9-2 2 .9 2 2 2zm6 2c-1.1 0-2 .9-2 2s.9 2 2 2 2-.9 2-2-.9-2-2-2zm-.02 6c-.74 0-1.37.4-1.72 1h-2.54a1.98 1.98 0 00-3.44 0H8.41l3.07-3.07a2 2 0 002.45-2.44l3.56-3.56A2 2 0 0020 6c0-1.1-.9-2-2-2a2 2 0 00-1.93 2.51l-3.56 3.56a2 2 0 00-2.44 2.44l-3.56 3.56A2 2 0 004 18c0 1.1.9 2 2 2 .74 0 1.37-.4 1.72-1h2.57a1.98 1.98 0 003.44 0h2.55c.34.6.98 1 1.72 1a2 2 0 002-2c-.02-1.1-.92-2-2.02-2z" /></svg>