<svg viewBox="64 64 896 896" focusable="false" xmlns="http://www.w3.org/2000/svg"><path d="M0 0h24v24H0V0z" /><path d="M16.11 7l-.59-.65L14.28 5h-4.24L8.81 6.35l-.6.65H4v12h7v-1.09A6 6 0 016 12h2a4 4 0 108 0h2a6 6 0 01-5 5.91V19h7V7h-3.89zM14 12c0 1.1-.9 2-2 2s-2-.9-2-2V8c0-1.1.9-2 2-2s2 .9 2 2v4z" opacity=".3" /><path d="M12 6a2 2 0 00-2 2v4c0 1.1.9 2 2 2s2-.9 2-2V8a2 2 0 00-2-2zm8-1h-3.17l-1.86-2H8.96L7.17 5H4a2 2 0 00-2 2v12c0 1.1.9 2 2 2h16a2 2 0 002-2V7a2 2 0 00-2-2zm0 14h-7v-1.09A6 6 0 0018 12h-2a4 4 0 11-8 0H6a6 6 0 005 5.91V19H4V7h4.21l.59-.65L10.04 5h4.24l1.24 1.35.59.65H20v12z" /></svg>