<svg viewBox="64 64 896 896" focusable="false" xmlns="http://www.w3.org/2000/svg"><path d="M0 0h24v24H0z" /><path d="M4 18c.22-.72 3.31-2 6-2 0-.7.13-1.37.35-1.99C7.62 13.91 2 15.27 2 18v2h9.54a5.87 5.87 0 01-1.19-2H4zM10 13a4 4 0 100-8 4 4 0 000 8zm0-6a2 2 0 110 4 2 2 0 010-4z" /><path d="M10.35 18s-.35-.79-.35-2c-2.69 0-5.77 1.28-6 2h6.35z" opacity=".3" /><path d="M19.43 18.02a4 4 0 10-1.41 1.41L20.59 22 22 20.59l-2.57-2.57zM16 18a2 2 0 01-2-2c0-1.1.9-2 2-2s2 .9 2 2a2 2 0 01-2 2z" /><g opacity=".3"><circle cx="10" cy="9" r="2" /></g></svg>