<svg viewBox="64 64 896 896" focusable="false" xmlns="http://www.w3.org/2000/svg"><path d="M0 0h24v24H0V0z" /><path d="M4 6H2v14c0 1.1.9 2 2 2h14v-2H4V6z" /><path d="M10 9h1v1h-1zm4 0h1v3h-1zm-6 7h12V4H8v12zm9-8h2v1h-1v1h1v1h-1v2h-1V8zm-4 0h2a1 1 0 011 1v3a1 1 0 01-1 1h-2V8zM9 8h2a1 1 0 011 1v1a1 1 0 01-1 1h-1v2H9V8z" opacity=".3" /><path d="M20 2H8a2 2 0 00-2 2v12c0 1.1.9 2 2 2h12a2 2 0 002-2V4a2 2 0 00-2-2zm0 14H8V4h12v12zm-4-4V9a1 1 0 00-1-1h-2v5h2a1 1 0 001-1zm-2-3h1v3h-1V9zm4 2h1v-1h-1V9h1V8h-2v5h1zm-8 0h1a1 1 0 001-1V9a1 1 0 00-1-1H9v5h1v-2zm0-2h1v1h-1V9z" /></svg>