<svg viewBox="64 64 896 896" focusable="false" xmlns="http://www.w3.org/2000/svg"><path d="M0 0h24v24H0z" /><path d="M13 4H6v16h12V9h-5V4zm.97 7.03a3.48 3.48 0 01.59 4.13l1.88 1.88-1.41 1.41-1.88-1.88a3.5 3.5 0 11.82-5.54z" opacity=".3" /><circle cx="11.5" cy="13.5" opacity=".3" r="1.5" /><path d="M14 2H6a2 2 0 00-2 2v16a2 2 0 001.99 2H18a2 2 0 002-2V8l-6-6zm4 18H6V4h7v5h5v11z" /><path d="M9.03 11.03a3.5 3.5 0 004.13 5.54l1.88 1.88 1.41-1.41-1.88-1.88a3.5 3.5 0 00-5.54-4.13zm3.53 3.53a1.5 1.5 0 01-2.12 0 1.5 1.5 0 010-2.12 1.5 1.5 0 012.12 0 1.5 1.5 0 010 2.12z" /></svg>