<svg viewBox="64 64 896 896" focusable="false" xmlns="http://www.w3.org/2000/svg"><path d="M0 0h24v24H0z" /><path d="M5 6.3V11c0 4.52 2.98 8.69 7 9.93a9.51 9.51 0 004.47-3.04l-1.72-1.72a5 5 0 111.42-1.42l1.45 1.45A10.68 10.68 0 0019 11V6.3l-7-3.11L5 6.3z" opacity=".3" /><path d="M12 1L3 5v6c0 5.55 3.84 10.74 9 12 .65-.16 1.27-.38 1.87-.65 1.8-.82 3.36-2.13 4.57-3.74A12.86 12.86 0 0021 11V5l-9-4zm7 10c0 1.85-.51 3.65-1.38 5.21l-1.45-1.45a5 5 0 10-1.42 1.42l1.72 1.72A9.51 9.51 0 0112 20.94C7.98 19.69 5 15.52 5 11V6.3l7-3.11 7 3.11V11zm-4 1a3 3 0 11-6 0 3 3 0 016 0z" /></svg>