<svg viewBox="64 64 896 896" focusable="false" xmlns="http://www.w3.org/2000/svg"><path d="M0 0h24v24H0V0z" /><path d="M14.99 4.59V5a2 2 0 01-2 2h-2v2a1 1 0 01-1 1h-2v2h6a1 1 0 011 1v3h1a2 2 0 011.9 1.4 8 8 0 00-2.9-12.81zM8.99 16v-1l-4.78-4.78a8.01 8.01 0 006.78 9.71V18a2 2 0 01-2-2z" opacity=".3" /><path d="M12 2a10 10 0 100 20 10 10 0 000-20zm-1.01 17.93a8.01 8.01 0 01-6.78-9.71L8.99 15v1c0 1.1.9 2 2 2v1.93zm6.9-2.53a2 2 0 00-1.9-1.4h-1v-3a1 1 0 00-1-1h-6v-2h2a1 1 0 001-1V7h2a2 2 0 002-2v-.41a8 8 0 012.9 12.81z" /></svg>