<svg viewBox="64 64 896 896" focusable="false" xmlns="http://www.w3.org/2000/svg"><path d="M0 0h24v24H0V0z" /><g opacity=".3"><circle cx="9" cy="9" r="2" /><path d="M9 17c-2.69 0-5.77 1.28-6 2h12c-.2-.71-3.3-2-6-2z" /></g><path d="M9 13a4 4 0 100-8 4 4 0 000 8zm0-6c1.1 0 2 .9 2 2s-.9 2-2 2-2-.9-2-2 .9-2 2-2zm0 8c-2.67 0-8 1.34-8 4v2h16v-2c0-2.66-5.33-4-8-4zm-6 4c.22-.72 3.31-2 6-2 2.7 0 5.8 1.29 6 2H3zM16.76 5.36l-1.68 1.69a3.32 3.32 0 010 3.89l1.68 1.69c2.02-2.02 2.02-5.07 0-7.27zM20.07 2l-1.63 1.63a7.98 7.98 0 010 10.74L20.07 16c3.9-3.89 3.91-9.95 0-14z" /></svg>