<svg viewBox="64 64 896 896" focusable="false" xmlns="http://www.w3.org/2000/svg"><path d="M0 0h24v24H0z" /><path d="M12 4a8.01 8.01 0 000 16 8.01 8.01 0 000-16zm5.9 8.3l-2.1 4.9c-.22.51-.74.83-1.3.8H9a2 2 0 01-2-2v-5a1.3 1.3 0 01.4-1L12 5l.69.69c.18.19.29.44.3.7v.2L12.41 10H17a1 1 0 011 1v.8a.87.87 0 01-.1.5z" opacity=".3" /><path d="M12 2a10 10 0 100 20 10 10 0 000-20zm0 18a8.01 8.01 0 010-16 8.01 8.01 0 010 16z" /><path d="M17 10h-4.59l.58-3.41v-.2a1.09 1.09 0 00-.3-.7L12 5l-4.6 5a1.3 1.3 0 00-.4 1v5c0 1.1.9 2 2 2h5.5c.56.03 1.08-.29 1.3-.8l2.1-4.9a.87.87 0 00.1-.5V11a1 1 0 00-1-1z" /></svg>