<svg viewBox="64 64 896 896" focusable="false" xmlns="http://www.w3.org/2000/svg"><path d="M0 0h24v24H0z" /><path d="M10 8a4 4 0 00-4 4v8h8v-8a4 4 0 00-4-4zm3 8h-2v2H9v-2H7v-2h2v-2h2v2h2v2z" opacity=".3" /><path d="M15.5 6.5C15.5 5.66 17 4 17 4s1.5 1.66 1.5 2.5a1.5 1.5 0 11-3 0zm4 8.5a2.5 2.5 0 002.5-2.5c0-1.67-2.5-4.5-2.5-4.5S17 10.83 17 12.5a2.5 2.5 0 002.5 2.5zM13 14h-2v-2H9v2H7v2h2v2h2v-2h2v-2zm3-2v8a2 2 0 01-2 2H6a2 2 0 01-2-2v-8a6 6 0 015-5.91V4H7V2h6a5 5 0 012.99 1.01l-1.43 1.43A3.08 3.08 0 0013 4h-2v2.09A6 6 0 0116 12zm-2 0a4 4 0 10-8 0v8h8v-8z" /></svg>