<svg viewBox="64 64 896 896" focusable="false" xmlns="http://www.w3.org/2000/svg"><path d="M0 0h24v24H0V0z" /><circle cx="11" cy="6" opacity=".3" r="2" /><circle cx="16.6" cy="17.6" opacity=".3" r="2" /><circle cx="7" cy="14" opacity=".3" r="2" /><path d="M7 10a4 4 0 100 8 4 4 0 000-8zm0 6c-1.1 0-2-.9-2-2s.9-2 2-2 2 .9 2 2-.9 2-2 2zm8-10a4 4 0 10-8 0 4 4 0 008 0zm-4 2c-1.1 0-2-.9-2-2s.9-2 2-2 2 .9 2 2-.9 2-2 2zm5.6 5.6a4 4 0 100 8 4 4 0 000-8zm0 6c-1.1 0-2-.9-2-2s.9-2 2-2 2 .9 2 2-.9 2-2 2z" /></svg>