<svg viewBox="64 64 896 896" focusable="false" xmlns="http://www.w3.org/2000/svg"><path d="M0 0h24v24H0V0z" /><path d="M22.3 13.77l-2.57-2.57-1.41 1.41 2.22 2.22-5.66 5.66L3.56 9.17l5.66-5.66 2.1 2.1 1.41-1.41-2.45-2.45a1.5 1.5 0 00-2.12 0L1.8 8.11a1.5 1.5 0 000 2.12l12.02 12.02a1.5 1.5 0 002.12 0l6.36-6.36a1.5 1.5 0 000-2.12zM7.52 21.48A10.49 10.49 0 011.55 13H.05A12 12 0 0012 24l.66-.03-3.81-3.82-1.33 1.33zM15.05 10h5a1 1 0 001-1V5a1 1 0 00-1-1v-.5a2.5 2.5 0 00-5 0V4a1 1 0 00-1 1v4a1 1 0 001 1zm.8-6.5a1.7 1.7 0 113.4 0V4h-3.4v-.5z" /></svg>