<svg viewBox="64 64 896 896" focusable="false" xmlns="http://www.w3.org/2000/svg"><path d="M0 0h24v24H0V0z" /><path d="M13.2 10c0-.66-.54-1.2-1.2-1.2s-1.2.54-1.2 1.2v1h2.4v-1zM5 17h14V7H5v10zm4-5a1 1 0 011-1v-1a2 2 0 114 0v1a1 1 0 011 1v3a1 1 0 01-1 1h-4a1 1 0 01-1-1v-3z" opacity=".3" /><path d="M10 16h4a1 1 0 001-1v-3a1 1 0 00-1-1v-1a2 2 0 10-4 0v1a1 1 0 00-1 1v3a1 1 0 001 1zm.8-6c0-.66.54-1.2 1.2-1.2s1.2.54 1.2 1.2v1h-2.4v-1zM21 5H3a2 2 0 00-2 2v10c0 1.1.9 2 2 2h18a2 2 0 002-2V7a2 2 0 00-2-2zm-2 12H5V7h14v10z" /></svg>