<svg viewBox="64 64 896 896" focusable="false" xmlns="http://www.w3.org/2000/svg"><path d="M0 0h24v24H0V0z" /><path d="M12 4a8 8 0 100 16 8 8 0 000-16zM6.76 8.82l1.06-1.06 1.06 1.06 1.06-1.06L11 8.82 9.94 9.88 11 10.94 9.94 12l-1.06-1.06L7.82 12l-1.06-1.06 1.06-1.06-1.06-1.06zM6.89 17a5.5 5.5 0 0110.22 0H6.89zm10.35-6.06L16.18 12l-1.06-1.06L14.06 12 13 10.94l1.06-1.06L13 8.82l1.06-1.06 1.06 1.06 1.06-1.06 1.06 1.06-1.06 1.06 1.06 1.06z" opacity=".3" /><path d="M12 13.5A5.5 5.5 0 006.89 17h10.22A5.5 5.5 0 0012 13.5zM7.82 12l1.06-1.06L9.94 12 11 10.94 9.94 9.88 11 8.82 9.94 7.76 8.88 8.82 7.82 7.76 6.76 8.82l1.06 1.06-1.06 1.06zm4.17-10a9.99 9.99 0 100 20 10 10 0 100-20zM12 20a8 8 0 110-16 8 8 0 010 16zm4.18-12.24l-1.06 1.06-1.06-1.06L13 8.82l1.06 1.06L13 10.94 14.06 12l1.06-1.06L16.18 12l1.06-1.06-1.06-1.06 1.06-1.06z" /></svg>