<svg viewBox="64 64 896 896" focusable="false" xmlns="http://www.w3.org/2000/svg"><path d="M0 0h24v24H0V0z" /><path d="M12 4a8 8 0 100 16 8 8 0 000-16zm3.5 4a1.5 1.5 0 110 3 1.5 1.5 0 010-3zm-7 0a1.5 1.5 0 110 3 1.5 1.5 0 010-3zm6.95 9.5a3.98 3.98 0 00-6.9 0H6.88a5.5 5.5 0 0110.24 0h-1.67z" opacity=".3" /><circle cx="15.5" cy="9.5" r="1.5" /><circle cx="8.5" cy="9.5" r="1.5" /><path d="M11.99 2A10 10 0 1012 21.99 10 10 0 0011.99 2zM12 20a8 8 0 110-16 8 8 0 010 16zm0-6a5.5 5.5 0 00-5.12 3.5h1.67a3.98 3.98 0 016.9 0h1.67A5.5 5.5 0 0012 14z" /></svg>