<svg viewBox="64 64 896 896" focusable="false" xmlns="http://www.w3.org/2000/svg"><path d="M0 0h24v24H0V0z" /><path d="M12 3c-4.96 0-9 4.04-9 9s4.04 9 9 9 9-4.04 9-9-4.04-9-9-9zm-7 8.5a1.5 1.5 0 113 0 1.5 1.5 0 01-3 0zM8.5 18a1.5 1.5 0 110-3 1.5 1.5 0 010 3zm2-10a1.5 1.5 0 110-3h3a1.5 1.5 0 110 3h-3zm5 10a1.5 1.5 0 110-3 1.5 1.5 0 010 3zm2-5a1.5 1.5 0 110-3 1.5 1.5 0 010 3z" opacity=".3" /><path d="M15 6.5c0-.83-.67-1.5-1.5-1.5h-3a1.5 1.5 0 100 3h3c.83 0 1.5-.67 1.5-1.5z" /><circle cx="15.5" cy="16.5" r="1.5" /><circle cx="17.5" cy="11.5" r="1.5" /><path d="M12 1a11 11 0 10.01 22.01A11 11 0 0012 1zm0 20c-4.96 0-9-4.04-9-9s4.04-9 9-9 9 4.04 9 9-4.04 9-9 9z" /><circle cx="6.5" cy="11.5" r="1.5" /><circle cx="8.5" cy="16.5" r="1.5" /></svg>