<svg viewBox="64 64 896 896" focusable="false" xmlns="http://www.w3.org/2000/svg"><path d="M0 0h24v24H0z" /><path d="M13 3c0-1.1.9-2 2-2s2 .9 2 2-.9 2-2 2-2-.9-2-2zM7.25 22.5c-.41 0-.75.34-.75.75s.34.75.75.75.75-.34.75-.75-.34-.75-.75-.75zm8.5 0c-.41 0-.75.34-.75.75s.34.75.75.75.75-.34.75-.75-.34-.75-.75-.75zm3.49-3.5a.72.72 0 00-.59.3 3 3 0 01-2.4 1.2H16v-6l-4.32-2.67 1.8-2.89A6.5 6.5 0 0019 12v-2a4.5 4.5 0 01-4.13-2.72l-.52-1.21A1.83 1.83 0 0012.7 5H7L4.5 9l1.7 1.06L8.1 7h2.35l-2.4 3.84a2 2 0 00-.21 1.67l1.34 4.14-3.12 3.76c-.7-.16-1.3-.57-1.71-1.12a.76.76 0 00-.6-.29.75.75 0 00-.6 1.2 4.47 4.47 0 003.6 1.8h9.5c1.47 0 2.78-.7 3.6-1.8.1-.14.15-.3.15-.45a.76.76 0 00-.76-.75zM14 20.5H8.6l2.9-3.5-1-3.3 3.5 2.2v4.6z" /></svg>