<svg viewBox="64 64 896 896" focusable="false" xmlns="http://www.w3.org/2000/svg"><path d="M0 0h24v24H0V0z" /><path d="M2 16h15v3H2v-3zm18.5 0H22v3h-1.5v-3zM18 16h1.5v3H18v-3zm.85-8.27A3.35 3.35 0 0016.5 2v1.5a1.85 1.85 0 010 3.7v1.5c2.24 0 4 1.83 4 4.07V15H22v-2.24a5.55 5.55 0 00-3.15-5.03zm-2.82 2.47H14.5c-1.02 0-1.85-.98-1.85-2s.83-1.75 1.85-1.75v-1.5a3.35 3.35 0 000 6.7h1.53c1.05 0 1.97.74 1.97 2.05V15h1.5v-1.64c0-1.81-1.6-3.16-3.47-3.16z" opacity=".3" /><path d="M2 16h15v3H2v-3zm18.5 0H22v3h-1.5v-3zM18 16h1.5v3H18v-3zm.85-8.27A3.35 3.35 0 0016.5 2v1.5a1.85 1.85 0 010 3.7v1.5c2.24 0 4 1.83 4 4.07V15H22v-2.24a5.55 5.55 0 00-3.15-5.03zm-2.82 2.47H14.5c-1.02 0-1.85-.98-1.85-2s.83-1.75 1.85-1.75v-1.5a3.35 3.35 0 000 6.7h1.53c1.05 0 1.97.74 1.97 2.05V15h1.5v-1.64c0-1.81-1.6-3.16-3.47-3.16z" /></svg>