<svg viewBox="64 64 896 896" focusable="false" xmlns="http://www.w3.org/2000/svg"><path d="M0 0h24v24H0z" /><path d="M12 14a5 5 0 100-10 5 5 0 000 10zm2-7a1 1 0 011 1c0 .55-.45 1-1 1s-1-.45-1-1a1 1 0 011-1zm-2-2a1 1 0 011 1c0 .55-.45 1-1 1s-1-.45-1-1a1 1 0 011-1zm-2 2a1 1 0 011 1c0 .55-.45 1-1 1s-1-.45-1-1a1 1 0 011-1z" opacity=".3" /><path d="M12 16a7 7 0 10.01-13.99A7 7 0 0012 16zm0-12a5 5 0 110 10 5 5 0 010-10z" /><circle cx="10" cy="8" r="1" /><circle cx="14" cy="8" r="1" /><circle cx="12" cy="6" r="1" /><path d="M7 19h2a2 2 0 012 2v1h2v-1c0-1.1.9-2 2-2h2v-2H7v2z" /></svg>