<svg viewBox="64 64 896 896" focusable="false" xmlns="http://www.w3.org/2000/svg"><path d="M0 0h24v24H0z" /><path d="M5.61 7.22a7.86 7.86 0 000 9.56 5.98 5.98 0 000-9.56z" opacity=".3" /><path d="M14 12a7.99 7.99 0 013-6.24 7.96 7.96 0 00-10 0 7.97 7.97 0 010 12.48 7.96 7.96 0 0010 0A7.99 7.99 0 0114 12z" opacity=".3" /><path d="M18.39 7.22a5.98 5.98 0 000 9.56 7.86 7.86 0 000-9.56z" opacity=".3" /><path d="M12 2a10 10 0 100 20 10 10 0 000-20zM5.61 16.78a7.86 7.86 0 010-9.56 5.98 5.98 0 010 9.56zM12 20a7.96 7.96 0 01-5-1.76A7.97 7.97 0 007 5.76a7.96 7.96 0 0110 0 7.97 7.97 0 000 12.48A7.96 7.96 0 0112 20zm6.39-3.22a5.98 5.98 0 010-9.56 7.86 7.86 0 010 9.56z" /></svg>