<svg viewBox="64 64 896 896" focusable="false" xmlns="http://www.w3.org/2000/svg"><path d="M0 0h24v24H0V0z" /><circle cx="12" cy="12" opacity=".3" r="2" /><path d="M17.2 9a6.01 6.01 0 00-10.7 5.4l.3.6a6.01 6.01 0 0010.4-6zM12 16a4 4 0 110-8 4 4 0 010 8z" opacity=".3" /><path d="M12 8a4 4 0 100 8 4 4 0 000-8zm0 6c-1.1 0-2-.9-2-2s.9-2 2-2 2 .9 2 2-.9 2-2 2z" /><path d="M18.93 8a8.02 8.02 0 00-14.09.44c-.13-2.2.22-4.4 1.02-6.44H3.74a16.92 16.92 0 001.33 14 7.99 7.99 0 0014.09-.44c.13 2.2-.21 4.4-1.01 6.44h2.11a16.96 16.96 0 00-1.33-14zM15 17.2A6.01 6.01 0 019 6.8a6.01 6.01 0 016 10.4z" /></svg>