<svg viewBox="64 64 896 896" focusable="false" xmlns="http://www.w3.org/2000/svg"><path d="M0 0h24v24H0V0z" /><circle cx="9" cy="8.5" opacity=".3" r="1.5" /><path d="M4.77 17h4.28c.01-.06.12-.58.29-.99L9 16c-1.53 0-3.25.5-4.23 1z" opacity=".3" /><path d="M9 12a3.5 3.5 0 100-7 3.5 3.5 0 000 7zm0-5a1.5 1.5 0 110 3 1.5 1.5 0 010-3zm.05 10H4.77c.99-.5 2.7-1 4.23-1l.34.01c.34-.73.93-1.33 1.64-1.81-.73-.13-1.42-.2-1.98-.2-2.34 0-7 1.17-7 3.5V19h7v-1.5c0-.17.02-.34.05-.5zm7.45-2.5c-1.84 0-5.5 1.01-5.5 3V19h11v-1.5c0-1.99-3.66-3-5.5-3zm1.21-1.82a2.5 2.5 0 10-2.42-4.36 2.5 2.5 0 002.42 4.36z" /></svg>