<svg viewBox="64 64 896 896" focusable="false" xmlns="http://www.w3.org/2000/svg"><g><path d="M0 0h24v24H0z" /><path d="M0 0h24v24H0z" /><path d="M0 0h24v24H0z" /></g><path d="M4 18h16V6H4v12zM16.94 7.06a6.96 6.96 0 01.01 9.89l-1.23-1.23a5.26 5.26 0 00-.01-7.43l1.23-1.23zM12 8.5a3.5 3.5 0 110 7 3.5 3.5 0 010-7zM7.05 7.05l1.23 1.23a5.3 5.3 0 00.01 7.43l-1.23 1.23a6.96 6.96 0 01-.01-9.89z" opacity=".3" /><path d="M20 4H4a2 2 0 00-2 2v12c0 1.1.9 2 2 2h16a2 2 0 002-2V6a2 2 0 00-2-2zm0 14H4V6h16v12z" /><path d="M8.29 15.71a5.23 5.23 0 01-.01-7.43L7.05 7.05a6.96 6.96 0 00.01 9.89l1.23-1.23zM12 15.5a3.5 3.5 0 100-7 3.5 3.5 0 000 7zm0-5a1.5 1.5 0 110 3 1.5 1.5 0 010-3zM15.72 15.72l1.23 1.23a6.96 6.96 0 00-.01-9.89l-1.23 1.23a5.23 5.23 0 01.01 7.43z" /></svg>