<svg viewBox="64 64 896 896" focusable="false" xmlns="http://www.w3.org/2000/svg"><path d="M0 0h24v24H0z" /><path d="M4 18h14v-5H4v5zm11.5-4a1.5 1.5 0 110 3 1.5 1.5 0 010-3zm-9 0a1.5 1.5 0 110 3 1.5 1.5 0 010-3z" opacity=".3" /><circle cx="6.5" cy="15.5" r="1.5" /><circle cx="15.5" cy="15.5" r="1.5" /><path d="M18 18H4v-5h14a6.93 6.93 0 01-4.89-2h-8.3l1.04-3h5.44a6.9 6.9 0 010-4H8v2H5.5a1.5 1.5 0 00-1.42 1.01L2 13v8a1 1 0 001 1h1a1 1 0 001-1v-1h12v1a1 1 0 001 1h1a1 1 0 001-1v-8l-.09-.27A7.1 7.1 0 0118 13v5z" /><path d="M18 1a5 5 0 100 10 5 5 0 000-10zm.5 2v4h-1V3h1zm0 6h-1V8h1v1z" /></svg>