<svg viewBox="64 64 896 896" focusable="false" xmlns="http://www.w3.org/2000/svg"><path d="M0 0h24v24H0z" /><path d="M9.8 13.6L9 13V6c0-.55-.45-1-1-1s-1 .45-1 1v7l-.8.6A3.01 3.01 0 005 16h6c0-.94-.45-1.83-1.2-2.4z" opacity=".3" /><path d="M11 12V6a3 3 0 10-6 0v6a5.01 5.01 0 00-1 6.97V19h.02a4.97 4.97 0 007.96 0H12v-.03A4.94 4.94 0 0011 12zm-6 4c0-.94.45-1.84 1.2-2.4L7 13V6c0-.55.45-1 1-1s1 .45 1 1v7l.8.6c.75.57 1.2 1.46 1.2 2.4H5zM18.62 4h-1.61l-3.38 9h1.56l.81-2.3h3.63l.8 2.3H22l-3.38-9zm-2.15 5.39l1.31-3.72h.08l1.31 3.72h-2.7z" /></svg>