<svg viewBox="64 64 896 896" focusable="false" xmlns="http://www.w3.org/2000/svg"><path d="M0 0h24v24H0V0z" /><path d="M9 19h6V5H9v14zm3-13a1.5 1.5 0 110 3 1.5 1.5 0 010-3zm0 4.5a1.5 1.5 0 110 3 1.5 1.5 0 010-3zm0 4.5a1.5 1.5 0 110 3 1.5 1.5 0 010-3z" opacity=".3" /><path d="M20 5h-3V4a1 1 0 00-1-1H8a1 1 0 00-1 1v1H4a4 4 0 003 3.86V10H4a4 4 0 003 3.86V15H4a4 4 0 003 3.86V20a1 1 0 001 1h8a1 1 0 001-1v-1.14A4 4 0 0020 15h-3v-1.14A4 4 0 0020 10h-3V8.86A4 4 0 0020 5zm-5 14H9V5h6v14zm-3-1a1.5 1.5 0 100-3 1.5 1.5 0 000 3zm0-4.5a1.5 1.5 0 100-3 1.5 1.5 0 000 3zM12 9a1.5 1.5 0 100-3 1.5 1.5 0 000 3z" /></svg>