<svg viewBox="64 64 896 896" focusable="false" xmlns="http://www.w3.org/2000/svg"><path d="M0 0h24v24H0V0z" /><path d="M12.97 7h-1.94c-2.75.08-3.62.58-3.9 1h9.74c-.28-.42-1.15-.92-3.9-1zM7 16v1c0 .45.3.84.74.95h3.11a1.46 1.46 0 01.04-1.95H7zm6.5 1c0 .36-.13.69-.35.95h3.11c.44-.11.74-.5.74-.95v-1h-3.89c.24.27.39.61.39 1z" opacity=".3" /><path d="M13 5l.75-1.5H17V2H7v1.5h4.75L11 5c-3.13.09-6 .73-6 3.5V17a3 3 0 002.55 2.95L6 21.5v.5h2l2-2h4l2 2h2v-.5l-1.55-1.55h-.01.01A3 3 0 0019 17V8.5c0-2.77-2.87-3.41-6-3.5zm-1.97 2h1.94c2.75.08 3.62.58 3.9 1H7.13c.28-.42 1.15-.92 3.9-1zm-.18 10.95H7.74A.97.97 0 017 17v-1h3.89a1.46 1.46 0 00-.04 1.95zM17 17c0 .45-.3.84-.74.95h-3.11a1.46 1.46 0 00-.04-1.95H17v1zm0-3H7v-4h10v4z" /></svg>