<svg viewBox="64 64 896 896" focusable="false" xmlns="http://www.w3.org/2000/svg"><path d="M0 0h24v24H0z" /><circle cx="9" cy="9" opacity=".3" r="2" /><path d="M14.48 17.34A12.1 12.1 0 009 16c-2.37 0-4.29.73-5.48 1.34a.97.97 0 00-.52.88V19h12v-.78c0-.38-.2-.72-.52-.88z" opacity=".3" /><path d="M17.93 2c-3.9 3.89-3.91 9.95 0 14l1.63-1.63a7.98 7.98 0 010-10.74L17.93 2zM9 13a4 4 0 100-8 4 4 0 000 8zm0-6a2 2 0 012 2c0 1.1-.9 2-2 2s-2-.9-2-2 .9-2 2-2zM15.39 15.56A14.03 14.03 0 009 14c-2.53 0-4.71.7-6.39 1.56A2.97 2.97 0 001 18.22V21h16v-2.78c0-1.12-.61-2.15-1.61-2.66zM15 19H3v-.78c0-.38.2-.72.52-.88A12.1 12.1 0 019 16c2.37 0 4.29.73 5.48 1.34.32.16.52.5.52.88V19z" /><path d="M22.92 7.06l-1.68-1.69c-2.02 2.02-2.02 5.07 0 7.27l1.68-1.69a3.32 3.32 0 010-3.89z" /></svg>