<svg viewBox="64 64 896 896" focusable="false" xmlns="http://www.w3.org/2000/svg"><path d="M0 0h24v24H0z" /><path d="M4.13 5c.17 1.37.53 2.71 1.05 3.99l1.65-1.65L6.36 5H4.13zm11.53 11.17l-1.65 1.65c1.28.52 2.63.87 3.99 1.05v-2.23l-2.34-.47z" opacity=".3" /><path d="M19.2 14.84l-3.67-.73a.99.99 0 00-.9.27L12.1 16.9a16.14 16.14 0 01-6-6l2.52-2.52c.24-.24.34-.58.28-.9L8.16 3.8a1 1 0 00-.98-.8H3.03a1 1 0 00-1 1.03 18.07 18.07 0 0016.94 16.94 1 1 0 001.03-1v-4.15a1 1 0 00-.8-.98zM4.13 5h2.23l.47 2.34-1.65 1.65A15.77 15.77 0 014.13 5zM18 18.87a15.77 15.77 0 01-3.99-1.05l1.65-1.65 2.34.47v2.23zM14 4h2v2h-2V4zm-1 3h2v2h-2V7zm-2-3h2v2h-2V4zm7 5h-2V7h2v2zm1-3h-2V4h2v2zm2 3h-2V7h2v2zm1-3h-2V4h2v2zm-8 4h2v2h-2v-2zm-3 0h2v2h-2v-2zm8 2h-2v-2h2v2zm3 0h-2v-2h2v2z" /></svg>