<svg viewBox="64 64 896 896" focusable="false" xmlns="http://www.w3.org/2000/svg"><path d="M0 0h24v24H0z" /><path d="M17 14.17V13h-1.17l-2-2H21v2h-2v3l-2-1.83zM7 16a4 4 0 01-1.53-7.7l1.71 1.71L7 10c-1.1 0-2 .9-2 2s.9 2 2 2 2-.9 2-2l-.01-.18 1.74 1.74C10.22 14.48 9.14 16 7 16z" opacity=".3" /><path d="M2.81 2.81L1.39 4.22l2.59 2.59A6.01 6.01 0 007 18a6 6 0 005.19-3l7.59 7.61 1.41-1.41L2.81 2.81zM7 16a4 4 0 01-1.53-7.7l1.71 1.71L7 10c-1.1 0-2 .9-2 2s.9 2 2 2 2-.9 2-2l-.01-.18 1.74 1.74C10.22 14.48 9.14 16 7 16zm10-1.83V13h-1.17L17 14.17zM13.83 11H21v2h-2v3l2 2v-3h2V9H11.83l2 2z" /></svg>