<svg viewBox="64 64 896 896" focusable="false" xmlns="http://www.w3.org/2000/svg"><path d="M0 0h24v24H0V0z" /><path d="M21 11a1 1 0 00-1 1v4H4v-4c0-.55-.45-1-1-1s-1 .45-1 1v5a1 1 0 001 1h18a1 1 0 001-1v-5a1 1 0 00-1-1zM6 14h12v-2c0-.88.39-1.67 1-2.22V7a1 1 0 00-1-1H6a1 1 0 00-1 1v2.78c.61.55 1 1.34 1 2.22v2z" opacity=".3" /><path d="M21 9V7a3 3 0 00-3-3H6a3 3 0 00-3 3v2a3 3 0 00-3 3v5a3 3 0 003 3h18a3 3 0 003-3v-5a3 3 0 00-3-3zM5 7a1 1 0 011-1h12a1 1 0 011 1v2.78c-.61.55-1 1.34-1 2.22v2H6v-2c0-.88-.39-1.67-1-2.22V7zm17 10a1 1 0 01-1 1H3a1 1 0 01-1-1v-5c0-.55.45-1 1-1s1 .45 1 1v4h16v-4c0-.55.45-1 1-1s1 .45 1 1v5z" /></svg>