<svg viewBox="64 64 896 896" focusable="false" xmlns="http://www.w3.org/2000/svg"><path d="M0 0h24v24H0z" /><path d="M24 8.98l-2.12 2.13a13.91 13.91 0 00-19.76 0L0 8.98C3.07 5.9 7.31 4 12 4s8.93 1.9 12 4.98zM24 20v3a1 1 0 01-1 1h-4a1 1 0 01-1-1v-3a1 1 0 011-1v-1c0-1.1.9-2 2-2s2 .9 2 2v1a1 1 0 011 1zm-2-2c0-.55-.45-1-1-1s-1 .45-1 1v1h2v-1zM4.24 13.22l2.12 2.12a7.97 7.97 0 0111.28.01l2.12-2.12a10.92 10.92 0 00-15.52-.01zM12 16c-1.38 0-2.63.56-3.53 1.46L12 21l3.53-3.54A4.98 4.98 0 0012 16z" /></svg>