<svg viewBox="64 64 896 896" focusable="false" xmlns="http://www.w3.org/2000/svg"><path d="M0 0h24v24H0V0z" /><path d="M4 20h16V4H4v16zM8 8.22a1.56 1.56 0 012.45-1.28l-.01-.12a1.56 1.56 0 013.12 0l-.01.12A1.56 1.56 0 0116 8.22c0 .62-.37 1.16-.89 1.4a1.56 1.56 0 11-1.56 2.69l.01.12a1.56 1.56 0 01-3.12 0l.01-.12A1.56 1.56 0 018 11.03c0-.62.37-1.16.89-1.4A1.57 1.57 0 018 8.22zM12 19a6 6 0 016-6 6 6 0 01-12 0 6 6 0 016 6z" opacity=".3" /><path d="M8 11.03a1.56 1.56 0 002.45 1.28l-.01.12a1.56 1.56 0 003.12 0l-.01-.12a1.56 1.56 0 101.56-2.69c.52-.24.89-.78.89-1.4a1.56 1.56 0 00-2.45-1.28l.01-.12a1.56 1.56 0 00-3.12 0l.01.12a1.56 1.56 0 10-1.56 2.69c-.52.24-.89.78-.89 1.4zm4-2.97a1.56 1.56 0 110 3.12 1.56 1.56 0 010-3.12zM18 13a6 6 0 00-6 6 6 6 0 006-6zM12 19a6 6 0 00-6-6 6 6 0 006 6z" /><path d="M20 2H4a2 2 0 00-2 2v16c0 1.1.9 2 2 2h16a2 2 0 002-2V4a2 2 0 00-2-2zm0 18H4V4h16v16z" /></svg>