<svg viewBox="64 64 896 896" focusable="false"><path d="M0 0h24v24H0V0z" /><path d="M4.01 8.54A4 4 0 014 15.46V18h16V6H4l.01 2.54zm4.13 3.99l1.26.99 2.39-.64-2.4-4.16 1.4-.38 4.01 3.74 2.44-.65a.97.97 0 011.18.68.99.99 0 01-.69 1.19l-8.86 2.36-1.66-2.88.93-.25z" opacity=".3" /><path d="M20.19 4H4a2 2 0 00-1.99 2v4A2 2 0 012 14v4c0 1.1.9 2 2 2h16a2 2 0 002-2V6c0-1.1-.81-2-1.81-2zM20 18H4v-2.54a4.01 4.01 0 00.01-6.92L4 6h16v12z" /><path d="M17.73 13.3a.99.99 0 00.69-1.19.97.97 0 00-1.18-.68l-2.44.65-4.01-3.74-1.4.38 2.4 4.16-2.39.64-1.26-.99-.93.25 1.66 2.88 8.86-2.36z" /></svg>