<svg viewBox="64 64 896 896" focusable="false"><path d="M0 0h24v24H0z" /><path d="M5 12a4.99 4.99 0 004 8c1.12 0 2.16-.37 3-1a7 7 0 01-7-7zM15 4c-1.13 0-2.16.37-3 1a7 7 0 017 7 4.99 4.99 0 00-4-8z" opacity=".3" /><path d="M12 7c-.6 0-1.17.11-1.7.3a5 5 0 006.4 6.4A5 5 0 0012 7z" opacity=".3" /><path d="M8 9a4.99 4.99 0 004 8c1.12 0 2.16-.37 3-1a7 7 0 01-7-7z" opacity=".3" /><path d="M15 2a7.01 7.01 0 00-6.22 3.78 7.06 7.06 0 00-3 3A7.01 7.01 0 009 22a7.01 7.01 0 006.22-3.78 7.06 7.06 0 003-3A7.01 7.01 0 0015 2zM9 20a5 5 0 01-4-8 7 7 0 007 7c-.84.63-1.88 1-3 1zm3-3a5 5 0 01-4-8 7 7 0 007 7c-.84.63-1.88 1-3 1zm4.7-3.3a5 5 0 01-6.4-6.4 5 5 0 016.4 6.4zM19 12a7 7 0 00-7-7 5 5 0 017 7z" /></svg>