<svg viewBox="64 64 896 896" focusable="false"><path d="M0 0h24v24H0z" /><path d="M18 5H6a2 2 0 00-2 2c0 .71.38 1.35 1.01 1.73l.99.58V19h12V9.3l1-.58c.63-.36 1-1.01 1-1.72a2 2 0 00-2-2zm-2.29 8.7l-3 3c-.2.2-.45.3-.71.3s-.51-.1-.71-.29l-3-3a1 1 0 010-1.41l3-3c.2-.2.45-.3.71-.3s.51.1.71.29l3 3a1 1 0 010 1.41z" opacity=".3" /><path d="M18 3H6a4 4 0 00-2 7.45V19c0 1.1.9 2 2 2h12a2 2 0 002-2v-8.55A3.98 3.98 0 0018 3zm1 5.72l-1 .58V19H6V9.31l-.99-.58A2.02 2.02 0 014 7c0-1.1.9-2 2-2h12a1.99 1.99 0 011 3.72z" /><path d="M12.71 9.29C12.51 9.1 12.26 9 12 9s-.51.1-.71.29l-3 3a1 1 0 000 1.41l3 3c.2.2.45.3.71.3s.51-.1.71-.29l3-3a1 1 0 000-1.41l-3-3.01zM12 14.58L10.41 13 12 11.41 13.59 13 12 14.58z" /></svg>