<svg viewBox="64 64 896 896" focusable="false"><path d="M0 0h24v24H0V0z" /><path d="M10.9 19.91a8 8 0 006.71-2.21L14.89 13l-3.99 6.91zm-1.04-.21l2.71-4.7H4.59a8.03 8.03 0 005.27 4.7zM8.54 12L5.7 7.09A7.96 7.96 0 004.26 14h5.43l-1.15-2zm9.76 4.91A7.96 7.96 0 0019.74 10h-5.43l3.99 6.91zM13.73 9h5.68a8.02 8.02 0 00-5.28-4.7L11.42 9h2.31zm-3.46 0l2.83-4.92A7.96 7.96 0 006.4 6.3L9.12 11l1.15-2z" opacity=".3" /><path d="M12 22a10 10 0 002.25-19.74l-.08-.04-.01.02A10 10 0 1012 22zm0-2a7.9 7.9 0 01-1.1-.09L14.89 13l2.72 4.7A8 8 0 0112 20zm8-8c0 1.85-.64 3.55-1.7 4.91l-4-6.91h5.43c.17.64.27 1.31.27 2zm-.59-3h-7.99l2.71-4.7A8.02 8.02 0 0119.41 9zM12 4c.37 0 .74.03 1.1.08L10.27 9l-1.15 2L6.4 6.3A7.96 7.96 0 0112 4zm-8 8c0-1.85.64-3.55 1.7-4.91L8.54 12l1.15 2H4.26A8.24 8.24 0 014 12zm6.27 3h2.3l-2.71 4.7A8.05 8.05 0 014.58 15h5.69z" /></svg>