<svg viewBox="64 64 896 896" focusable="false"><path d="M0 0h24v24H0z" /><path d="M3 17.97l6.1-2.61.07-.43-6.17.82v2.22zM16.5 11a5.51 5.51 0 000 11 5.51 5.51 0 000-11zm2.47 7.27l-.71.71-1.77-1.77-1.77 1.77-.71-.71 1.77-1.77-1.77-1.77.71-.71 1.77 1.77 1.77-1.77.71.71-1.77 1.77 1.77 1.77zM3 8.25l7.52 1-7.51-3.22z" opacity=".3" /><path d="M16.5 9c-.42 0-.83.04-1.24.11L1.01 3 1 10l10.06 1.34c-.42.44-.78.93-1.09 1.46L1 14l.01 7 8.07-3.46A7.5 7.5 0 1016.5 9zM3 8.25l.01-2.22 7.51 3.22-7.52-1zm6.1 7.11L3 17.97v-2.22l6.17-.82-.07.43zM16.5 22a5.51 5.51 0 010-11 5.51 5.51 0 010 11z" /><path d="M18.27 14.03l-1.77 1.76-1.77-1.76-.7.7 1.76 1.77-1.76 1.77.7.7 1.77-1.76 1.77 1.76.7-.7-1.76-1.77 1.76-1.77z" /></svg>