<svg viewBox="64 64 896 896" focusable="false"><path d="M0 0h24v24H0V0z" /><path d="M4 17h16v2H4zm13-6.17L15.38 12 12 7.4 8.62 12 7 10.83 9.08 8H4v6h16V8h-5.08z" opacity=".3" /><path d="M20 6h-2.18a3 3 0 00-5.32-2.65l-.5.67-.5-.68A3 3 0 006.18 6H4c-1.11 0-1.99.89-1.99 2L2 19a2 2 0 002 2h16a2 2 0 002-2V8a2 2 0 00-2-2zm-5-2c.55 0 1 .45 1 1s-.45 1-1 1-1-.45-1-1 .45-1 1-1zM9 4c.55 0 1 .45 1 1s-.45 1-1 1-1-.45-1-1 .45-1 1-1zm11 15H4v-2h16v2zm0-5H4V8h5.08L7 10.83 8.62 12 12 7.4l3.38 4.6L17 10.83 14.92 8H20v6z" /></svg>