<svg viewBox="64 64 896 896" focusable="false"><path d="M0 0h24v24H0z" /><path d="M5 19h14V5H5v14zM16.5 6a1.5 1.5 0 110 3 1.5 1.5 0 010-3zm0 9a1.5 1.5 0 110 3 1.5 1.5 0 010-3zM12 10.5a1.5 1.5 0 110 3 1.5 1.5 0 010-3zM7.5 6a1.5 1.5 0 110 3 1.5 1.5 0 010-3zm0 9a1.5 1.5 0 110 3 1.5 1.5 0 010-3z" opacity=".3" /><path d="M19 3H5a2 2 0 00-2 2v14c0 1.1.9 2 2 2h14a2 2 0 002-2V5a2 2 0 00-2-2zm0 16H5V5h14v14z" /><circle cx="7.5" cy="16.5" r="1.5" /><circle cx="7.5" cy="7.5" r="1.5" /><circle cx="12" cy="12" r="1.5" /><circle cx="16.5" cy="16.5" r="1.5" /><circle cx="16.5" cy="7.5" r="1.5" /></svg>