<svg viewBox="64 64 896 896" focusable="false"><path d="M0 0h24v24H0z" /><path d="M12 4a8.01 8.01 0 010 16 8.01 8.01 0 010-16m.06 9.34v2.14a3.46 3.46 0 01-3.13-5.14l-1.1-1.1A5 5 0 0012 17h.06v2l2.83-2.83-2.83-2.83zm3.48-4.88a5 5 0 00-3.6-1.45V5L9.11 7.83l2.83 2.83V8.51H12a3.5 3.5 0 013.07 5.15l1.1 1.1a5.03 5.03 0 00-.63-6.3z" opacity=".3" /><path d="M12 4a8.01 8.01 0 010 16 8.01 8.01 0 010-16m0-2a10 10 0 100 20 10 10 0 000-20zm.06 11.34v2.14a3.46 3.46 0 01-3.13-5.14l-1.1-1.1A5 5 0 0012 17h.06v2l2.83-2.83-2.83-2.83zm3.48-4.88a5 5 0 00-3.6-1.45V5L9.11 7.83l2.83 2.83V8.51H12a3.5 3.5 0 013.07 5.15l1.1 1.1a5.03 5.03 0 00-.63-6.3z" /></svg>