<svg viewBox="64 64 896 896" focusable="false"><path d="M0 0h24v24H0z" /><path d="M19 6H5v12h14V6zm-8 5H9.5v-.5h-2v3h2V13H11v1a1 1 0 01-1 1H7a1 1 0 01-1-1v-4a1 1 0 011-1h3a1 1 0 011 1v1zm7 0h-1.5v-.5h-2v3h2V13H18v1a1 1 0 01-1 1h-3a1 1 0 01-1-1v-4a1 1 0 011-1h3a1 1 0 011 1v1z" opacity=".3" /><path d="M5 20h14a2 2 0 002-2V6a2 2 0 00-2-2H5a2 2 0 00-2 2v12a2 2 0 002 2zM5 6h14v12H5V6z" /><path d="M10 9H7a1 1 0 00-1 1v4a1 1 0 001 1h3a1 1 0 001-1v-1H9.5v.5h-2v-3h2v.5H11v-1a1 1 0 00-1-1zM17 9h-3a1 1 0 00-1 1v4a1 1 0 001 1h3a1 1 0 001-1v-1h-1.5v.5h-2v-3h2v.5H18v-1a1 1 0 00-1-1z" /></svg>