<svg viewBox="64 64 896 896" focusable="false"><path d="M0 0h24v24H0V0z" /><path d="M12 4a8.01 8.01 0 000 16 8.01 8.01 0 000-16zm4.08 12H8.5a3.5 3.5 0 01-.38-6.98 4.37 4.37 0 018.17 1.16A2.9 2.9 0 0119 13.07 2.93 2.93 0 0116.08 16z" opacity=".3" /><path d="M12 2a10 10 0 100 20 10 10 0 000-20zm0 18a8.01 8.01 0 010-16 8.01 8.01 0 010 16zm4.29-9.81a4.37 4.37 0 00-8.17-1.16A3.5 3.5 0 008.5 16h7.58A2.92 2.92 0 0019 13.08a2.9 2.9 0 00-2.71-2.89zM16 14H8.5a1.5 1.5 0 110-3h.9l.49-1.05a2.37 2.37 0 014.44.63l.28 1.42H16c.55 0 1 .45 1 1s-.45 1-1 1z" /></svg>