<svg viewBox="64 64 896 896" focusable="false"><path d="M0 0h24v24H0z" /><path d="M10 16.5a6.51 6.51 0 019-6V5h-2v3H7V5H5v14h5.5a6.48 6.48 0 01-.5-2.5z" opacity=".3" /><path d="M10.5 19H5V5h2v3h10V5h2v5.5c.75.31 1.42.76 2 1.32V5a2 2 0 00-2-2h-4.18C14.4 1.84 13.3 1 12 1s-2.4.84-2.82 2H5a2 2 0 00-2 2v14c0 1.1.9 2 2 2h6.82a6.57 6.57 0 01-1.32-2zM12 3c.55 0 1 .45 1 1s-.45 1-1 1-1-.45-1-1 .45-1 1-1z" /><path d="M20.3 18.9a4.48 4.48 0 00-3.8-6.9C14 12 12 14 12 16.5a4.48 4.48 0 006.9 3.8l2.7 2.7 1.4-1.4-2.7-2.7zm-3.8.1c-1.4 0-2.5-1.1-2.5-2.5s1.1-2.5 2.5-2.5 2.5 1.1 2.5 2.5-1.1 2.5-2.5 2.5z" /></svg>