<svg viewBox="64 64 896 896" focusable="false"><path d="M0 0h24v24H0z" /><path d="M2.5 17.97c-.48.28-.64.89-.37 1.37s.89.64 1.37.37c.48-.28.64-.89.37-1.37s-.89-.65-1.37-.37zM21.5 17.97a1 1 0 10-1 1.74 1 1 0 101-1.74z" opacity=".3" /><circle cx="12" cy="4" opacity=".3" r="1" /><path d="M10.1 15.9l1.42-1.42C8.79 12.05 7 10.41 7 8.85 7 7.8 7.8 7 8.85 7c1.11 0 1.54.65 2.68 2h.93c1.12-1.31 1.53-2 2.68-2 .87 0 1.55.54 1.77 1.32a8.78 8.78 0 012.03.02A3.78 3.78 0 0015.15 5c-.12 0-.23.03-.35.04a3 3 0 10-5.6 0C9.08 5.03 8.97 5 8.85 5A3.8 3.8 0 005 8.85c0 2.42 2.04 4.31 5.1 7.05zM12 3c.55 0 1 .45 1 1s-.45 1-1 1-1-.45-1-1 .45-1 1-1z" /><path d="M22.5 16.24a3.14 3.14 0 00-1-.35c.07-.1.15-.18.21-.28a3.8 3.8 0 00-1.41-5.26c-2.09-1.21-4.76-.39-8.65.9l.52 1.94c3.47-1.14 5.79-1.88 7.14-1.1.91.53 1.2 1.61.68 2.53-.56.96-1.33 1-3.07 1.32l-.47.81c.58 1.62.97 2.33.39 3.32a1.82 1.82 0 01-2.53.68c-.06-.03-.11-.09-.17-.13a8 8 0 01-1.03 1.73l.2.14a3.8 3.8 0 005.26-1.41c.06-.1.09-.21.14-.32a3 3 0 103.79-4.52zm-.63 3.09c-.28.48-.89.64-1.37.37-.48-.28-.64-.89-.37-1.37s.89-.64 1.37-.37c.48.28.64.9.37 1.37z" /><path d="M12.32 14.01c-.74 3.58-1.27 5.95-2.62 6.73-.91.53-2 .24-2.53-.68-.56-.96-.2-1.66.39-3.32l-.46-.81c-1.7-.31-2.5-.33-3.07-1.32a1.8 1.8 0 01.68-2.53c.09-.05.19-.08.29-.11a6.73 6.73 0 01-.82-1.85c-.16.07-.32.14-.48.23a3.8 3.8 0 00-1.41 5.26c.06.1.14.18.21.28a3 3 0 102 5.55c.32-.18.58-.42.8-.69.05.11.08.22.14.32a3.8 3.8 0 005.26 1.41c2.09-1.21 2.71-3.93 3.55-7.94l-1.93-.53zM3.5 19.7a1 1 0 11-1-1.74 1 1 0 111 1.74z" /></svg>