<svg viewBox="64 64 896 896" focusable="false"><path d="M0 0h24v24H0V0z" /><path d="M12 4c-1.41 0-2.73.37-3.88 1.01l6 5.99H17v2h-.88L19 15.88A8.01 8.01 0 0012 4zm0 16c1.56 0 3-.45 4.23-1.23L10.46 13H7v-2h1.46L5.23 7.77A8.01 8.01 0 0012 20z" opacity=".3" /><path d="M12 4a8.01 8.01 0 016.99 11.88l1.46 1.46A10 10 0 006.67 3.55l1.46 1.46A7.88 7.88 0 0112 4zm5 7h-2.88l2 2H17zM2.41 2.13L1 3.54l2.78 2.78a10 10 0 0013.9 13.9L20.46 23l1.41-1.41L2.41 2.13zM12 20A8.01 8.01 0 015.23 7.77L8.46 11H7v2h3.46l5.77 5.77A7.85 7.85 0 0112 20z" /></svg>