<svg viewBox="64 64 896 896" focusable="false"><path d="M0 0h24v24H0z" /><path d="M10 21H4a1 1 0 01-1-1v-6c0-.39.23-.64.36-.75L7 9.87V12h3v9z" opacity=".3" /><path d="M20.75 16a1.25 1.25 0 000-2.5H12v-1h6.75a1.25 1.25 0 00.07-2.49L8.87 10l1.48-2.6c.09-.17.14-.34.14-.54 0-.26-.09-.5-.26-.7L9.12 5l-7.18 6.8c-.6.56-.94 1.35-.94 2.17V20a3 3 0 003 3h13.75a1.25 1.25 0 000-2.5H12v-1h7.75a1.25 1.25 0 000-2.5H12v-1h8.75zM10 21H4a1 1 0 01-1-1v-6c0-.39.23-.64.36-.75L7 9.87V12h3v9zm5.65-16.14l-.07-.07a2.53 2.53 0 01-.67-2.2L15 2h-1.89l-.06.43a4.3 4.3 0 001.3 3.72l.07.06c.57.62.82 1.41.67 2.2l-.11.59h1.91l.06-.43a4.24 4.24 0 00-1.3-3.71zm4 0l-.07-.07a2.53 2.53 0 01-.67-2.2L19 2h-1.89l-.06.43a4.3 4.3 0 001.3 3.72l.07.06c.57.62.82 1.41.67 2.2l-.11.59h1.91l.06-.43a4.24 4.24 0 00-1.3-3.71z" /></svg>