<svg viewBox="64 64 896 896" focusable="false"><path d="M0 0h24v24H0z" /><path d="M7 6c0-.55-.45-1-1-1s-1 .45-1 1v1h1a1 1 0 001-1zM17 18c0 .55.45 1 1 1s1-.45 1-1v-1h-1a1 1 0 00-1 1z" opacity=".3" /><path d="M16 3a5 5 0 00-5 5v8a3 3 0 11-6 0V9h.83C7.44 9 8.89 7.82 9 6.21A3 3 0 006.2 3C4.44 2.89 3 4.42 3 6.19V16a5 5 0 0010 0V8a3 3 0 116 0v7h-.83c-1.61 0-3.06 1.18-3.17 2.79A3 3 0 0017.8 21c1.76.12 3.2-1.42 3.2-3.18V8a5 5 0 00-5-5zM5 6c0-.55.45-1 1-1s1 .45 1 1-.45 1-1 1H5V6zm14 12c0 .55-.45 1-1 1s-1-.45-1-1 .45-1 1-1h1v1z" /></svg>