<svg viewBox="64 64 896 896" focusable="false"><path d="M0 0h24v24H0z" /><path d="M10 18h4v1h-4zM10 16h4v1h-4z" opacity=".3" /><path d="M12 3a6.97 6.97 0 00-4.66 12.22c.43.38.66.91.66 1.47V19c0 1.1.9 2 2 2h.28a1.98 1.98 0 003.44 0H14a2 2 0 002-2v-2.31c0-.55.22-1.09.64-1.46A7 7 0 0012 3zm2 16h-4v-1h4v1zm0-2h-4v-1h4v1zm1.31-3.26c-.09.08-.16.18-.24.26H8.92c-.08-.09-.15-.19-.24-.27a5.04 5.04 0 01-1.59-4.7A5.02 5.02 0 0112 5a5 5 0 013.31 8.74z" /><g><path d="M11.5 11h1v3h-1z" /><path d="M9.67 9.58l.7-.7L12.5 11l-.7.7z" /><path d="M12.2 11.71l-.7-.7 2.12-2.13.7.71z" /></g></svg>