<svg viewBox="64 64 896 896" focusable="false"><path d="M0 0h24v24H0V0z" /><path d="M19 13h-2V7h-6V5c0-.28-.22-.5-.5-.5s-.5.22-.5.5v2H4l.01 2.12A4.7 4.7 0 014 17.88V20h2.12a4.71 4.71 0 018.76 0H17v-6h2c.28 0 .5-.22.5-.5s-.22-.5-.5-.5z" opacity=".3" /><path d="M19 11V7a2 2 0 00-2-2h-4a2.5 2.5 0 00-5 0H4a2 2 0 00-1.99 2v3.8h.29a2.7 2.7 0 010 5.4H2V20c0 1.1.9 2 2 2h3.8v-.3a2.7 2.7 0 015.4 0v.3H17a2 2 0 002-2v-4a2.5 2.5 0 000-5zm0 3h-2v6h-2.12a4.71 4.71 0 00-8.76 0H4v-2.12a4.71 4.71 0 00.01-8.76L4 7h6V5c0-.28.22-.5.5-.5s.5.22.5.5v2h6v6h2c.28 0 .5.22.5.5s-.22.5-.5.5z" /></svg>