<svg viewBox="64 64 896 896" focusable="false"><path d="M0 0h24v24H0z" /><path d="M6.02 5H6a4 4 0 00-3.68 5.54A10 10 0 016.02 5zM15.1 3.5C14.36 2.59 13.25 2 12 2s-2.36.59-3.1 1.5a9.97 9.97 0 016.2 0zM12 5.31a4.06 4.06 0 006.59 3.17A7.98 7.98 0 0012.03 5l-.03.31zM2.5 16.12c-.31.56-.5 1.19-.5 1.88a4 4 0 005.25 3.8 10.08 10.08 0 01-4.75-5.68zM21.68 10.54A4 4 0 0018 5h-.02a10 10 0 013.7 5.54zM16.75 21.8a4 4 0 004.75-5.68 10.08 10.08 0 01-4.75 5.68z" opacity=".3" /><path d="M21.97 13.52v-.04a5.98 5.98 0 00-4.75-10.42 5.98 5.98 0 00-10.44 0 6 6 0 00-4.76 10.42v.04A6 6 0 006 24c1.39 0 2.67-.48 3.69-1.28a9.74 9.74 0 004.62 0 6 6 0 007.66-9.2zM18 5a4 4 0 013.68 5.54A10 10 0 0018 5zm.6 3.48A4.06 4.06 0 0112 5.31l.03-.31a8.02 8.02 0 016.57 3.48zM12 2a4 4 0 013.1 1.5 9.97 9.97 0 00-6.2 0A4 4 0 0112 2zM2 9a4 4 0 014-4h.02a10 10 0 00-3.7 5.54C2.12 10.07 2 9.55 2 9zm4 13a4 4 0 01-4-4c0-.69.19-1.32.5-1.88.8 2.44 2.52 4.47 4.74 5.68-.39.13-.8.2-1.24.2zm6-1a8.01 8.01 0 01-2-15.74v.05a6.07 6.07 0 009.51 4.97A8.01 8.01 0 0112 21zm6 1a4 4 0 01-1.25-.2 10.03 10.03 0 004.74-5.68A3.98 3.98 0 0118 22z" /><circle cx="9" cy="14" r="1.25" /><circle cx="15" cy="14" r="1.25" /></svg>