<svg viewBox="64 64 896 896" focusable="false"><path d="M0 0h24v24H0V0z" /><path d="M18.69 7.61c-.7 0-1.39.19-2 .54-.16.09-.32.21-.54.37l-1.13.9c.31.36.56.78.72 1.24l1.38-.52a4.03 4.03 0 002.36-2.45 3.47 3.47 0 00-.79-.08zm-1.56 6.26l-1.38-.52c-.16.45-.4.85-.7 1.21l1.15.96a4.02 4.02 0 003.28.8 4.03 4.03 0 00-2.35-2.45zM11 6c0 .19.02.41.05.63l.23 1.44a4.17 4.17 0 011.43 0l.23-1.44A4 4 0 0012 3.37 4 4 0 0011 6zm1.71 9.93a4.17 4.17 0 01-1.43 0l-.22 1.42a3.93 3.93 0 00.94 3.28 4.02 4.02 0 00.95-3.26l-.24-1.44zm-5.84-5.81l1.38.52c.16-.44.4-.85.7-1.2L7.8 8.49a3.95 3.95 0 00-3.3-.81 3.96 3.96 0 002.37 2.44zm0 3.74a4.03 4.03 0 00-2.36 2.45 4.03 4.03 0 002.79-.46c.16-.09.32-.21.54-.37l1.13-.89a3.84 3.84 0 01-.72-1.24l-1.38.51z" opacity=".3" /><path d="M18.7 12.4a6.06 6.06 0 00-.86-.4 6.01 6.01 0 003.86-5.59 6.08 6.08 0 00-6 0c-.28.16-.54.35-.78.54A5.99 5.99 0 0012 .81a6 6 0 00-2.92 6.14A5.99 5.99 0 002.3 6.4a5.97 5.97 0 003.86 5.59 6.01 6.01 0 00-3.86 5.59 6.08 6.08 0 006 0c.28-.16.54-.35.78-.54A6 6 0 0012 23.19a6 6 0 002.92-6.14 5.99 5.99 0 006.78.54 6.01 6.01 0 00-3-5.19zM4.51 7.68a3.92 3.92 0 013.28.81l1.15.96c-.3.36-.53.76-.7 1.2l-1.38-.52a3.92 3.92 0 01-2.35-2.45zm3.33 7.79a4.03 4.03 0 01-3.33.83 4.03 4.03 0 012.36-2.45l1.38-.52c.16.46.41.88.72 1.24l-1.13.9zM12 3.37a4.02 4.02 0 01.95 3.26l-.23 1.44a4.17 4.17 0 00-1.43 0l-.23-1.44A4 4 0 0112 3.37zm0 17.26a4.02 4.02 0 01-.94-3.28l.22-1.42a4.18 4.18 0 001.43 0l.23 1.44a4 4 0 01-.94 3.26zM12 14c-1.1 0-2-.9-2-2s.9-2 2-2 2 .9 2 2-.9 2-2 2zm4.16-5.48a4.03 4.03 0 013.33-.83 4.03 4.03 0 01-2.36 2.45l-1.38.52a4.15 4.15 0 00-.72-1.24l1.13-.9zm2.53 7.87a3.92 3.92 0 01-2.48-.88l-1.15-.96c.3-.36.54-.76.7-1.21l1.38.52a3.84 3.84 0 012.35 2.44c-.27.07-.54.09-.8.09z" /></svg>