<svg viewBox="64 64 896 896" focusable="false"><path d="M0 0h24v24H0z" /><path d="M12 4c-1.47 0-2.75.81-3.44 2h6.89A4 4 0 0012 4z" opacity=".3" /><circle cx="12" cy="14" opacity=".3" r="1.5" /><path d="M16 8H8v5H5v2h3v5h8v-5h3v-2h-3V8zm-4 9.5a3.5 3.5 0 110-7 3.5 3.5 0 010 7z" opacity=".3" /><path d="M12 10.5a3.5 3.5 0 100 7 3.5 3.5 0 000-7zm0 5a1.5 1.5 0 110-3 1.5 1.5 0 010 3z" /><path d="M19 11h-1V8h2V6h-2.35a6 6 0 00-11.3 0H4v2h2v3H5a2 2 0 00-2 2v2c0 1.1.9 2 2 2h1v3H4v2h16v-2h-2v-3h1a2 2 0 002-2v-2a2 2 0 00-2-2zm-7-7c1.47 0 2.75.81 3.44 2H8.56c.69-1.19 1.97-2 3.44-2zm7 11h-3v5H8v-5H5v-2h3V8h8v5h3v2z" /></svg>