<svg viewBox="64 64 896 896" focusable="false"><path d="M0 0h24v24H0z" /><path d="M14.12 5H9.88L8.05 7H4v12h16V7h-4.05l-1.83-2zM12 18a5 5 0 01-5-5H5l2.49-2.49.01-.01L10 13H8a4 4 0 005.62 3.65l.74.74c-.71.37-1.5.61-2.36.61zm7-5l-2.49 2.49-.01.01L14 13h2a4 4 0 00-5.62-3.65l-.74-.73A4.97 4.97 0 0117 13h2z" opacity=".3" /><path d="M20 5h-3.17L15 3H9L7.17 5H4a2 2 0 00-2 2v12c0 1.1.9 2 2 2h16a2 2 0 002-2V7a2 2 0 00-2-2zm0 14H4V7h4.05l1.83-2h4.24l1.83 2H20v12z" /><path d="M12 17a4 4 0 01-4-4h2l-2.5-2.5-.01.01L5 13h2a4.97 4.97 0 007.36 4.38l-.74-.74A3.8 3.8 0 0112 17zM12 8c-.86 0-1.65.24-2.36.62l.74.73A4 4 0 0116 13h-2l2.5 2.5.01-.01L19 13h-2a5 5 0 00-5-5z" /></svg>