<svg viewBox="64 64 896 896" focusable="false"><path d="M0 0h24v24H0V0zm0 0h24v24H0V0zm0 0h24v24H0V0z" /><path d="M10.93 7.83l4.77 4.77c-.62-1.81-2.17-4.24-3.71-6.24-.35.47-.71.96-1.06 1.47zM12 18c.96 0 1.83-.36 2.53-.92l-5.72-5.72A6.8 6.8 0 008 14a4 4 0 004 4z" opacity=".3" /><path d="M12 6.36c1.53 2 3.08 4.43 3.71 6.24l2.23 2.23c.03-.27.06-.55.06-.83 0-3.98-6-10.8-6-10.8s-1.18 1.35-2.5 3.19l1.44 1.44c.34-.51.7-1 1.06-1.47zM5.41 5.14L4 6.55l3.32 3.32C6.55 11.33 6 12.79 6 14a6 6 0 009.95 4.5l2.63 2.63L20 19.72 5.41 5.14zM12 18a4 4 0 01-4-4c0-.69.32-1.62.81-2.64l5.72 5.72c-.7.56-1.57.92-2.53.92z" /></svg>