<svg viewBox="64 64 896 896" focusable="false"><path d="M0 0h24v24H0V0z" /><path d="M17 11.51v-.01H7v3h10v-2.99zM9 14c-.55 0-1-.45-1-1s.45-1 1-1 1 .45 1 1-.45 1-1 1zm6 0c-.55 0-1-.45-1-1s.45-1 1-1 1 .45 1 1-.45 1-1 1z" opacity=".3" /><path d="M4 20h16V4H4v16zm1-8.81L6.56 6.5c.05-.16.12-.29.19-.4l.05-.06c.38-.53.92-.54.92-.54h8.56s.54.01.92.53l.05.07c.07.11.14.24.19.4L19 11.19v6.5a.8.8 0 01-.78.81h-.44a.79.79 0 01-.78-.81V16.5H7v1.19a.8.8 0 01-.78.81h-.44a.8.8 0 01-.78-.81v-6.5z" opacity=".3" /><path d="M20 2H4a2 2 0 00-2 2v16c0 1.1.9 2 2 2h16a2 2 0 002-2V4a2 2 0 00-2-2zm0 18H4V4h16v16z" /><circle cx="9" cy="13" r="1" /><circle cx="15" cy="13" r="1" /><path d="M5.78 18.5h.44a.8.8 0 00.78-.81V16.5h10v1.19c0 .45.34.81.78.81h.44a.8.8 0 00.78-.81v-6.5L17.44 6.5a1.66 1.66 0 00-.19-.4l-.05-.07c-.38-.52-.92-.53-.92-.53H7.72s-.54.01-.92.54l-.05.06c-.07.11-.14.24-.19.4L5 11.19v6.5c0 .45.35.81.78.81zm2.55-11h7.34l.23.69.43 1.31H7.67l.66-2zM7 11.51v-.01h10v3H7v-2.99z" /></svg>