<svg viewBox="64 64 896 896" focusable="false"><path d="M0 0h24v24H0z" /><path d="M9.32 13.42l2.73 5.21 2.67-5.23a6.47 6.47 0 01-5.4.02zM17.31 8.02l-.77-.12-.06-.78a4.5 4.5 0 00-8.97 0l-.06.78-.77.13a2 2 0 101.71 3.41l.56-.54.66.41a4.44 4.44 0 004.78.01l.66-.42.56.54a2 2 0 101.7-3.42z" opacity=".3" /><path d="M18.38 6.24a6.5 6.5 0 00-12.76 0A4.01 4.01 0 007 14l.34-.02L12.07 23l4.61-9.03c.11.01.21.03.32.03a4 4 0 001.38-7.76zm-6.33 12.39l-2.73-5.21a6.58 6.58 0 005.4-.02l-2.67 5.23zM17 12c-.52 0-1.01-.2-1.39-.56l-.56-.54-.66.42a4.52 4.52 0 01-4.78-.01l-.66-.41-.56.54a2 2 0 11-1.71-3.41l.77-.13.06-.78a4.5 4.5 0 018.97 0l.06.78.77.12A2 2 0 0117 12z" /></svg>