<svg viewBox="64 64 896 896" focusable="false"><path d="M0 0h24v24H0V0z" /><path d="M12 4a8 8 0 100 16 8 8 0 000-16zm3.5 4a1.5 1.5 0 110 3 1.5 1.5 0 010-3zm-7 0a1.5 1.5 0 110 3 1.5 1.5 0 010-3zm3.5 9.5A5.5 5.5 0 016.89 14h10.22A5.5 5.5 0 0112 17.5z" opacity=".3" /><circle cx="15.5" cy="9.5" r="1.5" /><path d="M11.99 2A10 10 0 1012 21.99 10 10 0 0011.99 2zM12 20a8 8 0 110-16 8 8 0 010 16z" /><circle cx="8.5" cy="9.5" r="1.5" /><path d="M12 17.5a5.5 5.5 0 005.11-3.5H6.89A5.5 5.5 0 0012 17.5z" /></svg>