<svg viewBox="64 64 896 896" focusable="false"><path d="M0 0h24v24H0V0z" /><path d="M20 20H4V8h4.05l1.83-2H15V4H9L7.17 6H4a2 2 0 00-2 2v12c0 1.1.9 2 2 2h16a2 2 0 002-2V9h-2v11zM16 2v1.33a4.67 4.67 0 014.67 4.66H22A6 6 0 0016 2zm0 2.67V6a2 2 0 012 1.99h1.33A3.33 3.33 0 0016 4.67z" /><path d="M14.98 10.01l-.39-.26c.14.08.27.17.39.26zM17 9a2.04 2.04 0 00-1.01-1.73A1.96 1.96 0 0015 7V6H9.88L8.05 8H4v12h16V9h-3zm-5 10a5 5 0 110-10 5 5 0 010 10z" opacity=".3" /><path d="M12 9a5 5 0 100 10 5 5 0 000-10zm0 8c-1.65 0-3-1.35-3-3s1.35-3 3-3 3 1.35 3 3-1.35 3-3 3z" /></svg>