<svg viewBox="64 64 896 896" focusable="false"><path d="M0 0h24v24H0z" /><path d="M16 4h1v1h-1zM6 15a1 1 0 001-1v-1H5v1a1 1 0 001 1zM13 14h7v2h-7z" opacity=".3" /><path d="M3 14c0 1.3.84 2.4 2 2.82V20H3v2h6v-2H7v-3.18C8.16 16.4 9 15.3 9 14V6H3v8zm2-6h2v3H5V8zm0 5h2v1c0 .55-.45 1-1 1s-1-.45-1-1v-1zM20.64 8.54l-.96-.32a1 1 0 01-.68-.95V3a1 1 0 00-1-1h-3a1 1 0 00-1 1v4.28a1 1 0 01-.68.95l-.96.32a2.01 2.01 0 00-1.36 1.9V20c0 1.1.9 2 2 2h7a2 2 0 002-2v-9.56c0-.86-.55-1.62-1.36-1.9zM16 4h1v1h-1V4zm4 16h-7v-2h7v2zm0-4h-7v-2h7v2zm0-4h-7v-1.56l.95-.32A2.98 2.98 0 0016 7.28V7h1v.28a3 3 0 002.05 2.85l.95.31V12z" /></svg>