<svg viewBox="64 64 896 896" focusable="false"><path d="M0 0h24v24H0V0z" /><path d="M5.12 12l-.12.34V17h14v-4.66l-.12-.34H5.12zm2.38 4a1.5 1.5 0 110-3 1.5 1.5 0 010 3zm9 0a1.5 1.5 0 110-3 1.5 1.5 0 010 3z" opacity=".3" /><path d="M17.5 5H15V3H9v2H6.5a1.5 1.5 0 00-1.42 1.01L3 12v8a1 1 0 001 1h1a1 1 0 001-1v-1h12v1a1 1 0 001 1h1a1 1 0 001-1v-8l-2.08-5.99A1.5 1.5 0 0017.5 5zM6.85 7h10.29l1.04 3H5.81l1.04-3zM19 17H5v-4.66l.12-.34h13.77l.11.34V17z" /><circle cx="7.5" cy="14.5" r="1.5" /><circle cx="16.5" cy="14.5" r="1.5" /></svg>