<svg viewBox="64 64 896 896" focusable="false"><path d="M0 0h24v24H0V0z" /><path d="M19 17.47c-.88-.07-1.75-.22-2.6-.45l-1.19 1.19c1.2.41 2.48.67 3.8.75v-1.49zM6.99 7.59c-.24-.83-.39-1.7-.45-2.59h-1.5c.09 1.32.35 2.59.75 3.8l1.2-1.21z" opacity=".3" /><path d="M3 4a17 17 0 0017 17 1 1 0 001-1v-3.49a1 1 0 00-1-1c-1.24 0-2.45-.2-3.57-.57a1.02 1.02 0 00-1.02.24l-2.2 2.2a15.15 15.15 0 01-6.59-6.59l2.2-2.2a1 1 0 00.25-1.02A11.36 11.36 0 018.5 4a1 1 0 00-1-1H4a1 1 0 00-1 1zm13.4 13.02c.85.24 1.72.39 2.6.45v1.49a15.43 15.43 0 01-3.8-.75l1.2-1.19zM6.54 5c.06.89.21 1.76.45 2.59l-1.2 1.2c-.41-1.2-.67-2.47-.76-3.79h1.51z" /></svg>