<svg viewBox="64 64 896 896" focusable="false"><path d="M0 0h24v24H0V0z" /><path d="M12 13c.62 0 1.12-.49 1.14-1.1l-.11-1.09a2.94 2.94 0 01-2.05 0l-.12 1.09c.02.61.52 1.1 1.14 1.1zM8.17 7.1l.88.42c.12-.73.51-1.37 1.06-1.83l-.81-.56A1.14 1.14 0 108.17 7.1zm7.66 1.8l-.88-.42a3.03 3.03 0 01-1.06 1.83l.81.57a1.14 1.14 0 001.78-.94c.01-.45-.25-.84-.65-1.04zm-.88-1.38l.88-.42a1.14 1.14 0 10-1.13-1.97l-.81.55c.55.46.94 1.1 1.06 1.84zM12 5c.36 0 .71.07 1.03.19l.11-1.09a1.14 1.14 0 00-2.28 0l.12 1.09C11.3 5.07 11.64 5 12 5zm-3.34 6.07c.24 0 .46-.07.65-.2l.81-.55a3 3 0 01-1.07-1.84l-.88.42c-.4.2-.66.59-.66 1.03 0 .63.52 1.14 1.15 1.14zm9.9 4.37a7.01 7.01 0 00-4.12 4.12 7.04 7.04 0 004.12-4.12zm-13.12 0a7.01 7.01 0 004.12 4.12 7.04 7.04 0 00-4.12-4.12z" opacity=".3" /><path d="M8.66 13.07a3 3 0 00.43-.03 3.15 3.15 0 005.82 0A3.15 3.15 0 0017.81 8a3.15 3.15 0 00-2.9-5.04 3.15 3.15 0 00-5.82 0A3.15 3.15 0 006.19 8a3.1 3.1 0 00-.68 1.93 3.15 3.15 0 003.15 3.14zm6.68-2c-.24 0-.46-.07-.64-.2l-.81-.57c.55-.45.94-1.09 1.06-1.83l.88.42a1.15 1.15 0 01-.49 2.18zm-.65-5.94a1.14 1.14 0 111.13 1.97l-.88.42a2.95 2.95 0 00-1.07-1.83l.82-.56zM12 3c.62 0 1.12.49 1.14 1.1l-.11 1.09a2.94 2.94 0 00-2.05 0l-.12-1.09c.02-.61.52-1.1 1.14-1.1zm1 5c0 .55-.45 1-1 1s-1-.45-1-1 .45-1 1-1 1 .45 1 1zm-2.02 2.81a2.89 2.89 0 002.05 0l.11 1.09a1.14 1.14 0 01-2.28 0l.12-1.09zM8.66 4.93c.24 0 .46.07.64.2l.81.56a2.98 2.98 0 00-1.06 1.83l-.88-.42c-.4-.2-.66-.59-.66-1.03 0-.63.52-1.14 1.15-1.14zM8.17 8.9l.88-.42c.12.74.51 1.38 1.07 1.83l-.81.55a1.14 1.14 0 01-1.79-.94c-.01-.43.25-.82.65-1.02zM12 22a9 9 0 009-9 9 9 0 00-9 9zm6.56-6.56a7.01 7.01 0 01-4.12 4.12 7.04 7.04 0 014.12-4.12zM3 13a9 9 0 009 9 9 9 0 00-9-9zm2.44 2.44a7.01 7.01 0 014.12 4.12 7.04 7.04 0 01-4.12-4.12z" /></svg>