<svg viewBox="64 64 896 896" focusable="false"><path d="M0 0h24v24H0V0z" /><path d="M5.99 4L6 20h12V4H5.99c.01 0 0 0 0 0zM11 5c.55 0 1 .45 1 1s-.45 1-1 1-1-.45-1-1 .45-1 1-1zM8 5c.55 0 1 .45 1 1s-.45 1-1 1-1-.45-1-1 .45-1 1-1zm4 4a5 5 0 110 10 5 5 0 010-10z" opacity=".3" /><path d="M18 2.01L6 2a2 2 0 00-2 2v16a2 2 0 002 2h12a2 2 0 002-2V4c0-1.11-.89-1.99-2-1.99zM18 20H6L5.99 4H18v16z" /><circle cx="8" cy="6" r="1" /><circle cx="11" cy="6" r="1" /><path d="M12 19a5 5 0 100-10 5 5 0 000 10zm2.36-7.36a3.34 3.34 0 01-4.72 4.72l4.72-4.72z" /></svg>