<svg viewBox="64 64 896 896" focusable="false"><path d="M0 0h24v24H0z" /><path d="M10.11 5.69l-.81-.56a1.1 1.1 0 00-.64-.2c-.25 0-.47.1-.66.24l1.39 1.39c.18-.33.43-.63.72-.87zM15.83 8.9l-.88-.42a3.04 3.04 0 01-1.05 1.82l.8.57a1.14 1.14 0 001.78-.93c.01-.45-.25-.84-.65-1.04zM13.89 5.68c.55.46.94 1.1 1.06 1.84l.87-.42a1.14 1.14 0 10-1.12-1.97l-.81.55zM12 5c.36 0 .71.07 1.03.19l.11-1.09a1.14 1.14 0 00-2.28 0l.12 1.09C11.3 5.07 11.64 5 12 5zM15.94 18.77l-.71-.71c-.32.47-.59.97-.79 1.5a6.7 6.7 0 001.5-.79zM5.44 15.44a7.04 7.04 0 004.12 4.12 7.04 7.04 0 00-4.12-4.12z" opacity=".3" /><path d="M8.66 4.93c.24 0 .46.07.64.2l.81.56c-.29.24-.54.54-.72.87l1.66 1.66C11.03 8.14 11 8.08 11 8c0-.55.45-1 1-1s1 .45 1 1-.45 1-1 1c-.08 0-.14-.03-.22-.04l4.06 4.06A3.13 3.13 0 0017.8 8a3.15 3.15 0 00-2.9-5.04 3.13 3.13 0 00-5.81 0 3.1 3.1 0 00-2.52.78l1.42 1.42c.2-.13.42-.23.67-.23zm7.73 5.45a1.14 1.14 0 01-1.69.49l-.8-.57h-.01c.55-.45.94-1.09 1.06-1.83l.88.42c.4.19.66.59.66 1.03 0 .17-.04.32-.1.46zm-1.7-5.25a1.14 1.14 0 111.13 1.97l-.87.42h-.01a2.95 2.95 0 00-1.07-1.83l.82-.56zM12 3c.62 0 1.12.49 1.14 1.1l-.11 1.09a2.94 2.94 0 00-2.05 0l-.12-1.09c.02-.61.52-1.1 1.14-1.1zM19.98 17.15A8.9 8.9 0 0021 13a8.9 8.9 0 00-4.15 1.02l1.51 1.51M3 13a9 9 0 009 9 9 9 0 00-9-9zm2.44 2.44a7.01 7.01 0 014.12 4.12 7.04 7.04 0 01-4.12-4.12z" /><path d="M2.81 2.81L1.39 4.22l4.42 4.42c-.19.4-.3.84-.3 1.29a3.15 3.15 0 003.58 3.11A3.15 3.15 0 0012 15l.16-.01 1.64 1.64A8.85 8.85 0 0012 22a8.9 8.9 0 005.38-1.8l2.4 2.4 1.41-1.41L2.81 2.81zm11.63 16.75c.2-.54.47-1.04.79-1.5l.71.71a6.7 6.7 0 01-1.5.79z" /></svg>