<svg viewBox="64 64 896 896" focusable="false"><path d="M0 0h24v24H0z" /><path d="M4 18h10V6H4v12zM7.75 8c.8 0 1.39.39 1.81.67.31.21.51.33.69.33.37 0 .8-.41.95-.61l1.42 1.42c-.36.4-1.22 1.19-2.37 1.19-.79 0-1.37-.38-1.79-.66-.33-.22-.52-.34-.71-.34-.37 0-.8.41-.95.61L5.37 9.19A3.36 3.36 0 017.75 8zm0 5c.8 0 1.39.39 1.81.67.31.21.51.33.69.33.37 0 .8-.41.95-.61l1.42 1.42c-.36.4-1.22 1.19-2.37 1.19-.79 0-1.37-.38-1.79-.66-.33-.22-.52-.34-.71-.34-.37 0-.8.41-.95.61l-1.42-1.42A3.32 3.32 0 017.75 13zM16 6v12h4V6h-4zm2 11a1 1 0 01-1-1 1 1 0 011-1 1 1 0 011 1 1 1 0 01-1 1zm0-4a1 1 0 01-1-1 1 1 0 011-1 1 1 0 011 1 1 1 0 01-1 1zm1-4h-2V7h2v2z" opacity=".3" /><path d="M20 4H4a2 2 0 00-2 2v12c0 1.1.9 2 2 2h16a2 2 0 002-2V6a2 2 0 00-2-2zM4 6h10v12H4V6zm16 12h-4V6h4v12zm-1-9h-2V7h2v2zm-1 4a1 1 0 01-1-1 1 1 0 011-1 1 1 0 011 1 1 1 0 01-1 1zm0 4a1 1 0 01-1-1 1 1 0 011-1 1 1 0 011 1 1 1 0 01-1 1zm-7.75-1c-.79 0-1.37-.38-1.79-.66-.33-.22-.52-.34-.71-.34-.37 0-.8.41-.95.61l-1.42-1.42A3.32 3.32 0 017.75 13c.8 0 1.39.39 1.81.67.31.21.51.33.69.33.37 0 .8-.41.95-.61l1.42 1.42c-.36.4-1.21 1.19-2.37 1.19zm0-5c-.79 0-1.37-.38-1.79-.66-.33-.22-.52-.34-.71-.34-.37 0-.8.41-.95.61L5.37 9.19A3.36 3.36 0 017.75 8c.8 0 1.39.39 1.81.67.31.21.51.33.69.33.37 0 .8-.41.95-.61l1.42 1.42c-.36.4-1.21 1.19-2.37 1.19z" /></svg>