<svg viewBox="64 64 896 896" focusable="false"><path d="M0 0h24v24H0z" /><path d="M5 15v5h14v-5H5zm2.5 4a1.5 1.5 0 110-3 1.5 1.5 0 010 3zm9 0a1.5 1.5 0 110-3 1.5 1.5 0 010 3z" opacity=".3" /><path d="M18.92 9.01A1.5 1.5 0 0017.5 8h-11a1.5 1.5 0 00-1.42 1.01L3 15v8a1 1 0 001 1h1a1 1 0 001-1v-1h12v1a1 1 0 001 1h1a1 1 0 001-1v-8l-2.08-5.99zM6.85 10h10.29l1.04 3H5.81l1.04-3zM19 20H5v-5h14v5zM6 17.5a1.5 1.5 0 113 0 1.5 1.5 0 01-3 0zm9 0a1.5 1.5 0 113 0 1.5 1.5 0 01-3 0zM12 6.36L9.17 3.54l1.41-1.41L12 3.54 15.54 0l1.41 1.41L12 6.36z" /></svg>