<svg viewBox="64 64 896 896" focusable="false"><path d="M0 0h24v24H0V0z" /><path d="M5 19h14V5H5v14zm9.73-11.85c.2-.2.51-.2.71 0l1.41 1.41c.2.2.2.51 0 .71l-1.06 1.06-2.12-2.12 1.06-1.06zM7 14.86l5.96-5.96 2.12 2.12L9.1 17H7v-2.14z" opacity=".3" /><path d="M19 3h-4.18C14.4 1.84 13.3 1 12 1s-2.4.84-2.82 2H5a2 2 0 00-2 2v14c0 1.1.9 2 2 2h14a2 2 0 002-2V5a2 2 0 00-2-2zm-7-.25c.41 0 .75.34.75.75s-.34.75-.75.75-.75-.34-.75-.75.34-.75.75-.75zM19 19H5V5h14v14z" /><path d="M15.08 11.03l-2.12-2.12L7 14.86V17h2.1zM16.85 9.27a.5.5 0 000-.71l-1.41-1.41a.5.5 0 00-.71 0l-1.06 1.06 2.12 2.12 1.06-1.06z" /></svg>