<svg viewBox="64 64 896 896" focusable="false"><path d="M0 0h24v24H0z" /><path d="M12 4a8.01 8.01 0 010 16 8.01 8.01 0 010-16m-2 7V8a1 1 0 00-1-1 1 1 0 00-1 1v3a1 1 0 001 1 1 1 0 001-1zm6 0V8a1 1 0 00-1-1 1 1 0 00-1 1v3a1 1 0 001 1 1 1 0 001-1zm-2 5a2 2 0 00-2-2 2 2 0 00-2 2v2h4v-2z" opacity=".3" /><path d="M12 4a8.01 8.01 0 010 16 8.01 8.01 0 010-16m0-2a10 10 0 100 20 10 10 0 000-20zm-2 9V8a1 1 0 00-1-1 1 1 0 00-1 1v3a1 1 0 001 1 1 1 0 001-1zm6 0V8a1 1 0 00-1-1 1 1 0 00-1 1v3a1 1 0 001 1 1 1 0 001-1zm-2 5a2 2 0 00-2-2 2 2 0 00-2 2v2h4v-2z" /></svg>