<svg viewBox="64 64 896 896" focusable="false"><path d="M0 0h24v24H0z" /><path d="M19.5 5.65a.5.5 0 00-.5.5V12h-2V3.42c0-.28-.22-.5-.5-.5s-.5.22-.5.5V12h-2V2.51c0-.28-.22-.5-.5-.5s-.5.22-.5.5V12h-2V4.79c0-.28-.22-.5-.5-.5s-.5.23-.5.5v12.87l-5.35-2.83-.51.45 5.86 6.1c.38.39.9.62 1.44.62H18a2 2 0 002-2V6.15a.5.5 0 00-.5-.5z" opacity=".3" /><path d="M19.5 3.65c-.17 0-.34.02-.5.05v-.28a2.5 2.5 0 00-3.44-2.32 2.5 2.5 0 00-4.55 1.24A2.5 2.5 0 008 4.79v9.55l-2.41-1.28a2 2 0 00-2.26.27l-2.07 1.83 7.3 7.61c.75.78 1.8 1.23 2.89 1.23H18a4 4 0 004-4V6.15a2.5 2.5 0 00-2.5-2.5zM20 20a2 2 0 01-2 2h-6.55c-.54 0-1.07-.22-1.44-.62l-5.86-6.11.51-.45L10 17.66V4.79c0-.28.22-.5.5-.5s.5.23.5.5V12h2V2.51c0-.28.22-.5.5-.5s.5.22.5.5V12h2V3.42c0-.28.22-.5.5-.5s.5.22.5.5V12h2V6.15c0-.28.22-.5.5-.5s.5.22.5.5V20z" /></svg>