<svg viewBox="64 64 896 896" focusable="false"><path d="M0 0h24v24H0V0z" /><path d="M12 6c-2.45 0-4.71.2-7.29.64A21 21 0 004 12a21 21 0 00.71 5.36 41.88 41.88 0 0014.58 0A21 21 0 0020 12a21 21 0 00-.71-5.36A41.88 41.88 0 0012 6z" opacity=".3" /><path d="M21.13 5.78l-.25-.89-.93-.16a43.63 43.63 0 00-15.9-.01l-.93.16-.25.9a23 23 0 000 12.44l.25.89.93.16a43.63 43.63 0 0015.9.01l.93-.16.25-.89a23 23 0 000-12.45zm-1.84 11.58a41.88 41.88 0 01-14.58 0A21 21 0 014 12a21 21 0 01.71-5.36 41.88 41.88 0 0114.58 0A21 21 0 0120 12a21 21 0 01-.71 5.36z" /></svg>