<svg viewBox="64 64 896 896" focusable="false"><path d="M0 0h24v24H0z" /><path d="M13.9 7.59C13.74 6.67 12.94 6 12 6s-1.74.67-1.9 1.59L9.78 10h4.44l-.32-2.41zM17.48 16.34A12.1 12.1 0 0012 15c-2.37 0-4.29.73-5.48 1.34a.97.97 0 00-.52.88V18h12v-.78c0-.38-.2-.72-.52-.88z" opacity=".3" /><path d="M18.39 14.56A14.03 14.03 0 0012 13c-2.53 0-4.71.7-6.39 1.56A2.97 2.97 0 004 17.22V20h16v-2.78c0-1.12-.61-2.15-1.61-2.66zM18 18H6v-.78c0-.38.2-.72.52-.88A12.1 12.1 0 0112 15c2.37 0 4.29.73 5.48 1.34.32.16.52.5.52.88V18zM9.78 12h4.44a2 2 0 001.98-2.26l-.32-2.45a3.93 3.93 0 00-7.76 0L7.8 9.74A2 2 0 009.78 12zm.32-4.41C10.26 6.67 11.06 6 12 6s1.74.67 1.9 1.59l.32 2.41H9.78l.32-2.41z" /></svg>