<svg viewBox="64 64 896 896" focusable="false"><path d="M0 0h24v24H0z" /><circle cx="9" cy="8" opacity=".3" r="2" /><path d="M14.48 16.34A12.1 12.1 0 009 15c-2.37 0-4.29.73-5.48 1.34a.97.97 0 00-.52.88V18h12v-.78c0-.38-.2-.72-.52-.88z" opacity=".3" /><path d="M9 12a4 4 0 100-8 4 4 0 000 8zm0-6a2 2 0 012 2c0 1.1-.9 2-2 2s-2-.9-2-2 .9-2 2-2zM20 9V6h-2v3h-3v2h3v3h2v-3h3V9zM15.39 14.56A14.03 14.03 0 009 13c-2.53 0-4.71.7-6.39 1.56A2.97 2.97 0 001 17.22V20h16v-2.78c0-1.12-.61-2.15-1.61-2.66zM15 18H3v-.78c0-.38.2-.72.52-.88A12.1 12.1 0 019 15c2.37 0 4.29.73 5.48 1.34.32.16.52.5.52.88V18z" /></svg>