<svg viewBox="64 64 896 896" focusable="false"><path d="M0 0h24v24H0z" /><path d="M17.65 14.75c.22-.37.35-.79.35-1.25a2.5 2.5 0 10-4.27 1.77l-1.41 1.41a4.46 4.46 0 01-.57-5.65c-.22.01-.44.02-.67.07A4 4 0 0012 19h6.53a1.47 1.47 0 00.99-2.56l-1.87-1.69zM17 18a1 1 0 01-1-1c0-.55.45-1 1-1s1 .45 1 1a1 1 0 01-1 1z" opacity=".3" /><circle cx="17" cy="17" r="1" /><path d="M20.86 14.97l-.93-.84a4.47 4.47 0 00-6.05-4.82A5.8 5.8 0 0012 9c-4.26 0-5.65 3.58-5.89 4.85A3 3 0 017 8h2.5a2.5 2.5 0 000-5H8a1 1 0 00-1 1 1 1 0 001 1h1.5c.28 0 .5.22.5.5a.5.5 0 01-.5.5H7a5 5 0 00-.93 9.91A6 6 0 0012 21h6.53c3.11 0 4.7-3.89 2.33-6.03zM18.53 19H12a4 4 0 01-.92-7.9c.22-.05.45-.06.67-.07a4.44 4.44 0 00.57 5.65l1.41-1.41A2.5 2.5 0 1118 13.5c0 .46-.13.88-.35 1.25l1.87 1.7a1.47 1.47 0 01-.99 2.55z" /></svg>