<svg viewBox="64 64 896 896" focusable="false"><path d="M0 0h24v24H0V0z" /><path d="M18.6 17.22c.66.37 1.28.79 1.88 1.27l1.07-1.07c-.91-.75-1.9-1.39-2.95-1.9v1.7zM3.53 18.5c.58-.47 1.21-.89 1.87-1.27v-1.71a15.13 15.13 0 00-2.95 1.9l1.08 1.08z" opacity=".3" /><path d="M23.71 16.67a16.97 16.97 0 00-23.42 0 1 1 0 00-.29.71 1 1 0 00.29.71l2.48 2.48a1 1 0 00.71.29c.27 0 .52-.11.7-.28.79-.74 1.69-1.36 2.66-1.85a1 1 0 00.56-.9v-3.1a14.91 14.91 0 019.2-.01v3.1a1 1 0 00.56.9c.98.49 1.87 1.12 2.67 1.85.18.18.43.28.7.28a1 1 0 00.71-.29l2.48-2.48a1 1 0 00-.01-1.41zm-18.31.56c-.66.37-1.29.8-1.87 1.27l-1.07-1.07c.91-.75 1.9-1.39 2.95-1.9v1.7zm15.08 1.26c-.6-.48-1.22-.9-1.88-1.27v-1.7c1.05.51 2.03 1.15 2.95 1.9l-1.07 1.07zM7 6.43l4.94 4.94 7.07-7.07-1.41-1.42-5.66 5.66L8.4 5H11V3H5v6h2z" /></svg>