<svg viewBox="64 64 896 896" focusable="false"><path d="M0 0h24v24H0z" /><path d="M13 5a4.99 4.99 0 00-4.97 4.67L6.7 12H8v4h3v3h3v-3.95l.89-.43A5 5 0 0013 5zm3.82 3.95l-.85.66c.02.12.03.25.03.39l-.02.39.83.66c.08.06.1.16.05.25l-.8 1.39c-.05.09-.16.12-.24.09l-.99-.4a3 3 0 01-.67.39L14 13.83c-.01.1-.1.17-.2.17h-1.6a.2.2 0 01-.2-.17l-.15-1.06c-.25-.1-.47-.23-.68-.39l-.99.4c-.09.03-.2 0-.25-.09l-.8-1.39a.19.19 0 01.05-.25l.84-.66a2.45 2.45 0 01.02-.78l-.85-.66c-.08-.06-.1-.16-.05-.26l.8-1.38c.05-.09.15-.12.24-.09l1 .4c.2-.15.43-.29.67-.39L12 6.17a.2.2 0 01.2-.17h1.6c.1 0 .18.07.2.17l.15 1.06a3 3 0 01.67.39l1-.4c.09-.03.2 0 .24.09l.8 1.38c.05.09.03.2-.04.26z" opacity=".3" /><path d="M15.82 7.22l-1 .4a3 3 0 00-.67-.39L14 6.17a.2.2 0 00-.2-.17h-1.6c-.1 0-.18.07-.19.17l-.15 1.06c-.24.1-.47.23-.67.39l-1-.4c-.09-.03-.2 0-.24.09l-.8 1.38a.2.2 0 00.05.26l.85.66c-.03.12-.05.26-.05.39l.03.39-.84.66a.19.19 0 00-.05.25l.8 1.39c.05.09.15.12.25.09l.99-.4c.21.16.43.29.68.39l.14 1.06c.02.1.1.17.2.17h1.6a.2.2 0 00.2-.17l.15-1.06c.24-.1.47-.23.67-.39l.99.4c.09.04.2 0 .24-.09l.8-1.39a.19.19 0 00-.05-.25l-.83-.66a2.56 2.56 0 000-.78l.85-.66a.2.2 0 00.05-.26l-.8-1.38c-.05-.09-.16-.12-.25-.09zM13 11.43a1.43 1.43 0 110-2.86 1.43 1.43 0 010 2.86z" /><path d="M19.94 9.06a7.06 7.06 0 00-6.53-6.05L13 3a7 7 0 00-6.92 6l-1.93 3.48A1 1 0 005 14h1v2c0 1.1.9 2 2 2h1v3h7v-4.68a7.02 7.02 0 003.94-7.26zm-5.05 5.57l-.89.42V19h-3v-3H8v-4H6.7l1.33-2.33a4.99 4.99 0 116.86 4.96z" /></svg>