<svg viewBox="64 64 896 896" focusable="false"><g><path d="M0 0h24v24H0z" /><path d="M0 0h24v24H0z" /></g><path d="M6 11.09c0 4 2.55 7.7 6 8.83a8.13 8.13 0 003.14-1.95L6 8.83v2.26zm6-6.95L8.34 5.51l9.02 9.02c.41-1.08.64-2.25.64-3.44v-4.7l-6-2.25z" opacity=".3" /><path d="M12 4.14l6 2.25v4.7c0 1.19-.23 2.36-.64 3.44l1.51 1.51A11.65 11.65 0 0020 11.09V5l-8-3-5.22 1.96 1.55 1.55L12 4.14zM2.81 2.81L1.39 4.22 4 6.83v4.26c0 5.05 3.41 9.76 8 10.91a9.91 9.91 0 004.55-2.62l3.23 3.23 1.41-1.41L2.81 2.81zM12 19.92c-3.45-1.13-6-4.82-6-8.83V8.83l9.14 9.14A8.13 8.13 0 0112 19.92z" /></svg>