<svg viewBox="64 64 896 896" focusable="false"><path d="M0 0h24v24H0z" /><path d="M18 14H6V3h5v1H9.5a.5.5 0 00-.5.5c0 .28.22.5.5.5H11l.1 1H9.5a.5.5 0 00-.5.5c0 .28.22.5.5.5h1.81a4.03 4.03 0 002.6 2.36l2.62.73A1.98 1.98 0 0118 12v2zM5 21a1 1 0 01-1-1c0-.55.45-1 1-1s1 .45 1 1a1 1 0 01-1 1zm14 0a1 1 0 01-1-1c0-.55.45-1 1-1s1 .45 1 1a1 1 0 01-1 1zm-7 0a1 1 0 01-1-1c0-.55.45-1 1-1s1 .45 1 1a1 1 0 01-1 1z" opacity=".3" /><path d="M20 12a3.96 3.96 0 00-2.91-3.82l-2.62-.74A2.06 2.06 0 0113 5.5V1H4v15h16v-4zm-2 2H6V3h5v1H9.5a.5.5 0 00-.5.5c0 .28.22.5.5.5H11l.1 1H9.5a.5.5 0 00-.5.5c0 .28.22.5.5.5h1.81a4.03 4.03 0 002.6 2.36l2.62.73A1.98 1.98 0 0118 12v2zM5 17a3 3 0 100 6 3 3 0 000-6zm0 4a1 1 0 01-1-1c0-.55.45-1 1-1s1 .45 1 1a1 1 0 01-1 1zm14-4a3 3 0 100 6 3 3 0 000-6zm0 4a1 1 0 01-1-1c0-.55.45-1 1-1s1 .45 1 1a1 1 0 01-1 1zm-7-4a3 3 0 100 6 3 3 0 000-6zm0 4a1 1 0 01-1-1c0-.55.45-1 1-1s1 .45 1 1a1 1 0 01-1 1z" /></svg>