<svg viewBox="64 64 896 896" focusable="false"><path d="M0 0h24v24H0z" /><path d="M8.14 15h7.7a7.92 7.92 0 00-7.7 0z" opacity=".3" /><circle cx="12" cy="8" opacity=".3" r="1" /><path d="M12 11a3 3 0 100-6 3 3 0 000 6zm0-4c.55 0 1 .45 1 1s-.45 1-1 1-1-.45-1-1 .45-1 1-1zM12 12c-1.84 0-3.56.5-5.03 1.37A1.98 1.98 0 006 15.09V17h12v-1.91a2 2 0 00-.97-1.72A9.84 9.84 0 0012 12zm-3.86 3a8.01 8.01 0 017.71 0H8.14zM21.23 8.15l1.85-.77A12.06 12.06 0 0016.62.92l-.77 1.85a10.12 10.12 0 015.38 5.38zM8.15 2.77L7.38.92A12.09 12.09 0 00.92 7.38l1.85.77a10.12 10.12 0 015.38-5.38zM2.77 15.85l-1.85.77a12.06 12.06 0 006.46 6.46l.77-1.85a10.12 10.12 0 01-5.38-5.38zM15.85 21.23l.77 1.85a12.06 12.06 0 006.46-6.46l-1.85-.77a10.12 10.12 0 01-5.38 5.38z" /></svg>