<svg viewBox="64 64 896 896" focusable="false"><path d="M0 0h24v24H0V0z" /><path d="M12 4a8 8 0 100 16 8 8 0 000-16zm3.5 4a1.5 1.5 0 110 3 1.5 1.5 0 010-3zm-7 0a1.5 1.5 0 110 3 1.5 1.5 0 010-3zm3.5 9.5A5.5 5.5 0 016.88 14h1.67a3.98 3.98 0 006.9 0h1.67A5.5 5.5 0 0112 17.5z" opacity=".3" /><circle cx="15.5" cy="9.5" r="1.5" /><circle cx="8.5" cy="9.5" r="1.5" /><path d="M12 16a4 4 0 01-3.45-2H6.88a5.5 5.5 0 0010.24 0h-1.67A3.98 3.98 0 0112 16zm-.01-14A10 10 0 1012 21.99 10 10 0 0011.99 2zM12 20a8 8 0 110-16 8 8 0 010 16z" /></svg>