<svg viewBox="64 64 896 896" focusable="false"><path d="M0 0h24v24H0V0z" /><circle cx="18" cy="5" opacity=".3" r="1" /><circle cx="6" cy="12" opacity=".3" r="1" /><circle cx="18" cy="19.02" opacity=".3" r="1" /><path d="M18 16.08c-.76 0-1.44.3-1.96.77L8.91 12.7c.05-.23.09-.46.09-.7s-.04-.47-.09-.7l7.05-4.11A2.99 2.99 0 0021 5a3 3 0 10-5.91.7L8.04 9.81A2.99 2.99 0 003 12a3 3 0 005.04 2.19l7.12 4.16A2.92 2.92 0 1018 16.08zM18 4c.55 0 1 .45 1 1s-.45 1-1 1-1-.45-1-1 .45-1 1-1zM6 13c-.55 0-1-.45-1-1s.45-1 1-1 1 .45 1 1-.45 1-1 1zm12 7.02c-.55 0-1-.45-1-1s.45-1 1-1 1 .45 1 1-.45 1-1 1z" /></svg>