<svg viewBox="64 64 896 896" focusable="false"><path d="M0 0h24v24H0V0z" /><path d="M12 6a7 7 0 10-.01 13.99A7 7 0 0012 6zm0 1c.46 0 .9.06 1.33.15l-2.72 4.7-2.32-3.56A6 6 0 0112 7zm-6 6c0-1.54.59-2.95 1.55-4.01L10.81 14H6.09A6.64 6.64 0 016 13zm.35 2h5.33l-2.03 3.5.11.06A6 6 0 016.35 15zM12 19c-.48 0-.94-.06-1.39-.17l2.85-4.92 2.11 3.9A5.98 5.98 0 0112 19zm6-6c0 1.6-.63 3.06-1.66 4.13L13.57 12h4.34c.05.33.09.66.09 1zm-5.74-2l2.05-3.54A6.01 6.01 0 0117.65 11h-5.39z" opacity=".3" /><path d="M7.55 8.99A5.96 5.96 0 006.09 14h4.72L7.55 8.99zm6.76-1.53L12.26 11h5.39a6.01 6.01 0 00-3.34-3.54zm-.98-.31a6 6 0 00-5.04 1.14l2.32 3.56 2.72-4.7zM11.68 15H6.35a6 6 0 003.41 3.56l-.11-.06 2.03-3.5zm7.35-7.61l1.42-1.42c-.43-.51-.9-.99-1.41-1.41l-1.42 1.42a9 9 0 101.41 1.41zM12 20a7 7 0 11-.01-13.99A7 7 0 0112 20zM9 1h6v2H9zm7.34 16.13A5.94 5.94 0 0017.91 12h-4.34l2.77 5.13zm-5.73 1.7a5.81 5.81 0 004.96-1.02l-2.11-3.9-2.85 4.92z" /></svg>