<svg viewBox="64 64 896 896" focusable="false"><path d="M0 0h24v24H0z" /><path d="M15 19H8v-6.63c1.26-.34 2.11-1.27 2.77-1.99C11.6 9.47 12.08 9 13 9h2v10zm-8-8.5a2 2 0 01-2-2 2 2 0 011.37-1.88l.8-.27.36-.76a2.69 2.69 0 014.21-.92l.78.65S13.16 5 13.99 5a2 2 0 012 2h-3C9.67 7 9.15 10.5 7 10.5z" opacity=".3" /><path d="M15 19H8v-6.63c1.26-.34 2.11-1.27 2.77-1.99C11.6 9.47 12.08 9 13 9h2v10zM10 2.02a4.72 4.72 0 00-4.27 2.71A3.98 3.98 0 006 12.36V21h11v-2h2a2 2 0 002-2v-6a2 2 0 00-2-2h-1.56A3.9 3.9 0 0018 7a4 4 0 00-4.98-3.87A4.7 4.7 0 0010 2.02zM7 10.5a2 2 0 01-2-2 2 2 0 011.37-1.88l.8-.27.36-.76a2.69 2.69 0 014.21-.92l.78.65S13.16 5 13.99 5a2 2 0 012 2h-3C9.67 7 9.15 10.5 7 10.5zM17 17v-6h2v6h-2z" /></svg>