<svg viewBox="64 64 896 896" focusable="false"><path d="M0 0h24v24H0z" /><path d="M6 6.73a7.95 7.95 0 00-1.37 8.37L6 14.31V6.73zM11 4.08c-.25.06-1.98.42-3 1.01v8.07l3-1.73V4.08zM13 4.07v1.58l6.54 3.79A7.97 7.97 0 0013 4.07zM12 13.15l-6.36 3.67a8.08 8.08 0 002.38 2.09L15 14.89l-3-1.74zM13 7.96v3.46l6.37 3.68c.4-.95.63-1.99.63-3.09l-7-4.05zM10.42 19.84a7.97 7.97 0 007.94-3.01L17 16.04l-6.58 3.8z" opacity=".3" /><path d="M12 2a10 10 0 100 20 10 10 0 000-20zm1 2.07a7.98 7.98 0 016.54 5.36L13 5.65V4.07zM8 5.08c1.02-.59 2.75-.95 3-1.01v7.35l-3 1.73V5.08zM4.63 15.1A7.95 7.95 0 016 6.73v7.58l-1.37.79zm1.01 1.73L12 13.15l3 1.73-6.98 4.03a7.8 7.8 0 01-2.38-2.08zM12 20c-.54 0-1.07-.06-1.58-.16l6.58-3.8 1.36.78A7.95 7.95 0 0112 20zm1-8.58V7.96l7 4.05c0 1.1-.23 2.14-.63 3.09L13 11.42z" /></svg>