<svg viewBox="64 64 896 896" focusable="false"><path d="M0 0h24v24H0z" /><path d="M10.44 5.88c.19-.15.43-.27.72-.36.29-.09.64-.13 1.03-.13.4 0 .76.06 1.06.16.3.11.55.25.75.44s.35.41.44.68c.1.26.15.54.15.85h3.01a4.07 4.07 0 00-1.46-3.24 4.94 4.94 0 00-1.69-.94 7.87 7.87 0 00-4.39-.05c-.65.2-1.22.48-1.7.83-.48.36-.85.79-1.11 1.29a3.5 3.5 0 00-.4 1.67c0 .64.13 1.19.39 1.67l.15.25H12a5.76 5.76 0 01-1.41-.7c-.49-.33-.74-.73-.74-1.21a1.52 1.52 0 01.59-1.21zM3 12h9.62l.55.2c.37.17.66.34.87.51.21.17.35.36.43.57.07.2.11.43.11.69 0 .23-.05.45-.14.66-.09.2-.23.38-.42.53-.19.15-.42.26-.71.35a4.8 4.8 0 01-2.19 0c-.35-.09-.66-.23-.91-.42s-.45-.44-.59-.75-.25-.76-.25-1.21H6.4a4.27 4.27 0 001.87 3.71c.37.26.78.48 1.22.65a7.82 7.82 0 002.82.52c.8 0 1.53-.09 2.18-.28a5.28 5.28 0 001.67-.79 3.54 3.54 0 001.45-2.98 3.92 3.92 0 00-.48-1.94H21V10H3v2z" /></svg>