<svg viewBox="64 64 896 896" focusable="false"><path d="M0 0h24v24H0z" /><path d="M14.5 10.81C14.55 9.8 15.64 9 16.99 9c1.38 0 2.5.84 2.5 1.88H14.5v1.22A4 4 0 0021 9V4h-8v3.5h1.5v3.31zM19 5.5c.55 0 1 .45 1 1s-.45 1-1 1-1-.45-1-1 .45-1 1-1zm-5 1c0-.55.45-1 1-1s1 .45 1 1-.45 1-1 1-1-.45-1-1z" opacity=".3" /><path d="M11 2v5.5h2V4h8v5a4 4 0 01-6.5 3.1v2.35A5.98 5.98 0 0023 9V2H11z" /><circle cx="19" cy="6.5" r="1" /><circle cx="15" cy="6.5" r="1" /><path d="M16.99 9c-1.35 0-2.44.8-2.49 1.81v.07h4.99c0-1.04-1.12-1.88-2.5-1.88zM1 16a6 6 0 0012 0V9H1v7zm2-5h8v5a4 4 0 11-8 0v-5z" /><path d="M7 20a4 4 0 004-4v-5H3v5a4 4 0 004 4zm0-2.12c-1.38 0-2.5-.84-2.5-1.88h5c0 1.04-1.12 1.88-2.5 1.88zm2-5.38c.55 0 1 .45 1 1s-.45 1-1 1-1-.45-1-1 .45-1 1-1zm-4 0c.55 0 1 .45 1 1s-.45 1-1 1-1-.45-1-1 .45-1 1-1z" opacity=".3" /><circle cx="5" cy="13.5" r="1" /><circle cx="9" cy="13.5" r="1" /><path d="M7 17.88c1.38 0 2.5-.84 2.5-1.88h-5c0 1.04 1.12 1.88 2.5 1.88z" /></svg>