<svg viewBox="64 64 896 896" focusable="false"><path d="M0 0h24v24H0V0zm0 0h24v24H0V0z" /><path d="M12 6a1 1 0 00-1-1H5.82l.66-3.18.02-.23c0-.31-.13-.59-.33-.8L5.38 0 .44 4.94A1.5 1.5 0 000 6v6.5c0 .83.67 1.5 1.5 1.5h6.75a1.5 1.5 0 001.38-.91l2.26-5.29c.07-.17.11-.36.11-.55V6zm-2 1.13L7.92 12H2V6.21l1.93-1.93L3.36 7H10v.13zM22.5 10h-6.75a1.5 1.5 0 00-1.38.91l-2.26 5.29c-.07.17-.11.36-.11.55V18a1 1 0 001 1h5.18l-.66 3.18-.02.24c0 .31.13.59.33.8l.79.78 4.94-4.94c.27-.27.44-.65.44-1.06v-6.5c0-.83-.67-1.5-1.5-1.5zm-.5 7.79l-1.93 1.93.57-2.72H14v-.13L16.08 12H22v5.79z" /><path d="M3.93 4.28L2 6.21V12h5.92L10 7.13V7H3.36zM14 16.87V17h6.64l-.57 2.72L22 17.79V12h-5.92z" opacity=".3" /></svg>