<svg viewBox="64 64 896 896" focusable="false"><path d="M0 0h24v24H0z" /><path d="M12 4.29l5.91 3.28-3.01 1.67a4.02 4.02 0 00-5.8 0L6.09 7.57 12 4.29zm-1 14.87l-6-3.33V9.26L8.13 11A4 4 0 0011 15.87v3.29zM10 12c0-1.1.9-2 2-2s2 .9 2 2-.9 2-2 2-2-.9-2-2zm3 7.16v-3.28A4 4 0 0015.87 11L19 9.26v6.57l-6 3.33z" opacity=".3" /><path d="M21 7l-9-5-9 5v10l9 5 9-5V7zm-9-2.71l5.91 3.28-3.01 1.67a4.02 4.02 0 00-5.8 0L6.09 7.57 12 4.29zm-1 14.87l-6-3.33V9.26L8.13 11A4 4 0 0011 15.87v3.29zM10 12c0-1.1.9-2 2-2s2 .9 2 2-.9 2-2 2-2-.9-2-2zm3 7.16v-3.28A4 4 0 0015.87 11L19 9.26v6.57l-6 3.33z" /></svg>