<svg viewBox="64 64 896 896" focusable="false"><path d="M0 0h24v24H0z" /><path d="M18 10H6a2 2 0 00-1.85 1.25l11.11 2.72a1 1 0 00.88-.2l3.49-2.92A2.02 2.02 0 0018 10zM18 6H6a2 2 0 00-2 2v.55A4 4 0 016 8h12a4 4 0 012 .55V8a2 2 0 00-2-2z" opacity=".3" /><path d="M18 4H6a4 4 0 00-4 4v8a4 4 0 004 4h12a4 4 0 004-4V8a4 4 0 00-4-4zm-1.86 9.77c-.24.2-.57.28-.88.2L4.15 11.25A2 2 0 016 10h12c.67 0 1.26.34 1.63.84l-3.49 2.93zM20 8.55A4 4 0 0018 8H6a4 4 0 00-2 .55V8c0-1.1.9-2 2-2h12a2 2 0 012 2v.55z" /></svg>