<svg viewBox="64 64 896 896" focusable="false"><path d="M0 0h24v24H0z" /><path d="M10 21H4a1 1 0 01-1-1v-6c0-.39.23-.64.36-.75L7 9.87V12h3v9zm8.5-14.5a1 1 0 01-1-1c0-.4.43-1.22 1-2.05.57.83 1 1.65 1 2.05a1 1 0 01-1 1z" opacity=".3" /><path d="M20.75 16a1.25 1.25 0 000-2.5H12v-1h6.75a1.25 1.25 0 00.07-2.49L8.87 10l1.48-2.6c.09-.17.14-.34.14-.54 0-.26-.09-.5-.26-.7L9.12 5l-7.18 6.8c-.6.56-.94 1.35-.94 2.17V20a3 3 0 003 3h13.75a1.25 1.25 0 000-2.5H12v-1h7.75a1.25 1.25 0 000-2.5H12v-1h8.75zM10 21H4a1 1 0 01-1-1v-6c0-.39.23-.64.36-.75L7 9.87V12h3v9zm3.5-12c.83 0 1.5-.67 1.5-1.5 0-.84-1.5-2.5-1.5-2.5S12 6.66 12 7.5c0 .83.67 1.5 1.5 1.5zm5-8S16 3.83 16 5.5a2.5 2.5 0 005 0C21 3.83 18.5 1 18.5 1zm0 5.5a1 1 0 01-1-1c0-.4.43-1.22 1-2.05.57.83 1 1.65 1 2.05a1 1 0 01-1 1z" /></svg>