<svg viewBox="64 64 896 896" focusable="false" xmlns="http://www.w3.org/2000/svg"><path d="M0 0h24v24H0z" /><path d="M19.03 3.56A10.96 10.96 0 0013 1.05v2.01c1.73.19 3.31.88 4.61 1.92l1.42-1.42zM11 3.06V1.05c-2.29.2-4.36 1.12-6.03 2.51l1.42 1.42A8.93 8.93 0 0111 3.06zM4.98 6.39L3.56 4.97A10.96 10.96 0 001.05 11h2.01a8.93 8.93 0 011.92-4.61zM20.94 11h2.01a10.96 10.96 0 00-2.51-6.03l-1.42 1.42A8.93 8.93 0 0120.94 11zM7 12l3.44 1.56L12 17l1.56-3.44L17 12l-3.44-1.56L12 7l-1.56 3.44z" /><path d="M12 21a8.96 8.96 0 01-7.46-4H7v-2H1v6h2v-2.7a10.96 10.96 0 0019.44-2.86l-1.96-.45A9 9 0 0112 21z" /></svg>