<svg viewBox="64 64 896 896" focusable="false" xmlns="http://www.w3.org/2000/svg"><path d="M0 0h24v24H0z" /><circle cx="6.5" cy="15.5" r="1.5" /><circle cx="13.5" cy="15.5" r="1.5" /><path d="M4 11V8h7.29A6.9 6.9 0 0111 6H4.43c.83-.71 2.98-1.09 6.65-.98.1-.7.3-1.37.59-1.99C2.97 2.67 2 5.02 2 7v9.5c0 .95.38 1.81 1 2.44V21a1 1 0 001 1h1a1 1 0 001-1v-1h8v1a1 1 0 001 1h1a1 1 0 001-1v-2.06c.62-.63 1-1.49 1-2.44V13a6.93 6.93 0 01-4.89-2H4zm12 5a2 2 0 01-2 2H6a2 2 0 01-2-2v-3h12v3z" /><path d="M18 1a5 5 0 100 10 5 5 0 000-10zm.5 8h-1V8h1v1zm0-2h-1V3h1v4z" /></svg>