<svg viewBox="64 64 896 896" focusable="false" xmlns="http://www.w3.org/2000/svg"><path d="M0 0h24v24H0z" /><path d="M16.99 5l.63 1.37 1.37.63-1.37.63L16.99 9l-.63-1.37L14.99 7l1.37-.63.63-1.37M20 14a2 2 0 002-2c0-1.1-2-4-2-4s-2 2.9-2 4 .9 2 2 2zm-9-7.9V4h2c.57 0 1.1.17 1.55.45l1.43-1.43A4.9 4.9 0 0013 2H7.5v2H9v2.11A5.02 5.02 0 005.25 9.5h2.16a3 3 0 015.58 1.4l2.01.75V11a5 5 0 00-4-4.9zM22 19v1l-8 2.5-7-1.94V22H1V11h7.97l6.16 2.3A2.89 2.89 0 0117 16h2a3 3 0 013 3zM5 20v-7H3v7h2zm14.9-1.43a1 1 0 00-.9-.56h-5.35c-.54 0-1.07-.09-1.58-.26l-2.38-.79.63-1.9 2.38.79c.31.1 2.3.15 2.3.15 0-.37-.23-.7-.57-.83L8.61 13H7v5.48l6.97 1.93 5.93-1.84z" /></svg>