<svg viewBox="64 64 896 896" focusable="false" xmlns="http://www.w3.org/2000/svg"><path d="M0 0h24v24H0z" /><circle cx="6" cy="14" r="1" /><circle cx="6" cy="18" r="1" /><circle cx="6" cy="10" r="1" /><circle cx="3" cy="10" r=".5" /><circle cx="6" cy="6" r="1" /><circle cx="3" cy="14" r=".5" /><circle cx="10" cy="21" r=".5" /><circle cx="10" cy="3" r=".5" /><circle cx="10" cy="6" r="1" /><circle cx="10" cy="14" r="1.5" /><circle cx="10" cy="10" r="1.5" /><circle cx="10" cy="18" r="1" /><path d="M12 3v2a7 7 0 010 14v2c4.96 0 9-4.04 9-9s-4.04-9-9-9z" /></svg>