<svg viewBox="64 64 896 896" focusable="false" xmlns="http://www.w3.org/2000/svg"><path d="M0 0h24v24H0z" /><path d="M20.97 7.27a1 1 0 000-1.41l-2.83-2.83a1 1 0 00-1.41 0l-4.49 4.49-3.89-3.89a2 2 0 00-2.83 0l-1.9 1.9a2 2 0 000 2.83l3.89 3.89L3 16.76V21h4.24l4.52-4.52 3.89 3.89a2 2 0 002.83 0l1.9-1.9a2 2 0 000-2.83l-3.89-3.89 4.48-4.48zM5.04 6.94l1.89-1.9L8.2 6.31 7.02 7.5l1.41 1.41 1.19-1.19 1.2 1.2-1.9 1.9-3.88-3.88zm11.23 7.44l-1.19 1.19 1.41 1.41 1.19-1.19 1.27 1.27-1.9 1.9-3.89-3.89 1.9-1.9 1.21 1.21zM6.41 19H5v-1.41l9.61-9.61 1.3 1.3.11.11L6.41 19zm9.61-12.44l1.41-1.41 1.41 1.41-1.41 1.41-1.41-1.41z" /></svg>