<svg viewBox="64 64 896 896" focusable="false" xmlns="http://www.w3.org/2000/svg"><path d="M0 0h24v24H0z" /><path d="M17 15a5.7 5.7 0 014.75 2.5c-.99 1.52-2.8 2.5-4.75 2.5s-3.76-.98-4.75-2.5A5.7 5.7 0 0117 15zm0-2a7.54 7.54 0 00-7 4.5c1.1 2.63 3.82 4.5 7 4.5s5.9-1.87 7-4.5a7.54 7.54 0 00-7-4.5zm0 6a1.5 1.5 0 110-3 1.5 1.5 0 010 3zm4.99-6.66L22 12a10 10 0 10-11.04 9.95 9.34 9.34 0 01-2.32-2.68A8.01 8.01 0 015.69 7.1l5.66 5.66c.56-.4 1.17-.73 1.82-1L7.1 5.69a8 8 0 0112.88 5.76c.71.22 1.39.52 2.01.89z" /></svg>