<svg viewBox="64 64 896 896" focusable="false" xmlns="http://www.w3.org/2000/svg"><path d="M0 0h24v24H0z" /><path d="M21.29 13.9L18 12l3.29-1.9c.48-.28.64-.89.37-1.37l-2-3.46a1.01 1.01 0 00-1.37-.37L15 6.8V3a1 1 0 00-1-1h-4a1 1 0 00-1 1v3.8L5.71 4.9a1.01 1.01 0 00-1.37.37l-2 3.46a1 1 0 00.37 1.37L6 12l-3.29 1.9c-.48.28-.64.89-.37 1.37l2 3.46c.28.48.89.64 1.37.37L9 17.2V21a1 1 0 001 1h4a1 1 0 001-1v-3.8l3.29 1.9a1 1 0 001.37-.37l2-3.46a1 1 0 00-.37-1.37zm-2.86 2.97l-4.68-2.7a.5.5 0 00-.75.43V20h-2v-5.4c0-.38-.42-.63-.75-.43l-4.68 2.7-1-1.73 4.68-2.7a.5.5 0 000-.87l-4.68-2.7 1-1.73 4.68 2.7A.5.5 0 0011 9.4V4h2v5.4c0 .38.42.63.75.43l4.68-2.7 1 1.73-4.68 2.7a.5.5 0 000 .87l4.68 2.7-1 1.74z" /></svg>