<svg viewBox="64 64 896 896" focusable="false" xmlns="http://www.w3.org/2000/svg"><path d="M0 0h24v24H0V0z" /><path d="M10.25 13a1.25 1.25 0 11-2.5 0 1.25 1.25 0 012.5 0zM15 11.75a1.25 1.25 0 100 2.5 1.25 1.25 0 000-2.5zm7 .25a10 10 0 11-20 0 10 10 0 0120 0zM10.66 4.12a7.99 7.99 0 008.18 3.76 7.99 7.99 0 00-8.18-3.76zM4.42 9.47a8.05 8.05 0 003.66-4.44 8.05 8.05 0 00-3.66 4.44zM20 12c0-.78-.12-1.53-.33-2.24a10 10 0 01-9.93-3.45A10.02 10.02 0 014 11.86c.01.04 0 .09 0 .14a8.01 8.01 0 0016 0z" /></svg>