<svg viewBox="64 64 896 896" focusable="false" xmlns="http://www.w3.org/2000/svg"><path d="M0 0h24v24H0z" /><path d="M21 6.5a3 3 0 00-2.99 3.21l-2.03.68a4.47 4.47 0 00-3.22-2.32V5.91a3 3 0 10-1.51 0v2.16a4.47 4.47 0 00-3.22 2.32l-2.04-.68L6 9.5a3 3 0 10-.48 1.63l2.03.68a4.51 4.51 0 001.09 3.69l-1.41 1.77a3 3 0 101.17.93l1.41-1.77a4.5 4.5 0 004.37 0l1.41 1.77A3 3 0 0018 23a3 3 0 10-1.23-5.74l-1.41-1.77a4.49 4.49 0 001.09-3.69l2.03-.68A3 3 0 1021 6.5zm-18 4a1 1 0 01-1-1c0-.55.45-1 1-1s1 .45 1 1a1 1 0 01-1 1zM6 21a1 1 0 01-1-1c0-.55.45-1 1-1s1 .45 1 1a1 1 0 01-1 1zm5-18c0-.55.45-1 1-1s1 .45 1 1-.45 1-1 1-1-.45-1-1zm1 12a2.5 2.5 0 110-5 2.5 2.5 0 010 5zm6 4a1 1 0 011 1c0 .55-.45 1-1 1s-1-.45-1-1a1 1 0 011-1zm3-8.5a1 1 0 01-1-1c0-.55.45-1 1-1s1 .45 1 1a1 1 0 01-1 1z" /></svg>