<svg viewBox="64 64 896 896" focusable="false" xmlns="http://www.w3.org/2000/svg"><path d="M0 0h24v24H0z" /><path d="M20.5 16.5A1.5 1.5 0 0119 15v-2.5a1.5 1.5 0 113 0V15c0 .83-.67 1.5-1.5 1.5zM20 20h1v-1.54A3.5 3.5 0 0024 15h-1a2.5 2.5 0 01-5 0h-1a3.5 3.5 0 003 3.46V20zM9 12a4 4 0 111.34-7.77 5.94 5.94 0 000 7.54c-.42.15-.87.23-1.34.23zm-1.89 1.13A4.96 4.96 0 005 17.22V20H1v-2.78c0-1.12.61-2.15 1.61-2.66a14 14 0 014.5-1.43zM11 8a4 4 0 118 0 4 4 0 01-8 0zm2 0c0 1.1.9 2 2 2s2-.9 2-2-.9-2-2-2-2 .9-2 2zm2 7c-2.37 0-4.29.73-5.48 1.34a.97.97 0 00-.52.88V18h7.17c.5.86 1.25 1.56 2.15 2H7v-2.78c0-1.12.61-2.15 1.61-2.66a14.03 14.03 0 017.53-1.51 5.06 5.06 0 00-.62 1.96L15 15z" /></svg>