<svg viewBox="64 64 896 896" focusable="false" xmlns="http://www.w3.org/2000/svg"><path d="M0 0h24v24H0V0z" /><path d="M17.75 10.35V9a3 3 0 00-3-3h-5.5a3 3 0 00-3 3v1.35A2.5 2.5 0 005 12.5V16c0 1.1.9 2 2 2h10a2 2 0 002-2v-3.5a2.5 2.5 0 00-1.25-2.15zM9.25 7.5h5.5c.83 0 1.5.67 1.5 1.5v1.03A2.48 2.48 0 0014 12.5v.5h-4v-.5c0-1.3-.99-2.35-2.25-2.47V9c0-.83.67-1.5 1.5-1.5zM17.5 16a.5.5 0 01-.5.5H7a.5.5 0 01-.5-.5v-3.5c0-.55.45-1 1-1s1 .45 1 1v2h7v-2a1 1 0 011-1 1 1 0 011 1V16zM20 4v16H4V4h16m0-2H4a2 2 0 00-2 2v16c0 1.1.9 2 2 2h16a2 2 0 002-2V4a2 2 0 00-2-2z" /></svg>