<svg viewBox="64 64 896 896" focusable="false" xmlns="http://www.w3.org/2000/svg"><path d="M0 0h24v24H0z" /><path d="M16 6l-.44.55A2 2 0 0112 5.3V2S4 6 4 13a8 8 0 1016 0 8.11 8.11 0 00-4-7zm-4 13c-1.1 0-2-.87-2-1.94 0-.51.2-.99.58-1.36L12 14.3l1.43 1.4c.37.37.57.85.57 1.36 0 1.07-.9 1.94-2 1.94zm3.96-1.5c.04-.36.22-1.89-1.13-3.22L12 11.5l-2.83 2.78C7.81 15.62 8 17.16 8.04 17.5A5.98 5.98 0 016 13c0-3.16 2.13-5.65 4.03-7.25a4.02 4.02 0 006.17 2.89A6.17 6.17 0 0118 13c0 1.79-.79 3.4-2.04 4.5z" /></svg>