<svg viewBox="64 64 896 896" focusable="false" xmlns="http://www.w3.org/2000/svg"><path d="M0 0h24v24H0z" /><path d="M12 2a10 10 0 100 20 10 10 0 000-20zm0 18a8.01 8.01 0 010-16 8.01 8.01 0 010 16zm.89-8.9c-1.78-.59-2.64-.96-2.64-1.9 0-1.02 1.11-1.39 1.81-1.39 1.31 0 1.79.99 1.9 1.34l1.58-.67a3.43 3.43 0 00-2.66-2.23V5h-1.75v1.26a3.08 3.08 0 00-2.62 2.96c0 2.27 2.25 2.91 3.35 3.31 1.58.56 2.28 1.07 2.28 2.03 0 1.13-1.05 1.61-1.98 1.61-1.82 0-2.34-1.87-2.4-2.09l-1.66.67a4.04 4.04 0 003.02 2.96V19h1.75v-1.24c.52-.09 3.02-.59 3.02-3.22.01-1.39-.6-2.61-3-3.44z" /></svg>