<svg viewBox="64 64 896 896" focusable="false" xmlns="http://www.w3.org/2000/svg"><path d="M0 0h24v24H0z" /><path d="M12 22C6.49 22 2 17.51 2 12S6.49 2 12 2s10 4.04 10 9a6 6 0 01-6 6h-1.77a.5.5 0 00-.5.5c0 .12.05.23.13.33A2.5 2.5 0 0112 22zm0-18a8.01 8.01 0 000 16 .5.5 0 00.5-.5.54.54 0 00-.14-.35A2.5 2.5 0 0114.23 15H16a4 4 0 004-4c0-3.86-3.59-7-8-7z" /><circle cx="6.5" cy="11.5" r="1.5" /><circle cx="9.5" cy="7.5" r="1.5" /><circle cx="14.5" cy="7.5" r="1.5" /><circle cx="17.5" cy="11.5" r="1.5" /></svg>