<svg viewBox="64 64 896 896" focusable="false" xmlns="http://www.w3.org/2000/svg"><path d="M0 0h24v24H0z" /><path d="M12 10a4 4 0 100-8 4 4 0 000 8zm0-6a2 2 0 012 2c0 1.1-.9 2-2 2s-2-.9-2-2 .9-2 2-2zm6.39 8.56A14.03 14.03 0 0012 11c-2.53 0-4.71.7-6.39 1.56A2.97 2.97 0 004 15.22V22h2v-6.78c0-.38.2-.72.52-.88a12.1 12.1 0 017.61-1.14l-1.55 3.3H9.75a2.75 2.75 0 100 5.5H18a2 2 0 002-2v-4.78c0-1.12-.61-2.15-1.61-2.66zM10.94 20H9.75a.76.76 0 01-.75-.75c0-.41.34-.75.75-.75h1.89l-.7 1.5zM18 20h-4.85l2.94-6.27c.54.2 1.01.41 1.4.61.31.16.51.5.51.88V20z" /></svg>