<svg viewBox="64 64 896 896" focusable="false" xmlns="http://www.w3.org/2000/svg"><path d="M0 0h24v24H0V0z" /><path d="M6.54 5a13 13 0 00.44 2.58l-1.2 1.21c-.4-1.21-.66-2.47-.75-3.79h1.51m9.86 12.01c.85.24 1.72.39 2.6.45v1.5a14.9 14.9 0 01-3.8-.76l1.2-1.19M7.5 3H4a1 1 0 00-1 1 17 17 0 0017 17 1 1 0 001-1v-3.5a1 1 0 00-1-1c-1.25 0-2.45-.2-3.57-.57a1.02 1.02 0 00-1.02.24l-2.2 2.2a15.05 15.05 0 01-6.59-6.59l2.2-2.21a.96.96 0 00.25-1A11.36 11.36 0 018.5 4a1 1 0 00-1-1zM15 3h2v7h-2zm4 0h2v7h-2z" /></svg>