<svg viewBox="64 64 896 896" focusable="false" xmlns="http://www.w3.org/2000/svg"><path d="M0 0h24v24H0V0z" /><path d="M10 8l-3.25 3.25c.31.12.56.27.77.39.37.23.59.36 1.15.36s.78-.13 1.15-.36c.46-.27 1.08-.64 2.19-.64s1.73.37 2.18.64c.37.22.6.36 1.15.36.55 0 .78-.13 1.15-.36l.41-.23L10.48 5C8.93 3.45 7.5 2.99 5 3v2.5c1.82-.01 2.89.39 4 1.5l1 1zm12 8.5h-.02.02zm-16.65-1c.55 0 .78.14 1.15.36.45.27 1.07.64 2.18.64s1.73-.37 2.18-.64a1.8 1.8 0 011.15-.36c.55 0 .78.14 1.15.36.45.27 1.07.64 2.18.64s1.73-.37 2.18-.64a1.8 1.8 0 011.15-.36c.55 0 .78.14 1.15.36.45.27 1.06.63 2.16.64v-2c-.55 0-.78-.14-1.15-.36-.45-.27-1.07-.64-2.18-.64s-1.73.37-2.18.64c-.37.23-.6.36-1.15.36s-.78-.14-1.15-.36c-.45-.27-1.07-.64-2.18-.64s-1.73.37-2.18.64a1.8 1.8 0 01-1.15.36c-.55 0-.78-.14-1.15-.36-.45-.27-1.07-.64-2.18-.64s-1.73.37-2.18.64A1.8 1.8 0 012 14.5v2c1.11 0 1.73-.37 2.2-.64.37-.23.6-.36 1.15-.36zM18.67 18c-1.11 0-1.73.37-2.18.64-.37.23-.6.36-1.15.36-.55 0-.78-.14-1.15-.36-.45-.27-1.07-.64-2.18-.64s-1.73.37-2.19.64c-.37.23-.59.36-1.15.36s-.78-.13-1.15-.36c-.45-.27-1.07-.64-2.18-.64s-1.73.37-2.19.64A1.8 1.8 0 012 19v2c1.11 0 1.73-.37 2.19-.64.37-.23.6-.36 1.15-.36.55 0 .78.13 1.15.36.45.27 1.07.64 2.18.64s1.73-.37 2.19-.64a1.8 1.8 0 011.15-.36c.55 0 .78.14 1.15.36.45.27 1.07.64 2.18.64s1.72-.37 2.18-.64a1.8 1.8 0 011.15-.36c.55 0 .78.14 1.15.36.45.27 1.07.64 2.18.64v-2a1.8 1.8 0 01-1.15-.36 3.83 3.83 0 00-2.18-.64z" /><circle cx="16.5" cy="5.5" r="2.5" /></svg>