<svg viewBox="64 64 896 896" focusable="false" xmlns="http://www.w3.org/2000/svg"><path d="M0 0h24v24H0V0z" /><path d="M19.74 18.33A9.98 9.98 0 0012 2a10 10 0 107.11 17.03l.07-.08c.2-.2.39-.41.56-.62zM12 20a8.01 8.01 0 010-16 8.01 8.01 0 016.31 12.9l-1.43-1.43a5.99 5.99 0 00-4.9-9.46 6 6 0 103.49 10.87l1.42 1.42A7.82 7.82 0 0112 20zm1.92-7.49c.17-.66.02-1.38-.49-1.9l-.02-.02c-.77-.77-2-.78-2.78-.04l-.05.04a2 2 0 000 2.83l.02.02c.52.51 1.25.67 1.91.49l1.51 1.51a4 4 0 111.4-1.42l-1.5-1.51z" /></svg>