<svg viewBox="64 64 896 896" focusable="false" xmlns="http://www.w3.org/2000/svg"><path d="M0 0h24v24H0V0z" /><path d="M23.71 16.67a16.97 16.97 0 00-23.42 0 1 1 0 00-.29.71 1 1 0 00.29.71l2.48 2.48a1 1 0 00.71.29c.27 0 .52-.11.7-.28.79-.74 1.69-1.36 2.66-1.85a1 1 0 00.56-.9v-3.1a14.91 14.91 0 019.2-.01v3.1a1 1 0 00.56.9c.98.49 1.87 1.12 2.66 1.85.18.18.43.28.7.28a1 1 0 00.71-.29l2.48-2.48a1 1 0 000-1.41zm-18.31.56c-.66.37-1.29.8-1.87 1.27l-1.07-1.07c.91-.75 1.9-1.39 2.95-1.9v1.7zm15.07 1.26a13.1 13.1 0 00-1.87-1.27v-1.7c1.04.51 2.03 1.15 2.94 1.9l-1.07 1.07zm.69-12.23l-1.41-1.41-3.56 3.55 1.41 1.41s3.45-3.52 3.56-3.55zM11 2h2v5h-2zM6.4 9.81L7.81 8.4 4.26 4.84 2.84 6.26c.11.03 3.56 3.55 3.56 3.55z" /></svg>