<svg viewBox="64 64 896 896" focusable="false" xmlns="http://www.w3.org/2000/svg"><path d="M0 0h24v24H0V0z" /><path d="M19.43 12.98a7.8 7.8 0 000-1.96l2.11-1.65a.5.5 0 00.12-.64l-2-3.46a.5.5 0 00-.61-.22l-2.49 1a7.3 7.3 0 00-1.69-.98l-.38-2.65A.49.49 0 0014 2h-4a.49.49 0 00-.49.42l-.38 2.65c-.61.25-1.17.59-1.69.98l-2.49-1a.57.57 0 00-.18-.03.5.5 0 00-.43.25l-2 3.46a.5.5 0 00.12.64l2.11 1.65a7.93 7.93 0 000 1.96l-2.11 1.65a.5.5 0 00-.12.64l2 3.46a.5.5 0 00.61.22l2.49-1c.52.4 1.08.73 1.69.98l.38 2.65c.03.24.24.42.49.42h4c.25 0 .46-.18.49-.42l.38-2.65a7.68 7.68 0 001.69-.98l2.49 1 .18.03a.5.5 0 00.43-.25l2-3.46a.5.5 0 00-.12-.64l-2.11-1.65zm-1.98-1.71a5.34 5.34 0 010 1.46l-.14 1.13.89.7 1.08.84-.7 1.21-1.27-.51-1.04-.42-.9.68c-.43.32-.84.56-1.25.73l-1.06.43-.16 1.13-.2 1.35h-1.4l-.19-1.35-.16-1.13-1.06-.43a5.67 5.67 0 01-1.23-.71l-.91-.7-1.06.43-1.27.51-.7-1.21 1.08-.84.89-.7-.14-1.13c-.03-.31-.05-.54-.05-.74s.02-.43.05-.73l.14-1.13-.89-.7-1.08-.84.7-1.21 1.27.51 1.04.42.9-.68c.43-.32.84-.56 1.25-.73l1.06-.43.16-1.13.2-1.35h1.39l.19 1.35.16 1.13 1.06.43c.43.18.83.41 1.23.71l.91.7 1.06-.43 1.27-.51.7 1.21-1.07.85-.89.7.14 1.13zM12 8a4 4 0 100 8 4 4 0 000-8zm0 6c-1.1 0-2-.9-2-2s.9-2 2-2 2 .9 2 2-.9 2-2 2z" /></svg>