<svg viewBox="64 64 896 896" focusable="false" xmlns="http://www.w3.org/2000/svg"><path d="M0 0h24v24H0V0z" /><path d="M11 9h2v2h-2zm4 0h2v2h-2zm5 6.5c-1.25 0-2.45-.2-3.57-.57a1.02 1.02 0 00-1.02.24l-2.2 2.2a15.07 15.07 0 01-6.59-6.58l2.2-2.21a.98.98 0 00.25-1.01A11.36 11.36 0 018.5 4a1 1 0 00-1-1H4a1 1 0 00-1 1 17 17 0 0017 17 1 1 0 001-1v-3.5a1 1 0 00-1-1zM5.03 5h1.5c.07.88.22 1.75.46 2.59L5.79 8.8A14.99 14.99 0 015.03 5zM19 18.97a14.9 14.9 0 01-3.8-.76l1.2-1.2c.85.24 1.72.39 2.6.45v1.51zM19 9h2v2h-2z" /></svg>