<svg viewBox="64 64 896 896" focusable="false" xmlns="http://www.w3.org/2000/svg"><path d="M0 0h24v24H0z" /><path d="M21.96 11.22C21.57 7.01 17.76 4 13.56 4l-.57.02C2 4.74 2 17.2 2 17.2v.8c0 1.1.9 2 2 2h10a8 8 0 007.96-8.78zm-16.7.34A10.08 10.08 0 017.4 8.37l3.62 1.53a1.6 1.6 0 01-.63 3.09H4.72c.15-.46.32-.94.54-1.43zm13.18 4.48A6.02 6.02 0 0114 18H4v-.8c0-.02.01-.92.24-2.2h6.15a3.61 3.61 0 001.41-6.93L9.3 7.01c1.1-.57 2.37-.9 3.82-.99.15-.02.3-.02.44-.02 3.31 0 6.13 2.37 6.41 5.41a5.98 5.98 0 01-1.53 4.63z" /></svg>