<svg viewBox="64 64 896 896" focusable="false" xmlns="http://www.w3.org/2000/svg"><path d="M0 0h24v24H0z" /><path d="M12 2a10 10 0 100 20 10 10 0 000-20zM5.23 7.75A5.97 5.97 0 016.91 11H4.07a8.12 8.12 0 011.16-3.25zM4.07 13h2.84a5.97 5.97 0 01-1.68 3.25A8.12 8.12 0 014.07 13zM11 19.93a7.99 7.99 0 01-4.49-2.14A7.95 7.95 0 008.93 13H11v6.93zM11 11H8.93A7.99 7.99 0 006.5 6.2 8.04 8.04 0 0111 4.07V11zm8.93 0h-2.84a5.97 5.97 0 011.68-3.25c.6.97 1.01 2.07 1.16 3.25zM13 4.07c1.73.22 3.29.99 4.5 2.13a7.99 7.99 0 00-2.43 4.8H13V4.07zm0 15.86V13h2.07a8 8 0 002.42 4.79A7.99 7.99 0 0113 19.93zm5.77-3.68A6 6 0 0117.09 13h2.84a8.12 8.12 0 01-1.16 3.25z" /></svg>