<svg viewBox="64 64 896 896" focusable="false" xmlns="http://www.w3.org/2000/svg"><path d="M0 0h24v24H0z" /><path d="M7.24 8.75a3.43 3.43 0 01-.39-1.67c0-.61.13-1.16.4-1.67.26-.5.63-.93 1.11-1.29a5.73 5.73 0 011.7-.83 7.87 7.87 0 014.39.05c.66.22 1.23.54 1.69.94a4.07 4.07 0 011.46 3.24h-3.01c0-.31-.05-.59-.15-.85a1.64 1.64 0 00-.44-.68c-.2-.19-.45-.33-.75-.44-.3-.1-.66-.16-1.06-.16-.39 0-.74.04-1.03.13s-.53.21-.72.36a1.52 1.52 0 00-.59 1.21c0 .48.25.88.74 1.21.38.25.77.48 1.41.7H7.39l-.15-.25zM21 12v-2H3v2h9.62l.55.2c.37.17.66.34.87.51s.35.36.43.57c.07.2.11.43.11.69 0 .23-.05.45-.14.66-.09.2-.23.38-.42.53-.19.15-.42.26-.71.35a4.8 4.8 0 01-2.19 0 2.54 2.54 0 01-.91-.42c-.25-.19-.45-.44-.59-.75s-.25-.76-.25-1.21H6.4a4.27 4.27 0 001.87 3.71c.37.26.78.48 1.22.65a7.82 7.82 0 002.82.52c.8 0 1.53-.09 2.18-.28s1.21-.45 1.67-.79a3.54 3.54 0 001.45-2.98 3.92 3.92 0 00-.48-1.94H21V12z" /></svg>