<svg viewBox="64 64 896 896" focusable="false" xmlns="http://www.w3.org/2000/svg"><path d="M0 0h24v24H0z" /><path d="M20.5 2v2.02C18.18 2.13 15.22 1 12 1S5.82 2.13 3.5 4.02V2H2v5h5V5.5H4.09a11.93 11.93 0 0115.82 0H17V7h5V2h-1.5z" /><path d="M18.89 13.77l-3.8-1.67c-.13-.06-.28-.1-.44-.1H14V7.63c0-1.32-.96-2.5-2.27-2.62A2.5 2.5 0 009 7.5v8.15l-1.87-.4a1.97 1.97 0 00-1.73.56L4 17.22l5.12 5.19c.37.38.88.59 1.41.59h6.55c.98 0 1.81-.7 1.97-1.67l.92-5.44a2 2 0 00-1.08-2.12zM18 15.56L17.08 21h-6.55l-3.7-3.78 4.17.89V7.5c0-.28.22-.5.5-.5s.5.22.5.5v6.18h1.76L18 15.56z" /></svg>