<svg viewBox="64 64 896 896" focusable="false" xmlns="http://www.w3.org/2000/svg"><path d="M0 0h24v24H0z" /><circle cx="19" cy="6.5" r="1" /><circle cx="15" cy="6.5" r="1" /><path d="M16.99 9c-1.38 0-2.5.84-2.5 1.88h5c0-1.04-1.12-1.88-2.5-1.88zM1 16a6 6 0 0012 0V9H1v7zm2-5h8v5a4 4 0 11-8 0v-5z" /><path d="M11 2v5.5h2V4h8v5a4 4 0 01-6.5 3.1v2.35A5.98 5.98 0 0023 9V2H11z" /><circle cx="5" cy="13.5" r="1" /><circle cx="9" cy="13.5" r="1" /><path d="M7 17.88c1.38 0 2.5-.84 2.5-1.88h-5c0 1.04 1.12 1.88 2.5 1.88z" /></svg>