<svg viewBox="64 64 896 896" focusable="false" xmlns="http://www.w3.org/2000/svg"><path d="M0 0h24v24H0z" /><path d="M19 8a1 1 0 01-.71-1.71c.4-.4 2.46-1.04 2.46-1.04s-.64 2.06-1.04 2.46A1 1 0 0119 8zm1 5v5c0 1.65-1.35 3-3 3s-3-1.35-3-3v-2c0-.55-.45-1-1-1s-1 .45-1 1v3a2 2 0 01-2 2H4a2 2 0 01-2-2V5c0-1.1.9-2 2-2h6a2 2 0 012 2v8.17A3 3 0 0116 16v2c0 .55.45 1 1 1s1-.45 1-1v-5h-1v-1.42A4.99 4.99 0 0119 2a5 5 0 012 9.58V13h-1zm2-6a3 3 0 10-6 0 3 3 0 006 0zM10 7L8 9V6.17L9.17 5H4.83L6 6.17V9L4 7v2.17l2 2V14l-2-2v2.17l2 2V19l-2-2v2h6v-2l-2 2v-2.83l2-2V12l-2 2v-2.83l2-2V7z" /></svg>