<svg viewBox="64 64 896 896" focusable="false" xmlns="http://www.w3.org/2000/svg"><path d="M0 0h24v24H0z" /><path d="M18.67 17.63c-3.8 2.8-6.12.4-6.67 0-.66.49-2.92 2.76-6.67 0C3.43 19.03 2.65 19 2 19v2c1.16 0 2.3-.32 3.33-.93a6.54 6.54 0 006.67 0 6.54 6.54 0 006.67 0c1.03.61 2.17.93 3.33.93v-2c-.66 0-1.5-.02-3.33-1.37zM19.33 12H22v-2h-2.67A3.34 3.34 0 0116 6.67c0-1.02.38-1.74 1.09-3.34-1.37-.21-2-.33-3.09-.33C7.36 3 2.15 8.03 2.01 14.5l-.01 2c1.16 0 2.3-.32 3.33-.93a6.54 6.54 0 006.67 0 6.54 6.54 0 006.67 0c1.03.61 2.17.93 3.33.93v-2c-.66 0-1.5-.02-3.33-1.37-3.8 2.8-6.12.4-6.67 0-.9.67-.54.41-.91.63a5.47 5.47 0 013.12-8.59A5.33 5.33 0 0019.33 12zm-14 1.13c-.62.46-.82.63-1.3.87a9.61 9.61 0 015.43-7.96 7.5 7.5 0 00-.33 8.41c-.72.07-1.79.15-3.8-1.32z" /></svg>