<svg viewBox="64 64 896 896" focusable="false" xmlns="http://www.w3.org/2000/svg"><path d="M0 0h24v24H0V0z" /><path d="M16.49 4.5c1.79 0 3.42.73 4.59 1.91l1.06-1.06a8.01 8.01 0 00-11.31-.01l1.06 1.06a6.54 6.54 0 014.6-1.9z" /><path d="M16.49 6c-1.38 0-2.63.56-3.54 1.46l1.06 1.06a3.5 3.5 0 014.94 0l1.06-1.06A4.94 4.94 0 0016.49 6zM16.49 9c-.55 0-1.05.22-1.41.59L16.49 11l1.41-1.41A1.96 1.96 0 0016.49 9z" /><path d="M20.2 14.87l-3.67-.73a1 1 0 00-.9.27l-2.52 2.5a16.14 16.14 0 01-6-6l2.5-2.52c.23-.24.33-.57.27-.9L9.13 3.8a1 1 0 00-.98-.8H4a1 1 0 00-1 1.03A18.07 18.07 0 0019.97 21 1 1 0 0021 20v-4.15a1 1 0 00-.8-.98zM5.1 5h2.23l.47 2.35L6.17 9c-.54-1.3-.9-2.63-1.07-4zM19 18.9c-1.37-.18-2.7-.53-4-1.07l1.65-1.63 2.35.47v2.23z" /></svg>