<svg viewBox="64 64 896 896" focusable="false"><path d="M0 0h24v24H0z" /><path d="M16.39 9H7.61c-.43 0-.81.28-.95.68l-1.66 5v6.81c0 .29.23.51.5.51h1a.5.5 0 00.5-.5V20h10v1.5c0 .28.22.5.5.5h1a.5.5 0 00.5-.5v-6.81l-1.66-5a1 1 0 00-.95-.69zm-8.61 9c-.68 0-1.22-.54-1.22-1.22s.54-1.22 1.22-1.22a1.22 1.22 0 110 2.44zm8.44 0a1.22 1.22 0 110-2.44c.68 0 1.22.54 1.22 1.22S16.9 18 16.22 18zm-9.93-4l1.33-4h8.78l1.33 4H6.29zM10.83 3A3.01 3.01 0 005 4a3 3 0 005.83 1H16v2h2V5h1V3h-8.17zM8 5c-.55 0-1-.45-1-1s.45-1 1-1 1 .45 1 1-.45 1-1 1z" /></svg>