<svg viewBox="64 64 896 896" focusable="false"><path d="M0 0h24v24H0z" /><path d="M9 15c-2.67 0-8 1.34-8 4v2h16v-2c0-2.66-5.33-4-8-4zM22.1 6.84l.02-.34c0-.12-.01-.23-.03-.34l.74-.58c.07-.05.08-.15.04-.22l-.7-1.21c-.04-.08-.14-.1-.21-.08l-.86.35a2.66 2.66 0 00-.59-.34l-.13-.93A.18.18 0 0020.2 3h-1.4a.16.16 0 00-.17.15l-.13.93c-.21.09-.41.21-.59.34l-.87-.35a.17.17 0 00-.21.08l-.7 1.21c-.04.08-.03.17.04.22l.74.58a1.95 1.95 0 000 .68l-.74.58c-.07.05-.08.15-.04.22l.7 1.21c.04.08.14.1.21.08l.87-.35c.18.14.38.25.59.34l.13.93c.01.09.08.15.17.15h1.4c.09 0 .16-.06.17-.15l.13-.93c.21-.09.41-.21.59-.34l.87.35c.08.03.17 0 .21-.08l.7-1.21c.04-.08.03-.17-.04-.22l-.73-.58zm-2.6.91a1.25 1.25 0 110-2.5 1.25 1.25 0 010 2.5zM19.92 11.68l-.5-.87c-.03-.06-.1-.08-.15-.06l-.62.25c-.13-.1-.27-.18-.42-.24l-.09-.66A.15.15 0 0018 10h-1c-.06 0-.11.04-.12.11l-.09.66c-.15.06-.29.15-.42.24l-.62-.25c-.06-.02-.12 0-.15.06l-.5.87c-.03.06-.02.12.03.16l.53.41-.02.24.02.24-.53.41a.12.12 0 00-.03.16l.5.87c.03.06.1.08.15.06l.62-.25c.13.1.27.18.42.24l.09.66c.01.07.06.11.12.11h1c.06 0 .12-.04.12-.11l.09-.66c.15-.06.29-.15.42-.24l.62.25c.06.02.12 0 .15-.06l.5-.87c.03-.06.02-.12-.03-.16l-.52-.41.02-.24-.02-.24.53-.41c.05-.04.06-.11.04-.17zm-2.42 1.65a.83.83 0 01-.83-.83c0-.46.38-.83.83-.83s.83.38.83.83c0 .46-.37.83-.83.83zM4.74 9h8.53a.5.5 0 00.49-.49v-.02a.5.5 0 00-.49-.49H13a4 4 0 00-2-3.45v.95c0 .28-.22.5-.5.5s-.5-.22-.5-.5V4.14C9.68 4.06 9.35 4 9 4s-.68.06-1 .14V5.5c0 .28-.22.5-.5.5S7 5.78 7 5.5v-.95A4 4 0 005 8h-.26a.5.5 0 00-.49.49v.03c0 .26.22.48.49.48zM9 13a4 4 0 003.86-3H5.14A4 4 0 009 13z" /></svg>