<svg viewBox="64 64 896 896" focusable="false"><path d="M0 0h24v24H0z" /><path d="M12 12.75c1.63 0 3.07.39 4.24.9A2.98 2.98 0 0118 16.38V18H6v-1.61c0-1.18.68-2.26 1.76-2.73 1.17-.52 2.61-.91 4.24-.91zM4 13a2 2 0 002-2c0-1.1-.9-2-2-2s-2 .9-2 2 .9 2 2 2zm1.13 1.1a6.98 6.98 0 00-3.91.48A2.01 2.01 0 000 16.43V18h4.5v-1.61c0-.83.23-1.61.63-2.29zM20 13a2 2 0 002-2c0-1.1-.9-2-2-2s-2 .9-2 2 .9 2 2 2zm4 3.43c0-.81-.48-1.53-1.22-1.85a6.95 6.95 0 00-3.91-.48c.4.68.63 1.46.63 2.29V18H24v-1.57zM12 6a3 3 0 110 6 3 3 0 010-6z" /></svg>