<svg viewBox="64 64 896 896" focusable="false"><path d="M0 0h24v24H0z" /><path d="M12 7a5 5 0 100 10 5 5 0 000-10zM2 13h2c.55 0 1-.45 1-1s-.45-1-1-1H2c-.55 0-1 .45-1 1s.45 1 1 1zm18 0h2c.55 0 1-.45 1-1s-.45-1-1-1h-2c-.55 0-1 .45-1 1s.45 1 1 1zM11 2v2c0 .55.45 1 1 1s1-.45 1-1V2c0-.55-.45-1-1-1s-1 .45-1 1zm0 18v2c0 .55.45 1 1 1s1-.45 1-1v-2a1 1 0 00-1-1 1 1 0 00-1 1zM5.99 4.58a1 1 0 10-1.41 1.41l1.06 1.06a1 1 0 101.41-1.41L5.99 4.58zm12.37 12.37a1 1 0 10-1.41 1.41l1.06 1.06a1 1 0 101.41-1.41l-1.06-1.06zm1.06-10.96a1 1 0 10-1.41-1.41l-1.06 1.06a1 1 0 101.41 1.41l1.06-1.06zM7.05 18.36a1 1 0 10-1.41-1.41l-1.06 1.06a1 1 0 101.41 1.41l1.06-1.06z" /></svg>