<svg viewBox="64 64 896 896" focusable="false"><path d="M0 0h24v24H0z" /><path d="M10.82 12.49c.02-.16.04-.32.04-.49 0-.17-.02-.33-.04-.49l1.08-.82c.1-.07.12-.21.06-.32l-1.03-1.73c-.06-.11-.2-.15-.31-.11l-1.28.5c-.27-.2-.56-.36-.87-.49l-.2-1.33c0-.12-.11-.21-.24-.21H5.98a.26.26 0 00-.26.21l-.2 1.32c-.31.12-.6.3-.87.49l-1.28-.5a.24.24 0 00-.31.11l-1.03 1.73a.26.26 0 00.07.33l1.08.82a4.03 4.03 0 00.01.98l-1.09.83c-.1.07-.12.21-.06.32l1.03 1.73c.06.11.2.15.31.11l1.28-.5c.27.2.56.36.87.49l.2 1.32c.01.12.12.21.25.21h2.06c.13 0 .24-.09.25-.21l.2-1.32c.31-.12.6-.3.87-.49l1.28.5c.12.05.25 0 .31-.11l1.03-1.73a.25.25 0 00-.06-.32l-1.1-.83zM7 13.75c-.99 0-1.8-.78-1.8-1.75s.81-1.75 1.8-1.75 1.8.78 1.8 1.75S8 13.75 7 13.75zM18 1.01L8 1a2 2 0 00-2 2v3h2V5h10v14H8v-1H6v3c0 1.1.9 2 2 2h10a2 2 0 002-2V3a2 2 0 00-2-1.99z" /></svg>