<svg viewBox="64 64 896 896" focusable="false"><path d="M0 0h24v24H0z" /><path d="M23 17a6 6 0 01-6 6v-1.5a4.5 4.5 0 004.5-4.5H23zM1 7a6 6 0 016-6v1.5A4.5 4.5 0 002.5 7H1zm7.01-2.68l-4.6 4.6a8.26 8.26 0 0011.67 11.67l7.07-7.07a1.25 1.25 0 10-1.77-1.77l-4.42 4.42-.71-.71 6.54-6.54a1.25 1.25 0 10-1.77-1.77l-5.83 5.83-.71-.71 6.89-6.89a1.25 1.25 0 10-1.77-1.77l-6.89 6.89-.69-.7 5.48-5.48a1.25 1.25 0 10-1.77-1.77l-7.62 7.62a4 4 0 01-.33 5.28l-.71-.71a3 3 0 000-4.24l-.35-.35 4.07-4.07a1.25 1.25 0 10-1.78-1.76z" /></svg>