<svg viewBox="64 64 896 896" focusable="false"><path d="M0 0h24v24H0z" /><path d="M21 7a2.5 2.5 0 00-3-2.45V4a2.5 2.5 0 00-3.17-2.41 2.5 2.5 0 00-4.79.47A2.5 2.5 0 007 4.5v5.89a2.9 2.9 0 00-1.22-.66l-.77-.21c-.83-.23-1.7.09-2.19.83-.38.57-.4 1.31-.15 1.95l2.56 6.43A8.35 8.35 0 0013 24a8 8 0 008-8V7zm-2 9a6 6 0 01-6 6 6.35 6.35 0 01-5.91-4.01l-2.6-6.54.53.14c.46.12.83.46 1 .9L7 15h2V4.5c0-.28.22-.5.5-.5s.5.22.5.5V12h2V2.5c0-.28.22-.5.5-.5s.5.22.5.5V12h2V4c0-.28.22-.5.5-.5s.5.22.5.5v8h2V7c0-.28.22-.5.5-.5s.5.22.5.5v9z" /></svg>