<svg viewBox="64 64 896 896" focusable="false"><path d="M0 0h24v24H0V0z" /><path d="M20 8h-2.81a5.98 5.98 0 00-1.82-1.96L17 4.41 15.59 3l-2.17 2.17a6.07 6.07 0 00-2.83 0L8.41 3 7 4.41l1.62 1.63A6.06 6.06 0 006.81 8H4v2h2.09c-.05.33-.09.66-.09 1v1H4v2h2v1c0 .34.04.67.09 1H4v2h2.81a6 6 0 0010.38 0H20v-2h-2.09c.05-.33.09-.66.09-1v-1h2v-2h-2v-1c0-.34-.04-.67-.09-1H20V8zm-4 4v3c0 .22-.03.47-.07.7l-.1.65-.37.65a4 4 0 01-6.92 0l-.37-.64-.1-.65A4.27 4.27 0 018 15v-4c0-.23.03-.48.07-.7l.1-.65.37-.65c.3-.52.72-.97 1.21-1.31l.57-.39.74-.18a3.79 3.79 0 011.89 0l.68.16.61.42c.5.34.91.78 1.21 1.31l.38.65.1.65c.04.22.07.47.07.69v1zm-6 2h4v2h-4zm0-4h4v2h-4z" /></svg>