<svg viewBox="64 64 896 896" focusable="false"><path d="M0 0h24v24H0V0z" /><path d="M18.59 10.52a14.8 14.8 0 012.96 1.91l-1.07 1.07c-.58-.47-1.21-.89-1.88-1.27v-1.71m-13.2 0v1.7c-.65.37-1.28.79-1.87 1.27l-1.07-1.07c.91-.75 1.9-1.38 2.94-1.9M12 7C7.46 7 3.34 8.78.29 11.67c-.18.18-.29.43-.29.71s.11.53.29.7l2.48 2.48a1 1 0 00.71.29c.27 0 .52-.1.7-.28.79-.73 1.68-1.36 2.66-1.85a1 1 0 00.56-.9v-3.1a14.91 14.91 0 019.19.01v3.1c0 .4.23.74.56.9.98.49 1.88 1.11 2.67 1.85.18.17.43.28.7.28a1 1 0 00.71-.29l2.48-2.48c.18-.18.29-.43.29-.71s-.11-.53-.29-.71A16.97 16.97 0 0012 7z" /></svg>