<svg viewBox="64 64 896 896" focusable="false"><path d="M0 0h24v24H0z" /><path d="M18.32 4.26A9.95 9.95 0 0013 2.05v2.02c1.46.18 2.79.76 3.9 1.62l1.42-1.43zM19.93 11h2.02c-.2-2.01-1-3.84-2.21-5.32L18.31 7.1a7.94 7.94 0 011.62 3.9zm-1.62 5.9l1.43 1.43a9.98 9.98 0 002.21-5.32h-2.02a7.95 7.95 0 01-1.62 3.89zM13 19.93v2.02c2.01-.2 3.84-1 5.32-2.21l-1.43-1.43A7.87 7.87 0 0113 19.93zm2.59-9.34L13 13.17V7h-2v6.17l-2.59-2.59L7 12l5 5 5-5-1.41-1.41zM11 19.93v2.02a10 10 0 010-19.9v2.02a7.99 7.99 0 000 15.86z" /></svg>