<svg viewBox="64 64 896 896" focusable="false"><path d="M0 0h24v24H0z" /><path d="M1.39 4.22l1.62 1.62L3 6v3.8c2.7 0 3 2.16 3 2.7s-.29 2.7-3 2.7V19c0 1.1.9 2 2 2h3.8c0-2.71 2.16-3 2.7-3s2.7.29 2.7 3H18l.16-.01 1.61 1.61 1.41-1.41L2.81 2.81 1.39 4.22zM11.5 16c-1.5 0-3.57.83-4.37 3H5v-2.13a4.67 4.67 0 002.42-6.62l6.33 6.33A4.9 4.9 0 0011.5 16zM8.83 6l-2-2H9a2.5 2.5 0 015 0h4a2 2 0 012 2v4a2.5 2.5 0 010 5v2.17l-2-2V13h2c.28 0 .5-.22.5-.5s-.22-.5-.5-.5h-2V6h-6V4c0-.28-.22-.5-.5-.5s-.5.22-.5.5v2H8.83z" /></svg>