<svg viewBox="64 64 896 896" focusable="false"><path d="M0 0h24v24H0z" /><path d="M21.97 13.52v-.04a5.98 5.98 0 00-4.75-10.42 5.98 5.98 0 00-10.44 0 6 6 0 00-4.76 10.42v.04A6 6 0 006 24c1.39 0 2.67-.48 3.69-1.28a9.74 9.74 0 004.62 0 6 6 0 007.66-9.2zM22 9c0 .55-.12 1.07-.32 1.54A10 10 0 0017.98 5H18a4 4 0 014 4zm-9.97-4a8 8 0 016.57 3.48A4.06 4.06 0 0112 5.31l.03-.31zM12 2a4 4 0 013.1 1.5 9.97 9.97 0 00-6.2 0A4 4 0 0112 2zM6 5h.02a10 10 0 00-3.7 5.54A4 4 0 016 5zm0 17a4 4 0 01-4-4c0-.69.19-1.32.5-1.88.8 2.44 2.52 4.47 4.74 5.68-.39.13-.8.2-1.24.2zm-2-9a8.01 8.01 0 016-7.74v.05a6.07 6.07 0 009.51 4.97A8.01 8.01 0 114 13zm14 9a4 4 0 01-1.25-.2 10.03 10.03 0 004.74-5.68A3.98 3.98 0 0118 22z" /><circle cx="9" cy="14" r="1.25" /><circle cx="15" cy="14" r="1.25" /></svg>