<svg viewBox="64 64 896 896" focusable="false"><path d="M0 0h24v24H0z" /><circle cx="9" cy="13" r="1.25" /><path d="M17.5 10c.75 0 1.47-.09 2.17-.24a7.88 7.88 0 01-.44 5.64l1.49 1.49A9.98 9.98 0 0012 2c-1.78 0-3.44.47-4.89 1.28l5.33 5.33A9.9 9.9 0 0017.5 10zm-6.84-5.88a7.99 7.99 0 018.18 3.76 7.99 7.99 0 01-8.18-3.76zM1.89 3.72l2.19 2.19a10 10 0 0014.01 14.01l2.19 2.19 1.41-1.41L3.31 2.31 1.89 3.72zm14.77 14.77A8.01 8.01 0 014 12c0-.05.01-.1 0-.14a9.95 9.95 0 003.64-2.39l9.02 9.02zM6.23 8.06a8.01 8.01 0 01-1.81 1.41c.26-.77.63-1.48 1.09-2.13l.72.72z" /></svg>