<svg viewBox="64 64 896 896" focusable="false"><path d="M0 0h24v24H0V0z" /><path d="M4 18v-.65c0-.34.16-.66.41-.81A10.89 10.89 0 0110 15l.08.01c.1-.7.3-1.37.59-1.98a12.88 12.88 0 00-7.28 1.79A2.92 2.92 0 002 17.35V20h9.26a7.13 7.13 0 01-.97-2H4zM10 12a4 4 0 100-8 4 4 0 000 8zm0-6c1.1 0 2 .9 2 2s-.9 2-2 2-2-.9-2-2 .9-2 2-2zM20.75 16c0-.22-.03-.42-.06-.63l1.14-1.01-1-1.73-1.45.49a3.65 3.65 0 00-1.08-.63L18 11h-2l-.3 1.49c-.4.15-.76.36-1.08.63l-1.45-.49-1 1.73 1.14 1.01c-.03.21-.06.41-.06.63s.03.42.06.63l-1.14 1.01 1 1.73 1.45-.49c.32.27.68.48 1.08.63L16 21h2l.3-1.49c.4-.15.76-.36 1.08-.63l1.45.49 1-1.73-1.14-1.01c.03-.21.06-.41.06-.63zM17 18c-1.1 0-2-.9-2-2s.9-2 2-2 2 .9 2 2-.9 2-2 2z" /></svg>