<svg viewBox="64 64 896 896" focusable="false"><path d="M0 0h24v24H0V0z" /><path d="M3.42 2.36L2.01 3.78 4.1 5.87a10 10 0 002.89 14.78l1-1.73A8 8 0 015.53 7.31l1.43 1.44A6 6 0 009 17.19l1-1.74A4 4 0 018 12c0-.65.17-1.25.44-1.79l1.58 1.58L10 12c0 1.1.9 2 2 2l.21-.02 7.52 7.52 1.41-1.41L3.42 2.36zm14.29 11.46a6 6 0 00-7.53-7.53l1.72 1.72L12 8a4 4 0 014 4l-.01.11 1.72 1.71zM12 4a8 8 0 018 8c0 1.2-.29 2.32-.77 3.35l1.49 1.49A9.82 9.82 0 0022 12 10 10 0 0012 2c-1.76 0-3.4.48-4.84 1.28l1.48 1.48A7.88 7.88 0 0112 4z" /></svg>