<svg viewBox="64 64 896 896" focusable="false"><path d="M0 0h24v24H0V0z" /><path d="M4 6H2v14c0 1.1.9 2 2 2h14v-2H4V6zm16-4H8a2 2 0 00-2 2v12c0 1.1.9 2 2 2h12a2 2 0 002-2V4a2 2 0 00-2-2zm0 14H8V4h12v12zm-6.49-5.84c.41-.73 1.18-1.16 1.63-1.8.48-.68.21-1.94-1.14-1.94-.88 0-1.32.67-1.5 1.23l-1.37-.57A2.98 2.98 0 0113.99 5c1.23 0 2.08.56 2.51 1.26.37.6.58 1.73.01 2.57-.63.93-1.23 1.21-1.56 1.81-.13.24-.18.4-.18 1.18h-1.52c.01-.41-.06-1.08.26-1.66zm-.56 3.79c0-.59.47-1.04 1.05-1.04.59 0 1.04.45 1.04 1.04 0 .58-.44 1.05-1.04 1.05-.58 0-1.05-.47-1.05-1.05z" /></svg>