<svg viewBox="64 64 896 896" focusable="false"><path d="M0 0h24v24H0z" /><path d="M21 14h2a9 9 0 01-9 9v-2a7 7 0 007-7zm-7 3v2a5 5 0 005-5h-2a3 3 0 01-3 3zM18.26.59l3.54 3.54a2 2 0 010 2.83l-3.18 3.18a2 2 0 01-2.83 0L14.55 8.9l-.71.7 1.24 1.24a2 2 0 010 2.83l-1.41 1.41a2 2 0 01-2.83 0L9.6 13.84l-.71.71 1.24 1.24a2 2 0 010 2.83L6.95 21.8a2 2 0 01-2.83 0L.58 18.26a2 2 0 010-2.83l3.18-3.18a2 2 0 012.83 0l1.24 1.24.71-.71-1.24-1.23a2 2 0 010-2.83L8.72 7.3a2 2 0 012.83 0l1.24 1.24.71-.71-1.25-1.23a2 2 0 010-2.83L15.43.59a1.99 1.99 0 012.83 0zm-15.2 15.2L2 16.85l3.54 3.54 1.06-1.06-3.54-3.54zm2.12-2.12l-1.06 1.06 3.54 3.54 1.06-1.06-3.54-3.54zm4.95-4.95l-1.41 1.41 3.54 3.54 1.41-1.41-3.54-3.54zm4.6-4.6l-1.06 1.06 3.54 3.54 1.06-1.06-3.54-3.54zM16.85 2l-1.06 1.06 3.54 3.54 1.06-1.06L16.85 2z" /></svg>