<svg viewBox="64 64 896 896" focusable="false"><path d="M0 0h24v24H0z" /><path d="M20.22 10l-4.15.01a.97.97 0 00-.45.08l-.59.26-1.83-4.1a2.5 2.5 0 00-4.57 2.03l3.3 7.45-1.87.39c-.19.05-.99.27-1.36 1.21L8 19.19l6.78 2.67c.49.19 1.05.18 1.53-.04l5.99-2.65a2 2 0 001.13-2.32l-1.36-5.34A2 2 0 0020.22 10zm1.27 7.34L15.5 20l-4.92-1.96 4.18-.88-4.3-9.7a.5.5 0 01.25-.66.5.5 0 01.66.25l2.5 5.65 1.61-.71 4.65.01 1.36 5.34zM2.06 5.56L1 4.5 4.5 1 8 4.5 6.94 5.56 5.32 3.94a10.46 10.46 0 001.88 8.99L6.13 14A11.97 11.97 0 013.8 3.82L2.06 5.56z" /></svg>