<svg viewBox="64 64 896 896" focusable="false"><path d="M0 0h24v24H0z" /><path d="M11 5.5H8V4h.5a1 1 0 001-1 1 1 0 00-1-1h-3a1 1 0 00-1 1 1 1 0 001 1H6v1.5H3a1 1 0 00-1 1 1 1 0 001 1V15c0 1.1.9 2 2 2h1v4l2 1.5V17h1a2 2 0 002-2V7.5a1 1 0 001-1 1 1 0 00-1-1zM9 9H7.25a.76.76 0 00-.75.75c0 .41.34.75.75.75H9V12H7.25a.76.76 0 00-.75.75c0 .41.34.75.75.75H9V15H5V7.5h4V9zm10.5 1.5V10a1 1 0 001-1 1 1 0 00-1-1h-5a1 1 0 00-1 1 1 1 0 001 1v.5c0 .5-1.5 1.16-1.5 3V20c0 1.1.9 2 2 2h4a2 2 0 002-2v-6.5c0-1.84-1.5-2.5-1.5-3zm-3 0V10h1v.5c0 1.6 1.5 2 1.5 3v.5h-4v-.5c0-1 1.5-1.4 1.5-3zm2.5 5V17h-4v-1.5h4zM15 20v-1.5h4V20h-4z" /></svg>