<svg viewBox="64 64 896 896" focusable="false"><path d="M0 0h24v24H0V0zm0 0h24v24H0V0zm0 0h24v24H0V0zm0 0h24v24H0V0z" /><path d="M12 6a9.77 9.77 0 018.82 5.5 9.65 9.65 0 01-2.41 3.12l1.41 1.41A11.8 11.8 0 0023 11.5 11.83 11.83 0 008.36 4.57l1.65 1.65A10.1 10.1 0 0112 6zm-1.07 1.14L13 9.21a2.5 2.5 0 011.28 1.28l2.07 2.07a4.48 4.48 0 00-5.42-5.42zM2.01 3.87l2.68 2.68A11.74 11.74 0 001 11.5a11.83 11.83 0 0015.32 6.68l3.42 3.42 1.41-1.41L3.42 2.45 2.01 3.87zm7.5 7.5l2.61 2.61L12 14a2.5 2.5 0 01-2.5-2.5l.01-.13zm-3.4-3.4l1.75 1.75a4.5 4.5 0 005.91 5.92l.98.98A9.77 9.77 0 013.18 11.5a9.9 9.9 0 012.93-3.53z" /></svg>