<svg viewBox="64 64 896 896" focusable="false"><path d="M0 0h24v24H0V0z" /><path d="M18 13a6 6 0 00-6 6 6 6 0 006-6zM6 13a6 6 0 006 6 6 6 0 00-6-6zm2-1.97a1.56 1.56 0 002.45 1.28l-.01.12a1.56 1.56 0 003.12 0l-.01-.12a1.56 1.56 0 101.56-2.69c.52-.24.89-.78.89-1.4a1.56 1.56 0 00-2.45-1.28l.01-.12a1.56 1.56 0 00-3.12 0l.01.12a1.56 1.56 0 10-1.56 2.69c-.52.24-.89.78-.89 1.4zm4-2.97a1.56 1.56 0 110 3.12 1.56 1.56 0 010-3.12zM20 4v16H4V4h16m0-2H4a2 2 0 00-2 2v16c0 1.1.9 2 2 2h16a2 2 0 002-2V4a2 2 0 00-2-2z" /></svg>