<svg viewBox="64 64 896 896" focusable="false"><g><path d="M0 0h24v24H0z" /><path d="M0 0h24v24H0z" /></g><path d="M17 11c.34 0 .67.04 1 .09V7.58c0-.8-.47-1.52-1.2-1.83l-5.5-2.4a2.02 2.02 0 00-1.6 0l-5.5 2.4A2 2 0 003 7.58v3.6c0 4.54 3.2 8.79 7.5 9.82a9.17 9.17 0 001.6-.55A5.98 5.98 0 0117 11z" /><path d="M17 13a4 4 0 100 8 4 4 0 000-8zm0 1.38c.62 0 1.12.51 1.12 1.12s-.51 1.12-1.12 1.12-1.12-.51-1.12-1.12.5-1.12 1.12-1.12zm0 5.37c-.93 0-1.74-.46-2.24-1.17.05-.72 1.51-1.08 2.24-1.08s2.19.36 2.24 1.08A2.72 2.72 0 0117 19.75z" /></svg>