<svg viewBox="64 64 896 896" focusable="false"><path d="M0 0h24v24H0V0z" /><path d="M10.04 6.29a7 7 0 018.67 8.67l1.56 1.56a9 9 0 00-11.8-11.8l1.57 1.57zm-6.33-3.5a.99.99 0 00-1.39 0l-.02.03a.97.97 0 000 1.39l.68.68-.17.14a.98.98 0 00-.13 1.38l.03.03c.35.42.96.47 1.38.12l.31-.25.8.8A9 9 0 0017.89 19.8l1.41 1.41c.38.38 1 .38 1.39 0l.03-.03c.38-.38.38-1 0-1.39l-17.01-17zM12 20A7 7 0 016.62 8.53l9.85 9.85A6.96 6.96 0 0112 20zm7.91-13.44a.98.98 0 001.38-.12l.03-.03a.98.98 0 00-.12-1.38l-3.1-2.59a.98.98 0 00-1.38.12l-.03.03a.98.98 0 00.12 1.38l3.1 2.59zM7.43 3.68a1 1 0 00-.11-1.09l-.03-.03a.97.97 0 00-1.2-.22l1.34 1.34z" /></svg>