<svg viewBox="64 64 896 896" focusable="false"><path d="M0 0h24v24H0V0z" /><path d="M17 18H7V6h10v1h2V3a2 2 0 00-2-2L7 1.01A2 2 0 005 3v18c0 1.1.9 2 2 2h10a2 2 0 002-2v-4h-2v1zm4-6c0-.13-.02-.26-.04-.39l.64-.48c.2-.15.26-.44.13-.66l-.57-.96a.5.5 0 00-.62-.2l-.72.3a3.3 3.3 0 00-.65-.39l-.1-.77a.5.5 0 00-.49-.44l-1.12-.02a.5.5 0 00-.5.44l-.1.79c-.24.1-.45.23-.65.39l-.72-.3a.5.5 0 00-.62.2l-.57.96a.5.5 0 00.13.66l.64.48c-.05.13-.07.26-.07.39s.02.25.04.37l-.64.49a.5.5 0 00-.13.65l.56.97a.5.5 0 00.63.21l.73-.31c.2.16.42.3.67.4l.1.77a.5.5 0 00.5.44h1.12c.25 0 .46-.19.5-.44l.1-.77c.24-.1.46-.24.67-.4l.73.31c.23.1.5.01.63-.21l.56-.97a.5.5 0 00-.13-.65l-.64-.49c-.02-.12 0-.24 0-.37zm-3 1.5a1.5 1.5 0 110-3 1.5 1.5 0 010 3z" /></svg>