<svg viewBox="64 64 896 896" focusable="false"><g><path d="M0 0h24v24H0z" /><path d="M0 0h24v24H0z" /></g><path d="M17 18H7V6h10v1h2V3a2 2 0 00-2-2H7a2 2 0 00-2 2v18c0 1.1.9 2 2 2h10a2 2 0 002-2v-4h-2v1zM20.38 9.62l.4.87c.09.2.37.2.46 0l.4-.87.87-.4c.2-.09.2-.37 0-.46l-.87-.4-.4-.87a.25.25 0 00-.46 0l-.4.87-.87.4c-.2.09-.2.37 0 .46l.87.4z" /><path d="M15.54 9l-.79 1.75-1.75.79a.5.5 0 000 .91l1.75.79.79 1.76a.5.5 0 00.91 0l.79-1.75 1.76-.79a.5.5 0 000-.91l-1.75-.79L16.46 9a.5.5 0 00-.92 0zM20.77 13.5l-.4.87-.87.4c-.2.09-.2.37 0 .46l.87.4.4.87c.09.2.37.2.46 0l.4-.87.87-.4c.2-.09.2-.37 0-.46l-.87-.4-.4-.87a.26.26 0 00-.46 0z" /></svg>