<svg viewBox="64 64 896 896" focusable="false"><path d="M0 0h24v24H0z" /><path d="M14.06 9.94L13 9.45a.5.5 0 010-.91l1.06-.49.49-1.05a.5.5 0 01.91 0l.49 1.06 1.05.49a.5.5 0 010 .91l-1.06.49-.49 1.05a.5.5 0 01-.91 0l-.48-1.06zM4.45 13l.49-1.06L6 11.45a.5.5 0 000-.91l-1.06-.49L4.45 9a.5.5 0 00-.9 0l-.49 1.06-1.06.49a.5.5 0 000 .91l1.06.49.49 1.05a.5.5 0 00.9 0zm4.51-5.01l.63-1.4 1.4-.63a.5.5 0 000-.91l-1.4-.63-.63-1.4a.5.5 0 00-.91 0l-.63 1.4-1.4.63a.5.5 0 000 .91l1.4.63.63 1.4c.17.39.73.39.91 0zm13.38.28a1 1 0 00-1.45.04l-6.39 7.18-3.29-3.29a1 1 0 00-1.41 0l-6.04 6.05a1.07 1.07 0 000 1.5c.41.41 1.09.41 1.5 0l5.25-5.26 3.25 3.25a1 1 0 001.45-.04l7.17-8.07a1 1 0 00-.04-1.36z" /></svg>