<svg viewBox="64 64 896 896" focusable="false"><g><path d="M0 0h24v24H0z" /><path d="M0 0h24v24H0z" /></g><path d="M10 14h.74L8.82 5.56A2 2 0 006.87 4H4a1 1 0 00-1 1 1 1 0 001 1h2.87l1.42 6.25h-.01A6 6 0 004.09 17H0v2h6v-1a4 4 0 014-4zM18.75 8h-.56l-1.35-3.69A2 2 0 0014.96 3H12a1 1 0 00-1 1 1 1 0 001 1h2.96l1.1 3H10.4l.46 2H15a5 5 0 00-.9 2h-2.79l.46 2h2.33a4.93 4.93 0 004.65 3.99 5.04 5.04 0 005.12-6.1A5.2 5.2 0 0018.75 8zm.13 8A3.05 3.05 0 0116 13.08c-.02-.96.39-1.8 1.05-2.36l.62 1.7a1 1 0 101.88-.68l-.63-1.73.01-.01A2.97 2.97 0 0122 13a2.98 2.98 0 01-3.12 3z" /><path d="M10 15a3 3 0 100 6 3 3 0 000-6zm0 4c-.55 0-1-.45-1-1s.45-1 1-1 1 .45 1 1-.45 1-1 1z" /></svg>