<svg viewBox="64 64 896 896" focusable="false"><g><path d="M0 0h24v24H0z" /><path d="M0 0h24v24H0z" /></g><circle cx="11.41" cy="3.5" r="2" /><path d="M12.04 7.12a1.98 1.98 0 00-2.73-.88v-.01l-4.39 2.5a1.99 1.99 0 00-1.01 1.73V13a1 1 0 001 1 1 1 0 001-1v-2.54l1.5-.85c-.32 1.1-.5 2.24-.5 3.39v5.33l-2 2.67a1 1 0 00.2 1.4 1 1 0 001.4-.2l2.04-2.72c.23-.31.37-.69.4-1.08l.18-2.94L10.91 18v4a1 1 0 001 1 1 1 0 001-1v-4.87c0-.41-.13-.81-.36-1.15l-1.6-2.29v-.01a7.85 7.85 0 01.46-3.4 6.05 6.05 0 003.2 2.41l5.7 9.87a.5.5 0 00.68.18.5.5 0 00.18-.68L15.92 13c.54 0 .98-.44.98-.98v-.05c0-.5-.37-.94-.87-.99a3.89 3.89 0 01-3.21-2.18" /></svg>