<svg viewBox="64 64 896 896" focusable="false"><path d="M0 0h24v24H0z" /><path d="M17 1H7a2 2 0 00-2 2v18c0 1.1.9 2 2 2h10a2 2 0 002-2V3a2 2 0 00-2-2zM7 6h10v12H7V6zm9 5V9.14C16 8.51 15.55 8 15 8H9c-.55 0-1 .51-1 1.14v1.96a1 1 0 011 1 1 1 0 01-1 1v1.76c0 .63.45 1.14 1 1.14h6c.55 0 1-.51 1-1.14V13a1 1 0 01-1-1 1 1 0 011-1zm-4 3.5a.5.5 0 01-.5-.5c0-.28.22-.5.5-.5s.5.22.5.5a.5.5 0 01-.5.5zm0-2a.5.5 0 01-.5-.5c0-.28.22-.5.5-.5s.5.22.5.5a.5.5 0 01-.5.5zm0-2a.5.5 0 01-.5-.5c0-.28.22-.5.5-.5s.5.22.5.5a.5.5 0 01-.5.5z" /></svg>