<svg viewBox="64 64 896 896" focusable="false"><path d="M0 0h24v24H0z" /><path d="M18 12a1 1 0 001 1h2a1 1 0 001-1 1 1 0 00-1-1h-2a1 1 0 00-1 1zM16.59 16.82a.97.97 0 00.2 1.37l1.62 1.21a.98.98 0 001.38-.2l.01-.02a.98.98 0 00-.2-1.38l-1.61-1.21a1 1 0 00-1.39.21l-.01.02zM19.81 4.81l-.01-.02a.98.98 0 00-1.38-.2L16.8 5.81a.98.98 0 00-.19 1.38l.01.02c.33.44.94.53 1.38.2l1.62-1.22a1 1 0 00.19-1.38zM8 9H4a2 2 0 00-2 2v2c0 1.1.9 2 2 2h1v3a1 1 0 001 1 1 1 0 001-1v-3h1l5 3V6L8 9zM15.5 12c0-1.33-.58-2.53-1.5-3.35v6.69A4.44 4.44 0 0015.5 12z" /></svg>