<svg viewBox="64 64 896 896" focusable="false"><g><path d="M0 0h24v24H0z" /><path d="M0 0h24v24H0z" /></g><path d="M18 1a5 5 0 100 10 5 5 0 000-10zm0 6a.5.5 0 01-.5-.5v-3c0-.28.22-.5.5-.5s.5.22.5.5v3a.5.5 0 01-.5.5zm.5 1.5c0 .28-.22.5-.5.5s-.5-.22-.5-.5.22-.5.5-.5.5.22.5.5zm1 11.5c.82 0 1.5-.67 1.5-1.5v-6.18a7 7 0 01-3.09.68 1.5 1.5 0 11-2.52-.51A7.03 7.03 0 0111.68 9H5.81l1.04-3H11c0-.69.1-1.37.29-2H6.5a1.5 1.5 0 00-1.42 1.01l-1.97 5.67c-.07.21-.11.43-.11.66v7.16a1.5 1.5 0 103 0V18h12v.5c0 .83.68 1.5 1.5 1.5zm-12-5a1.5 1.5 0 110-3 1.5 1.5 0 010 3z" /></svg>