<svg viewBox="64 64 896 896" focusable="false"><path d="M0 0h24v24H0z" /><path d="M3.99 21.29l9.04-3.23a2 2 0 00.74-3.3l-4.53-4.53a2 2 0 00-3.3.74l-3.23 9.04a1 1 0 001.28 1.28zM15.06 12l5.06-5.06a1.25 1.25 0 011.77 0l.06.06c.29.29.77.29 1.06 0a.75.75 0 000-1.06l-.06-.06a2.76 2.76 0 00-3.89 0L14 10.94A.75.75 0 0014 12c.29.29.77.29 1.06 0zM10.06 6.88l-.06.06A.75.75 0 0010 8c.29.29.77.29 1.06 0l.06-.06a2.76 2.76 0 000-3.89L11.07 4A.75.75 0 0010 5.06l.06.06c.48.48.48 1.28 0 1.76zM17.06 11.88L16 12.94A.75.75 0 0016 14c.29.29.77.29 1.06 0l1.06-1.06a1.25 1.25 0 011.77 0l1.08 1.08c.29.29.77.29 1.06 0a.75.75 0 000-1.06l-1.08-1.08a2.76 2.76 0 00-3.89 0zM15.06 5.88L12 8.94A.75.75 0 0012 10c.29.29.77.29 1.06 0l3.06-3.06a2.76 2.76 0 000-3.89l-1.06-1.06a.75.75 0 00-1.06 0 .75.75 0 000 1.06l1.06 1.06c.48.49.48 1.29 0 1.77z" /></svg>