<svg viewBox="64 64 896 896" focusable="false"><path d="M0 0h24v24H0z" /><path d="M10 15a1 1 0 00-1 1v4H6a1 1 0 01-1-1v-3.67l-.38.38a1 1 0 11-1.41-1.41L9.3 8.21a1 1 0 011.41 0l6.09 6.09a1 1 0 11-1.41 1.41l-.39-.38V19a1 1 0 01-1 1h-3v-4a1 1 0 00-1-1zm7.5-7.5v.89l-1.08 1.08a.53.53 0 00-.05.69.5.5 0 00.74.04l.39-.39v.69c0 .28.22.5.5.5a.5.5 0 00.5-.5v-.69l.39.39a.5.5 0 00.74-.04c.17-.2.14-.5-.05-.69L18.5 8.39V7.5h.89l1.08 1.08c.18.18.48.21.69.05a.5.5 0 00.04-.74l-.39-.39h.69A.5.5 0 0022 7a.5.5 0 00-.5-.5h-.69l.39-.39a.5.5 0 00-.04-.74c-.2-.17-.5-.14-.69.05L19.39 6.5h-.89v-.89l1.08-1.08a.53.53 0 00.05-.69.5.5 0 00-.74-.04l-.39.39V3.5A.5.5 0 0018 3a.5.5 0 00-.5.5v.69l-.39-.39a.5.5 0 00-.74.04c-.17.2-.14.5.05.69l1.08 1.08v.89h-.89l-1.08-1.08a.53.53 0 00-.69-.05.5.5 0 00-.04.74l.39.39h-.69a.5.5 0 00-.5.5c0 .28.22.5.5.5h.69l-.39.39a.5.5 0 00.04.74c.2.17.5.14.69-.05l1.08-1.08h.89z" /></svg>