<svg viewBox="64 64 896 896" focusable="false"><path d="M0 0h24v24H0V0z" /><path d="M20 2H4a2 2 0 00-2 2v16c0 1.1.9 2 2 2h16a2 2 0 002-2V4a2 2 0 00-2-2zm-9 8.3a2 2 0 01-1.5 1.93v6.02c0 .41-.34.75-.75.75a.76.76 0 01-.75-.75v-6.02a2 2 0 01-1.5-1.93V6.5c0-.28.22-.5.5-.5s.5.22.5.5V9h.75V6.5c0-.28.22-.5.5-.5s.5.22.5.5V9H10V6.5c0-.28.23-.5.5-.5.28 0 .5.22.5.5v3.8zm4.58 2.29l-.08.03v5.63c0 .41-.34.75-.75.75a.76.76 0 01-.75-.75v-5.63l-.08-.04c-.97-.47-1.67-1.7-1.67-3.18 0-1.88 1.13-3.4 2.5-3.4 1.38 0 2.5 1.53 2.5 3.41 0 1.48-.7 2.71-1.67 3.18z" /></svg>