<svg viewBox="64 64 896 896" focusable="false"><path d="M0 0h24v24H0V0z" /><path d="M13.49 5.48c1.1 0 2-.9 2-2s-.9-2-2-2-2 .9-2 2 .9 2 2 2zm-3.17 12l.57-2.5 2.1 2v5c0 .55.45 1 1 1s1-.45 1-1v-5.64c0-.55-.22-1.07-.62-1.45l-1.48-1.41.6-3a7.32 7.32 0 004.36 2.41 1 1 0 001.14-1 1 1 0 00-.85-.98 4.86 4.86 0 01-3.45-2.33l-1-1.6c-.4-.6-1-1-1.7-1-.3 0-.5.1-.8.1L7.21 7.76a2.01 2.01 0 00-1.22 1.85v2.37c0 .55.45 1 1 1s1-.45 1-1v-2.4l1.8-.7-1.6 8.1-3.92-.8a1 1 0 00-1.18.78V17a1 1 0 00.78 1.18l4.11.82a2 2 0 002.34-1.52z" /></svg>