<svg viewBox="64 64 896 896" focusable="false"><g><path d="M0 0h24v24H0z" /><path d="M0 0h24v24H0z" /></g><path d="M6.32 13.01c.96.02 1.85.5 2.45 1.34a3.96 3.96 0 006.46-.01A3.08 3.08 0 0117.68 13c-.72-1.22-3.6-2-5.68-2-2.07 0-4.96.78-5.68 2.01zM4 13a3 3 0 100-6 3 3 0 000 6zM20 13a3 3 0 100-6 3 3 0 000 6zM12 10a3 3 0 100-6 3 3 0 000 6z" /><path d="M21 14h-3.27c-.77 0-1.35.45-1.68.92-.04.06-1.36 2.08-4.05 2.08a4.97 4.97 0 01-4.05-2.08c-.39-.55-1-.92-1.68-.92H3a2 2 0 00-2 2v3a1 1 0 001 1h5a1 1 0 001-1v-1.26a7 7 0 008 0V19a1 1 0 001 1h5a1 1 0 001-1v-3a2 2 0 00-2-2z" /></svg>