<svg viewBox="64 64 896 896" focusable="false"><path d="M0 0h24v24H0z" /><path d="M11.5 3.5c0-1.1.9-2 2-2s2 .9 2 2-.9 2-2 2-2-.9-2-2zm7.03 7.5a4.01 4.01 0 01-3.6-2.21l-.79-1.67a2 2 0 00-2.74-.88v-.01l-4.39 2.5A1.99 1.99 0 006 10.46V13a1 1 0 001 1 1 1 0 001-1v-2.54l1.5-.85C9.18 10.71 9 11.85 9 13v5.33L7 21a1 1 0 00.2 1.4 1 1 0 001.4-.2l2.04-2.72c.23-.31.37-.69.4-1.08l.18-2.94L13 18v4a1 1 0 001 1 1 1 0 001-1v-4.87c0-.41-.13-.81-.36-1.15l-1.6-2.29v-.01a7.85 7.85 0 01.46-3.4 6.02 6.02 0 003.51 2.52v.2c0 .28.22.5.5.5s.49-.22.49-.5v-.5c0-.28.22-.5.5-.5s.5.22.5.5v10c0 .28.22.5.5.5s.5-.22.5-.5v-10c0-.82-.66-1.51-1.47-1.5z" /></svg>