<svg viewBox="64 64 896 896" focusable="false"><g><path d="M0 0h24v24H0z" /><path d="M0 0h24v24H0z" /></g><path d="M12 9c-3.15 0-6 2.41-6 6.15 0 2.35 1.78 5.11 5.34 8.27.37.33.95.33 1.33 0C16.22 20.25 18 17.5 18 15.15A5.96 5.96 0 0012 9zm0 7.5a1.5 1.5 0 110-3 1.5 1.5 0 010 3zm4.18-9.68a1 1 0 01-1.3.09 5 5 0 00-5.76 0c-.41.28-.95.26-1.3-.09a1 1 0 01.09-1.5 6.98 6.98 0 018.18 0c.49.35.52 1.07.09 1.5zM4.97 3.97a1.02 1.02 0 01.08-1.5 11.02 11.02 0 0113.91.01 1 1 0 01.08 1.49.98.98 0 01-1.32.07 9.03 9.03 0 00-11.43 0 1 1 0 01-1.32-.07z" /></svg>