<svg viewBox="64 64 896 896" focusable="false"><g><path d="M0 0h24v24H0z" /><path d="M0 0h24v24H0z" /></g><path d="M15 18.5A6.48 6.48 0 019.24 15h5.14c.38 0 .73-.21.89-.55a1 1 0 00-.89-1.45h-5.8a6.63 6.63 0 010-2h5.8c.38 0 .73-.21.89-.55A1 1 0 0014.38 9H9.24a6.5 6.5 0 019.18-2.53c.5.31 1.15.26 1.57-.16.58-.58.45-1.53-.25-1.96A9 9 0 006.52 9h-2.9a1 1 0 100 2h2.44a8.26 8.26 0 000 2H3.62a.98.98 0 00-.89.55A1 1 0 003.62 15h2.9a9 9 0 0013.22 4.65c.69-.43.82-1.39.24-1.97a1.25 1.25 0 00-1.57-.15c-.99.62-2.15.97-3.41.97z" /></svg>