<svg viewBox="64 64 896 896" focusable="false"><path d="M0 0h24v24H0V0z" /><path d="M16.05 16.29l2.86-3.07c.38-.39.72-.79 1.04-1.18.32-.39.59-.78.82-1.17s.41-.78.54-1.17a3.83 3.83 0 00-.08-2.64 2.94 2.94 0 00-.78-1.11 3.6 3.6 0 00-1.26-.71 5.72 5.72 0 00-3.57.08A3.8 3.8 0 0013.14 9h2.14c.01-.31.05-.6.13-.87.09-.29.23-.54.4-.75.18-.21.41-.37.68-.49s.6-.18.96-.18c.31 0 .58.05.81.15s.43.25.59.43.28.4.37.65a2.64 2.64 0 01-.24 2.16 12.98 12.98 0 01-1.44 1.86l-4.17 4.55V18H22v-1.71h-5.95zM7 7a1 1 0 00-1 1v3H3c-.55 0-1 .45-1 1s.45 1 1 1h3v3c0 .55.45 1 1 1s1-.45 1-1v-3h3c.55 0 1-.45 1-1s-.45-1-1-1H8V8a1 1 0 00-1-1z" /></svg>