<svg viewBox="64 64 896 896" focusable="false"><g><path d="M0 0h24v24H0z" /><path d="M0 0h24v24H0z" /></g><path d="M19 9h-1V6a2 2 0 00-2-2h-6a2 2 0 00-2 2v14h12a2 2 0 002-2v-6a3 3 0 00-3-3zm-9-3h6v3h-6V6zm4 11h-4v-5h4v5zm2 0a1 1 0 01-1-1c0-.55.45-1 1-1s1 .45 1 1a1 1 0 01-1 1zm0-3a1 1 0 01-1-1c0-.55.45-1 1-1s1 .45 1 1a1 1 0 01-1 1zm3 3a1 1 0 01-1-1c0-.55.45-1 1-1s1 .45 1 1a1 1 0 01-1 1zm0-3a1 1 0 01-1-1c0-.55.45-1 1-1s1 .45 1 1a1 1 0 01-1 1zM4.5 8A2.5 2.5 0 002 10.5v8a2.5 2.5 0 005 0v-8A2.5 2.5 0 004.5 8z" /></svg>