<svg viewBox="64 64 896 896" focusable="false"><path d="M4.5 10.5h2v3h-2zm13 0h2v1h-2zM21 3H3a2 2 0 00-2 2v14a2 2 0 002 2h18a2 2 0 002-2V5a2 2 0 00-2-2zM8 13.5c0 .83-.67 1.5-1.5 1.5h-3a.5.5 0 01-.5-.5v-5c0-.28.22-.5.5-.5h3c.83 0 1.5.67 1.5 1.5v3zm6.1-3.58l-1.27 4.36c-.12.43-.52.72-.96.72s-.84-.29-.96-.72L9.64 9.92a.72.72 0 01.69-.92c.32 0 .6.21.69.52l.85 2.91.85-2.91a.72.72 0 01.69-.52c.48 0 .83.46.69.92zM21 11.5c0 .6-.4 1.15-.9 1.4l.63 1.48a.7.7 0 01-.63.96.66.66 0 01-.63-.42L18.65 13H17.5v1.31a.7.7 0 01-.69.69h-.12a.7.7 0 01-.69-.69V9.64c0-.35.29-.64.64-.64h2.86c.83 0 1.5.67 1.5 1.5v1z" /></svg>