<svg viewBox="64 64 896 896" focusable="false"><path d="M0 0h24v24H0V0z" /><path d="M21 1H7a2 2 0 00-2 2v14c0 1.1.9 2 2 2h14a2 2 0 002-2V3a2 2 0 00-2-2zm-1 16H8a1 1 0 01-1-1V4a1 1 0 011-1h12a1 1 0 011 1v12a1 1 0 01-1 1zM2 5a1 1 0 00-1 1v15c0 1.1.9 2 2 2h15c.55 0 1-.45 1-1s-.45-1-1-1H4a1 1 0 01-1-1V6a1 1 0 00-1-1zm15 8v-1.5c0-.83-.67-1.5-1.5-1.5.83 0 1.5-.67 1.5-1.5V7a2 2 0 00-2-2h-3c-.55 0-1 .45-1 1s.45 1 1 1h3v2h-1c-.55 0-1 .45-1 1s.45 1 1 1h1v2h-3c-.55 0-1 .45-1 1s.45 1 1 1h3a2 2 0 002-2z" /></svg>