<svg viewBox="64 64 896 896" focusable="false"><g><path d="M0 0h24v24H0z" /><path d="M0 0h24v24H0z" /></g><path d="M22.9 10.69l-1.44-4.32A2 2 0 0019.56 5H19V4a1 1 0 00-1-1h-1a1 1 0 00-1 1v1h-2a2 2 0 00-2 2v4H3a2 2 0 00-2 2v3c0 1.1.9 2 2 2h1a3 3 0 106 0h4a3 3 0 106 0h1a2 2 0 002-2v-4.68c0-.21-.03-.42-.1-.63zM7 19c-.55 0-1-.45-1-1s.45-1 1-1 1 .45 1 1-.45 1-1 1zm10 0c-.55 0-1-.45-1-1s.45-1 1-1 1 .45 1 1-.45 1-1 1zm-3-8V7h5.56l1.33 4H14z" /><path d="M10.25 8.5H10v-2h.25c.41 0 .75-.34.75-.75a.76.76 0 00-.75-.75h-8.5a.76.76 0 00-.75.75c0 .41.34.75.75.75H2v2h-.25a.76.76 0 00-.75.75c0 .41.34.75.75.75h8.5c.41 0 .75-.34.75-.75a.76.76 0 00-.75-.75zm-5 0H3.5v-2h1.75v2zm3.25 0H6.75v-2H8.5v2z" /></svg>