<svg viewBox="64 64 896 896" focusable="false"><path d="M0 0h24v24H0V0z" /><path d="M16 7.08c0 1.77-.84 3.25-2 3.82V20a1 1 0 01-1 1 1 1 0 01-1-1v-9.1c-1.16-.57-2-2.05-2-3.82C10.01 4.83 11.35 3 13 3c1.66 0 3 1.83 3 4.08zm2.27-3.9a1 1 0 00-1.27.97V20a1 1 0 001 1 1 1 0 001-1v-7h1a1 1 0 001-1V7c0-1.46-.86-3.26-2.73-3.82zM8.28 3c-.4 0-.72.32-.72.72V7h-.84V3.72C6.72 3.32 6.4 3 6 3s-.72.32-.72.72V7h-.84V3.72c0-.4-.32-.72-.72-.72S3 3.32 3 3.72V9c0 1.1.9 2 2 2v9a1 1 0 001 1 1 1 0 001-1v-9a2 2 0 002-2V3.72c0-.4-.32-.72-.72-.72z" /></svg>