<svg viewBox="64 64 896 896" focusable="false"><g><path d="M0 0h24v24H0z" /><path d="M0 0h24v24H0z" /></g><path d="M21 4v1h-2V4a1 1 0 00-1-1 1 1 0 00-1 1v1h-2V4a1 1 0 00-1-1 1 1 0 00-1 1v2.17c0 .53.21 1.04.59 1.41L15 9v1H9V9l1.41-1.41A2 2 0 0011 6.17V4a1 1 0 00-1-1 1 1 0 00-1 1v1H7V4a1 1 0 00-1-1 1 1 0 00-1 1v1H3V4a1 1 0 00-1-1 1 1 0 00-1 1v2.17a2 2 0 00.59 1.42L3 9v6l-1.41 1.41A2 2 0 001 17.83V19c0 1.1.9 2 2 2h7v-2.89c0-1 .68-1.92 1.66-2.08A2 2 0 0114 18v3h7a2 2 0 002-2v-1.17c0-.53-.21-1.04-.59-1.41L21 15V9l1.41-1.41A2 2 0 0023 6.17V4a1 1 0 00-1-1 1 1 0 00-1 1z" /></svg>