<svg viewBox="64 64 896 896" focusable="false"><path d="M0 0h24v24H0z" /><path d="M9 4a8 8 0 100 16A8 8 0 009 4zm0 11.5a1 1 0 01-1-1v-4H6.75c-.41 0-.75-.34-.75-.75S6.34 9 6.75 9h4.5c.41 0 .75.34.75.75s-.34.75-.75.75H10v4a1 1 0 01-1 1zM20.25 3.75l1.75.79a.5.5 0 010 .91l-1.75.79L19.46 8a.5.5 0 01-.91 0l-.79-1.75L16 5.46a.5.5 0 010-.91l1.75-.79.79-1.76a.5.5 0 01.91 0l.8 1.75zm0 14l1.75.79a.5.5 0 010 .91l-1.75.79-.79 1.76a.5.5 0 01-.91 0l-.79-1.75-1.76-.79a.5.5 0 010-.91l1.75-.79.79-1.76a.5.5 0 01.91 0l.8 1.75z" /></svg>