<svg viewBox="64 64 896 896" focusable="false"><path d="M0 0h24v24H0V0z" /><path d="M17.5 14.25V13h1.1l.72 1.59a.7.7 0 001.27-.55l-.49-1.14c.5-.3.9-.8.9-1.4v-1c0-.83-.67-1.5-1.5-1.5H17a1 1 0 00-1 1v3.9l1.04 1.04a.75.75 0 00.46-.69zm0-3.75h2v1h-2v-1zm-4.5 0v.4l1.5 1.5v-1.9c0-.82-.68-1.5-1.5-1.5h-1.9l1.5 1.5h.4zm8.03 10.53l-18-18a.74.74 0 10-1.05 1.05l4.98 4.98a.75.75 0 00-.46.69V11h-2V9.75c0-.41-.34-.75-.75-.75S3 9.34 3 9.75v4.5c0 .41.34.75.75.75s.75-.34.75-.75V12.5h2v1.75c0 .41.34.75.75.75s.75-.34.75-.75V10.1l1.5 1.5v2.9c0 .28.22.5.5.5h2.5c.12 0 .24-.01.36-.04l7.11 7.11a.74.74 0 001.06-1.04z" /></svg>