<svg viewBox="64 64 896 896" focusable="false"><path d="M0 0h24v24H0V0z" /><path d="M18 18.5v-1c0-.83-.67-1.5-1.5-1.5H14a1 1 0 00-1 1v4.31c0 .38.31.69.69.69h.11a.7.7 0 00.69-.69V20h1.1l.72 1.59c.11.25.36.41.63.41a.7.7 0 00.64-.97l-.48-1.13c.5-.3.9-.8.9-1.4zm-1.5 0h-2v-1h2v1zm-13-.5h-2v-1.25A.76.76 0 00.75 16a.76.76 0 00-.75.75v4.5c0 .41.34.75.75.75s.75-.34.75-.75V19.5h2v1.75c0 .41.34.75.75.75s.75-.34.75-.75v-4.5a.76.76 0 00-.75-.75.76.76 0 00-.75.75V18zm6.5-2H7.5a1 1 0 00-1 1v4a1 1 0 001 1H10c.82 0 1.5-.67 1.5-1.5v-3c0-.83-.68-1.5-1.5-1.5zm0 4.5H8v-3h2v3zm13.25-.5H22v1.25c0 .41-.34.75-.75.75a.76.76 0 01-.75-.75V20h-1.25a.76.76 0 01-.75-.75c0-.41.34-.75.75-.75h1.25v-1.25c0-.41.34-.75.75-.75s.75.34.75.75v1.25h1.25c.41 0 .75.34.75.75s-.34.75-.75.75zM10.98 4.15L9.42 2.59a6 6 0 017.99 7.99l-1.56-1.56a3.97 3.97 0 00-4.87-4.87zm-5.35-1.1a1 1 0 000 1.41l.96.96a6 6 0 007.99 7.99l.95.95a1 1 0 101.41-1.41l-9.9-9.91a1 1 0 00-1.41.01zm2.52 3.93l4.87 4.87a3.97 3.97 0 01-4.87-4.87z" /></svg>