<svg viewBox="64 64 896 896" focusable="false"><path d="M0 0h24v24H0z" /><path d="M6.25 9a.76.76 0 00-.75.75V11h-1V9.75c0-.41-.34-.75-.75-.75S3 9.34 3 9.75v4.5c0 .41.34.75.75.75s.75-.34.75-.75V12.5h1v1.75c0 .41.34.75.75.75s.75-.34.75-.75v-4.5A.76.76 0 006.25 9zM10.75 10.5c.41 0 .75-.34.75-.75a.76.76 0 00-.75-.75H9a1 1 0 00-1 1v4a1 1 0 001 1h1.75c.41 0 .75-.34.75-.75a.76.76 0 00-.75-.75H9.5v-1h1.25c.41 0 .75-.34.75-.75a.76.76 0 00-.75-.75H9.5v-.5h1.25zM15.63 9a.74.74 0 00-.73.62l-.65 3.88-.65-3.88a.74.74 0 00-1.46.24l.65 3.91c.12.71.73 1.23 1.46 1.23s1.34-.52 1.46-1.23l.65-3.91a.75.75 0 00-.73-.86zM19.5 10.5c0 .28.22.5.5.5h.5a.5.5 0 00.5-.5V10a1 1 0 00-1-1h-2a1 1 0 00-1 1v4a1 1 0 001 1h2a1 1 0 001-1v-.5a.5.5 0 00-.5-.5H20a.5.5 0 00-.5.5h-1v-3h1z" /></svg>