<svg viewBox="64 64 896 896" focusable="false"><g><path d="M0 0h24v24H0z" /><path d="M0 0h24v24H0z" /></g><path d="M14.09 7.51l1.2-2a1 1 0 000-1.03l-1.2-2a1 1 0 00-.86-.48h-2.45a.99.99 0 00-.86.49l-1.2 2a1 1 0 000 1.03l1.2 2c.17.3.5.48.85.48h2.45a1 1 0 00.87-.49zM9.91 9.49l-1.2 2a1 1 0 000 1.03l1.2 2c.18.3.51.49.86.49h2.46c.35 0 .68-.18.86-.49l1.2-2a1 1 0 000-1.03l-1.2-2a.99.99 0 00-.86-.49h-2.46a.99.99 0 00-.86.49zM17.01 11.51h2.45c.35 0 .68-.18.86-.49l1.2-2a1 1 0 000-1.03l-1.2-2c-.18-.3-.51-.49-.86-.49h-2.45a.99.99 0 00-.86.49l-1.2 2a1 1 0 000 1.03l1.2 2a1 1 0 00.86.49zM19.47 12.51h-2.46a.99.99 0 00-.86.49l-1.2 2a1 1 0 000 1.03l1.2 2c.18.3.51.49.86.49h2.46c.35 0 .68-.18.86-.49l1.2-2a1 1 0 000-1.03l-1.2-2c-.18-.3-.51-.49-.86-.49zM7.84 11.03l1.2-2a1 1 0 000-1.03l-1.2-2a1 1 0 00-.85-.49H4.53c-.35 0-.68.19-.86.49l-1.2 2a1 1 0 000 1.03l1.2 2c.18.3.51.49.86.49h2.45c.36-.01.68-.19.86-.49zM6.99 12.51H4.53a.99.99 0 00-.86.49l-1.2 2a1 1 0 000 1.03l1.2 2c.18.3.51.49.86.49h2.46c.35 0 .68-.18.86-.49l1.2-2a1 1 0 000-1.03l-1.2-2c-.19-.3-.51-.49-.86-.49zM9.91 16.49l-1.2 2a1 1 0 000 1.03l1.2 2c.18.3.51.49.86.49h2.46c.35 0 .68-.18.86-.49l1.2-2a1 1 0 000-1.03l-1.2-2c-.18-.3-.51-.49-.86-.49h-2.46a.99.99 0 00-.86.49z" /></svg>