<svg viewBox="64 64 896 896" focusable="false"><g><path d="M0 0h24v24H0z" /><path d="M0 0h24v24H0z" /></g><path d="M17.83 15h1.67a1 1 0 001-1v-1.5a1 1 0 00-1-1H17v-1h2.04c.1.29.38.5.71.5.41 0 .75-.34.75-.75V10a1 1 0 00-1-1h-3a1 1 0 00-1 1v1.5a1 1 0 001 1H19v1h-2.04a.75.75 0 00-1.05-.42L17.83 15zm1.24 6.9a1 1 0 101.41-1.41L3.51 3.51A1 1 0 102.1 4.92L6.58 9.4a.85.85 0 00-.08.35V11h-2V9.75c0-.41-.34-.75-.75-.75S3 9.34 3 9.75v4.5c0 .41.34.75.75.75s.75-.34.75-.75V12.5h2v1.75c0 .41.34.75.75.75s.75-.34.75-.75v-3.42l2 2V14a1 1 0 001 1h1.17l6.9 6.9z" /></svg>