<svg viewBox="64 64 896 896" focusable="false"><path d="M0 0h24v24H0V0z" /><circle cx="7" cy="6" r="2" /><path d="M21 12h-9.85a4.8 4.8 0 01-.82-.72l-1.4-1.55a2.15 2.15 0 00-.69-.5A2.23 2.23 0 007.28 9h-.03A2.25 2.25 0 005 11.25V12H3a1 1 0 00-1 1v7c0 1.1.9 2 2 2h16a2 2 0 002-2v-7a1 1 0 00-1-1zM7 19c0 .55-.45 1-1 1s-1-.45-1-1v-4c0-.55.45-1 1-1s1 .45 1 1v4zm4 0c0 .55-.45 1-1 1s-1-.45-1-1v-4c0-.55.45-1 1-1s1 .45 1 1v4zm4 0c0 .55-.45 1-1 1s-1-.45-1-1v-4c0-.55.45-1 1-1s1 .45 1 1v4zm4 0c0 .55-.45 1-1 1s-1-.45-1-1v-4c0-.55.45-1 1-1s1 .45 1 1v4zm-3.94-9c.5 0 .93-.39.94-.89a4.34 4.34 0 00-1.35-3.25c-.65-.72-.8-1.27-.77-1.91a.93.93 0 00-.94-.95c-.5 0-.93.4-.94.9a4.34 4.34 0 001.35 3.25c.61.59.78 1.27.78 1.89-.01.52.4.96.93.96zm4 0c.5 0 .93-.39.94-.89a4.34 4.34 0 00-1.35-3.25c-.65-.72-.8-1.27-.77-1.91a.93.93 0 00-.94-.95c-.5 0-.93.4-.94.9a4.34 4.34 0 001.35 3.25c.61.59.78 1.27.78 1.89-.01.52.4.96.93.96z" /></svg>