<svg viewBox="64 64 896 896" focusable="false"><path d="M0 0h24v24H0V0z" /><path d="M18 15v4a1 1 0 01-1 1H5a1 1 0 01-1-1V7a1 1 0 011-1h3.02c.55 0 1-.45 1-1s-.45-1-1-1H4a2 2 0 00-2 2v14c0 1.1.9 2 2 2h14a2 2 0 002-2v-5c0-.55-.45-1-1-1s-1 .45-1 1zm-2.5 3H6.52a.5.5 0 01-.39-.81l1.74-2.23a.5.5 0 01.78-.01l1.56 1.88 2.35-3.02a.5.5 0 01.79.01l2.55 3.39c.25.32.01.79-.4.79zm3.8-9.11c.48-.77.75-1.67.69-2.66a4.5 4.5 0 10-2.11 4.07l2.41 2.41a1 1 0 001.42 0 1 1 0 000-1.42l-2.41-2.4zM15.5 9a2.5 2.5 0 110-5 2.5 2.5 0 010 5z" /></svg>