<svg viewBox="64 64 896 896" focusable="false"><path d="M0 0h24v24H0z" /><path d="M7.75 13v1h.75a2.5 2.5 0 010 5h-.75v3.25c0 .41-.34.75-.75.75s-.75-.34-.75-.75V19H5.5a2.5 2.5 0 010-5h.75v-1H4a1 1 0 01-1-1V9a1 1 0 011-1h2.25V7H5.5a2.5 2.5 0 010-5h.75v-.25c0-.41.34-.75.75-.75s.75.34.75.75V2h.75a2.5 2.5 0 010 5h-.75v1H10a1 1 0 011 1v3a1 1 0 01-1 1H7.75zm10 0v1h.75a2.5 2.5 0 010 5h-.75v3.25c0 .41-.34.75-.75.75s-.75-.34-.75-.75V19h-.75a2.5 2.5 0 010-5h.75v-1H14a1 1 0 01-1-1V9a1 1 0 011-1h2.25V7h-.75a2.5 2.5 0 010-5h.75v-.25c0-.41.34-.75.75-.75s.75.34.75.75V2h.75a2.5 2.5 0 010 5h-.75v1H20a1 1 0 011 1v3a1 1 0 01-1 1h-2.25z" /></svg>