<svg viewBox="64 64 896 896" focusable="false"><g><path d="M0 0h24v24H0z" /><path d="M0 0h24v24H0z" /></g><path d="M15.47 13.79l-2.58-1.03L6 15.05l-4-1.54v2.1l4 1.34zM10.57 11.42L8.6 8.8C8.22 8.3 7.63 8 7 8H4a2 2 0 00-2 2v1.61l4 1.33 4.57-1.52zM6 19.05l-4-1.33V20c0 1.1.9 2 2 2h14a2 2 0 001.6-3.2l-2.57-3.42L6 19.05zM17 4.65V2.64A2 2 0 0015.39.68L12.81.16c-.52-.1-1.06 0-1.5.3l-1.42.95C9.33 1.78 9 2.4 9 3.07v1.86c0 .67.33 1.29.89 1.66l1.23.82c.55.37 1.24.44 1.85.19l2.77-1.11A1.97 1.97 0 0017 4.65zM17.75 7.6l-1 .8A2 2 0 0016 9.96v1.08a2 2 0 00.75 1.56l.8.64a2 2 0 002.06.27l2.2-.98A2 2 0 0023 10.7V9.6a2 2 0 00-1.57-1.95l-2-.44a2 2 0 00-1.68.39z" /></svg>