<svg viewBox="64 64 896 896" focusable="false"><path d="M0 0h24v24H0V0z" /><path d="M17 5c.83 0 1.5-.67 1.5-1.5 0-.66-.66-1.64-1.11-2.22a.5.5 0 00-.79 0c-.44.58-1.1 1.56-1.1 2.22 0 .83.67 1.5 1.5 1.5zm-5 0c.83 0 1.5-.67 1.5-1.5 0-.66-.66-1.64-1.11-2.22a.5.5 0 00-.79 0c-.44.58-1.1 1.56-1.1 2.22 0 .83.67 1.5 1.5 1.5zM7 5c.83 0 1.5-.67 1.5-1.5 0-.66-.66-1.64-1.11-2.22a.5.5 0 00-.79 0c-.44.58-1.1 1.56-1.1 2.22C5.5 4.33 6.17 5 7 5zm11.92 3.01A1.5 1.5 0 0017.5 7h-11a1.5 1.5 0 00-1.42 1.01l-1.97 5.67c-.07.21-.11.43-.11.66v7.16a1.5 1.5 0 103 0V21h12v.5c0 .82.67 1.5 1.5 1.5.82 0 1.5-.67 1.5-1.5v-7.16c0-.22-.04-.45-.11-.66l-1.97-5.67zM6.5 18a1.5 1.5 0 110-3 1.5 1.5 0 010 3zm11 0a1.5 1.5 0 110-3 1.5 1.5 0 010 3zM5 13l1.27-3.82c.14-.4.52-.68.95-.68h9.56c.43 0 .81.28.95.68L19 13H5z" /></svg>