<svg viewBox="64 64 896 896" focusable="false"><path d="M0 0h24v24H0z" /><path d="M17 6h-2V3a1 1 0 00-1-1h-4a1 1 0 00-1 1v3H7a2 2 0 00-2 2v11c0 1.1.9 2 2 2a1 1 0 001 1 1 1 0 001-1h6a1 1 0 001 1 1 1 0 001-1 2 2 0 002-2V8a2 2 0 00-2-2zM8.75 18a.76.76 0 01-.75-.75v-7.5c0-.41.34-.75.75-.75s.75.34.75.75v7.5c0 .41-.34.75-.75.75zM12 18a.76.76 0 01-.75-.75v-7.5c0-.41.34-.75.75-.75s.75.34.75.75v7.5c0 .41-.34.75-.75.75zm1.5-12h-3V3.5h3V6zm1.75 12a.76.76 0 01-.75-.75v-7.5c0-.41.34-.75.75-.75s.75.34.75.75v7.5c0 .41-.34.75-.75.75z" /></svg>