<svg viewBox="64 64 896 896" focusable="false"><g><path d="M0 0h24v24H0z" /><path d="M0 0h24v24H0z" /></g><path d="M22.75 19c0-.22-.03-.42-.06-.63l.84-.73a.5.5 0 00.1-.63l-.59-1.02a.49.49 0 00-.59-.22l-1.06.36a3.65 3.65 0 00-1.08-.63l-.22-1.09a.5.5 0 00-.49-.4h-1.18a.5.5 0 00-.49.4l-.22 1.09c-.4.15-.76.36-1.08.63l-1.06-.36a.5.5 0 00-.59.22l-.59 1.02a.5.5 0 00.1.63l.84.73c-.03.21-.06.41-.06.63s.03.42.06.63l-.84.73a.5.5 0 00-.1.63l.59 1.02c.12.21.37.3.59.22l1.06-.36c.32.27.68.48 1.08.63l.22 1.09c.05.23.25.4.49.4h1.18a.5.5 0 00.49-.4l.22-1.09c.4-.15.76-.36 1.08-.63l1.06.36a.5.5 0 00.59-.22l.59-1.02a.5.5 0 00-.1-.63l-.84-.73c.03-.21.06-.41.06-.63zM19 21c-1.1 0-2-.9-2-2s.9-2 2-2 2 .9 2 2-.9 2-2 2zM12 7a1 1 0 00-1 1v4c0 .27.11.52.29.71l2.07 2.07 1.04-1.79-1.4-1.4V8a1 1 0 00-1-1zm-7.74 6a1 1 0 00-.98 1.24A9 9 0 0012 21h.07l-1.21-2.09a7 7 0 01-5.64-5.18.98.98 0 00-.96-.73zM4 10a1 1 0 01-1-1V5c0-.55.45-1 1-1s1 .45 1 1v1.36A9 9 0 0121 12h-2A7 7 0 006.26 8H8c.55 0 1 .45 1 1s-.45 1-1 1H4z" /></svg>