<svg viewBox="64 64 896 896" focusable="false"><path d="M0 0h24v24H0V0z" /><path d="M9 6.17V5c0-1.1.9-2 2-2h2a2 2 0 012 2 2 2 0 01-2 2h-2v1.17l-2-2zM19.42 15l2.18 2.17c.22.22.22.58 0 .8a.57.57 0 01-.8 0l-5.98-5.98a.57.57 0 010-.8.57.57 0 01.8 0l2.35 2.35V9.61a.5.5 0 01.85-.35l2.82 2.82c.2.2.2.51 0 .71L19.42 15zm-.25-1.45l1.13-1.13-1.13-1.13v2.26zm1.32 6.94a1 1 0 11-1.41 1.41l-3.28-3.28-.16.16a.61.61 0 01-.85 0 .61.61 0 010-.85l.16-.16L11 13.83v3.02c0 2.07-1.68 4.01-3.74 4.14a4 4 0 111.75-7.44v-1.72L2.1 4.92a1 1 0 111.41-1.41l16.98 16.98z" /></svg>