<svg viewBox="64 64 896 896" focusable="false"><g><path d="M0 0h24v24H0z" /><path d="M0 0h24v24H0z" /></g><path d="M10.75 8a.76.76 0 00-.75.75v4.69a1 1 0 00.47.85l3.64 2.24a.71.71 0 10.74-1.22L11.5 13.3V8.75a.76.76 0 00-.75-.75z" /><path d="M17.92 12A6.96 6.96 0 0111 20c-3.9 0-7-3.1-7-7a6.96 6.96 0 019-6.71V4.23A8.96 8.96 0 002 13c0 5 4 9 9 9a8.96 8.96 0 008.94-10h-2.02z" /><path d="M22 5h-2V3c0-.55-.45-1-1-1s-1 .45-1 1v2h-2a1 1 0 00-1 1 1 1 0 001 1h2v2c0 .55.45 1 1 1s1-.45 1-1V7h2a1 1 0 001-1 1 1 0 00-1-1z" /></svg>