<svg viewBox="64 64 896 896" focusable="false"><path d="M0 0h24v24H0z" /><path d="M3.16 3.16a1 1 0 10-1.41 1.41l4.6 4.6-.21.23H3.6c-.88 0-1.6.72-1.6 1.6v9.4c0 .88.72 1.6 1.6 1.6h12.8a1.6 1.6 0 001.55-1.22l1.47 1.47a1 1 0 101.41-1.41L3.16 3.16zM10 20a4 4 0 01-.75-7.92l1.57 1.57A2.5 2.5 0 1012.5 16c0-.29-.06-.56-.15-.82l1.57 1.57A4 4 0 0110 20zm8-4.83L10.83 8h.87c.56 0 1.1.24 1.48.65l.69.75h2.54c.88 0 1.6.72 1.6 1.6v4.17zm2.4-9.57h.75a.5.5 0 01.44.74L19 11V7h-.5a.5.5 0 01-.5-.5v-4c0-.28.22-.5.5-.5h2.73c.36 0 .6.37.46.7L20.4 5.6z" /></svg>