<svg viewBox="64 64 896 896" focusable="false"><path d="M0 0h24v24H0z" /><path d="M12 2a10 10 0 100 20 10 10 0 000-20zm.88 15.76v.36a.88.88 0 01-1.76 0v-.42a4.01 4.01 0 01-2.69-2.1.86.86 0 01.45-1.18l.07-.03c.41-.17.87 0 1.08.39.32.61.95 1.37 2.12 1.37.93 0 1.98-.48 1.98-1.61 0-.96-.7-1.46-2.28-2.03-1.1-.39-3.35-1.03-3.35-3.31 0-.1.01-2.4 2.62-2.96v-.36a.88.88 0 011.76 0v.37c1.07.19 1.75.76 2.16 1.3a.85.85 0 01-.36 1.3.87.87 0 01-1.02-.28 1.9 1.9 0 00-1.6-.77c-.7 0-1.81.37-1.81 1.39 0 .95.86 1.31 2.64 1.9 2.4.83 3.01 2.05 3.01 3.45 0 2.63-2.5 3.13-3.02 3.22z" /></svg>