<svg viewBox="64 64 896 896" focusable="false"><path d="M0 0h24v24H0V0z" /><path d="M3 17h18a1 1 0 011 1 1 1 0 01-1 1H3a1 1 0 01-1-1 1 1 0 011-1zm-.5-4.43c.36.21.82.08 1.03-.28l.47-.82.48.83c.21.36.67.48 1.03.28a.75.75 0 00.28-1.02l-.49-.84h.95c.41 0 .75-.34.75-.75a.76.76 0 00-.75-.75H5.3l.47-.82a.75.75 0 00-.27-1.03.76.76 0 00-1.03.28L4 8.47l-.47-.82a.76.76 0 00-1.03-.28.75.75 0 00-.27 1.03l.47.82h-.95a.76.76 0 00-.75.75c0 .41.34.75.75.75h.95l-.48.83c-.2.36-.08.82.28 1.02zm8 0c.36.21.82.08 1.03-.28l.47-.82.48.83c.21.36.67.48 1.03.28a.75.75 0 00.28-1.02l-.48-.83h.95c.41 0 .75-.34.75-.75a.76.76 0 00-.75-.75h-.96l.47-.82a.76.76 0 00-.27-1.03.75.75 0 00-1.02.27l-.48.82-.47-.82a.74.74 0 00-1.02-.27.75.75 0 00-.27 1.03l.47.82h-.96a.74.74 0 00-.75.74c0 .41.34.75.75.75h.95l-.48.83c-.2.36-.08.82.28 1.02zM23 9.97a.76.76 0 00-.75-.75h-.95l.47-.82a.76.76 0 00-.27-1.03.75.75 0 00-1.02.27l-.48.83-.47-.82a.74.74 0 00-1.02-.27.75.75 0 00-.27 1.03l.47.82h-.95a.74.74 0 00-.76.74c0 .41.34.75.75.75h.95l-.48.83a.74.74 0 00.28 1.02c.36.21.82.08 1.03-.28l.47-.82.48.83c.21.36.67.48 1.03.28a.75.75 0 00.28-1.02l-.48-.83h.95c.4-.01.74-.35.74-.76z" /></svg>