<svg viewBox="64 64 896 896" focusable="false"><path d="M0 0h24v24H0V0z" /><path d="M7 3v2c0 .55.45 1 1 1s1-.45 1-1V4h10v16H9v-1c0-.55-.45-1-1-1s-1 .45-1 1v2c0 1.1.9 2 2 2h10a2 2 0 002-2V3a2 2 0 00-2-2H9a2 2 0 00-2 2zm2.5 12.5c.29-.12.55-.29.8-.48l-.02.03 1.01.39c.23.09.49 0 .61-.22l.84-1.46a.5.5 0 00-.12-.64l-.85-.68-.02.03c.02-.16.05-.32.05-.48s-.03-.32-.05-.48l.02.03.85-.68a.5.5 0 00.12-.64l-.84-1.46a.5.5 0 00-.61-.22l-1.01.39.02.03a4.5 4.5 0 00-.8-.46l-.17-1.08A.49.49 0 008.84 7H7.16a.49.49 0 00-.49.42L6.5 8.5c-.29.12-.55.29-.8.48l.02-.03-1.02-.39a.49.49 0 00-.61.22l-.84 1.46a.5.5 0 00.12.64l.85.68.02-.03c-.02.15-.05.31-.05.47s.03.32.05.48l-.02-.03-.85.68a.5.5 0 00-.12.64l.84 1.46a.5.5 0 00.61.22l1.01-.39-.01-.04c.25.19.51.36.8.48l.17 1.07c.03.25.24.43.49.43h1.68c.25 0 .46-.18.49-.42l.17-1.08zM6 12c0-1.1.9-2 2-2s2 .9 2 2-.9 2-2 2-2-.9-2-2z" /></svg>