<svg viewBox="64 64 896 896" focusable="false"><path d="M0 0h24v24H0z" /><path d="M17 2H7a2 2 0 00-2 2v2c0 1.1.9 2 2 2h10a2 2 0 002-2V4a2 2 0 00-2-2zm-.5 4h-9a.5.5 0 01-.5-.5v-1c0-.28.22-.5.5-.5h9c.28 0 .5.22.5.5v1a.5.5 0 01-.5.5zM20 22H4a2 2 0 01-2-2v-1h20v1a2 2 0 01-2 2zm-1.47-11.81A2 2 0 0016.7 9H7.3a2 2 0 00-1.83 1.19L2 18h20l-3.47-7.81zM9.5 16h-1a.5.5 0 01-.5-.5c0-.28.22-.5.5-.5h1c.28 0 .5.22.5.5a.5.5 0 01-.5.5zm0-2h-1a.5.5 0 01-.5-.5c0-.28.22-.5.5-.5h1c.28 0 .5.22.5.5a.5.5 0 01-.5.5zm0-2h-1a.5.5 0 01-.5-.5c0-.28.22-.5.5-.5h1c.28 0 .5.22.5.5a.5.5 0 01-.5.5zm3 4h-1a.5.5 0 01-.5-.5c0-.28.22-.5.5-.5h1c.28 0 .5.22.5.5a.5.5 0 01-.5.5zm0-2h-1a.5.5 0 01-.5-.5c0-.28.22-.5.5-.5h1c.28 0 .5.22.5.5a.5.5 0 01-.5.5zm0-2h-1a.5.5 0 01-.5-.5c0-.28.22-.5.5-.5h1c.28 0 .5.22.5.5a.5.5 0 01-.5.5zm3 4h-1a.5.5 0 01-.5-.5c0-.28.22-.5.5-.5h1c.28 0 .5.22.5.5a.5.5 0 01-.5.5zm0-2h-1a.5.5 0 01-.5-.5c0-.28.22-.5.5-.5h1c.28 0 .5.22.5.5a.5.5 0 01-.5.5zm0-2h-1a.5.5 0 01-.5-.5c0-.28.22-.5.5-.5h1c.28 0 .5.22.5.5a.5.5 0 01-.5.5z" /></svg>