<svg viewBox="64 64 896 896" focusable="false"><g><path d="M0 0h24v24H0z" /><path d="M0 0h24v24H0z" /></g><path d="M18 12a1 1 0 00-1 1v5.22a1 1 0 01-1 1H6a1 1 0 01-1-1V8a1 1 0 011-1h5a1 1 0 001-1 1 1 0 00-1-1H5a2 2 0 00-2 2v12c0 1.1.9 2 2 2h12a2 2 0 002-2v-6a1 1 0 00-1-1zM21.02 5H19V2.98a.98.98 0 00-.98-.98h-.03a.98.98 0 00-.99.98V5h-2.01a1 1 0 00-.99.98v.03c0 .55.44.99.99.99H17v2.01c0 .54.44.99.99.98h.03c.54 0 .98-.44.98-.98V7h2.02c.54 0 .98-.44.98-.98v-.04a.98.98 0 00-.98-.98z" /><path d="M14 9H8a1 1 0 00-1 1 1 1 0 001 1h6a1 1 0 001-1 1 1 0 00-1-1zM14 12H8a1 1 0 00-1 1 1 1 0 001 1h6a1 1 0 001-1 1 1 0 00-1-1zM14 15H8a1 1 0 00-1 1 1 1 0 001 1h6a1 1 0 001-1 1 1 0 00-1-1z" /></svg>