<svg viewBox="64 64 896 896" focusable="false"><g><path d="M0 0h24v24H0z" /><path d="M0 0h24v24H0z" /></g><path d="M19.94 9.06A7 7 0 006.08 9l-1.93 3.48A1 1 0 005 14h1v2c0 1.1.9 2 2 2h1v2a1 1 0 001 1h5a1 1 0 001-1v-3.68a7.02 7.02 0 003.94-7.26zM12.5 14a.74.74 0 01-.74-.74c0-.41.33-.73.74-.73s.73.32.73.73-.31.74-.73.74zm1.76-4.32c-.44.65-.86.85-1.09 1.27-.09.17-.13.28-.13.82h-1.06c0-.29-.04-.75.18-1.16.28-.51.83-.81 1.14-1.26.33-.47.15-1.36-.8-1.36-.62 0-.92.47-1.05.86l-.96-.4c.27-.78.97-1.45 2.01-1.45.86 0 1.45.39 1.75.88.26.43.41 1.22.01 1.8z" /></svg>