<svg viewBox="64 64 896 896" focusable="false"><path d="M0 0h24v24H0z" /><path d="M16.95 10.23l-5.66 5.66a1 1 0 01-1.41 0l-2.83-2.83a1 1 0 111.41-1.41l2.12 2.12 4.95-4.95a1 1 0 011.41 0c.4.39.4 1.02.01 1.41zM4 12a7.95 7.95 0 012.62-5.88l1.53 1.53A.5.5 0 009 7.29V3a.5.5 0 00-.5-.5H4.21a.5.5 0 00-.35.85L5.2 4.7A9.93 9.93 0 002 12c0 4.75 3.32 8.73 7.76 9.75.63.14 1.24-.33 1.24-.98 0-.47-.33-.87-.79-.98A8 8 0 014 12zm18 0c0-4.75-3.32-8.73-7.76-9.75a1.01 1.01 0 00-1.24.98c0 .47.33.87.79.98a7.95 7.95 0 013.59 13.67l-1.53-1.53a.5.5 0 00-.85.36V21c0 .28.22.5.5.5h4.29a.5.5 0 00.35-.85L18.8 19.3A9.93 9.93 0 0022 12z" /></svg>