<svg viewBox="64 64 896 896" focusable="false"><path d="M0 0h24v24H0z" /><path d="M6.2 7.41a.5.5 0 01-.17-.68L7.2 4.78l1.03-1.71a1 1 0 011.72 0l1.48 2.46-1.23 2.06-.72 1.2a.54.54 0 01-.71.17L6.2 7.41zm15.52 5.56l-1.34-2.24a.51.51 0 00-.68-.18l-2.6 1.5a.5.5 0 00-.18.69L18.87 16h1.09c.61 0 1.2-.26 1.59-.73a2.01 2.01 0 00.17-2.3zM16 21h1.5a2 2 0 001.79-1.11L20.74 17H16v-.79a.5.5 0 00-.85-.35l-2.79 2.79a.5.5 0 000 .71l2.79 2.79a.5.5 0 00.85-.35V21zm-6.5-4H5.7l-.84 1.41c-.3.5-.32 1.12-.06 1.65.28.57.87.94 1.52.94H9.5a.5.5 0 00.5-.5v-3a.5.5 0 00-.5-.5zm-3.38-2.65l.7.42a.5.5 0 00.74-.55l-.96-3.84a.5.5 0 00-.6-.36l-3.83.96a.5.5 0 00-.14.91l.66.4-.41.69a1.99 1.99 0 00-.07 1.92l1.63 3.26 2.28-3.81zm10.9-9.21l-1.3-2.17A2.03 2.03 0 0014 2h-3.53l3.12 5.2-.69.41c-.38.23-.3.81.14.91l3.83.96a.5.5 0 00.61-.36l.96-3.83a.5.5 0 00-.74-.55l-.68.4z" /></svg>