<svg viewBox="64 64 896 896" focusable="false"><g><path d="M0 0h24v24H0z" /><path d="M0 0h24v24H0z" /></g><path d="M19 4a1 1 0 00-1 1v7a1 1 0 001 1 1 1 0 001-1V5a1 1 0 00-1-1zM5 20a1 1 0 001-1V5a1 1 0 00-1-1 1 1 0 00-1 1v14a1 1 0 001 1zM12 8a1 1 0 001-1V5a1 1 0 00-1-1 1 1 0 00-1 1v2a1 1 0 001 1zM12 14a1 1 0 001-1v-2a1 1 0 00-1-1 1 1 0 00-1 1v2a1 1 0 001 1zM12 20a1 1 0 001-1v-2a1 1 0 00-1-1 1 1 0 00-1 1v2a1 1 0 001 1zM21.79 15.71a1 1 0 00-1.41 0L19 17.09l-1.38-1.38a1 1 0 10-1.41 1.41l1.38 1.38-1.38 1.38a1 1 0 101.41 1.41L19 19.91l1.38 1.38a1 1 0 101.41-1.41l-1.38-1.38 1.38-1.38a1 1 0 000-1.41z" /></svg>