<svg viewBox="64 64 896 896" focusable="false"><path d="M12 5V2.21a.5.5 0 00-.85-.35l-3.8 3.79a.5.5 0 000 .71l3.79 3.79a.5.5 0 00.86-.36V7a6 6 0 015.86 7.29 6.02 6.02 0 01-11.81-.43.98.98 0 00-.97-.86 1 1 0 00-1 1.13 8.01 8.01 0 009.77 6.67 7.77 7.77 0 005.99-6.19A8 8 0 0012 5zm-1.31 8.9l.25-2.17h2.39v.71h-1.7l-.11.92.11-.05.15-.05.18-.04.2-.02c.21 0 .39.03.55.1s.3.16.41.28.2.27.25.45.09.38.09.6c0 .19-.03.37-.09.54s-.15.32-.27.45-.27.24-.45.31a1.74 1.74 0 01-1.63-.2c-.14-.1-.24-.24-.32-.39s-.13-.33-.13-.53h.84c.02.18.08.32.19.41s.25.15.42.15a.49.49 0 00.45-.23c.04-.07.08-.15.11-.25s.03-.2.03-.31-.01-.21-.04-.31-.07-.17-.13-.24-.13-.12-.21-.15a.9.9 0 00-.5-.03l-.15.05-.12.07c-.04.02-.07.06-.1.09l-.67-.16z" /></svg>