<svg viewBox="64 64 896 896" focusable="false"><path d="M11.99 5V2.21a.5.5 0 00-.85-.35L7.35 5.65a.5.5 0 000 .71l3.79 3.79a.5.5 0 00.85-.35V7a6 6 0 11-5.94 6.85.98.98 0 00-.98-.85 1 1 0 00-1 1.13A8.01 8.01 0 1011.99 5zm-1.1 11h-.85v-3.26l-1.01.31v-.69l1.77-.63h.09V16zm4.28-1.76c0 .32-.03.6-.1.82s-.17.42-.29.57-.28.26-.45.33-.37.1-.59.1-.41-.03-.59-.1-.33-.18-.46-.33-.23-.34-.3-.57-.11-.5-.11-.82v-.74c0-.32.03-.6.1-.82s.17-.42.29-.57.28-.26.45-.33.37-.1.59-.1.41.03.59.1.33.18.46.33.23.34.3.57.11.5.11.82v.74zm-.85-.86c0-.19-.01-.35-.04-.48s-.07-.23-.12-.31-.11-.14-.19-.17-.16-.05-.25-.05-.18.02-.25.05-.14.09-.19.17-.09.18-.12.31-.04.29-.04.48v.97c0 .19.01.35.04.48s.07.24.12.32.11.14.19.17.16.05.25.05.18-.02.25-.05.14-.09.19-.17.09-.19.11-.32.04-.29.04-.48v-.97z" /></svg>