<svg viewBox="64 64 896 896" focusable="false"><path d="M0 0h24v24H0V0z" /><path d="M5.93 7.83l-3.65 3.66a2 2 0 000 2.83l3.66 3.66a2 2 0 002.83 0l3.66-3.65a2 2 0 000-2.83L8.76 7.82a2 2 0 00-2.83.01zM4.4 12.19l2.25-2.25a1 1 0 011.42 0l2.24 2.24a1 1 0 010 1.41l-2.25 2.25a1 1 0 01-1.42 0L4.4 13.61a1 1 0 010-1.42zm14.96-5.55A8.95 8.95 0 0013 4v-.83a1 1 0 00-1.71-.71L9.47 4.29a1 1 0 000 1.41l1.83 1.83a1 1 0 001.7-.7V6c2.02 0 4.03.86 5.45 2.61a6.98 6.98 0 01-7.74 11 1 1 0 00-1.02.26c-.5.5-.34 1.39.34 1.62a8.95 8.95 0 009.33-2.13 8.98 8.98 0 000-12.72z" /></svg>