<svg viewBox="64 64 896 896" focusable="false"><path d="M0 0h24v24H0z" /><path d="M8.76 4.69l-.61 3.89a1.3 1.3 0 001.28 1.49 1.3 1.3 0 001.28-1.09l.53-3.41h2.58L11.8 18.43h-1.24c-.63 0-1.16.46-1.26 1.08v.01c-.13.78.47 1.48 1.26 1.48h4.67c.63 0 1.17-.46 1.26-1.08v-.01a1.28 1.28 0 00-1.26-1.48h-.86l2-12.86h2.58l-.47 3.01a1.3 1.3 0 001.28 1.49h.03a1.3 1.3 0 001.28-1.09l.57-3.67A2 2 0 0019.66 3h-8.92c-.98 0-1.82.72-1.98 1.69zM8 5H4.86a1 1 0 00-.99.85A1 1 0 004.86 7h2.83L8 5zm-.61 4H4.25a1 1 0 00-.99.85A1 1 0 004.25 11h2.83l.31-2zm.92 8H3.17a1 1 0 00-.99.85A1 1 0 003.17 19H8l.31-2zm.62-4H3.79a1 1 0 00-.99.85A1 1 0 003.79 15h4.84l.3-2z" /></svg>