<svg viewBox="64 64 896 896" focusable="false"><path d="M0 0h24v24H0z" /><path d="M20.95 14.88a6.98 6.98 0 01-6.07 6.07 1 1 0 00-.87 1.11 1 1 0 001.12.87 8.98 8.98 0 007.81-7.81 1 1 0 00-.88-1.11.99.99 0 00-1.11.87zm-2.11.38a1 1 0 10-1.94-.5 3 3 0 01-2.15 2.15 1 1 0 00-.72 1.22c.14.53.69.85 1.22.72a5.02 5.02 0 003.59-3.59zM21.8 4.12L18.26.58a2 2 0 00-2.83 0l-3.18 3.18a2 2 0 000 2.83l1.24 1.24-.71.71-1.23-1.24a2 2 0 00-2.83 0L7.3 8.72a2 2 0 000 2.83l1.24 1.24-.71.71-1.23-1.25a2 2 0 00-2.83 0L.59 15.43a2 2 0 000 2.83l3.54 3.54a2 2 0 002.83 0l3.18-3.18a2 2 0 000-2.83L8.9 14.55l.71-.71 1.24 1.24a2 2 0 002.83 0l1.41-1.41a2 2 0 000-2.83L13.84 9.6l.71-.71 1.24 1.24a2 2 0 002.83 0l3.18-3.18a2 2 0 000-2.83zM5.54 20.38L2 16.85l1.06-1.06 3.54 3.54-1.06 1.05zm2.12-2.12l-3.54-3.54 1.06-1.06 3.54 3.54-1.06 1.06zm9.54-9.54l-3.54-3.54 1.06-1.06 3.54 3.54-1.06 1.06zm2.12-2.12l-3.54-3.54L16.85 2l3.54 3.54-1.07 1.06z" /></svg>