<svg viewBox="64 64 896 896" focusable="false"><path d="M0 0h24v24H0z" /><path d="M16 21a1 1 0 001 1h3.43a1.5 1.5 0 001.5-1.62c-.59-6.2-4.53-8.7-7.93-9.38V8c3.31-.42 6.03-1.86 7.27-3.73.65-.97-.12-2.27-1.29-2.27H4.02C2.85 2 2.08 3.3 2.73 4.27 3.97 6.14 6.69 7.58 10 8v3c-3.4.68-7.34 3.18-7.93 9.38A1.5 1.5 0 003.57 22H7a1 1 0 001-1 1 1 0 00-1-1H4.13c.93-6.83 6.65-7.2 7.87-7.2s6.94.37 7.87 7.2H17a1 1 0 00-1 1zm-4.5.94a1.98 1.98 0 01-.91-3.35c.55-.55 2.91-1.57 4.33-2.15a.5.5 0 01.65.65c-.58 1.42-1.6 3.78-2.15 4.33-.47.46-1.17.7-1.92.52z" /></svg>