<svg viewBox="64 64 896 896" focusable="false"><path d="M0 0h24v24H0V0z" /><path d="M20.41 11.36l-.35-.35a1 1 0 10-1.41 1.41l.35.35-4.24 4.24-7.78-7.78 4.24-4.24.35.35a1 1 0 101.41-1.41l-.35-.36a1.97 1.97 0 00-2.82 0L5.57 7.82a2 2 0 000 2.83l7.78 7.78c.79.79 2.03.79 2.82 0l4.24-4.24c.79-.78.79-2.05 0-2.83zM10.85 17.85a.5.5 0 00-.85.36v1.53a8.01 8.01 0 01-5.95-6.86 1 1 0 00-.99-.88 1 1 0 00-1 1.12 10.02 10.02 0 0011.67 8.72.5.5 0 00.27-.85l-3.15-3.14z" /><path d="M16 9h4a1 1 0 001-1V5a1 1 0 00-1-1v-.89c0-1-.68-1.92-1.66-2.08A2 2 0 0016 3v1a1 1 0 00-1 1v3a1 1 0 001 1zm1-6c0-.55.45-1 1-1s1 .45 1 1v1h-2V3z" /></svg>