<svg viewBox="64 64 896 896" focusable="false"><g><path d="M0 0h24v24H0z" /><path d="M0 0h24v24H0z" /></g><circle cx="12" cy="6" r="2" /><path d="M21 14.94c0-.5-.36-.93-.85-.98a7.14 7.14 0 01-4.75-2.63l-1.34-1.6A1.96 1.96 0 0012.53 9h-1.05c-.59 0-1.15.26-1.53.72l-1.34 1.6a7.12 7.12 0 01-4.75 2.63.99.99 0 00-.86.99c0 .6.53 1.07 1.13 1A9.06 9.06 0 0010 12.75V15l-3.76 1.5a1.9 1.9 0 00-1.23 1.53A1.8 1.8 0 006.79 20H9v-.5a2.5 2.5 0 012.5-2.5h3c.28 0 .5.22.5.5s-.22.5-.5.5h-3c-.83 0-1.5.67-1.5 1.5v.5h7.1c.85 0 1.65-.54 1.85-1.37a1.79 1.79 0 00-1.08-2.08L14 15v-2.25a9.13 9.13 0 005.87 3.19c.6.06 1.13-.4 1.13-1z" /></svg>