<svg viewBox="64 64 896 896" focusable="false"><path d="M0 0h24v24H0z" /><path d="M20.74 4.96a1 1 0 00-1.2-.73C17.16 4.77 14.49 5 12 5s-5.16-.23-7.54-.76a1 1 0 00-1.2.73l-.02.05a1 1 0 00.73 1.22A37 37 0 009 7v11a1 1 0 001 1 1 1 0 001-1v-5h2v5a1 1 0 001 1 1 1 0 001-1V7a37 37 0 005.03-.76 1 1 0 00.73-1.22l-.02-.06zM12 4c1.1 0 2-.9 2-2s-.9-2-2-2-2 .9-2 2 .9 2 2 2zM8 24a1 1 0 001-1 1 1 0 00-1-1 1 1 0 00-1 1 1 1 0 001 1zm4 0a1 1 0 001-1 1 1 0 00-1-1 1 1 0 00-1 1 1 1 0 001 1zm4 0a1 1 0 001-1 1 1 0 00-1-1 1 1 0 00-1 1 1 1 0 001 1z" /></svg>