<svg viewBox="64 64 896 896" focusable="false"><g><path d="M0 0h24v24H0z" /><path d="M0 0h24v24H0z" /></g><path d="M7 18a2 2 0 10.01 4A2 2 0 007 18zm10 0a2 2 0 10.01 4 2 2 0 00-.01-4zm2-2a1 1 0 00-1-1H7l1.1-2h7.45a2 2 0 001.75-1.03l3.24-6.14a1 1 0 10-1.76-.93L15.55 11H8.53L4.54 2.57a1 1 0 00-.9-.57H2c-.55 0-1 .45-1 1s.45 1 1 1h1l3.6 7.59-1.35 2.44A2 2 0 007 17h11a1 1 0 001-1zM11.29 2.71a1 1 0 011.41 0l2.59 2.59a1 1 0 010 1.41L12.7 9.3a1 1 0 11-1.41-1.41l.88-.89H9a1 1 0 01-1-1 1 1 0 011-1h3.17l-.88-.88a1 1 0 010-1.41z" /></svg>