<svg viewBox="64 64 896 896" focusable="false"><path d="M0 0h24v24H0V0z" /><path d="M10 3h4c.55 0 1-.45 1-1s-.45-1-1-1h-4c-.55 0-1 .45-1 1s.45 1 1 1zm9.03 4.39l.75-.75a1 1 0 000-1.4l-.01-.01a1 1 0 00-1.4 0l-.75.75A8.96 8.96 0 0012 4a9.1 9.1 0 00-9 8.76 9 9 0 1016.03-5.37zM12 20a7 7 0 11-.01-13.99A7 7 0 0112 20zm-1.19-5h-3.7a.5.5 0 00-.45.74 5.66 5.66 0 002.57 2.57.5.5 0 00.65-.21l1.37-2.35a.5.5 0 00-.44-.75zm3.92-7.35a.5.5 0 00-.65.2l-1.38 2.39a.5.5 0 00.43.76h3.76a.5.5 0 00.45-.73 6.06 6.06 0 00-2.61-2.62zm-.85 7.05a.5.5 0 00-.87-.01l-2.04 3.52a.5.5 0 00.39.75 6.07 6.07 0 003.83-.89.5.5 0 00.16-.66l-1.47-2.71zm-3.57-1.47L7.93 9.57a.5.5 0 00-.84 0 6.05 6.05 0 00-1.05 3.98.5.5 0 00.5.45h3.35a.5.5 0 00.42-.77zm3.66-.49l2.02 3.74c.18.33.64.35.86.05a6.05 6.05 0 001.12-4.08.5.5 0 00-.5-.45h-3.05a.5.5 0 00-.45.74zm-3.8-1.57c.2.31.66.3.85-.02l1.94-3.35c.19-.32-.03-.72-.4-.76a6.06 6.06 0 00-3.88.97.5.5 0 00-.13.68l1.62 2.48z" /></svg>