<svg viewBox="64 64 896 896" focusable="false"><path d="M0 0h24v24H0z" /><path d="M23 7c0 1.1-.9 2-2 2s-2-.9-2-2c0-.78.99-2.44 1.58-3.36a.5.5 0 01.84 0C22.01 4.56 23 6.22 23 7zm-1.14 3.38a10 10 0 11-3.44-6.04A6.45 6.45 0 0017.5 7a3.5 3.5 0 004.36 3.38zm-7.83-.35l1.06 1.06c.29.29.77.29 1.06 0a.75.75 0 000-1.06l-.53-.53.53-.53c.29-.29.29-.77 0-1.06s-.77-.29-1.06 0l-1.06 1.06a.75.75 0 000 1.06zM8.38 9.5l-.53.53a.75.75 0 000 1.06c.29.29.77.29 1.06 0l1.06-1.06a.75.75 0 000-1.06L8.91 7.91c-.29-.29-.77-.29-1.06 0s-.29.77 0 1.06l.53.53zm8.09 6.3a5.49 5.49 0 00-6.9-1.74L5.99 12c0-.52-.26-1.02-.74-1.29a1.5 1.5 0 00-1.73 2.44c.52.44 1.2.45 1.72.16l2.97 1.72c-.25.24-.48.5-.68.78-.36.49 0 1.19.62 1.19.23 0 .46-.1.6-.3a3.97 3.97 0 016.5 0 .76.76 0 001.22-.9z" /></svg>