<svg viewBox="64 64 896 896" focusable="false"><path d="M19.99 4A2 2 0 0018 2h-7.17a2 2 0 00-1.42.59L4.59 7.41A2 2 0 004 8.83V20c0 1.1.9 2 2 2h12.01A2 2 0 0020 20l-.01-16zM8 19c-.55 0-1-.45-1-1s.45-1 1-1 1 .45 1 1-.45 1-1 1zm8 0c-.55 0-1-.45-1-1s.45-1 1-1 1 .45 1 1-.45 1-1 1zm-8-4a1 1 0 01-1-1v-2c0-.55.45-1 1-1s1 .45 1 1v2a1 1 0 01-1 1zm4 4a1 1 0 01-1-1v-2c0-.55.45-1 1-1s1 .45 1 1v2a1 1 0 01-1 1zm0-6c-.55 0-1-.45-1-1s.45-1 1-1 1 .45 1 1-.45 1-1 1zm4 2a1 1 0 01-1-1v-2c0-.55.45-1 1-1s1 .45 1 1v2a1 1 0 01-1 1z" /></svg>