<svg viewBox="64 64 896 896" focusable="false"><path d="M0 0h24v24H0z" /><path d="M14 3c0-1.1.9-2 2-2s2 .9 2 2-.9 2-2 2-2-.9-2-2zM6.35 9.53a1 1 0 001.38-.32L9.1 7h2.35l-2.51 3.99c-.28.45-.37 1-.25 1.52L9.5 16 6 18.35l-.47-.1a3.01 3.01 0 01-2.1-1.67.74.74 0 00-.51-.42.76.76 0 00-.9.58.68.68 0 00.05.46 4.52 4.52 0 003.15 2.51l12.63 2.69a4.5 4.5 0 003.9-1.01.73.73 0 00.24-.41.76.76 0 00-.59-.89.75.75 0 00-.64.17c-.69.6-1.64.88-2.6.67L17 20.69l-.88-5.43a2.02 2.02 0 00-.72-1.24l-2.72-2.19 1.8-2.89a6.5 6.5 0 004.39 2.96c.6.11 1.13-.39 1.13-1a1 1 0 00-.83-.98 4.5 4.5 0 01-3.3-2.64l-.52-1.21A1.83 1.83 0 0013.7 5H9.11c-.69 0-1.33.36-1.7.94L6.03 8.15a1 1 0 00.32 1.38zm2.38 9.4l2.25-1.51c.47-.32.73-.88.65-1.44l-.32-2.4 2.84 2.02.75 4.64-6.17-1.31z" /></svg>