<svg viewBox="64 64 896 896" focusable="false"><g><path d="M0 0h24v24H0z" /><path d="M0 0h24v24H0z" /></g><circle cx="10" cy="9" r="4" /><path d="M16.39 15.56A14.03 14.03 0 0010 14c-2.53 0-4.71.7-6.39 1.56A2.97 2.97 0 002 18.22V21h16v-2.78c0-1.12-.61-2.15-1.61-2.66zM19.39 1.76a1 1 0 00-1.51.09c-1.5 1.93-3.35 6.72 0 11.03a1 1 0 001.5.09 1 1 0 00.09-1.3c-1.17-1.5-2.64-5.23 0-8.61a.98.98 0 00-.08-1.3zM22.4 5.86a1 1 0 10-1.73-1.01c-1.15 2-.57 4.03.01 5.04.33.57 1.11.67 1.58.21.33-.33.36-.84.13-1.25a3.05 3.05 0 01.01-2.99z" /></svg>