<svg viewBox="64 64 896 896" focusable="false"><g><path d="M0 0h24v24H0z" /><path d="M0 0h24v24H0z" /></g><path d="M17.09 11h4.86a9.95 9.95 0 00-1.54-4.4 5.99 5.99 0 00-3.32 4.4zM6.91 11a5.99 5.99 0 00-3.32-4.4A9.95 9.95 0 002.05 11h4.86zM15.07 11a8 8 0 014.06-6A9.97 9.97 0 0013 2.05V11h2.07zM8.93 11H11V2.05A9.94 9.94 0 004.87 5a8 8 0 014.06 6zM15.07 13H13v8.95A9.94 9.94 0 0019.13 19a8 8 0 01-4.06-6zM3.59 17.4A6.03 6.03 0 006.91 13H2.05a9.95 9.95 0 001.54 4.4zM17.09 13a5.99 5.99 0 003.32 4.4 9.95 9.95 0 001.54-4.4h-4.86zM8.93 13a8 8 0 01-4.06 6A9.97 9.97 0 0011 21.95V13H8.93z" /></svg>