<svg viewBox="64 64 896 896" focusable="false"><g><path d="M0 0h24v24H0z" /><path d="M0 0h24v24H0z" /></g><path d="M19.52 2.49C17.18.15 12.9.62 9.97 3.55a8.67 8.67 0 00-2.54 5.46c-.02 1.58.26 3.89-1.35 5.5l-3.54 3.53a1 1 0 000 1.42 1 1 0 001.42 0l3.53-3.54c1.61-1.61 3.92-1.33 5.5-1.35s3.86-.94 5.46-2.54c2.93-2.92 3.41-7.2 1.07-9.54zm-9.2 9.19c-1.53-1.53-1.05-4.61 1.06-6.72s5.18-2.59 6.72-1.06c1.53 1.53 1.05 4.61-1.06 6.72s-5.18 2.59-6.72 1.06zM18 17a2 2 0 010 4 2 2 0 010-4m0-2a4 4 0 100 8 4 4 0 000-8z" /></svg>