<svg viewBox="64 64 896 896" focusable="false"><g><path d="M0 0h24v24H0z" /><path d="M0 0h24v24H0z" /></g><path d="M14.27 6A2 2 0 0015 8.73 2 2 0 0017.73 8 2 2 0 0017 5.27a2 2 0 00-2.73.73z" /><path d="M15.84 10.41l-2.6-1.5a5.02 5.02 0 01-2.18-6.07 1 1 0 00-.43-1.21 1 1 0 00-1.43.5 7.02 7.02 0 001.46 7.27l-4.65 8.05a1 1 0 101.74 1l1-1.73 1.73 1-2.5 4.33a1 1 0 101.74 1l5.79-10.02a5.03 5.03 0 01.66 4.72 1 1 0 001.87.7 7.15 7.15 0 00-2.2-8.04zM12.75 3.8a1.5 1.5 0 001.5-2.6 1.5 1.5 0 00-1.5 2.6z" /></svg>