<svg viewBox="64 64 896 896" focusable="false"><g><path d="M0 0h24v24H0z" /><path d="M0 0h24v24H0z" /></g><path d="M12 2a10 10 0 100 20 10 10 0 000-20zm1 3.3l1.35-.95a8.01 8.01 0 014.38 3.34l-.39 1.34-1.35.46L13 6.7V5.3zm-3.35-.95L11 5.3v1.4L7.01 9.49l-1.35-.46-.39-1.34a8.1 8.1 0 014.38-3.34zM7.08 17.11l-1.14.1A7.94 7.94 0 014 12l.02-.35 1-.73 1.38.48 1.46 4.34-.78 1.37zm7.42 2.48a7.99 7.99 0 01-5 0l-.69-1.49.64-1.1h5.11l.64 1.11-.7 1.48zM14.27 15H9.73l-1.35-4.02L12 8.44l3.63 2.54L14.27 15zm3.79 2.21l-1.14-.1-.79-1.37 1.46-4.34 1.39-.47 1 .73.02.34c0 1.99-.73 3.81-1.94 5.21z" /></svg>