<svg viewBox="64 64 896 896" focusable="false"><path d="M0 0h24v24H0z" /><path d="M23 18h-1.2l1.79 1.79A.99.99 0 0024 19a1 1 0 00-1-1zM3.23 2.28a1 1 0 00-1.42 0 1 1 0 000 1.41l.84.86s-.66.57-.66 1.47L2 16l.01.01A2 2 0 003.98 18H1c-.55 0-1 .45-1 1s.45 1 1 1h17.13l2 2a1 1 0 101.41-1.41L3.23 2.28zM7 15a7.82 7.82 0 012.08-4.05l1.59 1.59A6.23 6.23 0 007 15zm6-5.87v-.98a.5.5 0 01.84-.37L15 8.87l1.61 1.5a.5.5 0 010 .73l-.89.83 5.58 5.58c.43-.37.7-.9.7-1.51V6c0-1.09-.89-1.98-1.98-1.98H7.8l5.14 5.13.06-.02z" /></svg>