<svg viewBox="64 64 896 896" focusable="false"><g><path d="M0 0h24v24H0z" /><path d="M0 0h24v24H0z" /></g><path d="M20 4H6.83l8 8H19a1 1 0 011 1 1 1 0 01-1 1h-2.17l4.93 4.93c.15-.28.24-.59.24-.93V6a2 2 0 00-2-2zM20 20l-6-6-1.71-1.71L12 12 3.16 3.16a1 1 0 10-1.41 1.41l.49.49c-.15.29-.24.6-.24.94v12c0 1.1.9 2 2 2h13.17l2.25 2.25a1 1 0 101.41-1.41L20 20zM8 13a1 1 0 01-1 1H5a1 1 0 01-1-1 1 1 0 011-1h2a1 1 0 011 1zm6 4a1 1 0 01-1 1H5a1 1 0 01-1-1 1 1 0 011-1h8c.08 0 .14.03.21.04l.74.74c.02.08.05.14.05.22z" /></svg>