<svg viewBox="64 64 896 896" focusable="false"><g><path d="M0 0h24v24H0z" /><path d="M0 0h24v24H0z" /></g><path d="M12 2a10 10 0 100 20 10 10 0 000-20zm7.46 7.12l-2.78 1.15a4.98 4.98 0 00-2.95-2.94l1.15-2.78c2.1.8 3.77 2.47 4.58 4.57zM12 15a3 3 0 110-6 3 3 0 010 6zM9.13 4.54l1.17 2.78a5 5 0 00-2.98 2.97L4.54 9.13a7.98 7.98 0 014.59-4.59zM4.54 14.87l2.78-1.15a4.97 4.97 0 002.97 2.96l-1.17 2.78a8 8 0 01-4.58-4.59zm10.34 4.59l-1.15-2.78a4.98 4.98 0 002.95-2.97l2.78 1.17a8 8 0 01-4.58 4.58z" /></svg>