<svg viewBox="64 64 896 896" focusable="false"><path d="M0 0h24v24H0z" /><path d="M8.83 19.1c-.26-.6.09-1.28.73-1.41l3.58-.71-4.35-9.81a1.5 1.5 0 01.76-1.98 1.5 1.5 0 011.98.76l2.43 5.49.84-.37c.28-.13.59-.18.9-.17l4.56.21a2 2 0 011.83 1.45l1.23 4.33a2 2 0 01-1.11 2.37l-5.63 2.49c-.48.21-1.26.33-1.76.14l-5.45-2.27a.95.95 0 01-.54-.52zm-2.08-5.72a.75.75 0 00.09-.95 10.44 10.44 0 01-1.52-8.49l1.09 1.09c.3.3.79.29 1.08-.02a.78.78 0 00-.04-1.07L5.21 1.71a1 1 0 00-1.41 0L1.53 3.97c-.3.3-.29.79.02 1.08.3.28.78.25 1.07-.04L3.8 3.82a11.92 11.92 0 001.79 9.45c.27.39.82.45 1.16.11z" /></svg>