<svg viewBox="64 64 896 896" focusable="false"><path d="M0 0h24v24H0z" /><path d="M0 12c0 3.22 1.13 6.18 3.02 8.5H1.75c-.41 0-.75.34-.75.75s.34.75.75.75H5a1 1 0 001-1v-3.25a.76.76 0 00-.75-.75.76.76 0 00-.75.75v2.16a11.93 11.93 0 010-15.82v2.16c0 .41.34.75.75.75S6 6.66 6 6.25V3a1 1 0 00-1-1H1.75c-.41 0-.75.34-.75.75s.34.75.75.75h1.27A13.41 13.41 0 000 12zm8.83 7.1c-.26-.6.09-1.28.73-1.41l3.58-.71-4.35-9.81a1.5 1.5 0 01.76-1.98 1.5 1.5 0 011.98.76l2.43 5.49.84-.37c.28-.13.59-.18.9-.17l4.56.21a2 2 0 011.83 1.45l1.23 4.33a2 2 0 01-1.11 2.37l-5.63 2.49c-.48.21-1.26.33-1.76.14l-5.45-2.27a.95.95 0 01-.54-.52z" /></svg>