<svg viewBox="64 64 896 896" focusable="false"><g><path d="M0 0h24v24H0z" /><path d="M0 0h24v24H0z" /></g><path d="M17.92 7.02A6.02 6.02 0 0012 2a5.98 5.98 0 00-5.22 3.06A5.52 5.52 0 002 10.5C2 13.53 4.47 16 7.5 16h10a4.5 4.5 0 00.42-8.98zM15.95 20.11l-.84-.42.9-1.03a1 1 0 00-.09-1.41 1 1 0 00-1.41.09l-1.75 2c-.2.23-.29.55-.23.85.06.3.26.56.53.7l.84.42-.9 1.03a1 1 0 00.09 1.41c.19.17.42.25.66.25.28 0 .55-.12.75-.34l1.75-2c.2-.23.29-.55.23-.85a.98.98 0 00-.53-.7zM9.95 20.11l-.85-.43.9-1.03a1 1 0 00-.09-1.41 1 1 0 00-1.41.09l-1.75 2c-.2.23-.29.55-.23.85.06.3.26.56.53.7l.84.42L7 22.34a1 1 0 00.09 1.41 1 1 0 001.41-.09l1.75-2c.2-.23.29-.55.23-.85a.98.98 0 00-.53-.7z" /></svg>