<svg viewBox="64 64 896 896" focusable="false"><g><path d="M0 0h24v24H0z" /><path d="M0 0h24v24H0z" /></g><path d="M10 3h4a1 1 0 001-1 1 1 0 00-1-1h-4a1 1 0 00-1 1 1 1 0 001 1zM12 8a1 1 0 011 1v1.17l6.98 6.98a8.9 8.9 0 00-.95-9.76l.75-.75a1 1 0 000-1.4l-.01-.01a1 1 0 00-1.4 0l-.75.75A8.96 8.96 0 0012 4c-1.48 0-2.89.38-4.13 1.04l3.36 3.36c.18-.24.45-.4.77-.4zM2.1 3.51a1 1 0 000 1.41l2.72 2.72A8.92 8.92 0 003 12.76a9 9 0 0014.38 7.45l1.69 1.69a1 1 0 101.41-1.41L3.51 3.51a1 1 0 00-1.41 0z" /></svg>