<svg viewBox="64 64 896 896" focusable="false"><g><path d="M0 0h24v24H0z" /><path d="M0 0h24v24H0z" /></g><path d="M21.29 19.88l-3.98-3.98a7.93 7.93 0 001.58-6.2 8 8 0 00-15.82.3h2.02a6.01 6.01 0 0111.87.27A6.01 6.01 0 015.55 13.5H3.4a8.01 8.01 0 0012.5 3.81l3.98 3.98a1 1 0 101.41-1.41z" /><path d="M8.43 9.69l1.03 4.47c.11.49.55.84 1.05.84.46 0 .87-.3 1.02-.74l1.01-3.04.69 1.66c.16.37.52.62.92.62h.58c.41 0 .75-.34.75-.75a.76.76 0 00-.75-.75h-.23l-.97-2.34c-.17-.4-.56-.66-1-.66h-.05c-.46 0-.87.3-1.02.74l-.88 2.63-1.04-4.54A1.08 1.08 0 008.49 7c-.47 0-.89.31-1.03.76L6.45 11h-4.7a.76.76 0 00-.75.75c0 .41.34.75.75.75h5.07c.44 0 .82-.28.95-.7l.66-2.11z" /></svg>