<svg viewBox="64 64 896 896" focusable="false"><g><path d="M0 0h24v24H0z" /><path d="M0 0h24v24H0z" /></g><path d="M18.16 17.98c-2.76 1.76-4.67.77-5.61.08a.96.96 0 00-1.12.01c-.97.7-2.83 1.65-5.55-.06A.97.97 0 004.81 18c-.91.61-1.53.85-2 .94a1 1 0 00-.81.97c0 .6.54 1.09 1.13.98a6.61 6.61 0 002.2-.83 6.58 6.58 0 006.67 0 6.54 6.54 0 006.67 0c.69.41 1.44.69 2.21.83.59.11 1.13-.38 1.13-.98v-.01a.99.99 0 00-.8-.97 5.81 5.81 0 01-2.02-.94.96.96 0 00-1.03-.01zM19.33 12H21a1 1 0 001-1 1 1 0 00-1-1h-1.61a3.37 3.37 0 01-3.23-4.41A2.02 2.02 0 0014.27 3H14C7.36 3 2.15 8.03 2.01 14.5v.03a1.62 1.62 0 002.14 1.6c.4-.14.78-.32 1.15-.54a6.59 6.59 0 006.7-.02 6.54 6.54 0 006.67 0c.68.41 1.42.68 2.18.82a1 1 0 001.16-.98v-.01a.99.99 0 00-.78-.97 5.48 5.48 0 01-2.03-.94.95.95 0 00-1.05-.01c-2.73 1.74-4.63.77-5.58.09a1 1 0 00-1.16-.01c-.15.11-.09.06-.32.2a5.47 5.47 0 013.12-8.59A5.33 5.33 0 0019.33 12z" /></svg>