<svg viewBox="64 64 896 896" focusable="false"><path d="M0 0h24v24H0z" /><path d="M15 4a1 1 0 011 1 1 1 0 01-1 1 1 1 0 01-1-1 1 1 0 011-1zm-1 3a1 1 0 011 1 1 1 0 01-1 1 1 1 0 01-1-1 1 1 0 011-1zm-2-3a1 1 0 011 1 1 1 0 01-1 1 1 1 0 01-1-1 1 1 0 011-1zm5 5a1 1 0 01-1-1 1 1 0 011-1 1 1 0 011 1 1 1 0 01-1 1zm1-3a1 1 0 01-1-1 1 1 0 011-1 1 1 0 011 1 1 1 0 01-1 1zm2 3a1 1 0 01-1-1 1 1 0 011-1 1 1 0 011 1 1 1 0 01-1 1zm1-3a1 1 0 01-1-1 1 1 0 011-1 1 1 0 011 1 1 1 0 01-1 1zm-6.38 8.38L12.1 16.9a16.14 16.14 0 01-6-6l2.52-2.52c.24-.24.34-.58.28-.9L8.16 3.8a1 1 0 00-.98-.8H3.03a1 1 0 00-1 1.03 18.07 18.07 0 0016.94 16.94 1 1 0 001.03-1v-4.15a1 1 0 00-.8-.98l-3.67-.73a1 1 0 00-.91.27zM15 10a1 1 0 011 1 1 1 0 01-1 1 1 1 0 01-1-1 1 1 0 011-1zm-3 0a1 1 0 011 1 1 1 0 01-1 1 1 1 0 01-1-1 1 1 0 011-1zm6 2a1 1 0 01-1-1 1 1 0 011-1 1 1 0 011 1 1 1 0 01-1 1zm3 0a1 1 0 01-1-1 1 1 0 011-1 1 1 0 011 1 1 1 0 01-1 1z" /></svg>