<svg viewBox="64 64 896 896" focusable="false"><path d="M0 0h24v24H0V0z" /><path d="M12 19a1 1 0 00-1 1v1a1 1 0 001 1 1 1 0 001-1v-1a1 1 0 00-1-1zM5.99 17.09l-.71.71a1 1 0 101.41 1.41l.71-.71a1 1 0 000-1.41 1.01 1.01 0 00-1.41 0zM5 12a1 1 0 00-1-1H3a1 1 0 00-1 1 1 1 0 001 1h1a1 1 0 001-1zM21 11h-1a1 1 0 00-1 1 1 1 0 001 1h1a1 1 0 001-1 1 1 0 00-1-1zM18.01 17.09a1 1 0 10-1.41 1.41l.71.71a1 1 0 101.41-1.41l-.71-.71zM15 8.02V5a2 2 0 00-2-2h-2a2 2 0 00-2 2v3.02a4.97 4.97 0 001.93 8.86A5 5 0 0015 8.02zm-2-.92a5.47 5.47 0 00-2 0V5h2v2.1z" /></svg>