<svg viewBox="64 64 896 896" focusable="false"><g><path d="M0 0h24v24H0z" /><path d="M0 0h24v24H0z" /></g><path d="M14.46 5.7l-2.47 2.46L9.53 5.7a1 1 0 10-1.41 1.41l3.17 3.18a1 1 0 001.41 0l3.17-3.18a1 1 0 10-1.41-1.41z" /><path d="M14.46.7l-2.47 2.46L9.53.7a1 1 0 10-1.41 1.41l3.17 3.18a1 1 0 001.41 0l3.17-3.18A1 1 0 1014.46.7zM9.54 23.3l2.47-2.46 2.46 2.46a1 1 0 101.41-1.41l-3.17-3.18a1 1 0 00-1.41 0l-3.17 3.18a1 1 0 101.41 1.41z" /><path d="M9.54 18.29l2.47-2.45 2.46 2.46a1 1 0 101.41-1.41l-3.17-3.18a1 1 0 00-1.41 0l-3.17 3.17a1 1 0 101.41 1.41z" /></svg>