<svg viewBox="64 64 896 896" focusable="false"><path d="M0 0h24v24H0z" /><path d="M20.49 20.49L3.51 3.51A1 1 0 102.1 4.92l2.31 2.31A8.92 8.92 0 003 11.74a9 9 0 0013.78 7.87l2.29 2.29a1 1 0 001.41 0c.4-.39.4-1.02.01-1.41zm-9.77-1.6a6.98 6.98 0 01-4.86-10.2l9.46 9.46a7.08 7.08 0 01-4.6.74zM13 8v2.17l-2-2V8c0-.55.45-1 1-1s1 .45 1 1zm7.72 6.23a8.8 8.8 0 01-1.1 2.55l-1.47-1.47c.27-.5.49-1.03.63-1.59a.99.99 0 01.95-.72c.65 0 1.15.61.99 1.23zM7.24 4.41a8.92 8.92 0 0111.6 1.75l1.31-1.31a.5.5 0 01.85.36V9.5a.5.5 0 01-.5.5h-4.29a.5.5 0 01-.35-.85l1.55-1.55a6.97 6.97 0 00-8.73-1.75L7.24 4.41z" /></svg>