<svg viewBox="64 64 896 896" focusable="false"><path d="M0 0h24v24H0z" /><path d="M9.6 5.2l2-2.67a.5.5 0 01.8 0l2 2.67a.5.5 0 01-.4.8h-1v4.17l-2-2V6h-1a.5.5 0 01-.4-.8zm5.9 6.8h.5v1.17l1.77 1.77c.14-.28.23-.6.23-.94v-2h.5a.5.5 0 00.5-.5v-3a.5.5 0 00-.5-.5h-3a.5.5 0 00-.5.5v3c0 .28.22.5.5.5zm4.99 9.9a1 1 0 01-1.41 0l-5.9-5.9H13v2.28c.6.34 1 .98 1 1.72 0 1.2-1.07 2.16-2.31 1.98a2.02 2.02 0 01-1.68-1.77c-.08-.83.33-1.55.99-1.93V16H8a2 2 0 01-2-2v-2.28c-.6-.34-1-.98-1-1.72a2 2 0 01.68-1.5L2.1 4.93a1 1 0 111.41-1.41l16.97 16.97c.4.39.4 1.02.01 1.41zM11 13.83l-2.51-2.51a2.1 2.1 0 01-.49.4V14h3v-.17z" /></svg>