<svg viewBox="64 64 896 896" focusable="false"><path d="M3.63 3.63a1 1 0 000 1.41L7.29 8.7 7 9H4a1 1 0 00-1 1v4a1 1 0 001 1h3l3.29 3.29a1 1 0 001.71-.71v-4.17l4.18 4.18c-.49.37-1.02.68-1.6.91a1 1 0 00-.58.92 1 1 0 001.39.91c.8-.33 1.55-.77 2.22-1.31l1.34 1.34a1 1 0 101.41-1.41L5.05 3.63a1 1 0 00-1.42 0zM19 12c0 .82-.15 1.61-.41 2.34l1.53 1.53a9 9 0 00-4.9-12.27c-.59-.23-1.22.23-1.22.86v.19c0 .38.25.71.61.85A7.02 7.02 0 0119 12zm-8.71-6.29l-.17.17L12 7.76V6.41a1 1 0 00-1.71-.7zM16.5 12A4.5 4.5 0 0014 7.97v1.79l2.48 2.48.02-.24z" /></svg>