<svg viewBox="64 64 896 896" focusable="false"><path d="M0 0h24v24H0z" /><path d="M1.94 11.79c-.6.56-.94 1.35-.94 2.18V20a3 3 0 003 3h13.68c.65 0 1.25-.47 1.32-1.12a1.25 1.25 0 00-1.24-1.38H12.5a.5.5 0 01-.5-.5c0-.28.22-.5.5-.5h7.18c.65 0 1.25-.47 1.32-1.12A1.25 1.25 0 0019.76 17H12.5a.5.5 0 01-.5-.5c0-.28.22-.5.5-.5h8.18c.65 0 1.25-.47 1.32-1.12a1.25 1.25 0 00-1.24-1.38H12.5a.5.5 0 01-.5-.5c0-.28.22-.5.5-.5h6.18c.65 0 1.25-.47 1.32-1.12A1.25 1.25 0 0018.76 10h-9.9l1.49-2.61a1.06 1.06 0 00-.12-1.23l-.42-.45a1 1 0 00-1.41-.03l-6.46 6.11zM18.5 8A2.5 2.5 0 0021 5.5c0-1.25-1.41-3.16-2.11-4.04a.49.49 0 00-.77 0C17.41 2.34 16 4.25 16 5.5A2.5 2.5 0 0018.5 8zm-5 1c.83 0 1.5-.67 1.5-1.5 0-.56-.67-1.49-1.11-2.04a.49.49 0 00-.77 0C12.67 6.01 12 6.94 12 7.5c0 .83.67 1.5 1.5 1.5z" /></svg>