<svg viewBox="64 64 896 896" focusable="false"><path d="M0 0h24v24H0V0zm0 0h24v24H0V0z" /><path d="M2.06 10.06c.51.51 1.32.56 1.87.1a12.75 12.75 0 0116.13-.01 1.41 1.41 0 101.79-2.19 15.59 15.59 0 00-19.69 0c-.65.52-.7 1.5-.1 2.1zm7.76 7.76l1.47 1.47a1 1 0 001.41 0l1.47-1.47a1 1 0 00-.23-1.59 4.28 4.28 0 00-3.91 0 1.01 1.01 0 00-.21 1.59zm-3.73-3.73c.49.49 1.26.54 1.83.13a7.06 7.06 0 018.16 0c.57.4 1.34.36 1.83-.13l.01-.01c.6-.6.56-1.62-.13-2.11a9.9 9.9 0 00-11.58 0c-.69.5-.73 1.51-.12 2.12z" /></svg>