<svg viewBox="64 64 896 896" focusable="false" xmlns="http://www.w3.org/2000/svg"><path d="M0 0h24v24H0z" /><path d="M9 11h6a1 1 0 011 1 1 1 0 01-1 1H9a1 1 0 01-1-1 1 1 0 011-1zm11.93 1a.97.97 0 00.93-1.19A5 5 0 0017 7h-3.05a.96.96 0 00-.95.95c0 .52.43.95.95.95H17c1.45 0 2.67 1 3.01 2.34.11.44.47.76.92.76zm-16.97-.62A3.17 3.17 0 017.12 8.9h2.93c.52 0 .95-.43.95-.95a.96.96 0 00-.95-.95H7.22a5.15 5.15 0 00-5.19 4.51A5 5 0 007 17h3.05c.52 0 .95-.43.95-.95a.96.96 0 00-.95-.95H7a3.1 3.1 0 01-3.04-3.72zM18 12a1 1 0 00-1 1v2h-2a1 1 0 00-1 1 1 1 0 001 1h2v2a1 1 0 001 1 1 1 0 001-1v-2h2a1 1 0 001-1 1 1 0 00-1-1h-2v-2a1 1 0 00-1-1z" /></svg>