<svg viewBox="64 64 896 896" focusable="false" xmlns="http://www.w3.org/2000/svg"><path d="M0 0h24v24H0z" /><path d="M19 0a1 1 0 011 1v2h2c.55 0 1 .45 1 1s-.45 1-1 1h-2v2c0 .55-.45 1-1 1s-1-.45-1-1V5h-2c-.55 0-1-.45-1-1s.45-1 1-1h2V1a1 1 0 011-1zm-7 12c1.1 0 2-.9 2-2s-.9-2-2-2-2 .9-2 2 .9 2 2 2zm2.72-9.53c-.44.36-.72.91-.72 1.53 0 1.1.9 2 2 2h1v1a2 2 0 002.89 1.79c.07.45.11.92.11 1.41 0 3.18-2.45 6.92-7.34 11.23-.38.33-.95.33-1.33 0C6.45 17.12 4 13.38 4 10.2 4 5.22 7.8 2 12 2c.94 0 1.86.16 2.72.47z" /></svg>