<svg viewBox="64 64 896 896" focusable="false" xmlns="http://www.w3.org/2000/svg"><g><path d="M0 0h24v24H0z" /><path d="M0 0h24v24H0z" /></g><path d="M20 18v-2a1 1 0 00-1-1 1 1 0 00-1 1v2h-2a1 1 0 00-1 1 1 1 0 001 1h2v2a1 1 0 001 1 1 1 0 001-1v-2h2a1 1 0 001-1 1 1 0 00-1-1h-2zM19 4a1 1 0 00-1 1v7a1 1 0 001 1 1 1 0 001-1V5a1 1 0 00-1-1zM5 20a1 1 0 001-1V5a1 1 0 00-1-1 1 1 0 00-1 1v14a1 1 0 001 1zM12 8a1 1 0 001-1V5a1 1 0 00-1-1 1 1 0 00-1 1v2a1 1 0 001 1zM12 14a1 1 0 001-1v-2a1 1 0 00-1-1 1 1 0 00-1 1v2a1 1 0 001 1zM12 20a1 1 0 001-1v-2a1 1 0 00-1-1 1 1 0 00-1 1v2a1 1 0 001 1z" /></svg>