<svg viewBox="64 64 896 896" focusable="false" xmlns="http://www.w3.org/2000/svg"><g><path d="M0 0h24v24H0z" /><path d="M0 0h24v24H0z" /></g><path d="M19.5 11.97c.93 0 1.78.28 2.5.76V7.97a2 2 0 00-2-2h-6.29l-1.06-1.06 1.06-1.06c.2-.2.2-.51 0-.71s-.51-.2-.71 0l-2.83 2.83a.5.5 0 000 .71c.2.2.51.2.71 0l1.06-1.06L13 6.68v2.29a2 2 0 01-2 2h-.54a5.98 5.98 0 011.45 5h3.14a4.5 4.5 0 014.45-4z" /><path d="M19.5 12.97a3.5 3.5 0 100 7 3.5 3.5 0 000-7zm0 5a1.5 1.5 0 110-3 1.5 1.5 0 010 3zM4 8.97h5a2 2 0 00-2-2H4a1 1 0 00-1 1 1 1 0 001 1zM9.83 13.79l-.18-.47.93-.35a4.92 4.92 0 00-2.31-2.43l-.4.89-.46-.21.4-.9A5.11 5.11 0 006 9.97a5.1 5.1 0 00-1.52.26l.34.91-.47.18L4 10.4a4.92 4.92 0 00-2.43 2.31l.89.4-.21.46-.9-.4a4.85 4.85 0 00-.09 3.32l.91-.34.18.47-.93.35a4.92 4.92 0 002.31 2.43l.4-.89.46.21-.4.9c.57.22 1.18.35 1.82.35a5.1 5.1 0 001.52-.26l-.35-.91.47-.18.35.93a4.92 4.92 0 002.43-2.31l-.89-.4.21-.46.9.4c.22-.57.35-1.18.35-1.82a5.1 5.1 0 00-.26-1.52l-.91.35zm-2.68 3.96a3 3 0 11-2.3-5.55 3 3 0 012.3 5.55z" /></svg>