<svg viewBox="64 64 896 896" focusable="false" xmlns="http://www.w3.org/2000/svg"><path d="M0 0h24v24H0V0z" /><path d="M7.59 5.41a2 2 0 112.84-2.83 2 2 0 01-2.84 2.83zM6 16V8c0-.55-.45-1-1-1s-1 .45-1 1v8a5 5 0 005 5h5c.55 0 1-.45 1-1s-.45-1-1-1H9a3 3 0 01-3-3zm13.28 3.35l-3.77-3.77A2 2 0 0014.1 15h-2.6v-3.68c1.09.89 2.66 1.7 4.2 2.02.67.14 1.3-.36 1.3-1.04 0-.53-.39-.96-.92-1.05a6.86 6.86 0 01-3.75-1.97l-1.4-1.55a2.15 2.15 0 00-.69-.5A2.23 2.23 0 009.28 7h-.03A2.25 2.25 0 007 9.25V15a3 3 0 003 3h5.07l2.78 2.78c.39.39 1.04.39 1.43 0a1 1 0 000-1.43z" /></svg>