<svg viewBox="64 64 896 896" focusable="false" xmlns="http://www.w3.org/2000/svg"><path d="M0 0h24v24H0V0z" /><path d="M14.94 10.11l-4.4 4.42-1.6-1.6a.75.75 0 00-1.06 0 .75.75 0 000 1.06L10 16.11c.29.29.77.29 1.06 0L16 11.17a.75.75 0 000-1.06.75.75 0 00-1.06 0zm6.24-5.1L18.1 2.45a1 1 0 10-1.28 1.54l3.07 2.56a1 1 0 001.41-.13 1 1 0 00-.12-1.41zM4.1 6.55l3.07-2.56a1 1 0 00.13-1.41.99.99 0 00-1.4-.13L2.82 5.01a1 1 0 00-.12 1.41c.35.43.98.48 1.4.13zM12 4a9 9 0 100 18 9 9 0 000-18zm0 16a7 7 0 11.02-14.02A7 7 0 0112 20z" /></svg>