<svg viewBox="64 64 896 896" focusable="false" xmlns="http://www.w3.org/2000/svg"><path d="M0 0h24v24H0V0z" /><path d="M21.18 5.01L18.1 2.45a1 1 0 10-1.28 1.54l3.07 2.56a1 1 0 001.41-.13 1 1 0 00-.12-1.41zM4.1 6.55l3.07-2.56a1 1 0 00.13-1.41.99.99 0 00-1.4-.13L2.82 5.01a1 1 0 00-.12 1.41c.35.43.98.48 1.4.13zM12 4a9 9 0 100 18 9 9 0 000-18zm0 16a7 7 0 11.02-14.02A7 7 0 0112 20zm3-8h-2v-2c0-.55-.45-1-1-1s-1 .45-1 1v2H9c-.55 0-1 .45-1 1s.45 1 1 1h2v2c0 .55.45 1 1 1s1-.45 1-1v-2h2c.55 0 1-.45 1-1s-.45-1-1-1z" /></svg>