<svg viewBox="64 64 896 896" focusable="false" xmlns="http://www.w3.org/2000/svg"><path d="M0 0h24v24H0z" /><path d="M6 8c1.1 0 2-.9 2-2s-.9-2-2-2-2 .9-2 2 .9 2 2 2zm6 12c1.1 0 2-.9 2-2s-.9-2-2-2-2 .9-2 2 .9 2 2 2zm-6 0c1.1 0 2-.9 2-2s-.9-2-2-2-2 .9-2 2 .9 2 2 2zm0-6c1.1 0 2-.9 2-2s-.9-2-2-2-2 .9-2 2 .9 2 2 2zm6 0c1.1 0 2-.9 2-2s-.9-2-2-2-2 .9-2 2 .9 2 2 2zm.07-10H12c-1.1 0-2 .9-2 2a2 2 0 002.63 1.9 6.9 6.9 0 01-.56-3.9zM19 12a6.9 6.9 0 01-2.9-.63A2 2 0 0018 14a2 2 0 002-2v-.07c-.33.05-.66.07-1 .07zm-1 8c1.1 0 2-.9 2-2s-.9-2-2-2-2 .9-2 2 .9 2 2 2zm1-20a5 5 0 100 10 5 5 0 000-10zm.5 7.5a.5.5 0 01-.5.5c-.27 0-.5-.22-.5-.5s.22-.5.5-.5.5.22.5.5zM19 6a.5.5 0 01-.5-.5v-3c0-.28.22-.5.5-.5s.5.22.5.5v3a.5.5 0 01-.5.5z" /></svg>