<svg viewBox="64 64 896 896" focusable="false" xmlns="http://www.w3.org/2000/svg"><g><path d="M0 0h24v24H0z" /><path d="M0 0h24v24H0z" /></g><path d="M6 17a1 1 0 001-1v-5a1 1 0 00-1-1 1 1 0 00-1 1v5a1 1 0 001 1zM12 17a1 1 0 001-1v-5a1 1 0 00-1-1 1 1 0 00-1 1v5a1 1 0 001 1zM21.32 5.66L12.9 1.45a2.01 2.01 0 00-1.79 0L2.68 5.66A1.23 1.23 0 003.24 8h17.53C21.45 8 22 7.45 22 6.76c0-.46-.26-.89-.68-1.1zM2 20a1 1 0 001 1h11.4a7.85 7.85 0 01-.36-2H3a1 1 0 00-1 1zM19 12.26V11a1 1 0 00-1-1 1 1 0 00-1 1v2.26l2-1zM19.55 14.22l-3 1.5a1 1 0 00-.55.9v1.93c0 2.52 1.71 4.88 4 5.45 2.29-.57 4-2.93 4-5.45v-1.93a.98.98 0 00-.55-.89l-3-1.5a.99.99 0 00-.9-.01zm-.97 6.08l-.8-.8a.75.75 0 010-1.06.75.75 0 011.06 0l.44.44 1.88-1.85a.75.75 0 011.06 0c.29.29.29.77 0 1.06l-2.23 2.21a1 1 0 01-1.41 0z" /></svg>