<svg viewBox="64 64 896 896" focusable="false" xmlns="http://www.w3.org/2000/svg"><path d="M0 0h24v24H0V0z" /><path d="M11.8 10.9c-2.27-.59-3-1.2-3-2.15 0-1.09 1.01-1.85 2.7-1.85 1.42 0 2.13.54 2.39 1.4.12.4.45.7.87.7h.3a.95.95 0 00.9-1.27A4 4 0 0013 5.19V4.5a1.5 1.5 0 10-3 0v.66c-1.94.42-3.5 1.68-3.5 3.61 0 2.31 1.91 3.46 4.7 4.13 2.5.6 3 1.48 3 2.41 0 .69-.49 1.79-2.7 1.79-1.65 0-2.5-.59-2.83-1.43-.15-.39-.49-.67-.9-.67h-.28a.95.95 0 00-.89 1.3c.57 1.39 1.9 2.21 3.4 2.53v.67a1.5 1.5 0 103 0v-.65c1.95-.37 3.5-1.5 3.5-3.55 0-2.84-2.43-3.81-4.7-4.4z" /></svg>