<svg viewBox="64 64 896 896" focusable="false" xmlns="http://www.w3.org/2000/svg"><path d="M0 0h24v24H0z" /><path d="M12.03 6.3h-.06l-1.02 2.89h2.1zM4 22a1 1 0 001-1v-3a1 1 0 00-1-1 1 1 0 00-1 1v3a1 1 0 001 1z" /><path d="M12 15a6 6 0 10-.01-12.01A6 6 0 0012 15zm0-10a.9.9 0 01.85.59l2.12 5.65a.56.56 0 01-.53.76.56.56 0 01-.53-.38l-.49-1.41h-2.83l-.5 1.41a.56.56 0 11-1.06-.38l2.12-5.65A.9.9 0 0112 5zM8 22a1 1 0 001-1v-3a1 1 0 00-1-1 1 1 0 00-1 1v3a1 1 0 001 1zM12 22a1 1 0 001-1v-3a1 1 0 00-1-1 1 1 0 00-1 1v3a1 1 0 001 1zM15 18v3a1 1 0 001 1h4a1 1 0 001-1v-3a1 1 0 00-1-1h-4a1 1 0 00-1 1z" /></svg>