<svg viewBox="64 64 896 896" focusable="false" xmlns="http://www.w3.org/2000/svg"><path d="M0 0h24v24H0z" /><path d="M19.46 8l.79-1.75L22 5.46a.5.5 0 000-.91l-1.75-.79L19.46 2a.5.5 0 00-.91 0l-.79 1.75-1.76.79a.5.5 0 000 .91l1.75.79.79 1.76a.5.5 0 00.92 0zM11.5 9.5L9.91 6a1 1 0 00-1.82 0L6.5 9.5 3 11.09a1 1 0 000 1.82l3.5 1.59L8.09 18a1 1 0 001.82 0l1.59-3.5 3.5-1.59a1 1 0 000-1.82L11.5 9.5zm7.04 6.5l-.79 1.75-1.75.79a.5.5 0 000 .91l1.75.79.79 1.76a.5.5 0 00.91 0l.79-1.75 1.76-.79a.5.5 0 000-.91l-1.75-.79-.79-1.76a.5.5 0 00-.92 0z" /></svg>