<svg viewBox="64 64 896 896" focusable="false" xmlns="http://www.w3.org/2000/svg"><path d="M0 0h24v24H0V0z" /><path d="M15.67 4H14V3a1 1 0 00-1-1h-2a1 1 0 00-1 1v1H8.33C7.6 4 7 4.6 7 5.33v15.33C7 21.4 7.6 22 8.34 22h7.32c.74 0 1.34-.6 1.34-1.33V5.33C17 4.6 16.4 4 15.67 4zM13 18h-2v-2h2v2zm1.3-5.31s-.38.42-.67.71c-.14.14-.27.31-.39.47l-.09.15c-.08.12-.14.25-.19.37-.09.22-.16.43-.16.61h-1.6c0-.42.12-.8.29-1.13l.2-.31.1-.16.34-.4.93-.94a1.5 1.5 0 10-2.47-1.57.75.75 0 01-.71.51.76.76 0 01-.71-1.01A3 3 0 0115 11c0 .66-.27 1.26-.7 1.69z" /></svg>