<svg viewBox="64 64 896 896" focusable="false" xmlns="http://www.w3.org/2000/svg"><path d="M0 0h24v24H0V0z" /><path d="M16.5 12h-9a1 1 0 00-1 1v1h11v-1a1 1 0 00-1-1zM7.25 8.5h4v2h-4zM12.75 8.5h4v2h-4z" /><path d="M20 2H4a2 2 0 00-2 2v16c0 1.1.9 2 2 2h16a2 2 0 002-2V4a2 2 0 00-2-2zm-1.75 15a.76.76 0 01-.75-.75v-.75h-11v.75c0 .41-.34.75-.75.75a.76.76 0 01-.75-.75v-3.08c0-.66.25-1.26.65-1.72V9c0-1.1.9-2 2-2H11c.37 0 .72.12 1 .32.28-.2.63-.32 1-.32h3.35a2 2 0 012 2v2.45c.4.46.65 1.06.65 1.72v3.08c0 .41-.34.75-.75.75z" /></svg>