<svg viewBox="64 64 896 896" focusable="false" xmlns="http://www.w3.org/2000/svg"><path d="M0 0h24v24H0V0z" /><path d="M19 8h-1.81a5.98 5.98 0 00-1.82-1.96l.93-.93a1 1 0 10-1.41-1.41l-1.47 1.47a6.07 6.07 0 00-2.83 0L9.11 3.7A1 1 0 107.7 5.11l.92.93A6.06 6.06 0 006.81 8H5c-.55 0-1 .45-1 1s.45 1 1 1h1.09c-.05.33-.09.66-.09 1v1H5c-.55 0-1 .45-1 1s.45 1 1 1h1v1c0 .34.04.67.09 1H5c-.55 0-1 .45-1 1s.45 1 1 1h1.81a6 6 0 0010.38 0H19c.55 0 1-.45 1-1s-.45-1-1-1h-1.09c.05-.33.09-.66.09-1v-1h1c.55 0 1-.45 1-1s-.45-1-1-1h-1v-1c0-.34-.04-.67-.09-1H19c.55 0 1-.45 1-1s-.45-1-1-1zm-6 8h-2c-.55 0-1-.45-1-1s.45-1 1-1h2c.55 0 1 .45 1 1s-.45 1-1 1zm0-4h-2c-.55 0-1-.45-1-1s.45-1 1-1h2c.55 0 1 .45 1 1s-.45 1-1 1z" /></svg>