<svg viewBox="64 64 896 896" focusable="false" xmlns="http://www.w3.org/2000/svg"><path d="M0 0h24v24H0V0z" /><path d="M17 0H7a2 2 0 00-2 2v14c0 1.1.9 2 2 2h10a2 2 0 002-2V2a2 2 0 00-2-2zm0 12.5c0-1.67-3.33-2.5-5-2.5s-5 .83-5 2.5V3a1 1 0 011-1h8a1 1 0 011 1v9.5zm-6.15 6.35a.5.5 0 00-.85.36V20H6c-.55 0-1 .45-1 1s.45 1 1 1h4v.79c0 .45.54.67.85.35l1.79-1.79a.5.5 0 000-.71l-1.79-1.79zM18 20h-3c-.55 0-1 .45-1 1s.45 1 1 1h3c.55 0 1-.45 1-1s-.45-1-1-1zM12 8c1.1 0 2-.9 2-2s-.9-2-2-2a2 2 0 000 4z" /></svg>