<svg viewBox="64 64 896 896" focusable="false" xmlns="http://www.w3.org/2000/svg"><path d="M19.2 8.56l-4.22-2.3c-.3-.16-.66-.16-.96 0L9.8 8.56a.5.5 0 000 .88l4.22 2.3c.3.16.66.16.96 0l4.22-2.3a.5.5 0 000-.88zM21 3H3a2 2 0 00-2 2v2c0 .55.45 1 1 1s1-.45 1-1V6a1 1 0 011-1h16a1 1 0 011 1v12a1 1 0 01-1 1h-5c-.55 0-1 .45-1 1s.45 1 1 1h6a2 2 0 002-2V5a2 2 0 00-2-2zm-6.98 9.74L11 11.09v1.41c0 .37.2.7.52.88l2.5 1.36c.3.16.66.16.96 0l2.5-1.36c.32-.18.52-.52.52-.88v-1.41l-3.02 1.65c-.3.16-.66.16-.96 0zM1 18v3h3a3 3 0 00-3-3zm1.14-3.91a1 1 0 00-.29 1.98c2.08.36 3.72 2 4.08 4.08a1 1 0 00.98.85 1 1 0 001-1.14 7 7 0 00-5.77-5.77zm-.04-4.04c-.59-.05-1.1.41-1.1 1 0 .51.38.94.88.99a9 9 0 018.08 8.08c.05.5.48.87.99.87a1 1 0 001-1.11 11.02 11.02 0 00-9.85-9.83z" /></svg>