<svg viewBox="64 64 896 896" focusable="false" xmlns="http://www.w3.org/2000/svg"><path d="M0 0h24v24H0V0z" /><path d="M21 4H3a2 2 0 00-2 2v13c0 1.1.9 2 2 2h18a2 2 0 002-2V6a2 2 0 00-2-2zm0 14a1 1 0 01-1 1h-8V6h8a1 1 0 011 1v11zm-1.75-8.5h-5.5c-.41 0-.75.34-.75.75s.34.75.75.75h5.5c.41 0 .75-.34.75-.75s-.34-.75-.75-.75zm0 2.5h-5.5c-.41 0-.75.34-.75.75s.34.75.75.75h5.5c.41 0 .75-.34.75-.75s-.34-.75-.75-.75zm0 2.5h-5.5c-.41 0-.75.34-.75.75s.34.75.75.75h5.5c.41 0 .75-.34.75-.75s-.34-.75-.75-.75z" /></svg>