<svg viewBox="64 64 896 896" focusable="false" xmlns="http://www.w3.org/2000/svg"><g><path d="M0 0h24v24H0z" /><path d="M0 0h24v24H0z" /></g><path d="M18 12.22v-1.99a2 2 0 00-1.11-1.79L13 6.5V5h1a1 1 0 001-1 1 1 0 00-1-1h-1V2a1 1 0 00-1-1 1 1 0 00-1 1v1h-1a1 1 0 00-1 1 1 1 0 001 1h1v1.5L7.11 8.45A2 2 0 006 10.24v1.99l-2.81 1.25A1.98 1.98 0 002 15.3V20c0 1.1.9 2 2 2h6v-2.89c0-1 .68-1.92 1.66-2.08A2 2 0 0114 19v3h6a2 2 0 002-2v-4.7a2 2 0 00-1.19-1.83L18 12.22zm-6 1.28a1.5 1.5 0 110-3 1.5 1.5 0 010 3z" /></svg>