<svg viewBox="64 64 896 896" focusable="false" xmlns="http://www.w3.org/2000/svg"><path d="M0 0h24v24H0z" /><path d="M14.99 7l1.37-.63.63-1.37.63 1.37 1.37.63-1.37.63L16.99 9l-.63-1.37L14.99 7zM20 14a2 2 0 002-2c0-.78-.99-2.44-1.58-3.36a.5.5 0 00-.84 0C18.99 9.56 18 11.22 18 12c0 1.1.9 2 2 2zM9.24 9.5L15 11.65V11a5 5 0 00-4-4.9V4h2c.35 0 .68.06 1 .18a1 1 0 001.05-.22c.51-.51.34-1.39-.33-1.64A4.65 4.65 0 0013 2H8.5a1 1 0 00-1 1 1 1 0 001 1H9v2.11A5.02 5.02 0 005.25 9.5h3.99zM3 11a2 2 0 00-2 2v7c0 1.1.9 2 2 2a2 2 0 002-2v-7a2 2 0 00-2-2zm16.99 6h-6.83a.96.96 0 01-.33-.06l-1.47-.51a.49.49 0 01-.3-.63.5.5 0 01.64-.3l1.12.43c.11.04.24.07.36.07h2.63c.65 0 1.18-.53 1.18-1.18 0-.49-.31-.93-.77-1.11L9.3 11.13a1.85 1.85 0 00-.7-.13H7v9.02l6.37 1.81c.41.12.85.1 1.25-.05L22 19a2 2 0 00-2.01-2z" /></svg>