<svg viewBox="64 64 896 896" focusable="false" xmlns="http://www.w3.org/2000/svg"><path d="M0 0h24v24H0z" /><path d="M6.83 4H19a2 2 0 012 2v12l-.02.16-3.38-3.38c.24-.19.4-.46.4-.78v-.5a.5.5 0 00-.5-.5H17a.5.5 0 00-.5.5h-.17l-1.83-1.83V10.5h2c0 .28.22.5.5.5h.5a.5.5 0 00.5-.5V10a1 1 0 00-1-1h-3a1 1 0 00-1 1v.17L6.83 4zm13.66 17.9a1 1 0 01-1.41 0l-1.9-1.9H5a2 2 0 01-2-2V6l.02-.15-.92-.92a1 1 0 111.41-1.41l16.97 16.97c.4.39.4 1.02.01 1.41zM11 13.83l-.83-.83H10a.5.5 0 00-.5.5h-2v-3h.17L6.4 9.22A.99.99 0 006 10v4a1 1 0 001 1h3a1 1 0 001-1v-.17z" /></svg>