<svg viewBox="64 64 896 896" focusable="false" xmlns="http://www.w3.org/2000/svg"><path d="M0 0h24v24H0V0z" /><path d="M12 4H5a3 3 0 00-3 3v8a3 3 0 003 3l-.77.77c-.28.28-.28.72 0 1s.72.28 1 0L7 18h2v-5H4.5a.5.5 0 01-.5-.5v-6c0-.28.22-.5.5-.5h8c.28 0 .5.22.5.5V8h2V7a3 3 0 00-3-3zM5 14c.55 0 1 .45 1 1s-.45 1-1 1-1-.45-1-1 .45-1 1-1zm15.57-4.34A1 1 0 0019.6 9h-7.19c-.46 0-.83.26-.98.66l-1.42 4.11v5.24c0 .55.45.99 1 .99s1-.45 1-1v-1h8v1a1 1 0 002 .01L22 13.77l-1.43-4.11zm-7.8.34h6.48c.21 0 .4.14.47.34l.69 2a.5.5 0 01-.47.66h-7.85a.5.5 0 01-.47-.66l.69-2c.05-.2.24-.34.46-.34zM12 16c-.55 0-1-.45-1-1s.45-1 1-1 1 .45 1 1-.45 1-1 1zm8 0c-.55 0-1-.45-1-1s.45-1 1-1 1 .45 1 1-.45 1-1 1z" /></svg>