<svg viewBox="64 64 896 896" focusable="false" xmlns="http://www.w3.org/2000/svg"><path d="M0 0h24v24H0z" /><path d="M7 4c0-1.11-.89-2-2-2s-2 .89-2 2 .89 2 2 2 2-.89 2-2zm3.19.5a1 1 0 00-.92.63A2.97 2.97 0 016.5 7h-3C2.67 7 2 7.67 2 8.5V11h6V8.74a4.96 4.96 0 003.12-2.91c.26-.64-.24-1.33-.93-1.33zM19 17c1.11 0 2-.89 2-2s-.89-2-2-2-2 .89-2 2 .89 2 2 2zm1.5 1h-3a2.97 2.97 0 01-2.77-1.87.99.99 0 00-.92-.63c-.69 0-1.19.69-.94 1.33a4.98 4.98 0 003.12 2.91V22h6v-2.5c.01-.83-.66-1.5-1.49-1.5zm-3.25-6.91h.01a3.02 3.02 0 00-2.17 2.17v-.01c-.11.43-.51.75-.98.75a1 1 0 01-1-1l.02-.14a4.99 4.99 0 013.75-3.73l.12-.01a1 1 0 01.25 1.97zM18 6.06a1 1 0 01-.86.99 7 7 0 00-6.09 6.1A1 1 0 019.06 13v-.06-.03a9.02 9.02 0 017.92-7.85h.01a1 1 0 011.01 1z" /></svg>