<svg viewBox="64 64 896 896" focusable="false" xmlns="http://www.w3.org/2000/svg"><path d="M0 0h24v24H0V0z" /><path d="M9.64 7.64a4.01 4.01 0 10-7.58-.93 4.02 4.02 0 003.49 3.26c.76.08 1.46-.05 2.09-.34L10 12l-2.36 2.36a4.01 4.01 0 00-5.58 2.92 4 4 0 107.57-.93L12 14l7.59 7.59c.89.89 2.41.26 2.41-1v-.01c0-.37-.15-.73-.41-1L9.64 7.64zM6 8a2 2 0 110-4 2 2 0 010 4zm0 12a2 2 0 110-4 2 2 0 010 4zm6-7.5c-.28 0-.5-.22-.5-.5s.22-.5.5-.5.5.22.5.5-.22.5-.5.5zm7.59-10.09L13 9l2 2 6.59-6.59c.26-.26.41-.62.41-1V3.4a1.41 1.41 0 00-2.41-.99z" /></svg>