<svg viewBox="64 64 896 896" focusable="false" xmlns="http://www.w3.org/2000/svg"><path d="M0 0h24v24H0z" /><path d="M22.39 12.19a1 1 0 00-.19-1.4l-9.6-7.33a1 1 0 00-1.21 0L6 7.58V7c0-.55-.45-1-1-1s-1 .45-1 1v2.11l-2.21 1.68A1 1 0 003 12.38l1-.76V20a1 1 0 001 1h6v-5c0-.55.45-1 1-1s1 .45 1 1v5h6a1 1 0 001-1v-8.38l.99.76a1 1 0 001.4-.19zM5.27 5c-.74 0-1.26-.8-.9-1.45A3 3 0 017 2c.38 0 .72-.22.89-.53.15-.31.5-.47.84-.47.74 0 1.26.8.9 1.45A3 3 0 017 4c-.38 0-.72.22-.89.53-.15.31-.5.47-.84.47z" /></svg>