<svg viewBox="64 64 896 896" focusable="false" xmlns="http://www.w3.org/2000/svg"><path d="M0 0h24v24H0V0z" /><path d="M16 9v5h2V8a2 2 0 00-2-2h-6v2h5a1 1 0 011 1zm3 7H9a1 1 0 01-1-1V5c0-.55-.45-1-1-1s-1 .45-1 1v1H5c-.55 0-1 .45-1 1s.45 1 1 1h1v8c0 1.1.9 2 2 2h8v1c0 .55.45 1 1 1s1-.45 1-1v-1h1c.55 0 1-.45 1-1s-.45-1-1-1zM17.66 1.4A11.81 11.81 0 0011.39.04l3.81 3.81 1.33-1.33a10.5 10.5 0 015.89 7.86c.06.41.44.69.86.62a.74.74 0 00.62-.86c-.6-3.8-2.96-7-6.24-8.74zM7.47 21.49a10.5 10.5 0 01-5.89-7.86.74.74 0 00-.86-.62.74.74 0 00-.62.86 12.01 12.01 0 0012.51 10.11L8.8 20.16l-1.33 1.33z" /></svg>