<svg viewBox="64 64 896 896" focusable="false" xmlns="http://www.w3.org/2000/svg"><path d="M0 0h24v24H0z" /><path d="M12 23c5.7 0 10.39-4.34 10.95-9.9a1 1 0 00-1-1.1.99.99 0 00-.99.88A9 9 0 014.52 17H6c.55 0 1-.45 1-1s-.45-1-1-1H2a1 1 0 00-1 1v4a1 1 0 001 1 1 1 0 001-1v-1.67A11 11 0 0012 23zm0-22C6.3 1 1.61 5.34 1.05 10.9c-.05.59.41 1.1 1 1.1.51 0 .94-.38.99-.88A9 9 0 0119.48 7H18a1 1 0 00-1 1 1 1 0 001 1h4a1 1 0 001-1V4c0-.55-.45-1-1-1s-1 .45-1 1v1.67A11 11 0 0012 1zm-.88 4.88a.88.88 0 011.76 0v.37c1.07.19 1.75.76 2.16 1.3a.85.85 0 01-.36 1.3.87.87 0 01-1.02-.28 1.9 1.9 0 00-1.6-.77c-.7 0-1.81.37-1.81 1.39 0 .95.86 1.31 2.64 1.9 2.4.83 3.01 2.05 3.01 3.45 0 2.62-2.5 3.13-3.02 3.22v.37a.88.88 0 01-1.76 0v-.42a4.01 4.01 0 01-2.69-2.1c-.23-.44.03-1.02.49-1.2a.9.9 0 011.11.38c.32.61.95 1.37 2.12 1.37.93 0 1.98-.48 1.98-1.61 0-.96-.7-1.46-2.28-2.03-1.1-.39-3.35-1.03-3.35-3.31 0-.1.01-2.4 2.62-2.96v-.37z" /></svg>