<svg viewBox="64 64 896 896" focusable="false" xmlns="http://www.w3.org/2000/svg"><g><path d="M0 0h24v24H0z" /><path d="M0 0h24v24H0z" /></g><path d="M12 8a4 4 0 100 8 4 4 0 000-8zm0 6a2 2 0 01-2-2c0-1.1.9-2 2-2s2 .9 2 2a2 2 0 01-2 2z" /><path d="M22 6.11c0-.46-.3-.86-.74-.97A36.45 36.45 0 0012 4c-2.15 0-4.11.86-5.54 2.24.1-.65.28-1.69.62-2.96a1 1 0 10-1.94-.54A36.45 36.45 0 004 12c0 2.15.86 4.11 2.24 5.54-.65-.1-1.69-.28-2.96-.62-.64-.17-1.28.3-1.28.97 0 .46.3.86.74.97C4.77 19.4 7.97 20 12 20c2.15 0 4.11-.86 5.54-2.24-.1.65-.28 1.69-.62 2.96-.17.64.3 1.28.97 1.28.46 0 .86-.3.97-.74A36.45 36.45 0 0020 12c0-2.15-.86-4.11-2.24-5.54.65.1 1.69.28 2.96.62.64.17 1.28-.3 1.28-.97zM12 18a6 6 0 11.01-12.01A6 6 0 0112 18z" /></svg>