<svg viewBox="64 64 896 896" focusable="false" xmlns="http://www.w3.org/2000/svg"><g><path d="M0 0h24v24H0z" /><path d="M0 0h24v24H0z" /></g><path d="M8.09 17H7v-4h3.69c.95-.63 2.09-1 3.31-1h6c.34 0 .67.04 1 .09V5a2 2 0 00-2-2H5a2 2 0 00-2 2v14c0 1.1.9 2 2 2h3.81a5.98 5.98 0 01-.72-4zM13 7h4v4h-4V7zM7 7h4v4H7V7z" /><path d="M12.03 17.66c.16-.98 1.09-1.66 2.08-1.66H15a1 1 0 001-1 1 1 0 00-1-1h-.83a4.12 4.12 0 00-4.15 3.61A4 4 0 0014 22h1a1 1 0 001-1 1 1 0 00-1-1h-1a2 2 0 01-1.97-2.34zM19.83 14H19a1 1 0 00-1 1 1 1 0 001 1h.89c1 0 1.92.68 2.08 1.66A2 2 0 0120 20h-1a1 1 0 00-1 1 1 1 0 001 1h1a4 4 0 003.98-4.39A4.12 4.12 0 0019.83 14z" /><path d="M15 19h4a1 1 0 001-1 1 1 0 00-1-1h-4a1 1 0 00-1 1 1 1 0 001 1z" /></svg>