<svg viewBox="64 64 896 896" focusable="false" xmlns="http://www.w3.org/2000/svg"><g><path d="M0 0h24v24H0z" /><path d="M0 0h24v24H0z" /></g><path d="M4 7v2a1 1 0 01-1 1 1 1 0 00-1 1v2a1 1 0 001 1 1 1 0 011 1v2a3 3 0 003 3h2a1 1 0 001-1 1 1 0 00-1-1H7a1 1 0 01-1-1v-2c0-1.3-.84-2.42-2-2.83v-.34C5.16 11.42 6 10.3 6 9V7a1 1 0 011-1h2a1 1 0 001-1 1 1 0 00-1-1H7a3 3 0 00-3 3zM21 10a1 1 0 01-1-1V7a3 3 0 00-3-3h-2a1 1 0 00-1 1 1 1 0 001 1h2a1 1 0 011 1v2c0 1.3.84 2.42 2 2.83v.34A3 3 0 0018 15v2a1 1 0 01-1 1h-2a1 1 0 00-1 1 1 1 0 001 1h2a3 3 0 003-3v-2a1 1 0 011-1 1 1 0 001-1v-2a1 1 0 00-1-1z" /></svg>