<svg viewBox="64 64 896 896" focusable="false" xmlns="http://www.w3.org/2000/svg"><g><path d="M0 0h24v24H0z" /><path d="M0 0h24v24H0z" /></g><path d="M20.41 9c.49 0 .69-.63.29-.91L13.15 2.8a2 2 0 00-2.29 0L3.3 8.09c-.4.28-.2.91.29.91H11v12c0 .55.45 1 1 1s1-.45 1-1V9h7.41z" /><path d="M8 16H4.9l-.57-3.02a1 1 0 00-1.97.37L3 16.74V21a1 1 0 001 1h.01a1 1 0 001-.99L5.02 18H7v3c0 .55.45 1 1 1s1-.45 1-1v-4a1 1 0 00-1-1zM20.84 12.18c-.54-.1-1.06.26-1.17.8L19.1 16H16a1 1 0 00-1 1v4c0 .55.45 1 1 1s1-.45 1-1v-3h1.98l.02 3.01a1 1 0 001 .99 1 1 0 001-1v-4.26l.64-3.39a1 1 0 00-.8-1.17z" /></svg>