<svg viewBox="64 64 896 896" focusable="false" xmlns="http://www.w3.org/2000/svg"><path d="M0 0h24v24H0z" /><path d="M19 7a2 2 0 00-2-2h-2a1 1 0 00-1 1 1 1 0 001 1h2v2.65L13.52 14H10v-4a1 1 0 00-1-1H6a4 4 0 00-4 4v2a1 1 0 001 1h1a3 3 0 106 0h3.52a2 2 0 001.56-.75l3.48-4.35c.29-.36.44-.8.44-1.25V7zM7 17a1 1 0 01-1-1h2a1 1 0 01-1 1z" /><path d="M6 6h3a1 1 0 011 1 1 1 0 01-1 1H6a1 1 0 01-1-1 1 1 0 011-1zM19 13a3 3 0 100 6 3 3 0 000-6zm0 4c-.55 0-1-.45-1-1s.45-1 1-1 1 .45 1 1a1 1 0 01-1 1z" /></svg>