<svg viewBox="64 64 896 896" focusable="false" xmlns="http://www.w3.org/2000/svg"><path d="M0 0h24v24H0V0z" /><path d="M17.34 1.13a7 7 0 00-7.12 2.92l.02-.03C9.84 4 9.42 4 9 4c-4.42 0-8 .5-8 4v10c0 .88.39 1.67 1 2.22v1.28a1.5 1.5 0 103 0V21h8v.5c0 .82.67 1.5 1.5 1.5.82 0 1.5-.67 1.5-1.5v-1.28c.61-.55 1-1.34 1-2.22v-3.08a7 7 0 00.34-13.79zM4.5 19a1.5 1.5 0 110-3 1.5 1.5 0 010 3zM3 13V8h6c0 1.96.81 3.73 2.11 5H3zm10.5 6a1.5 1.5 0 110-3 1.5 1.5 0 010 3zm2.5-6a5 5 0 110-10 5 5 0 010 10zm-.25-9a.76.76 0 00-.75.75v3.68c0 .35.19.68.49.86l2.52 1.51c.34.2.78.09.98-.24a.71.71 0 00-.25-.99L16.5 8.25v-3.5a.76.76 0 00-.75-.75z" /></svg>