<svg viewBox="64 64 896 896" focusable="false" xmlns="http://www.w3.org/2000/svg"><path d="M0 0h24v24H0z" /><path d="M7.83 5H18v10.17L19.83 17H21a1 1 0 001-1 1 1 0 00-1-1h-1v-2h1a1 1 0 001-1 1 1 0 00-1-1h-1V9h1a1 1 0 001-1 1 1 0 00-1-1h-1V5a2 2 0 00-2-2H5.83l2 2zM15 10h-2l-.19-.02-.79-.79A1.23 1.23 0 0112 9V8a1 1 0 011-1h2a1 1 0 011 1v1a1 1 0 01-1 1zm-4-2v.17L9.83 7H10a1 1 0 011 1zm5 4v1.17L13.83 11H15a1 1 0 011 1zM1.39 2.81a1 1 0 000 1.41l.61.61V19c0 1.1.9 2 2 2h14l.16-.01 1.61 1.61a1 1 0 101.41-1.41L2.81 2.81a1 1 0 00-1.42 0zM4 19V6.83l2 2V11a1 1 0 001 1h2.17l1.02 1.02A1.23 1.23 0 0010 13H7a1 1 0 00-1 1v2a1 1 0 001 1h3a1 1 0 001-1v-2l-.02-.19L12 14.83V16a1 1 0 001 1H14.18l2 2H4z" /></svg>