<svg viewBox="64 64 896 896" focusable="false" xmlns="http://www.w3.org/2000/svg"><path d="M0 0h24v24H0V0z" /><path d="M7 5h10v1c0 .55.45 1 1 1s1-.45 1-1V3a2 2 0 00-2-1.99L7 1a2 2 0 00-2 2v3c0 .55.45 1 1 1s1-.45 1-1V5zm9.12 10.88l3.17-3.17a1 1 0 000-1.41l-3.17-3.17a1 1 0 00-1.42 0 1 1 0 000 1.41L17.17 12l-2.47 2.47a1 1 0 000 1.41 1 1 0 001.42 0zm-6.83-1.42L6.83 12l2.46-2.46a1 1 0 000-1.41 1 1 0 00-1.42 0L4.7 11.3a1 1 0 000 1.41l3.17 3.17a1 1 0 001.42 0 1 1 0 000-1.42zM17 19H7v-1c0-.55-.45-1-1-1s-1 .45-1 1v3c0 1.1.9 2 2 2h10a2 2 0 002-2v-3c0-.55-.45-1-1-1s-1 .45-1 1v1z" /></svg>