<svg viewBox="64 64 896 896" focusable="false" xmlns="http://www.w3.org/2000/svg"><path d="M0 0h24v24H0V0z" /><path d="M16.5 8a.5.5 0 00.5-.5v-4c0-.28-.22-.5-.5-.5s-.5.22-.5.5v4c0 .28.22.5.5.5zm-4-1c-.28 0-.5.22-.5.5s.22.5.5.5h1.95c.3 0 .55-.25.55-.55v-1.9c0-.3-.25-.55-.55-.55H13V4h1.5c.28 0 .5-.22.5-.5s-.22-.5-.5-.5h-1.95c-.3 0-.55.25-.55.55v1.89c0 .31.25.56.55.56H14v1h-1.5zm7.95-4h-1.89a.56.56 0 00-.56.55V7.5c0 .28.22.5.5.5s.5-.22.5-.5V6h1.45c.3 0 .55-.25.55-.55v-1.9c0-.3-.25-.55-.55-.55zM20 5h-1V4h1v1zm-.79 10.27l-2.54-.29a2 2 0 00-1.64.57l-1.84 1.84A15.05 15.05 0 016.6 10.8l1.85-1.85a2 2 0 00.57-1.64l-.29-2.52a2 2 0 00-1.98-1.78H5.02c-1.13 0-2.07.94-2 2.07a17 17 0 0015.89 15.89 1.98 1.98 0 002.07-2v-1.73c.01-1-.76-1.86-1.77-1.97z" /></svg>