<svg viewBox="64 64 896 896" focusable="false" xmlns="http://www.w3.org/2000/svg"><g><path d="M0 0h24v24H0z" /><path d="M0 0h24v24H0z" /></g><path d="M3 7a1 1 0 011 1v13h13c.55 0 1 .45 1 1s-.45 1-1 1H4a2 2 0 01-2-2V8a1 1 0 011-1zm12.59-5.41A2 2 0 0014.17 1H8a2 2 0 00-1.99 2L6 17a2 2 0 001.99 2H19a2 2 0 002-2V7.83c0-.53-.21-1.04-.59-1.41l-4.82-4.83zM15.5 15h-4a1 1 0 01-1-1 1 1 0 011-1h4a1 1 0 011 1 1 1 0 01-1 1zm0-6h-1v1a1 1 0 01-1 1 1 1 0 01-1-1V9h-1a1 1 0 01-1-1 1 1 0 011-1h1V6a1 1 0 011-1 1 1 0 011 1v1h1a1 1 0 011 1 1 1 0 01-1 1z" /></svg>