<svg viewBox="64 64 896 896" focusable="false" xmlns="http://www.w3.org/2000/svg"><g><path d="M0 0h24v24H0z" /><path d="M0 0h24v24H0z" /></g><path d="M10.77 15.23a1 1 0 00-.04-1.45C8.17 11.47 6.65 9.9 7.07 8.33A1.8 1.8 0 018.85 7c1.11 0 1.54.65 2.68 2h.93c1.12-1.31 1.53-2 2.68-2 .87 0 1.55.54 1.77 1.32a8.78 8.78 0 012.03.02A3.78 3.78 0 0015.15 5c-.12 0-.23.03-.35.04.26-.71.31-1.53-.18-2.43a2.99 2.99 0 00-2.12-1.57 3 3 0 00-3.3 4C9.08 5.03 8.97 5 8.85 5A3.8 3.8 0 005 8.85c0 2.23 1.73 4.01 4.4 6.41a1 1 0 001.37-.03z" /><path d="M23.52 17.25a2.83 2.83 0 00-2.01-1.36c.07-.1.15-.18.21-.28a3.8 3.8 0 00-1.41-5.26c-1.93-1.11-4.34-.5-7.75.6a1 1 0 00-.66 1.21 1 1 0 001.28.69c3.28-1.06 5.4-1.6 6.55-.45.59.59.68 1.48.26 2.21-.56.96-1.33 1-3.07 1.32l-.47.81c.58 1.62.97 2.33.39 3.32a1.82 1.82 0 01-2.53.68c-.06-.03-.11-.09-.17-.13a8 8 0 01-1.03 1.73v.01a3.83 3.83 0 005.46-1.29c.06-.1.09-.21.14-.32a3 3 0 005.11-.86c.32-.86.18-1.85-.3-2.63z" /><path d="M12.1 15.04c-.72 3.38-1.32 5.48-2.89 5.9a1.8 1.8 0 01-2.04-.88c-.56-.96-.2-1.66.39-3.32l-.46-.81c-1.7-.31-2.5-.33-3.07-1.32a1.8 1.8 0 01.68-2.53c.09-.05.19-.08.29-.11-.27-.42-.5-.87-.67-1.37l-.6-.26a3.82 3.82 0 00-1.43 5.27c.06.1.14.18.21.28A2.8 2.8 0 00.5 17.25a3.06 3.06 0 00-.3 2.63 3 3 0 005.11.86c.05.11.08.22.14.32a3.8 3.8 0 005.26 1.41c1.93-1.11 2.61-3.51 3.36-7.01a1 1 0 00-.72-1.17 1 1 0 00-1.25.75z" /></svg>