<svg viewBox="64 64 896 896" focusable="false" xmlns="http://www.w3.org/2000/svg"><g><path d="M0 0h24v24H0z" /><path d="M0 0h24v24H0z" /></g><path d="M20.08 11.42l-4.04-5.65A1.82 1.82 0 0014.56 5c-1.49 0-2.35 1.68-1.49 2.89L16 12l-2.93 4.11A1.83 1.83 0 0014.56 19c.59 0 1.15-.29 1.49-.77l4.04-5.65a1 1 0 00-.01-1.16z" /><path d="M13.08 11.42L9.05 5.77C8.7 5.29 8.15 5 7.56 5 6.07 5 5.2 6.68 6.07 7.89L9 12l-2.93 4.11A1.83 1.83 0 007.56 19c.59 0 1.15-.29 1.49-.77l4.04-5.65a1 1 0 00-.01-1.16z" /></svg>