<svg viewBox="64 64 896 896" focusable="false" xmlns="http://www.w3.org/2000/svg"><path d="M0 0h24v24H0z" /><path d="M18.5 4.5c0 1.1-.9 2-2 2s-2-.9-2-2 .9-2 2-2 2 .9 2 2zm-2.72 16.4l.76.27a6.06 6.06 0 003.91 0 .78.78 0 01.78.18.75.75 0 01-.3 1.24 7.25 7.25 0 01-4.88 0L2.7 17.72a.74.74 0 01-.45-.95c.14-.39.57-.6.96-.45l6.19 2.25 1.72-4.44-3.57-3.73A2 2 0 018 7.28l3.48-2.01a2 2 0 012.91 1.11l.33 1.08a5.02 5.02 0 002.83 3.14l.29-.89a.75.75 0 111.42.47l-.6 1.85a.99.99 0 01-1.24.65A7.03 7.03 0 0113 8.58l-2.53 1.45 2.23 2.55a2 2 0 01.36 2.04l-1.78 4.63 3.09 1.12 2.1-6.44c.46.18.94.31 1.44.41l-2.13 6.56z" /></svg>