<svg viewBox="64 64 896 896" focusable="false" xmlns="http://www.w3.org/2000/svg"><g><path d="M0 0h24v24H0z" /><path d="M0 0h24v24H0z" /></g><path d="M21 11.18V9.72c0-.47-.16-.92-.46-1.28L16.6 3.72A1.98 1.98 0 0015.06 3H3a2 2 0 00-2 2v8c0 1.1.9 2 2 2h.18C3.6 16.16 4.7 17 6 17s2.4-.84 2.82-2h8.37A3 3 0 1021 11.18zM18.4 9H16V6.12L18.4 9zM4 5h3v4H3V6a1 1 0 011-1zm2 10c-.55 0-1-.45-1-1s.45-1 1-1 1 .45 1 1-.45 1-1 1zm3-2v-2h2a1 1 0 001-1 1 1 0 00-1-1H9V5h4a1 1 0 011 1v7H9zm11 2c-.55 0-1-.45-1-1s.45-1 1-1 1 .45 1 1-.45 1-1 1zM7 20h4v-2l6 3h-4v2z" /></svg>