<svg viewBox="64 64 896 896" focusable="false" xmlns="http://www.w3.org/2000/svg"><g><path d="M0 0h24v24H0z" /><path d="M0 0h24v24H0z" /></g><path d="M18.92 2.01A1.5 1.5 0 0017.5 1h-11a1.5 1.5 0 00-1.42 1.01L3.11 7.68c-.07.21-.11.43-.11.66v7.16a1.5 1.5 0 103 0V15h12v.5c0 .82.67 1.5 1.5 1.5.82 0 1.5-.67 1.5-1.5V8.34c0-.22-.04-.45-.11-.66l-1.97-5.67zM6.5 12a1.5 1.5 0 110-3 1.5 1.5 0 010 3zm11 0a1.5 1.5 0 110-3 1.5 1.5 0 010 3zM5 7l1.27-3.82c.14-.4.52-.68.95-.68h9.56c.43 0 .81.28.95.68L19 7H5zM7 20h4v-2l6 3h-4v2z" /></svg>