<svg viewBox="64 64 896 896" focusable="false" xmlns="http://www.w3.org/2000/svg"><g><path d="M0 0h24v24H0z" /><path d="M0 0h24v24H0z" /></g><path d="M10 5H4a1 1 0 00-1 1 1 1 0 001 1h2v3c0 .55.45 1 1 1s1-.45 1-1V7h2a1 1 0 001-1 1 1 0 00-1-1zM10 2H4c-.55 0-1 .45-1 1s.45 1 1 1h6c.55 0 1-.45 1-1s-.45-1-1-1zM20.89 13.11a1 1 0 00-1.41 0l-6.36 6.36a1 1 0 101.41 1.41l6.36-6.36a1 1 0 000-1.41z" /><circle cx="14.5" cy="14.5" r="1.5" /><circle cx="19.5" cy="19.5" r="1.5" /><path d="M15.5 11A2.5 2.5 0 0018 8.5V4h2a1 1 0 001-1 1 1 0 00-1-1h-2a1 1 0 00-1 1v3.51A2.5 2.5 0 1015.5 11zM10.45 18.09a1 1 0 10-1.41-1.41l-.71.71-.71-.71.35-.35a2.5 2.5 0 000-3.54 2.49 2.49 0 00-3.54 0 2.5 2.5 0 000 3.54l.35.35-1.06 1.06a2.5 2.5 0 103.55 3.53l1.06-1.06.71.71a1 1 0 101.41-1.41l-.71-.71.71-.71zm-4.6-3.89c.12-.12.26-.15.35-.15s.23.03.35.15c.19.2.19.51 0 .71l-.35.35-.35-.36c-.12-.12-.15-.26-.15-.35s.03-.23.15-.35zm0 5.65c-.12.12-.26.15-.35.15s-.23-.03-.35-.15c-.12-.12-.15-.26-.15-.35s.03-.23.15-.35l1.06-1.06.71.71-1.07 1.05z" /></svg>