<svg viewBox="64 64 896 896" focusable="false" xmlns="http://www.w3.org/2000/svg"><path d="M0 0h24v24H0V0z" /><path d="M15 18.5A6.48 6.48 0 019.24 15H14c.55 0 1-.45 1-1s-.45-1-1-1H8.58a6.63 6.63 0 010-2H14c.55 0 1-.45 1-1s-.45-1-1-1H9.24a6.5 6.5 0 019.18-2.53c.5.31 1.15.26 1.57-.16.58-.58.45-1.53-.25-1.96A9 9 0 006.52 9H4c-.55 0-1 .45-1 1s.45 1 1 1h2.06a8.26 8.26 0 000 2H4c-.55 0-1 .45-1 1s.45 1 1 1h2.52a9 9 0 0013.22 4.65c.69-.43.82-1.39.24-1.97a1.25 1.25 0 00-1.57-.15c-.99.62-2.15.97-3.41.97z" /></svg>