<svg viewBox="64 64 896 896" focusable="false" xmlns="http://www.w3.org/2000/svg"><path d="M0 0h24v24H0V0z" /><path d="M19.77 7.23l.01-.01-3.19-3.19a.75.75 0 00-1.06 0 .75.75 0 000 1.06l1.58 1.58a2.49 2.49 0 00-1.58 2.71 2.54 2.54 0 002.2 2.11c.47.05.88-.03 1.27-.2v7.21c0 .55-.45 1-1 1s-1-.45-1-1V14a2 2 0 00-2-2h-1V5a2 2 0 00-2-2H6a2 2 0 00-2 2v15a1 1 0 001 1h8a1 1 0 001-1v-6.5h1.5v4.86c0 1.31.94 2.5 2.24 2.63a2.5 2.5 0 002.76-2.49V9a2.5 2.5 0 00-.73-1.77zM18 10c-.55 0-1-.45-1-1s.45-1 1-1 1 .45 1 1-.45 1-1 1zM8 16.12V13.5H6.83a.5.5 0 01-.44-.74l2.67-5c.24-.45.94-.28.94.24v3h1.14a.5.5 0 01.43.75l-2.64 4.62c-.25.44-.93.26-.93-.25z" /></svg>