<svg viewBox="64 64 896 896" focusable="false" xmlns="http://www.w3.org/2000/svg"><path d="M0 0h24v24H0z" /><path d="M16 4c0-1.11.89-2 2-2s2 .89 2 2-.89 2-2 2-2-.89-2-2zm4 17v-5h1.11a1 1 0 00.95-1.32l-2.1-6.31A2 2 0 0018.06 7h-.12a2 2 0 00-1.9 1.37l-.86 2.58A3.49 3.49 0 0117 14v8h2a1 1 0 001-1zm-7.5-9.5a1.5 1.5 0 100-3 1.5 1.5 0 000 3zM5.5 6c1.11 0 2-.89 2-2s-.89-2-2-2-2 .89-2 2 .89 2 2 2zm2 15v-6H8a1 1 0 001-1V9a2 2 0 00-2-2H4a2 2 0 00-2 2v5a1 1 0 001 1h.5v6a1 1 0 001 1h2a1 1 0 001-1zm2.5-7v3a1 1 0 001 1v3a1 1 0 001 1h1a1 1 0 001-1v-3a1 1 0 001-1v-3c0-.82-.68-1.5-1.5-1.5h-2c-.82 0-1.5.68-1.5 1.5" /></svg>