<svg viewBox="64 64 896 896" focusable="false" xmlns="http://www.w3.org/2000/svg"><path d="M0 0h24v24H0z" /><path d="M21 11a1 1 0 00-1-1h-1V7l-2.29-2.29a1 1 0 00-1.41 0L14 6l-1.29-1.29a1 1 0 00-1.41 0L10 6 8.71 4.71a1 1 0 00-1.41 0L5 7v3H4a1 1 0 00-1 1 1 1 0 001 1h1v2H4a1 1 0 00-1 1 1 1 0 001 1h1v3a1 1 0 001 1h12a1 1 0 001-1v-3h1a1 1 0 001-1 1 1 0 00-1-1h-1v-2h1a1 1 0 001-1zm-5-4.17l1 1V10h-2V7.83l.41-.41.59-.59zm-4 0l.59.59.41.41V10h-2V7.83l.41-.41.59-.59zM11 14v-2h2v2h-2zm2 2v2h-2v-2h2zM7 7.83l1-1 .59.59.41.41V10H7V7.83zM7 12h2v2H7v-2zm0 4h2v2H7v-2zm10 2h-2v-2h2v2zm0-4h-2v-2h2v2z" /></svg>