<svg viewBox="64 64 896 896" focusable="false" xmlns="http://www.w3.org/2000/svg"><g><path d="M0 0h24v24H0z" /><path d="M0 0h24v24H0z" /></g><path d="M20 2H4a2 2 0 00-2 2v16c0 1.1.9 2 2 2h16a2 2 0 002-2V4a2 2 0 00-2-2zm0 17a1 1 0 01-1 1h-1v-1a1 1 0 00-1-1h-1.15A4.7 4.7 0 0017 15a3.86 3.86 0 00-1.85-3.36c-1.86-1.27-2.23-2.78-2.25-3.72a.5.5 0 00-.77-.43c-5.8 3.43-5.15 7-5.13 7.51a5.3 5.3 0 001.24 3H7a1 1 0 00-1 1v1H5a1 1 0 01-1-1V5a1 1 0 011-1h14a1 1 0 011 1v14zm-6.8-5.26c-.08-.46-.07-.85.08-1.28.54 1.21 2.15 1.64 1.98 3.18-.19 1.69-2.11 2.37-3.39 1.32a2.5 2.5 0 001.53-1.63c.12-.55-.11-1.04-.2-1.59z" /></svg>