<svg viewBox="64 64 896 896" focusable="false" xmlns="http://www.w3.org/2000/svg"><g><path d="M0 0h24v24H0z" /><path d="M0 0h24v24H0z" /></g><path d="M9 12a3 3 0 106 0 3 3 0 00-6 0z" /><path d="M8 9a1 1 0 00-1-1H5.09a7.98 7.98 0 0114.45 1.36 1 1 0 00.94.64 1 1 0 00.96-1.31A10 10 0 004 6.01V5a1 1 0 00-1-1 1 1 0 00-1 1v4a1 1 0 001 1h4a1 1 0 001-1zM16 15a1 1 0 001 1h1.91a7.98 7.98 0 01-14.45-1.36 1 1 0 00-.94-.64 1 1 0 00-.96 1.31A10 10 0 0020 17.99V19a1 1 0 001 1 1 1 0 001-1v-4a1 1 0 00-1-1h-4a1 1 0 00-1 1z" /></svg>