<svg viewBox="64 64 896 896" focusable="false" xmlns="http://www.w3.org/2000/svg"><path d="M0 0h24v24H0V0z" /><path d="M23 6V2a1 1 0 00-1-1h-4a1 1 0 00-1 1v1H7V2a1 1 0 00-1-1H2a1 1 0 00-1 1v4a1 1 0 001 1h1v10H2a1 1 0 00-1 1v4a1 1 0 001 1h4a1 1 0 001-1v-1h10v1a1 1 0 001 1h4a1 1 0 001-1v-4a1 1 0 00-1-1h-1V7h1a1 1 0 001-1zM3 3h2v2H3V3zm2 18H3v-2h2v2zm12-2H7v-1a1 1 0 00-1-1H5V7h1a1 1 0 001-1V5h10v1a1 1 0 001 1h1v10h-1a1 1 0 00-1 1v1zm4 2h-2v-2h2v2zM19 5V3h2v2h-2zm-6.06 2.65a1.02 1.02 0 00-.95-.65 1 1 0 00-.94.65l-2.77 7.33a.75.75 0 00.7 1.02c.32 0 .6-.2.71-.5l.55-1.5h3.49l.56 1.51c.11.29.39.49.71.49h.01c.53 0 .89-.53.71-1.02l-2.78-7.33zm-2.25 5.09L12 8.91l1.3 3.83h-2.61z" /></svg>