<svg viewBox="64 64 896 896" focusable="false" xmlns="http://www.w3.org/2000/svg"><path d="M0 0h24v24H0V0z" /><path d="M4 21h16c.55 0 1-.45 1-1s-.45-1-1-1H4c-.55 0-1 .45-1 1s.45 1 1 1zM3 9.21v5.59c0 .45.54.67.85.35l2.79-2.79a.5.5 0 000-.71l-2.79-2.8a.5.5 0 00-.85.36zM12 17h8c.55 0 1-.45 1-1s-.45-1-1-1h-8c-.55 0-1 .45-1 1s.45 1 1 1zM3 4a1 1 0 001 1h16c.55 0 1-.45 1-1s-.45-1-1-1H4a1 1 0 00-1 1zm9 5h8c.55 0 1-.45 1-1s-.45-1-1-1h-8c-.55 0-1 .45-1 1s.45 1 1 1zm0 4h8c.55 0 1-.45 1-1s-.45-1-1-1h-8c-.55 0-1 .45-1 1s.45 1 1 1z" /></svg>