<svg viewBox="64 64 896 896" focusable="false" xmlns="http://www.w3.org/2000/svg"><path d="M15 7.29V3a1 1 0 00-1-1h-4a1 1 0 00-1 1v4.29c0 .13.05.26.15.35l2.5 2.5c.2.2.51.2.71 0l2.5-2.5a.48.48 0 00.14-.35zM7.29 9H3a1 1 0 00-1 1v4a1 1 0 001 1h4.29c.13 0 .26-.05.35-.15l2.5-2.5a.5.5 0 000-.71l-2.5-2.5A.48.48 0 007.29 9zM9 16.71V21a1 1 0 001 1h4a1 1 0 001-1v-4.29a.47.47 0 00-.15-.35l-2.5-2.5a.5.5 0 00-.71 0l-2.5 2.5a.48.48 0 00-.14.35zm7.35-7.56l-2.5 2.5a.5.5 0 000 .71l2.5 2.5a.5.5 0 00.35.15H21a1 1 0 001-1v-4a1 1 0 00-1-1h-4.29a.45.45 0 00-.36.14z" /></svg>