<svg viewBox="64 64 896 896" focusable="false" xmlns="http://www.w3.org/2000/svg"><path d="M0 0h24v24H0z" /><path d="M19 3H5a2 2 0 00-2 2v14c0 1.1.9 2 2 2h14a2 2 0 002-2V5a2 2 0 00-2-2zm-8.5 7.5a.5.5 0 01-.5.5H8.5v2h1v-.5a.5.5 0 01.55-.5c.26.02.45.26.45.52V13a1 1 0 01-1 1h-1a1 1 0 01-1-1v-2a1 1 0 011-1H10c.28 0 .5.22.5.5zM12 10c.28 0 .5.22.5.5v3c0 .28-.22.5-.5.5s-.5-.22-.5-.5v-3c0-.28.22-.5.5-.5zm2 4a.5.5 0 01-.5-.5v-3c0-.28.22-.5.5-.5h2c.28 0 .5.22.5.5s-.22.5-.5.5h-1.5v.5h1c.28 0 .5.22.5.5s-.22.5-.5.5h-1v1a.5.5 0 01-.5.5z" /></svg>