<svg viewBox="64 64 896 896" focusable="false" xmlns="http://www.w3.org/2000/svg"><g><path d="M0 0h24v24H0z" /><path d="M0 0h24v24H0z" /></g><path d="M5 7h14a1 1 0 011 1 1 1 0 01-1 1H5a1 1 0 01-1-1 1 1 0 011-1zM5 13h14a1 1 0 001-1 1 1 0 00-1-1H5a1 1 0 00-1 1 1 1 0 001 1zM5 17h5a1 1 0 001-1 1 1 0 00-1-1H5a1 1 0 00-1 1 1 1 0 001 1zM5 21h5a1 1 0 001-1 1 1 0 00-1-1H5a1 1 0 00-1 1 1 1 0 001 1zM15.41 18.17l-.71-.71a1 1 0 10-1.41 1.41l1.42 1.42a1 1 0 001.41 0l3.17-3.17a1 1 0 10-1.41-1.41l-2.47 2.46zM4 4a1 1 0 001 1h14a1 1 0 001-1 1 1 0 00-1-1H5a1 1 0 00-1 1z" /></svg>