<svg viewBox="64 64 896 896" focusable="false" xmlns="http://www.w3.org/2000/svg"><g><path d="M0 0h24v24H0z" /><path d="M0 0h24v24H0z" /></g><path d="M10.27 12h3.46a1.5 1.5 0 001.48-1.75l-.3-1.79a2.95 2.95 0 00-5.82.01l-.3 1.79A1.5 1.5 0 0010.27 12zM1.66 11.11c-.13.26-.18.57-.1.88.16.69.76 1.03 1.53 1h1.95c.83 0 1.51-.58 1.51-1.29 0-.14-.03-.27-.07-.4-.01-.03-.01-.05.01-.08.09-.16.14-.34.14-.53 0-.31-.14-.6-.36-.82-.03-.03-.03-.06-.02-.1.07-.2.07-.43.01-.65a1.12 1.12 0 00-.99-.74.1.1 0 01-.07-.03A1.07 1.07 0 004.37 8c-.3 0-.57.1-.75.26-.03.03-.06.03-.09.02a1.24 1.24 0 00-1.7 1.03l-.03.06c-.29.26-.46.65-.41 1.05.03.22.12.43.25.6.03.02.03.06.02.09zM16.24 13.65a10.44 10.44 0 00-8.48 0A2.99 2.99 0 006 16.39V17a1 1 0 001 1h10a1 1 0 001-1v-.61c0-1.18-.68-2.26-1.76-2.74zM1.22 14.58A2.01 2.01 0 000 16.43V17a1 1 0 001 1h3.5v-1.61c0-.83.23-1.61.63-2.29a6.98 6.98 0 00-3.91.48zM22.78 14.58a6.95 6.95 0 00-3.91-.48c.4.68.63 1.46.63 2.29V18H23a1 1 0 001-1v-.57c0-.81-.48-1.53-1.22-1.85zM22 11v-.5a2 2 0 00-2-2h-2a.5.5 0 00-.39.81l.7.63A2 2 0 0020 13a2 2 0 002-2z" /></svg>