<svg viewBox="64 64 896 896" focusable="false" xmlns="http://www.w3.org/2000/svg"><path d="M0 0h24v24H0z" /><path d="M12 6c-1.1 0-2-.9-2-2s.9-2 2-2 2 .9 2 2-.9 2-2 2zm5.95-4a1 1 0 011 1.09c-.02.15-.21 4.06-3.95 5.31V21a1 1 0 01-1 1 1 1 0 01-1-1v-5h-2v5a1 1 0 01-1 1 1 1 0 01-1-1V10.1c-.3.1-.5.2-.6.3-.46.36-1.17.87-1.36 2.67-.05.52-.47.93-1 .93a1 1 0 01-1-1.07c.13-1.6.62-2.98 2.07-4.22C8.21 7.81 10 7 12 7s2.68-.46 3.48-1.06c.43-.34 1.28-.99 1.48-3.02a1 1 0 01.99-.92zM5 16h1a1 1 0 011 1v4a1 1 0 01-1 1H5a1 1 0 01-1-1v-4a1 1 0 011-1z" /></svg>