<svg viewBox="64 64 896 896" focusable="false" xmlns="http://www.w3.org/2000/svg"><g><path d="M0 0h24v24H0z" /><path d="M0 0h24v24H0z" /></g><path d="M16.48 10.41c-.39.39-1.04.39-1.43 0l-4.47-4.46-7.05 7.04-.66-.63a3 3 0 010-4.24l4.24-4.24a3 3 0 014.24 0L16.48 9a1 1 0 010 1.41zm.7-2.12a2 2 0 010 2.83c-1.27 1.27-2.61.22-2.83 0l-3.76-3.76-5.57 5.57a1 1 0 000 1.41 1 1 0 001.42 0l4.62-4.62.71.71-4.62 4.62a1 1 0 000 1.41 1 1 0 001.42 0l4.62-4.62.71.71-4.62 4.62a1 1 0 101.41 1.41l4.62-4.62.71.71-4.62 4.62a1 1 0 101.41 1.41l8.32-8.34a3 3 0 000-4.24l-4.24-4.24a3 3 0 00-4.18-.06l4.47 4.47z" /></svg>