<svg viewBox="64 64 896 896" focusable="false" xmlns="http://www.w3.org/2000/svg"><path d="M0 0h24v24H0V0z" /><path d="M10 16H7.25a.76.76 0 00-.75.75v4.5c0 .41.34.75.75.75H10c.83 0 1.5-.67 1.5-1.5v-3c0-.83-.67-1.5-1.5-1.5zm0 4.5H8v-3h2v3zM4.25 16a.76.76 0 00-.75.75V18h-2v-1.25c0-.41-.34-.75-.75-.75s-.75.34-.75.75v4.5c0 .41.34.75.75.75s.75-.34.75-.75V19.5h2v1.75c0 .41.34.75.75.75s.75-.34.75-.75v-4.5a.76.76 0 00-.75-.75zM23.25 18.5H22v-1.25c0-.41-.34-.75-.75-.75s-.75.34-.75.75v1.25h-1.25c-.41 0-.75.34-.75.75s.34.75.75.75h1.25v1.25c0 .41.34.75.75.75s.75-.34.75-.75V20h1.25c.41 0 .75-.34.75-.75s-.34-.75-.75-.75zM16.5 16h-2.75a.76.76 0 00-.75.75v4.56c0 .38.31.69.69.69h.11a.7.7 0 00.69-.69V20h1.1l.72 1.59c.11.25.36.41.63.41a.7.7 0 00.64-.97l-.48-1.13c.5-.3.9-.8.9-1.4v-1c0-.83-.67-1.5-1.5-1.5zm0 2.5h-2v-1h2v1zM11.97 5.3l-1.02 2.89h2.1L12.03 5.3z" /><path d="M12 2a6 6 0 10.01 12.01A6 6 0 0012 2zm2.44 9a.56.56 0 01-.53-.38l-.49-1.41h-2.83l-.5 1.41a.56.56 0 11-1.06-.38l2.12-5.65a.9.9 0 011.7 0l2.12 5.65a.56.56 0 01-.53.76z" /></svg>