<svg viewBox="64 64 896 896" focusable="false" xmlns="http://www.w3.org/2000/svg"><path d="M0 0h24v24H0z" /><path d="M8.5 14.5h2v1h-2zM14.5 7.5H16v3h-1.5z" /><path d="M12 2a10 10 0 100 20 10 10 0 000-20zm0 13.5c0 .6-.4 1.1-.9 1.4l.49 1.13a.7.7 0 01-.64.97.69.69 0 01-.63-.41L9.6 17H8.5v1.31a.7.7 0 01-.69.69h-.12a.7.7 0 01-.69-.69V14a1 1 0 011-1h2.5c.82 0 1.5.68 1.5 1.5v1zm-.75-3.5a.76.76 0 01-.75-.75V9.5h-2v1.75c0 .41-.34.75-.75.75a.76.76 0 01-.75-.75v-4.5c0-.41.34-.75.75-.75s.75.34.75.75V8h2V6.75c0-.41.34-.75.75-.75s.75.34.75.75v4.5c0 .41-.34.75-.75.75zm5.5 4H16v.75c0 .41-.34.75-.75.75a.76.76 0 01-.75-.75V16h-.75a.76.76 0 01-.75-.75c0-.41.34-.75.75-.75h.75v-.75c0-.41.34-.75.75-.75s.75.34.75.75v.74h.75c.41 0 .75.34.75.75v.01c0 .41-.34.75-.75.75zm.75-5.5c0 .82-.67 1.5-1.5 1.5h-2.5a.5.5 0 01-.5-.5v-5c0-.28.22-.5.5-.5H16c.83 0 1.5.68 1.5 1.5v3z" /></svg>