<svg viewBox="64 64 896 896" focusable="false" xmlns="http://www.w3.org/2000/svg"><path d="M17 20a1.9 1.9 0 01-.76-.15c-.71-.37-1.21-.88-1.71-2.38-.51-1.56-1.47-2.29-2.39-3-.79-.61-1.61-1.24-2.32-2.53A6.26 6.26 0 019 9c0-2.8 2.2-5 5-5a4.94 4.94 0 014.95 4.31c.06.4.41.69.82.69h.34c.5 0 .89-.44.83-.94A6.91 6.91 0 0014 2c-3.93 0-7 3.07-7 7 0 1.26.38 2.65 1.07 3.9a9.53 9.53 0 002.85 3.15c.81.62 1.39 1.07 1.71 2.05.6 1.82 1.37 2.84 2.73 3.55a4 4 0 005.5-2.58.84.84 0 00-.81-1.07h-.35c-.38 0-.68.27-.81.63A2 2 0 0117 20zM6.97 1.97a1.01 1.01 0 00-1.5.07 11.02 11.02 0 000 13.91 1 1 0 001.49.08.98.98 0 00.07-1.32A9.03 9.03 0 017.04 3.3a.99.99 0 00-.07-1.33zM11.5 9a2.5 2.5 0 105 0 2.5 2.5 0 00-5 0z" /></svg>