<svg viewBox="64 64 896 896" focusable="false" xmlns="http://www.w3.org/2000/svg"><path d="M0 0h24v24H0z" /><path d="M16.96 3.3a.98.98 0 01.07-1.32l.01-.01a1 1 0 011.49.08 10.97 10.97 0 01.11 13.76l-1.43-1.43a8.96 8.96 0 00-.25-11.08zM7.49 4.66A5.05 5.05 0 0110 4c2.8 0 5 2.2 5 5 0 .8-.23 1.69-.63 2.54l1.48 1.48.08-.13A8.2 8.2 0 0017 9c0-3.93-3.07-7-7-7-1.49 0-2.85.44-3.97 1.2l1.46 1.46zM10 6.5c-.21 0-.4.03-.59.08l3.01 3.01A2.5 2.5 0 0010 6.5zm10.49 13.99L3.51 3.51A1 1 0 102.1 4.92l1.42 1.42c-.2.49-.35 1-.43 1.54A.98.98 0 004.06 9h.04c.48 0 .89-.35.96-.82l.06-.23 6.62 6.62a5.72 5.72 0 00-2.27 2.9c-.5 1.5-1 2.01-1.71 2.38a2.02 2.02 0 01-2.66-1.22c-.13-.39-.53-.63-.95-.63-.66 0-1.15.64-.95 1.26a4 4 0 005.44 2.39c1.36-.71 2.13-1.73 2.73-3.55.32-.98.9-1.43 1.71-2.05l.08-.06 5.91 5.91a1 1 0 001.41 0c.4-.39.4-1.02.01-1.41z" /></svg>