<svg viewBox="64 64 896 896" focusable="false" xmlns="http://www.w3.org/2000/svg"><g><path d="M0 0h24v24H0z" /><path d="M0 0h24v24H0z" /></g><path d="M9 5v.38a7.08 7.08 0 00-6.66.79 1 1 0 00-.13 1.53l2.57 2.57h1.11v1.11A4.67 4.67 0 009 12.74V15H7a1 1 0 00-1 1v2c0 1.1.9 2 2 2h10a3 3 0 003-3V5a1 1 0 00-1-1H10a1 1 0 00-1 1zm-1.11 5.41V8.26H5.61L4.57 7.22a5.07 5.07 0 015.36 1.12l1.41 1.41-.2.2a2.7 2.7 0 01-3.25.46zM19 17c0 .55-.45 1-1 1s-1-.45-1-1v-1a1 1 0 00-1-1h-5v-2.59c.57-.23 1.1-.57 1.56-1.03l.2-.2L15.59 14H17v-1.41l-6-5.97V6h8v11z" /></svg>