<svg viewBox="64 64 896 896" focusable="false" xmlns="http://www.w3.org/2000/svg"><g><path d="M0 0h24v24H0z" /><path d="M0 0h24v24H0z" /></g><path d="M10.75 9a.76.76 0 00-.75.75V14a1 1 0 001 1h2.25c.41 0 .75-.34.75-.75s-.34-.75-.75-.75H11.5V9.75a.76.76 0 00-.75-.75zm8.29 1.5c.1.29.38.5.71.5.41 0 .75-.34.75-.75V10a1 1 0 00-1-1h-3a1 1 0 00-1 1v1.5a1 1 0 001 1H19v1h-2.04a.75.75 0 00-.71-.5.76.76 0 00-.75.75V14a1 1 0 001 1h3a1 1 0 001-1v-1.5a1 1 0 00-1-1H17v-1h2.04zM8 9.75C8 9.34 7.66 9 7.25 9s-.75.34-.75.75V11h-2V9.75c0-.41-.34-.75-.75-.75S3 9.34 3 9.75v4.5c0 .41.34.75.75.75s.75-.34.75-.75V12.5h2v1.75c0 .41.34.75.75.75s.75-.34.75-.75v-4.5z" /></svg>