<svg viewBox="64 64 896 896" focusable="false" xmlns="http://www.w3.org/2000/svg"><g><path d="M0 0h24v24H0z" /><path d="M0 0h24v24H0z" /></g><path d="M2.81 2.81a1 1 0 00-1.41 0 .99.99 0 00-.01 1.41l8.19 8.19-3 3.01c-.37.38-.58.89-.58 1.42V20c0 1.1.9 2 2 2h8a2 2 0 001.87-1.3l1.91 1.91a1 1 0 101.41-1.41L2.81 2.81zM16 19a1 1 0 01-1 1H9a1 1 0 01-1-1v-2.5l2.84-2.84L16 18.83V19zM8 5a1 1 0 011-1h6a1 1 0 011 1v2.5l-2.84 2.84 1.25 1.25 3-2.99A2 2 0 0018 7.18V4a2 2 0 00-2-2H8a2 2 0 00-1.87 1.3L8 5.17V5z" /></svg>