<svg viewBox="64 64 896 896" focusable="false" xmlns="http://www.w3.org/2000/svg"><g><path d="M0 0h24v24H0z" /><path d="M0 0h24v24H0z" /></g><path d="M21 15a1 1 0 01-1-1V9.75c0-.41.34-.75.75-.75s.75.34.75.75v3.75h1.75c.41 0 .75.34.75.75s-.34.75-.75.75H21zm-5-4.51h1v3.76c0 .41.34.75.75.75s.75-.34.75-.75V10a1 1 0 00-1-1H13a1 1 0 00-1 1v4.25c0 .41.34.75.75.75s.75-.34.75-.75V10.5h1v2.75c0 .41.34.75.75.75s.75-.34.75-.75v-2.76zM5 9.75C5 9.34 4.66 9 4.25 9s-.75.34-.75.75V11h-2V9.75c0-.41-.34-.75-.75-.75S0 9.34 0 9.75v4.5c0 .41.34.75.75.75s.75-.34.75-.75V12.5h2v1.75c0 .41.34.75.75.75s.75-.34.75-.75v-4.5zm5.25.75c.41 0 .75-.34.75-.75a.76.76 0 00-.75-.75h-3.5a.76.76 0 00-.75.75c0 .41.34.75.75.75h1v3.75c0 .41.34.75.75.75s.75-.34.75-.75V10.5h1z" /></svg>