<svg viewBox="64 64 896 896" focusable="false" xmlns="http://www.w3.org/2000/svg"><path d="M0 0h24v24H0z" /><path d="M17.5 4.5c-1.95 0-4.05.4-5.5 1.5-1.45-1.1-3.55-1.5-5.5-1.5-1.45 0-2.99.22-4.28.79A2.04 2.04 0 001 7.14v11.28a2 2 0 002.48 1.94C4.46 20.11 5.5 20 6.5 20c1.56 0 3.22.26 4.56.92.6.3 1.28.3 1.87 0 1.34-.67 3-.92 4.56-.92 1 0 2.04.11 3.02.36a1.99 1.99 0 002.48-1.94V7.14c0-.81-.49-1.52-1.22-1.85a10.74 10.74 0 00-4.27-.79zM21 17.23c0 .63-.58 1.09-1.2.98a12.6 12.6 0 00-2.3-.2c-1.7 0-4.15.65-5.5 1.5V8c1.35-.85 3.8-1.5 5.5-1.5.92 0 1.83.09 2.7.28.46.1.8.51.8.98v9.47z" /></svg>