<svg viewBox="64 64 896 896" focusable="false" xmlns="http://www.w3.org/2000/svg"><g><path d="M0 0h24v24H0z" /><path d="M0 0h24v24H0z" /></g><path d="M21 8a2 2 0 00-1.93 2.51l-3.55 3.56c-.3-.09-.74-.09-1.04 0l-2.55-2.55a2 2 0 10-3.86 0l-4.56 4.55A2 2 0 001 18c0 1.1.9 2 2 2a2 2 0 001.93-2.51l4.55-4.56c.3.09.74.09 1.04 0l2.55 2.55a2 2 0 103.86 0l3.56-3.55A2 2 0 0023 10a2 2 0 00-2-2z" /><path d="M15 9l.94-2.07L18 6l-2.06-.93L15 3l-.92 2.07L12 6l2.08.93zM3.5 11L4 9l2-.5L4 8l-.5-2L3 8l-2 .5L3 9z" /></svg>