<svg viewBox="64 64 896 896" focusable="false" xmlns="http://www.w3.org/2000/svg"><path d="M0 0h24v24H0z" /><circle cx="12" cy="3.5" r=".75" /><circle cx="12" cy="3.5" r=".75" /><circle cx="12" cy="3.5" r=".75" /><path d="M19 3h-4.18C14.4 1.84 13.3 1 12 1s-2.4.84-2.82 2H5a2 2 0 00-2 2v14a2.05 2.05 0 00.59 1.42 2 2 0 001.01.55c.13.02.26.03.4.03h14a2 2 0 002-2V5a2 2 0 00-2-2zm-8.7 11.88a1 1 0 01-1.42 0l-2.17-2.17a1 1 0 010-1.41l2.17-2.17a1 1 0 011.42 0 1 1 0 010 1.41L8.83 12l1.46 1.46a1 1 0 01.01 1.42zM12 4.25c-.41 0-.75-.34-.75-.75s.34-.75.75-.75.75.34.75.75-.34.75-.75.75zm1.7 10.63a1 1 0 010-1.41L15.17 12l-1.47-1.47a1 1 0 010-1.41 1 1 0 011.42 0l2.17 2.17a1 1 0 010 1.41l-2.17 2.17a1 1 0 01-1.42.01z" /></svg>