<svg viewBox="64 64 896 896" focusable="false" xmlns="http://www.w3.org/2000/svg"><path d="M0 0h24v24H0z" /><path d="M20.5 16.5A1.5 1.5 0 0119 15v-2.5a1.5 1.5 0 113 0V15c0 .83-.67 1.5-1.5 1.5zm0 3.5a.5.5 0 00.5-.5v-1.04a3.5 3.5 0 002.95-2.89.5.5 0 00-.49-.57.5.5 0 00-.49.41 2.5 2.5 0 01-4.94 0 .5.5 0 00-.49-.41.5.5 0 00-.5.57 3.5 3.5 0 002.95 2.89v1.04c.01.28.23.5.51.5zM9 12a4 4 0 111.34-7.77 5.94 5.94 0 000 7.54c-.42.15-.87.23-1.34.23zm-1.89 1.13A4.96 4.96 0 005 17.22V20H1v-2.78c0-1.12.61-2.15 1.61-2.66a14 14 0 014.5-1.43zM11 8a4 4 0 118 0 4 4 0 01-8 0zm7.32 12a5 5 0 01-2.18-6.95 14.03 14.03 0 00-7.53 1.51A2.97 2.97 0 007 17.22V20h11.32z" /></svg>