<svg viewBox="64 64 896 896" focusable="false" xmlns="http://www.w3.org/2000/svg"><g><path d="M0 0h24v24H0z" /><path d="M0 0h24v24H0z" /></g><path d="M15.54 10.5c.1.29.38.5.71.5.41 0 .75-.34.75-.75V10a1 1 0 00-1-1h-3a1 1 0 00-1 1v1.5a1 1 0 001 1h2.5v1h-2.04a.75.75 0 00-.71-.5.76.76 0 00-.75.75V14a1 1 0 001 1h3a1 1 0 001-1v-1.5a1 1 0 00-1-1h-2.5v-1h2.04zm-8.04 3H9V9.75c0-.41.34-.75.75-.75s.75.34.75.75v3.75c0 .83-.67 1.5-1.5 1.5H7.5A1.5 1.5 0 016 13.5v-.25c0-.41.34-.75.75-.75s.75.34.75.75v.25z" /></svg>