<svg viewBox="64 64 896 896" focusable="false" xmlns="http://www.w3.org/2000/svg"><g><path d="M0 0h24v24H0z" /><path d="M0 0h24v24H0z" /></g><path d="M12.68 6.8a1.03 1.03 0 00-1.37 0A7.06 7.06 0 009 12c0 1.15.35 3.44 2.32 5.2.39.35.98.35 1.37 0A7.06 7.06 0 0015 12c0-1.15-.35-3.44-2.32-5.2z" /><path d="M7.5 12c0-.97.23-4.16 3.03-6.5A6.83 6.83 0 008 5a7 7 0 000 14c.9 0 1.75-.19 2.53-.5A8.6 8.6 0 017.5 12zM16 5c-.9 0-1.75.19-2.53.5.61.51 1.1 1.07 1.49 1.63a5 5 0 110 9.74 8.31 8.31 0 01-1.49 1.63c.78.31 1.63.5 2.53.5a7 7 0 000-14z" /></svg>