<svg viewBox="64 64 896 896" focusable="false" xmlns="http://www.w3.org/2000/svg"><path d="M0 0h24v24H0z" /><path d="M2 22a1 1 0 011-1c.87 0 1.73-.24 2.53-.7a.95.95 0 01.94 0c1.59.9 3.48.9 5.06 0a.98.98 0 01.94 0c1.59.9 3.48.9 5.06 0a.98.98 0 01.94 0c.8.46 1.66.7 2.53.7.55 0 1 .45 1 1s-.45 1-1 1a6.38 6.38 0 01-3-.75 6.36 6.36 0 01-6.09-.05c-1.79.87-3.92.98-5.58-.14A6.37 6.37 0 013 23a1 1 0 01-1-1zM12 5.5c-1.1 0-2 .9-2 2s.9 2 2 2 2-.9 2-2-.9-2-2-2zm9.47 12.95c-.42.14-.9.28-1.41.42a4.14 4.14 0 01-1.45-.77.98.98 0 00-1.23 0c-.66.53-1.48.9-2.38.9s-1.72-.37-2.39-.91a1 1 0 00-1.22 0c-.67.54-1.49.91-2.39.91s-1.72-.37-2.39-.91a1 1 0 00-1.23 0c-.43.35-.92.62-1.45.77-.51-.14-.98-.28-1.4-.42a1 1 0 010-1.9c1.21-.39 2.79-.82 4.6-1.13l1.35-4.17a1.8 1.8 0 012.54-1.05l2.47 1.3 2.84-1.5 1.65-3.71-.36-.93a.96.96 0 01.02-.76l.74-1.68a1 1 0 011.32-.51l1.37.61a1 1 0 01.5 1.32l-.75 1.68c-.11.24-.31.43-.56.53l-.9.36-3.72 8.34c2.33.3 4.35.84 5.82 1.31.93.3.94 1.6.01 1.9zm-6.45-5.49l-.59.31c-.58.31-1.28.31-1.86 0l-.81-.43-.71 2.17L12 15c.71 0 1.4.03 2.07.08l.95-2.12z" /></svg>