<svg viewBox="64 64 896 896" focusable="false" xmlns="http://www.w3.org/2000/svg"><path d="M0 0h24v24H0V0z" /><path d="M11.05 21c.5 0 .94-.37.99-.87a9 9 0 018.08-8.08c.5-.05.88-.48.88-.99a1 1 0 00-1.1-1 11.01 11.01 0 00-9.84 9.83 1 1 0 00.99 1.11zM18 21h3v-3a3 3 0 00-3 3zm-2.91 0a1 1 0 00.98-.85c.36-2.08 2-3.72 4.08-4.08a1 1 0 00.85-.98 1 1 0 00-1.14-1 6.99 6.99 0 00-5.77 5.77 1 1 0 001 1.14zM12.97 3.02c-.5 0-.94.37-.99.87a9 9 0 01-8.08 8.08.99.99 0 00-.88.99 1 1 0 001.1 1 11.01 11.01 0 009.84-9.83 1 1 0 00-.99-1.11zm-6.94 0h-3v3a3 3 0 003-3zm2.91 0a1 1 0 00-.98.85 5.02 5.02 0 01-4.08 4.08 1 1 0 00.29 1.99 6.99 6.99 0 005.77-5.77c.09-.61-.4-1.15-1-1.15z" /></svg>