<svg viewBox="64 64 896 896" focusable="false" xmlns="http://www.w3.org/2000/svg"><path d="M0 0h24v24H0V0z" /><path d="M20.12 12.04c.5-.05.88-.48.88-.99a1 1 0 00-1.1-1c-1.5.15-2.9.61-4.16 1.3l1.48 1.48a9.1 9.1 0 012.9-.79zm.88 3.05a1 1 0 00-1.14-1c-.38.06-.75.16-1.11.28l1.62 1.62a.97.97 0 00.63-.9zM13.97 4.14a1 1 0 00-1-1.11c-.5 0-.94.37-.99.87a9.16 9.16 0 01-.79 2.91l1.48 1.48a10.9 10.9 0 001.3-4.15zm-4.04.02a1 1 0 00-1-1.14.98.98 0 00-.9.62l1.62 1.62c.13-.35.22-.72.28-1.1zm10.51 14.72L5.12 3.56a1 1 0 10-1.41 1.41l2.15 2.15c-.59.41-1.26.7-1.99.82-.48.1-.84.5-.84 1a1 1 0 001.14 1A6.98 6.98 0 007.3 8.57L8.73 10a8.89 8.89 0 01-4.81 1.99.99.99 0 00-.88.99 1 1 0 001.1 1 10.92 10.92 0 006.01-2.56l2.48 2.48a10.96 10.96 0 00-2.56 6 1 1 0 001 1.11c.5 0 .94-.37.99-.87.18-1.82.9-3.48 1.99-4.82l1.43 1.43a6.98 6.98 0 00-1.37 3.13 1 1 0 001.98.29 5 5 0 01.82-1.99l2.13 2.13a1 1 0 001.41 0c.38-.41.38-1.04-.01-1.43z" /></svg>