<svg viewBox="64 64 896 896" focusable="false" xmlns="http://www.w3.org/2000/svg"><g><path d="M0 0h24v24H0z" /><path d="M0 0h24v24H0z" /></g><path d="M21.34 6.77a1 1 0 00-1.45.04l-3.33 3.74-5.65-5.24a2 2 0 00-2.77.05L2.7 10.81a1 1 0 000 1.41l.09.09a1 1 0 001.41 0l5.44-5.45 5.59 5.19L13.5 14l-2.58-2.58a2 2 0 00-2.83 0L2.7 16.8a1 1 0 000 1.41l.1.09a1 1 0 001.41 0l5.3-5.3 2.5 2.5a2 2 0 002.91-.09l1.78-2.01 3.19 2.96a1 1 0 001.38-.03l.01-.01a.99.99 0 00-.03-1.43l-3.22-2.99 3.35-3.77a1 1 0 00-.04-1.36z" /></svg>