<svg viewBox="64 64 896 896" focusable="false" xmlns="http://www.w3.org/2000/svg"><path d="M0 0h24v24H0V0z" /><path d="M20 12a2 2 0 011.06-1.76c.6-.33.94-1.01.94-1.7V6a2 2 0 00-2-2H4c-1.1 0-1.99.89-1.99 1.99v2.55c0 .69.33 1.37.94 1.69C3.58 10.58 4 11.24 4 12s-.43 1.43-1.06 1.76c-.6.33-.94 1.01-.94 1.7V18c0 1.1.9 2 2 2h16a2 2 0 002-2v-2.54c0-.69-.34-1.37-.94-1.7A2 2 0 0120 12zm-5.5 4.1L12 14.5l-2.5 1.61c-.38.24-.87-.11-.75-.55l.75-2.88-2.3-1.88a.5.5 0 01.29-.89l2.96-.17 1.08-2.75c.17-.42.77-.42.93 0l1.08 2.76 2.96.17c.45.03.64.6.29.89l-2.3 1.88.76 2.86a.5.5 0 01-.75.55z" /></svg>