<svg viewBox="64 64 896 896" focusable="false" xmlns="http://www.w3.org/2000/svg"><path d="M0 0h24v24H0V0z" /><path d="M3 14h2a1 1 0 011 1 1 1 0 01-1 1H2a1 1 0 01-1-1V9a1 1 0 011-1 1 1 0 011 1v5zm3-4h1v5a1 1 0 001 1 1 1 0 001-1v-5h1a1 1 0 001-1 1 1 0 00-1-1H6a1 1 0 00-1 1 1 1 0 001 1zm7 6h3a1 1 0 001-1 1 1 0 00-1-1h-2v-1h2a1 1 0 001-1 1 1 0 00-1-1h-2v-1h2a1 1 0 001-1 1 1 0 00-1-1h-3a1 1 0 00-1 1v6a1 1 0 001 1zm10-5h-1v-1a1 1 0 00-1-1 1 1 0 00-1 1v1h-1a1 1 0 00-1 1 1 1 0 001 1h1v1a1 1 0 001 1 1 1 0 001-1v-1h1a1 1 0 001-1 1 1 0 00-1-1z" /></svg>