<svg viewBox="64 64 896 896" focusable="false" xmlns="http://www.w3.org/2000/svg"><path d="M0 0h24v24H0z" /><path d="M12 4a8 8 0 11-3.43 15.22 1.96 1.96 0 00-1.42-.11l-2.31.68a.5.5 0 01-.63-.63l.7-2.39c.13-.45.07-.92-.14-1.35A7.98 7.98 0 0112 4m0-2a10 10 0 00-9.03 14.29l-1.46 4.96a1 1 0 001.25 1.23l4.96-1.46a9.93 9.93 0 005.58.89 10.08 10.08 0 008.66-8.92A10.01 10.01 0 0012 2z" /><path d="M12 8a1 1 0 00-1 1v2H9a1 1 0 00-1 1 1 1 0 001 1h2v2a1 1 0 001 1 1 1 0 001-1v-2h2a1 1 0 001-1 1 1 0 00-1-1h-2V9a1 1 0 00-1-1z" fill-rule="evenodd" /></svg>