<svg viewBox="64 64 896 896" focusable="false" xmlns="http://www.w3.org/2000/svg"><path d="M0 0h24v24H0z" /><path d="M14 6a2 2 0 012.42-1.96c.94.2 1.58 1.09 1.58 2.05v9.08l2 2V6.16c0-2.08-1.68-4.03-3.76-4.15A4 4 0 0012 6v3.17l2 2V6zM10 5a3 3 0 00-4.67-2.5l4.15 4.15C9.8 6.18 10 5.61 10 5zM1.39 2.81a1 1 0 000 1.41L5.17 8H5.1c-.59 0-1.05.51-1 1.1l.85 8.45a.5.5 0 00.5.45H6a4 4 0 004.39 3.98A4.12 4.12 0 0014 17.83v-1l5.78 5.78a1 1 0 101.41-1.41L2.81 2.81a1 1 0 00-1.42 0zM12 17.91c0 .96-.64 1.86-1.58 2.05A2 2 0 018 18h.55a.5.5 0 00.5-.45l.52-5.16L12 14.83v3.08z" /></svg>