<svg viewBox="64 64 896 896" focusable="false" xmlns="http://www.w3.org/2000/svg"><g><path d="M0 0h24v24H0z" /><path d="M0 0h24v24H0z" /></g><path d="M14.17 13.71l1.4-2.42a.35.35 0 00-.08-.45l-1.48-1.16a5.06 5.06 0 000-1.37l1.48-1.16c.13-.11.17-.3.08-.45l-1.4-2.42c-.09-.15-.27-.21-.43-.15l-1.74.7a5.14 5.14 0 00-1.18-.69l-.26-1.85a.36.36 0 00-.35-.29h-2.8a.36.36 0 00-.35.3L6.8 4.15c-.42.18-.82.41-1.18.69l-1.74-.7a.35.35 0 00-.43.15l-1.4 2.42a.35.35 0 00.08.45l1.48 1.16a5.06 5.06 0 000 1.37l-1.48 1.16a.35.35 0 00-.08.45l1.4 2.42c.09.15.27.21.43.15l1.74-.7c.36.28.75.51 1.18.69l.26 1.85c.03.16.18.29.35.29h2.8c.17 0 .32-.13.35-.3l.26-1.85c.42-.18.82-.41 1.18-.69l1.74.7c.16.06.34 0 .43-.15zM8.81 11a2 2 0 01-2-2c0-1.1.9-2 2-2s2 .9 2 2a2 2 0 01-2 2zM21.92 18.67l-.96-.74c.02-.14.04-.29.04-.44 0-.15-.01-.3-.04-.44l.95-.74a.23.23 0 00.05-.29l-.9-1.55c-.05-.1-.17-.13-.28-.1l-1.11.45a3.02 3.02 0 00-.76-.44l-.17-1.18a.22.22 0 00-.21-.2h-1.79c-.11 0-.21.08-.22.19l-.17 1.18c-.27.12-.53.26-.76.44l-1.11-.45a.23.23 0 00-.28.1l-.9 1.55c-.05.1-.04.22.05.29l.95.74a3.15 3.15 0 000 .88l-.95.74a.23.23 0 00-.05.29l.9 1.55c.05.1.17.13.28.1l1.11-.45c.23.18.48.33.76.44l.17 1.18c.02.11.11.19.22.19h1.79c.11 0 .21-.08.22-.19l.17-1.18c.27-.12.53-.26.75-.44l1.12.45c.1.04.22 0 .28-.1l.9-1.55c.06-.09.03-.21-.05-.28zm-4.29.16a1.35 1.35 0 110-2.7 1.35 1.35 0 010 2.7z" /></svg>