<svg viewBox="64 64 896 896" focusable="false" xmlns="http://www.w3.org/2000/svg"><g><path d="M0 0h24v24H0z" /><path d="M0 0h24v24H0z" /></g><path d="M3.01 13.28A4.99 4.99 0 017.08 8.1l-.79.78a1 1 0 101.41 1.41l2.59-2.59a1 1 0 000-1.41L7.71 3.7A1 1 0 106.3 5.11l.88.88v.06a7 7 0 00-6.15 7.47C1.29 17.22 4.55 20 8.26 20H10a1 1 0 001-1 1 1 0 00-1-1H8.22a5.14 5.14 0 01-5.21-4.72zM13 15v3c0 1.1.9 2 2 2h5a2 2 0 002-2v-3a2 2 0 00-2-2h-5a2 2 0 00-2 2zm7 3h-5v-3h5v3zM20 4h-5a2 2 0 00-2 2v3c0 1.1.9 2 2 2h5a2 2 0 002-2V6a2 2 0 00-2-2z" /></svg>