<svg viewBox="64 64 896 896" focusable="false" xmlns="http://www.w3.org/2000/svg"><path d="M0 0h24v24H0z" /><path d="M17 5.21a.5.5 0 01.85-.35l2.79 2.79c.2.2.2.51 0 .71l-2.79 2.79a.5.5 0 01-.85-.36V9h-3a1 1 0 01-1-1 1 1 0 011-1h3V5.21zM10 7c-.55 0-1 .45-1 1s.45 1 1 1 1-.45 1-1-.45-1-1-1zM6 7c-.55 0-1 .45-1 1s.45 1 1 1 1-.45 1-1-.45-1-1-1zm1 10h3a1 1 0 001-1 1 1 0 00-1-1H7v-1.79a.5.5 0 00-.85-.35l-2.79 2.79a.5.5 0 000 .71l2.79 2.79a.5.5 0 00.85-.36V17zm7 0a1 1 0 001-1c0-.55-.45-1-1-1s-1 .45-1 1a1 1 0 001 1zm4 0a1 1 0 001-1c0-.55-.45-1-1-1s-1 .45-1 1a1 1 0 001 1z" /></svg>