<svg viewBox="64 64 896 896" focusable="false" xmlns="http://www.w3.org/2000/svg"><path d="M0 0h24v24H0z" /><path d="M8 20c0 1.1-.9 2-2 2s-2-.9-2-2 .9-2 2-2 2 .9 2 2zm6.3-15.9a8.9 8.9 0 00-7.76-.39l4.37 4.37L14.3 4.1zm6.19 17.8a1 1 0 000-1.41l-9.82-9.82-7.16-7.16A1 1 0 102.1 4.92l7.26 7.26L6.7 15.3a1 1 0 00.76 1.65h6.66l1.17 1.17a2 2 0 102.56 2.56l1.2 1.2c.41.41 1.04.41 1.44.02zM17 6.27c.58-.68.97-1.27 1.65-1.27.68 0 1.22.52 1.33 1.21A1 1 0 0021.96 6l-.01-.16v-.01A3.4 3.4 0 0018.65 3c-1.66 0-2.54 1.27-3.18 2.03l-3.5 4.11L17 14.17v-7.9z" /></svg>