<svg viewBox="64 64 896 896" focusable="false" xmlns="http://www.w3.org/2000/svg"><g><path d="M0 0h24v24H0z" /><path d="M0 0h24v24H0z" /></g><path d="M11.5 17h1a.5.5 0 00.5-.5.5.5 0 00-.5-.5h-1a.5.5 0 00-.5.5c0 .28.22.5.5.5zM11.52 11.06a1.98 1.98 0 00-.52 3.66v.53c0 .14.11.25.25.25h1.5c.14 0 .25-.11.25-.25v-.53c.6-.35 1-.98 1-1.72a2 2 0 00-2.48-1.94z" /><path d="M18 1.01L6 1a2 2 0 00-2 2v18c0 1.1.9 2 2 2h12a2 2 0 002-2V3a2 2 0 00-2-1.99zM18 18H6V6h12v12z" /><path d="M15.33 15.27c.36.36.99.26 1.21-.2a4.94 4.94 0 000-4.14.75.75 0 00-1.21-.2.75.75 0 00-.15.84 3.43 3.43 0 010 2.86.76.76 0 00.15.84zM8.67 15.27a.75.75 0 00.15-.84A3.5 3.5 0 0112 9.5v.69c0 .22.25.33.42.19l1.62-1.44a.25.25 0 000-.37l-1.62-1.44c-.17-.15-.42-.04-.42.18V8a5 5 0 00-4.54 7.07c.22.47.84.57 1.21.2z" /></svg>