<svg viewBox="64 64 896 896" focusable="false" xmlns="http://www.w3.org/2000/svg"><path d="M0 0h24v24H0z" /><path d="M16.79 5.8l-1.94-1.94a.5.5 0 01.36-.86h5.29c.28 0 .5.22.5.5v5.29a.5.5 0 01-.85.35L18.21 7.2l-4.09 4.09-1.41-1.41 4.08-4.08zM19 13v3.17l2 2V13a1 1 0 00-1-1 1 1 0 00-1 1zm.07 8.9l-.9-.9H5a2 2 0 01-2-2V5.83l-.9-.9a1 1 0 111.41-1.41l16.97 16.97a1 1 0 11-1.41 1.41zm-2.9-2.9l-4.88-4.88-.88.88A1 1 0 119 13.59l.88-.88L5 7.83V19h11.17zM7.83 5H11a1 1 0 001-1 1 1 0 00-1-1H5.83l2 2z" /></svg>