<svg viewBox="64 64 896 896" focusable="false" xmlns="http://www.w3.org/2000/svg"><g><path d="M0 0h24v24H0z" /><path d="M0 0h24v24H0z" /></g><path d="M17 22a3 3 0 10-2.82-4H9.14l1.99-3.06a6.36 6.36 0 001.74 0l1.02 1.57c.42-.53.96-.95 1.6-1.21l-.6-.93a7 7 0 004.02-5.24c.1-.59-.39-1.13-.99-1.13H6.08a1 1 0 00-.99 1.14 7.01 7.01 0 004.02 5.24l-3.95 6.08a1 1 0 001.67 1.09l1-1.55h6.34c.43 1.16 1.53 2 2.83 2zm0-4a1 1 0 011 1c0 .55-.45 1-1 1s-1-.45-1-1a1 1 0 011-1zM9.5 6.47c-.02.28.18.53.46.53H10c.24 0 .44-.18.46-.42.1-.87.04-1.39-.94-2.54-.36-.43-.6-.69-.53-1.55.03-.26-.19-.49-.46-.49h-.05a.48.48 0 00-.47.43c-.08.93.2 1.74.95 2.53.19.21.64.56.54 1.51zM11.99 6.47c-.03.28.18.53.46.53h.03c.24 0 .44-.18.46-.42.1-.87.04-1.39-.94-2.54-.36-.43-.61-.69-.53-1.55.03-.26-.19-.49-.46-.49h-.05a.48.48 0 00-.47.43c-.08.93.2 1.74.95 2.53.19.21.64.56.55 1.51zM14.5 6.47c-.02.28.18.53.46.53H15c.24 0 .44-.18.46-.42.1-.87.04-1.39-.94-2.54-.36-.43-.61-.69-.53-1.55.03-.26-.19-.49-.46-.49h-.05a.48.48 0 00-.47.43c-.08.93.2 1.74.95 2.53.19.21.64.56.54 1.51z" /></svg>