<svg viewBox="64 64 896 896" focusable="false" xmlns="http://www.w3.org/2000/svg"><path d="M0 0h24v24H0z" /><path d="M12 17c-1.1 0-2-.9-2-2s.9-2 2-2 2 .9 2 2-.9 2-2 2zm5.95-3a1 1 0 00-.99.92c-.2 2.03-1.05 2.68-1.48 3.02C14.68 18.54 14 19 12 19s-2.68-.46-3.48-1.06c-.43-.34-1.28-.99-1.48-3.02a1 1 0 10-1.99.17 6.2 6.2 0 002.24 4.41c.5.4 1.1.7 1.7.9L9 24h6v-3.6c.6-.2 1.2-.5 1.7-.9a6.14 6.14 0 002.24-4.41 1 1 0 00-.99-1.09zM12 0C5.92 0 1 1.9 1 4.25v3.49a1 1 0 001.56.83c.14-.09.28-.18.44-.26L5 13h2l1.5-6.28a27.85 27.85 0 017 0L17 13h2l2-4.69.44.26A1 1 0 0023 7.74V4.25C23 1.9 18.08 0 12 0zM5.88 11.24L4.37 7.69a17 17 0 012.53-.71l-1.02 4.26zm12.24 0L17.1 6.98a17 17 0 012.53.71l-1.51 3.55z" /></svg>