<svg viewBox="64 64 896 896" focusable="false" xmlns="http://www.w3.org/2000/svg"><path d="M0 0h24v24H0z" /><path d="M14.54 17.37a16.87 16.87 0 01-9.45 3.61 1.98 1.98 0 01-2.07-2v-1.73a1.98 1.98 0 011.76-1.98l2.54-.29a2 2 0 011.64.57l1.84 1.84c.81-.41 1.59-.9 2.31-1.45L2.1 4.93a1 1 0 010-1.41 1 1 0 011.42 0L20.49 20.5a1 1 0 11-1.41 1.41l-4.54-4.54zm2.85-6.57l-1.85-1.85a2 2 0 01-.57-1.64l.29-2.52a2 2 0 011.99-1.77h1.73c1.13 0 2.07.94 2 2.07a16.94 16.94 0 01-3.62 9.47l-1.43-1.43c.55-.73 1.04-1.51 1.46-2.33z" /></svg>