<svg viewBox="64 64 896 896" focusable="false" xmlns="http://www.w3.org/2000/svg"><g><path d="M0 0h24v24H0z" /><path d="M0 0h24v24H0z" /></g><path d="M6.5 10.5h-2v1h2v-1zm13.5 0h-2v1h2v-1zm-7 2h-2v1.75c0 .41-.34.75-.75.75s-.75-.34-.75-.75v-4.5c0-.41.34-.75.75-.75s.75.34.75.75V11h2V9.75c0-.41.34-.75.75-.75s.75.34.75.75v4.5c0 .41-.34.75-.75.75s-.75-.34-.75-.75V12.5zm5 1.75c0 .41-.34.75-.75.75s-.75-.34-.75-.75V10a1 1 0 011-1H20c.83 0 1.5.68 1.5 1.5v1c0 .82-.67 1.5-1.5 1.5h-2v1.25zM3 10a1 1 0 011-1h2.5c.83 0 1.5.68 1.5 1.5v1c0 .82-.67 1.5-1.5 1.5h-2v1.25c0 .41-.34.75-.75.75S3 14.66 3 14.25V10z" /></svg>