<svg viewBox="64 64 896 896" focusable="false" xmlns="http://www.w3.org/2000/svg"><g><path d="M0 0h24v24H0z" /><path d="M0 0h24v24H0z" /></g><path d="M13.71 21.3a1 1 0 001.41 0L17 19.41l1.89 1.89a1 1 0 101.41-1.41L18.41 18l1.89-1.89a1 1 0 10-1.41-1.41L17 16.59l-1.89-1.89a1 1 0 10-1.41 1.41L15.59 18l-1.89 1.89a1 1 0 00.01 1.41zM14 11a1 1 0 00-1-1H4c-.55 0-1 .45-1 1s.45 1 1 1h9a1 1 0 001-1zm0-4a1 1 0 00-1-1H4c-.55 0-1 .45-1 1s.45 1 1 1h9a1 1 0 001-1zM3 15a1 1 0 001 1h5c.55 0 1-.45 1-1s-.45-1-1-1H4a1 1 0 00-1 1z" /></svg>