<svg viewBox="64 64 896 896" focusable="false" xmlns="http://www.w3.org/2000/svg"><path d="M0 0h24v24H0V0z" /><path d="M17 20H4V7c0-.55-.45-1-1-1s-1 .45-1 1v13c0 1.1.9 2 2 2h13c.55 0 1-.45 1-1s-.45-1-1-1z" /><path d="M20 2H8a2 2 0 00-2 2v12c0 1.1.9 2 2 2h12a2 2 0 002-2V4a2 2 0 00-2-2zm-5.99 13c-.59 0-1.05-.47-1.05-1.05 0-.59.47-1.04 1.05-1.04.59 0 1.04.45 1.04 1.04A1.04 1.04 0 0114.01 15zm2.5-6.17c-.63.93-1.23 1.21-1.56 1.81-.08.14-.13.26-.16.49a.76.76 0 01-.75.68h-.03a.75.75 0 01-.75-.82c.03-.28.09-.57.25-.84.41-.73 1.18-1.16 1.63-1.8.48-.68.21-1.94-1.14-1.94-.61 0-1.01.32-1.26.7a.72.72 0 01-.89.25c-.42-.18-.6-.7-.34-1.07A2.95 2.95 0 0113.99 5c1.23 0 2.08.56 2.51 1.26.37.61.58 1.73.01 2.57z" /></svg>