<svg viewBox="64 64 896 896" focusable="false" xmlns="http://www.w3.org/2000/svg"><path d="M0 0h24v24H0z" /><path d="M4.14 2.69a1 1 0 000 1.41l9.67 9.67-1.41 1.41-3.54-3.53a1 1 0 10-1.41 1.41l4.24 4.24a1 1 0 001.41 0l2.12-2.12 5.89 5.89a1 1 0 101.41-1.41L5.55 2.69a1 1 0 00-1.41 0zm13.91 9.67l4.24-4.24a1 1 0 00-.01-1.42 1 1 0 00-1.41.01l-4.24 4.24 1.42 1.41zM16.64 6.7a1 1 0 00-1.41 0l-1.42 1.42 1.41 1.41 1.42-1.42a1 1 0 000-1.41zM1.79 13.06l4.95 4.95 1.41-1.41-4.95-4.95a1 1 0 10-1.41 1.41z" /></svg>