<svg viewBox="64 64 896 896" focusable="false" xmlns="http://www.w3.org/2000/svg"><g><path d="M0 0h24v24H0z" /><path d="M0 0h24v24H0z" /></g><path d="M12 2a10 10 0 100 20 10 10 0 000-20zm1.5 4a1 1 0 011 1c0 .55-.45 1-1 1s-1-.45-1-1a1 1 0 011-1zm1.91 5.91a4.6 4.6 0 01-2.32-1.66l-.41 2.35 1.19 1.3c.08.08.13.2.13.32v3.28a.5.5 0 01-.5.5.5.5 0 01-.5-.5v-3.08l-1.11-1.21-.43 2.15a.5.5 0 01-.59.39l-2.78-.57a.5.5 0 01-.39-.59.5.5 0 01.59-.39l2.29.47.96-4.89-1.54.57v1.15a.5.5 0 01-.5.5.5.5 0 01-.5-.5V10c0-.21.13-.4.33-.47l2.95-1.09a1 1 0 011.25.51c.65 1.35 1.55 1.85 2.1 2 .22.05.37.23.37.45v.04c0 .31-.29.55-.59.47z" /></svg>