<svg viewBox="64 64 896 896" focusable="false" xmlns="http://www.w3.org/2000/svg"><path d="M0 0h24v24H0z" /><path d="M11 13V3.59c0-.49-.63-.69-.91-.29l-6.54 9.41a.5.5 0 00.41.79h6.54a.5.5 0 00.5-.5zm9.99-.02C20.72 7.07 15.9 2.32 13.4 1.23c-.37-.16-.77.2-.67.59a23 23 0 01.76 5.68c0 2.44-.49 4.39-.78 5.35a.5.5 0 00.48.65h7.28c.29 0 .53-.24.52-.52zM20.62 15H3.38a1 1 0 00-.92 1.42 6.18 6.18 0 001.86 2.31c.38-.16.74-.38 1.06-.63a.98.98 0 011.23 0c.67.53 1.49.9 2.39.9.9 0 1.72-.37 2.39-.91a1 1 0 011.22 0c.67.54 1.49.91 2.39.91.9 0 1.72-.37 2.39-.91a1 1 0 011.23 0c.32.26.67.48 1.06.63a6.18 6.18 0 001.86-2.31 1 1 0 00-.92-1.41zM22 22a1 1 0 00-1-1c-.87 0-1.73-.24-2.53-.7a.95.95 0 00-.94 0c-1.59.9-3.47.9-5.06 0a.98.98 0 00-.94 0c-1.59.9-3.47.9-5.06 0a.98.98 0 00-.94 0c-.8.46-1.66.7-2.53.7a1 1 0 00-1 1 1 1 0 001 1c1.15 0 2.3-.31 3.33-.94 1.66 1.11 3.78 1.01 5.58.14a6.36 6.36 0 006.09.05c.95.5 1.97.75 3 .75a1 1 0 001-1z" /></svg>