<svg viewBox="64 64 896 896" focusable="false" xmlns="http://www.w3.org/2000/svg"><path d="M0 0h24v24H0z" /><path d="M15.5 6.5c0-.56.67-1.49 1.11-2.04.2-.25.58-.25.77 0 .44.55 1.11 1.48 1.11 2.04a1.5 1.5 0 11-2.99 0zm4 8.5a2.5 2.5 0 002.5-2.5c0-1.25-1.41-3.16-2.11-4.04a.49.49 0 00-.77 0c-.71.88-2.12 2.79-2.12 4.04a2.5 2.5 0 002.5 2.5zM12 14h-1v-1a1 1 0 00-1-1 1 1 0 00-1 1v1H8a1 1 0 00-1 1 1 1 0 001 1h1v1a1 1 0 001 1 1 1 0 001-1v-1h1a1 1 0 001-1 1 1 0 00-1-1zm4-2v8a2 2 0 01-2 2H6a2 2 0 01-2-2v-8a6 6 0 015-5.91V4H8a1 1 0 01-1-1 1 1 0 011-1h5c.61 0 1.19.11 1.72.31.67.25.83 1.13.33 1.64a1 1 0 01-1.05.23A2.81 2.81 0 0013 4h-2v2.09A6 6 0 0116 12z" /></svg>