<svg viewBox="64 64 896 896" focusable="false" xmlns="http://www.w3.org/2000/svg"><path d="M0 0h24v24H0z" /><path d="M20.41 6.41l-2.83-2.83A2 2 0 0016.17 3H5a2 2 0 00-2 2v14c0 1.1.9 2 2 2h7.4l8.6-8.6V7.83a2 2 0 00-.59-1.42zM12 18a3 3 0 110-6 3 3 0 010 6zm3-9a1 1 0 01-1 1H7a1 1 0 01-1-1V7a1 1 0 011-1h7a1 1 0 011 1v2zm4.99 7.25l1.77 1.77-4.84 4.84a.54.54 0 01-.36.14H15.5a.5.5 0 01-.5-.5v-1.06c0-.13.05-.26.15-.35l4.84-4.84zm3.26.26l-.85.85-1.77-1.77.85-.85c.2-.2.51-.2.71 0l1.06 1.06c.2.2.2.52 0 .71z" /></svg>