<svg viewBox="64 64 896 896" focusable="false" xmlns="http://www.w3.org/2000/svg"><path d="M0 0h24v24H0V0z" /><path d="M10.23 1.75a1.5 1.5 0 00-2.12 0L1.75 8.11a1.5 1.5 0 000 2.12l12.02 12.02a1.5 1.5 0 002.12 0l6.36-6.36a1.5 1.5 0 000-2.12L10.23 1.75zm3.89 18.73L3.52 9.88a1 1 0 010-1.41l4.95-4.95a1 1 0 011.41 0l10.61 10.61a1 1 0 010 1.41l-4.95 4.95c-.39.38-1.03.38-1.42-.01zM17.61 1.4a11.84 11.84 0 00-5.8-1.38c-.18 0-.26.22-.14.35l3.48 3.48 1.33-1.33a10.5 10.5 0 015.89 7.86c.06.41.44.69.86.62a.74.74 0 00.62-.86c-.6-3.8-2.96-7-6.24-8.74zM8.85 20.16l-1.33 1.33a10.5 10.5 0 01-5.89-7.86.74.74 0 00-.86-.62.74.74 0 00-.62.86A12.01 12.01 0 0012.19 24c.18 0 .26-.22.14-.35l-3.48-3.49z" /></svg>