<svg viewBox="64 64 896 896" focusable="false" xmlns="http://www.w3.org/2000/svg"><g><path d="M0 0h24v24H0z" /><path d="M0 0h24v24H0z" /></g><path d="M15.5 14h-.79l-.28-.27A6.5 6.5 0 103.03 9h2.02a4.48 4.48 0 014.06-3.98A4.6 4.6 0 0114 9.5 4.5 4.5 0 019.5 14c-.17 0-.33-.03-.5-.05v2.02l.01.01c1.8.13 3.47-.47 4.72-1.55l.27.28v.79l4.25 4.25a1.06 1.06 0 001.49-1.49L15.5 14z" /><path d="M6.12 11.17L4 13.29l-2.12-2.12a.5.5 0 00-.71 0 .5.5 0 000 .71L3.29 14l-2.12 2.12a.5.5 0 000 .71c.2.2.51.2.71 0L4 14.71l2.12 2.12c.2.2.51.2.71 0a.5.5 0 000-.71L4.71 14l2.12-2.12a.5.5 0 000-.71.51.51 0 00-.71 0z" /></svg>