<svg viewBox="64 64 896 896" focusable="false" xmlns="http://www.w3.org/2000/svg"><g><path d="M0 0h24v24H0z" /><path d="M0 0h24v24H0z" /></g><path d="M12 11a3 3 0 100-6 3 3 0 000 6zM12 12c-1.84 0-3.56.5-5.03 1.37A2 2 0 006 15.09V16a1 1 0 001 1h10a1 1 0 001-1v-.91a2 2 0 00-.97-1.72A9.84 9.84 0 0012 12zM22.11 7.79c.55-.23.78-.88.5-1.41a12.12 12.12 0 00-4.99-4.99 1.01 1.01 0 00-1.4.5 1 1 0 00.43 1.25c1.79.94 3.26 2.42 4.21 4.21.23.45.78.63 1.25.44zM7.79 1.89a1 1 0 00-1.4-.5A12.06 12.06 0 001.4 6.38c-.28.52-.05 1.18.5 1.41a.98.98 0 001.25-.43 10.11 10.11 0 014.21-4.21 1 1 0 00.43-1.26zM1.89 16.21a1 1 0 00-.5 1.4 12.1 12.1 0 005 5c.52.28 1.17.04 1.4-.5a1 1 0 00-.43-1.25 10.11 10.11 0 01-4.21-4.21 1 1 0 00-1.26-.44zM16.21 22.11a1 1 0 001.4.5 12.1 12.1 0 005-5c.28-.52.04-1.17-.5-1.4a1 1 0 00-1.25.43 10.11 10.11 0 01-4.21 4.21 1 1 0 00-.44 1.26z" /></svg>