<svg viewBox="64 64 896 896" focusable="false" xmlns="http://www.w3.org/2000/svg"><path d="M0 0h24v24H0V0z" /><path d="M8.88 9.94l.53.53c.29.29.77.29 1.06 0a.75.75 0 000-1.06l-.88-.88a1 1 0 00-1.41 0l-.89.88a.75.75 0 000 1.06c.29.29.77.29 1.06 0l.53-.53zM12 17.5c2.03 0 3.8-1.11 4.75-2.75a.5.5 0 00-.44-.75H7.69a.5.5 0 00-.44.75A5.49 5.49 0 0012 17.5zm1.53-7.03c.29.29.77.29 1.06 0l.53-.53.53.53c.29.29.77.29 1.06 0a.75.75 0 000-1.06l-.88-.88a1 1 0 00-1.41 0l-.88.88c-.3.29-.3.77-.01 1.06zM11.99 2a9.99 9.99 0 100 20 10 10 0 100-20zM12 20a8 8 0 110-16 8 8 0 010 16z" /></svg>