<svg viewBox="64 64 896 896" focusable="false" xmlns="http://www.w3.org/2000/svg"><path d="M0 0h24v24H0V0z" /><path d="M12 13.5a5.49 5.49 0 00-4.75 2.75.5.5 0 00.44.75h8.62a.5.5 0 00.44-.75A5.49 5.49 0 0012 13.5zm-3.65-2.03l.53-.53.53.53c.29.29.77.29 1.06 0a.75.75 0 000-1.06l-.53-.53.53-.53a.75.75 0 000-1.06.75.75 0 00-1.06 0l-.53.53-.53-.53a.75.75 0 00-1.06 0 .75.75 0 000 1.06l.53.53-.53.53a.75.75 0 000 1.06c.29.29.77.29 1.06 0zM11.99 2a9.99 9.99 0 100 20 10 10 0 100-20zM12 20a8 8 0 110-16 8 8 0 010 16zm3.65-11.71l-.53.53-.53-.53a.75.75 0 00-1.06 0 .75.75 0 000 1.06l.53.53-.53.53a.75.75 0 000 1.06c.29.29.77.29 1.06 0l.53-.53.53.53c.29.29.77.29 1.06 0a.75.75 0 000-1.06l-.53-.53.53-.53a.75.75 0 000-1.06.75.75 0 00-1.06 0z" /></svg>