<svg viewBox="64 64 896 896" focusable="false" xmlns="http://www.w3.org/2000/svg"><path d="M0 0h24v24H0z" /><path d="M20.3 17.6l-16.47.86a.76.76 0 01-.79-.71.76.76 0 01.71-.79l16.48-.86c.41-.02.77.3.79.71.02.41-.3.77-.72.79zm-.05 1.88H3.75a.76.76 0 00-.75.75c0 .41.34.75.75.75h16.5c.41 0 .75-.34.75-.75a.76.76 0 00-.75-.75zM22 5v7a2 2 0 01-2 2H4a2 2 0 01-2-2V5c0-1.1.9-2 2-2h16a2 2 0 012 2zm-2.88 1.09c-1.25.27-2.19 1.11-2.33 2.14a8.56 8.56 0 00-6.54-2.73 8.62 8.62 0 00-6.31 2.49.74.74 0 000 1.03 8.62 8.62 0 006.31 2.49c3.81 0 5.9-2 6.54-2.73.14 1.02 1.08 1.86 2.33 2.14.46.1.88-.28.88-.74V6.84c0-.47-.43-.85-.88-.75z" /></svg>