<svg viewBox="64 64 896 896" focusable="false" xmlns="http://www.w3.org/2000/svg"><path d="M0 0h24v24H0z" /><path d="M5 2c0-.55-.45-1-1-1s-1 .45-1 1v4H2a1 1 0 00-1 1v5h6V7a1 1 0 00-1-1H5V2zm4 14c0 1.3.84 2.4 2 2.82V22a1 1 0 001 1 1 1 0 001-1v-3.18A3 3 0 0015 16v-2H9v2zm-8 0c0 1.3.84 2.4 2 2.82V22a1 1 0 001 1 1 1 0 001-1v-3.18C6.16 18.4 7 17.3 7 16v-2H1v2zM21 6V2c0-.55-.45-1-1-1s-1 .45-1 1v4h-1a1 1 0 00-1 1v5h6V7a1 1 0 00-1-1h-1zm-8-4c0-.55-.45-1-1-1s-1 .45-1 1v4h-1a1 1 0 00-1 1v5h6V7a1 1 0 00-1-1h-1V2zm4 14c0 1.3.84 2.4 2 2.82V22a1 1 0 001 1 1 1 0 001-1v-3.18A3 3 0 0023 16v-2h-6v2z" /></svg>