<svg viewBox="64 64 896 896" focusable="false" xmlns="http://www.w3.org/2000/svg"><path d="M0 0h24v24H0z" /><path d="M8 24a1 1 0 001-1 1 1 0 00-1-1 1 1 0 00-1 1 1 1 0 001 1zm4 0a1 1 0 001-1 1 1 0 00-1-1 1 1 0 00-1 1 1 1 0 001 1zm0-22a1 1 0 00-1 1v8c0 .55.45 1 1 1s1-.45 1-1V3a1 1 0 00-1-1zm3.94 3.06l-.02.02A1 1 0 0016 6.54a5.98 5.98 0 01-2.68 10.32A6.01 6.01 0 018.01 6.53a1 1 0 00.07-1.45l-.02-.02a1 1 0 00-1.36-.04 7.98 7.98 0 003.7 13.83 8 8 0 006.89-13.84.99.99 0 00-1.35.05zM16 24a1 1 0 001-1 1 1 0 00-1-1 1 1 0 00-1 1 1 1 0 001 1z" /></svg>