<svg viewBox="64 64 896 896" focusable="false" xmlns="http://www.w3.org/2000/svg"><path d="M0 0h24v24H0z" /><path d="M15 9H9a1 1 0 00-1 1v12a1 1 0 001 1h6a1 1 0 001-1V10a1 1 0 00-1-1zm-3 5.25a1.25 1.25 0 110-2.5 1.25 1.25 0 010 2.5zM7.82 6.82c.35.35.9.38 1.3.1a4.94 4.94 0 015.76-.01c.4.28.95.26 1.3-.09a1 1 0 00-.09-1.5 6.96 6.96 0 00-8.18 0c-.49.35-.52 1.07-.09 1.5z" /><path d="M12 0C9.36 0 6.94.93 5.05 2.47a1 1 0 00-.08 1.49c.36.36.93.39 1.32.07a9.03 9.03 0 0111.41.01c.39.32.96.29 1.32-.07a1 1 0 00-.08-1.49A10.87 10.87 0 0012 0z" /></svg>