<svg viewBox="64 64 896 896" focusable="false" xmlns="http://www.w3.org/2000/svg"><g><path d="M0 0h24v24H0z" /><path d="M0 0h24v24H0z" /></g><path d="M20 2a1 1 0 00-1 1v3a1 1 0 001 1 1 1 0 001-1V3a1 1 0 00-1-1z" /><circle cx="20" cy="9" r="1" /><path d="M12 10.41l3.29-3.29a1 1 0 10-1.41-1.41L12 7.59V5a1 1 0 00-1-1 1 1 0 00-1 1v2.59L8.12 5.71a1 1 0 10-1.41 1.41L10 10.41V12H8.41L5.12 8.71a1 1 0 10-1.41 1.41L5.59 12H3a1 1 0 00-1 1 1 1 0 001 1h2.59l-1.88 1.88a1 1 0 101.41 1.41L8.41 14H10v1.59l-3.29 3.29a1 1 0 101.41 1.41L10 18.41V21a1 1 0 001 1 1 1 0 001-1v-2.59l1.88 1.88a1 1 0 101.41-1.41L12 15.59V14h1.59l3.29 3.29a1 1 0 101.41-1.41L16.41 14H19a1 1 0 001-1 1 1 0 00-1-1h-7v-1.59z" /></svg>