<svg viewBox="64 64 896 896" focusable="false" xmlns="http://www.w3.org/2000/svg"><path d="M0 0h24v24H0z" /><path d="M13 3c0-1.1.9-2 2-2s2 .9 2 2-.9 2-2 2-2-.9-2-2zM7.25 22.5c-.41 0-.75.34-.75.75s.34.75.75.75.75-.34.75-.75-.34-.75-.75-.75zm8.5 0c-.41 0-.75.34-.75.75s.34.75.75.75.75-.34.75-.75-.34-.75-.75-.75zm3.49-3.5a.72.72 0 00-.59.3 3 3 0 01-2.4 1.2H16v-4.88a2 2 0 00-.95-1.7l-3.37-2.08 1.8-2.89a6.5 6.5 0 004.39 2.96c.6.11 1.13-.39 1.13-.99a1 1 0 00-.83-.98 4.5 4.5 0 01-3.3-2.64l-.52-1.21A1.8 1.8 0 0012.7 5H8.11c-.69 0-1.33.36-1.7.94L5.03 8.15a1 1 0 001.7 1.06L8.1 7h2.35l-2.4 3.84a2 2 0 00-.21 1.67l1.34 4.15-3.12 3.76c-.7-.16-1.3-.57-1.71-1.12a.75.75 0 10-1.2.9 4.47 4.47 0 003.6 1.8h9.5c1.47 0 2.78-.7 3.6-1.8.1-.14.15-.3.15-.45a.76.76 0 00-.76-.75zM14 20.5H8.6l2.21-2.67c.43-.52.57-1.21.37-1.86l-.68-2.27 3.5 2.2v4.6z" /></svg>