<svg viewBox="64 64 896 896" focusable="false" xmlns="http://www.w3.org/2000/svg"><path d="M0 0h24v24H0z" /><path d="M14 4.5c0 1.1-.9 2-2 2s-2-.9-2-2 .9-2 2-2 2 .9 2 2zm4.92 14.74a.75.75 0 01-.95.48l-2.61-.85-.46 1.43 3.32 1.08a2.5 2.5 0 003.15-1.61 2.52 2.52 0 00-1.07-2.91.76.76 0 01-.3-.95c.2-.44.71-.57 1.12-.31a4 4 0 01-3.36 7.19L1.74 17.6a.78.78 0 01-.52-.93.75.75 0 01.95-.5l3.22 1.05.46-1.43-3.19-1.04a.78.78 0 01-.52-.93.75.75 0 01.95-.5l.91.28v-2.78c0-.8.48-1.52 1.21-1.84l4.26-1.83a1.8 1.8 0 011.35-.04 1.83 1.83 0 011.07 2.28l-1.04 3.2 2.15-.34a2 2 0 012.14 1.14l2.08 4.51 1.22.4c.4.12.61.54.48.94zM6 14.25l1.01.33a1.79 1.79 0 01-.12-1.4L7.92 10 6 10.82v3.43zm7.94 4.16l-6.66-2.16-.46 1.43 6.66 2.16.46-1.43zm.69-1.36l-1.18-2.56-3.97.89 5.15 1.67z" /></svg>