<svg viewBox="64 64 896 896" focusable="false" xmlns="http://www.w3.org/2000/svg"><path d="M10 8.5v7c0 .41.47.65.8.4l4.67-3.5a.5.5 0 000-.8L10.8 8.1a.5.5 0 00-.8.4zm1-5.27a1 1 0 00-1.21-.99c-1.12.26-2.18.7-3.12 1.3a1 1 0 001.05 1.71 7.8 7.8 0 012.54-1.05c.44-.1.74-.51.74-.97zM5.1 6.51a1 1 0 00-1.55.16c-.6.94-1.04 2-1.3 3.12A1 1 0 003.23 11c.45 0 .87-.3.96-.74.2-.91.57-1.77 1.05-2.53a.97.97 0 00-.14-1.22zM3.23 13a1 1 0 00-.99 1.21c.26 1.12.7 2.17 1.3 3.12a1 1 0 001.55.16c.32-.32.4-.83.15-1.21a7.66 7.66 0 01-1.05-2.53.96.96 0 00-.96-.75zm3.44 7.45c.95.6 2 1.04 3.12 1.3a1 1 0 001.21-.98c0-.45-.3-.87-.74-.96a7.97 7.97 0 01-2.53-1.05.97.97 0 00-1.21.16.97.97 0 00.15 1.53zM22 12c0 4.73-3.3 8.71-7.73 9.74a1 1 0 01-.47-1.95 8 8 0 000-15.58.99.99 0 01-.75-.97 1 1 0 011.22-.98A10.01 10.01 0 0122 12z" /></svg>