<svg viewBox="64 64 896 896" focusable="false" xmlns="http://www.w3.org/2000/svg"><path d="M10 11h2.63l-3.72 4.35A1 1 0 009.67 17H14c.55 0 1-.45 1-1s-.45-1-1-1h-2.63l3.72-4.35A1 1 0 0014.33 9H10c-.55 0-1 .45-1 1s.45 1 1 1zm11.3-4.58a1 1 0 01-1.41.13l-3.07-2.56a1 1 0 01-.12-1.41 1 1 0 011.41-.13l3.07 2.56a1 1 0 01.12 1.41zm-18.6 0c.35.43.98.48 1.4.13l3.07-2.56a1 1 0 00.13-1.41.99.99 0 00-1.4-.13L2.82 5.01a1 1 0 00-.12 1.41zM12 6a7 7 0 11-.02 14.02A7 7 0 0112 6m0-2a9 9 0 100 18 9 9 0 000-18z" /></svg>