<svg viewBox="64 64 896 896" focusable="false" xmlns="http://www.w3.org/2000/svg"><g><path d="M0 0h24v24H0z" /><path d="M0 0h24v24H0z" /></g><path d="M3.33 16H11v-3H5.6a2 2 0 00-1.95 1.57L3.33 16zM13 16h7.67l-.32-1.43A2 2 0 0018.4 13H13v3zM21.11 18H13v4h6.51a2 2 0 001.95-2.43L21.11 18zM4.49 22H11v-4H2.89l-.35 1.57A2 2 0 004.49 22zM12 8a1 1 0 00-1 1v1a1 1 0 001 1 1 1 0 001-1V9a1 1 0 00-1-1zM18.59 8.62a1 1 0 000-1.41l-.71-.71a1 1 0 10-1.41 1.41l.71.71a1 1 0 001.41 0zM6.82 8.62l.71-.71A1 1 0 106.12 6.5l-.71.7a1 1 0 000 1.41c.39.4 1.02.4 1.41.01zM5 2H4a1 1 0 00-1 1 1 1 0 001 1h1a1 1 0 001-1 1 1 0 00-1-1zM20 2h-1a1 1 0 00-1 1 1 1 0 001 1h1a1 1 0 001-1 1 1 0 00-1-1zM12 7a5 5 0 005-5H7a5 5 0 005 5z" /></svg>