<svg viewBox="64 64 896 896" focusable="false" xmlns="http://www.w3.org/2000/svg"><path d="M0 0h24v24H0V0z" /><path d="M15.49 9.63a11.88 11.88 0 00-2.64-6.76 1 1 0 00-1.57 0 12.1 12.1 0 00-2.77 6.76c1.28.68 2.46 1.56 3.49 2.63a14.36 14.36 0 013.49-2.63zm-6.5 2.65l-.45-.29c.15.11.31.19.45.29zm6.42-.25c-.13.09-.27.16-.4.26.13-.1.27-.17.4-.26zM12 15.45a11.97 11.97 0 00-8.83-5.39 1.02 1.02 0 00-1.11 1.11 12.18 12.18 0 009.95 10.84 12.16 12.16 0 009.95-10.84 1.02 1.02 0 00-1.11-1.11c-3.71.36-6.9 2.42-8.85 5.39z" /></svg>