<svg viewBox="64 64 896 896" focusable="false" xmlns="http://www.w3.org/2000/svg"><g><path d="M0 0h24v24H0z" /><path d="M0 0h24v24H0z" /></g><circle cx="10" cy="9" r="4" /><path d="M16.39 15.56A14.03 14.03 0 0010 14c-2.53 0-4.71.7-6.39 1.56A2.97 2.97 0 002 18.22V19c0 1.1.9 2 2 2h12a2 2 0 002-2v-.78c0-1.12-.61-2.15-1.61-2.66zM21.11 1.85a1 1 0 00-1.5-.09 1 1 0 00-.09 1.3c1.17 1.5 2.64 5.23 0 8.61a1 1 0 00.09 1.3 1 1 0 001.5-.09c1.5-1.93 3.35-6.72 0-11.03zM18.31 4.84a1.01 1.01 0 00-1.58-.21c-.33.33-.36.84-.13 1.25.25.44.74 1.69-.01 2.99a1 1 0 00.14 1.22 1 1 0 001.58-.22 5.08 5.08 0 000-5.03z" /></svg>