<svg viewBox="64 64 896 896" focusable="false" xmlns="http://www.w3.org/2000/svg"><path d="M0 0h24v24H0z" /><path d="M7.76 7.83l.02.02a1 1 0 001.3.09 5.1 5.1 0 015.84.01 1 1 0 001.3-.09l.02-.02c.42-.42.39-1.14-.09-1.49a7.03 7.03 0 00-8.29-.01.99.99 0 00-.1 1.49z" /><path d="M12 1c-2.62 0-5.03.93-6.92 2.47A1 1 0 005 4.96c.36.36.93.39 1.32.07a8.96 8.96 0 0111.37 0c.39.32.96.29 1.32-.07a1 1 0 00-.08-1.49A10.98 10.98 0 0012 1zM15 10H9a1 1 0 00-1 1v10a1 1 0 001 1h5.99a1 1 0 001-1L16 11a1 1 0 00-1-1zm0 10H9v-8h6v8z" /></svg>