<svg viewBox="64 64 896 896" focusable="false" xmlns="http://www.w3.org/2000/svg"><g><path d="M0 0h24v24H0z" /><path d="M0 0h24v24H0z" /></g><path d="M17.66 17.66l-.71.71a.5.5 0 01-.71 0 .5.5 0 010-.71l.71-.71-1.94-1.94-.71.71a.5.5 0 01-.71 0 .5.5 0 010-.71l.71-.71-1.94-1.94-.71.71a.5.5 0 01-.71 0 .5.5 0 010-.71l.71-.71L9.7 9.7l-.71.71a.5.5 0 01-.71 0 .5.5 0 010-.71l.71-.71-1.94-1.94-.71.71a.5.5 0 01-.71 0 .5.5 0 010-.71l.71-.71-1.49-1.49a.5.5 0 00-.85.36V18c0 1.1.9 2 2 2h12.79a.5.5 0 00.35-.85l-1.48-1.49zM7 16v-4.76L12.76 17H8a1 1 0 01-1-1z" /></svg>