<svg viewBox="64 64 896 896" focusable="false" xmlns="http://www.w3.org/2000/svg"><path d="M0 0h24v24H0z" /><circle cx="20" cy="12" r="2" /><circle cx="4" cy="12" r="2" /><circle cx="12" cy="20" r="2" /><path d="M7.89 14.65l-2.94 2.93a1 1 0 101.41 1.41l2.94-2.93a1 1 0 10-1.41-1.41zM6.41 4.94A1 1 0 105 6.35l2.93 2.94a1 1 0 001.42 0 1 1 0 00-.01-1.41L6.41 4.94zM16.12 14.65a1 1 0 00-1.42 0 1 1 0 000 1.41L17.64 19a1 1 0 101.41-1.41l-2.93-2.94zM16.06 9.33l2.99-2.98a1 1 0 000-1.42 1 1 0 00-1.41 0l-2.99 2.98a1 1 0 000 1.42 1 1 0 001.41 0z" /><circle cx="12" cy="4" r="2" /></svg>