<svg viewBox="64 64 896 896" focusable="false" xmlns="http://www.w3.org/2000/svg"><path d="M0 0h24v24H0z" /><path d="M10.51 12.73L7.3 7.72C6.82 6.97 7.35 6 8.23 6c.39 0 .74.2.95.53l2.76 4.46h.12l2.74-4.45c.2-.34.56-.54.95-.54.88 0 1.42.98.94 1.72l-3.23 5 3.55 5.55c.49.75-.05 1.73-.93 1.73-.38 0-.74-.2-.95-.52l-3.07-4.89h-.12l-3.07 4.89c-.21.32-.56.52-.95.52-.88 0-1.42-.97-.94-1.72l3.53-5.55zM23 8.5a.5.5 0 00-.5-.5H20V7h2a1 1 0 001-1V5a1 1 0 00-1-1h-2.5a.5.5 0 00-.5.5c0 .28.22.5.5.5H22v1h-2a1 1 0 00-1 1v1a1 1 0 001 1h2.5a.5.5 0 00.5-.5z" /></svg>