<svg viewBox="64 64 896 896" focusable="false" xmlns="http://www.w3.org/2000/svg"><path d="M0 0h24v24H0z" /><path d="M12 1C7.19 1 3.7 3.39 2.41 5.92A.75.75 0 003.09 7c.28 0 .54-.15.66-.4.98-1.91 3.83-4.1 8.25-4.1 3.03 0 5.79 1.14 7.91 3h-2.16c-.41 0-.75.34-.75.75s.34.75.75.75H21a1 1 0 001-1V2.75c0-.41-.34-.75-.75-.75s-.75.34-.75.75v1.27A13.41 13.41 0 0012 1zM5.2 17.43c0-.65.6-1.13 1.24-.99l3.56.8V6.5a1.5 1.5 0 113 0v6h.91c.31 0 .62.07.89.21l4.09 2.04a2 2 0 011.09 2.07l-.63 4.46A2 2 0 0117.37 23h-6.16c-.53 0-1.29-.21-1.66-.59l-4.07-4.29a.98.98 0 01-.28-.69z" /></svg>