<svg viewBox="64 64 896 896" focusable="false" xmlns="http://www.w3.org/2000/svg"><path d="M0 0h24v24H0z" /><path d="M21 18a1 1 0 001-1v-1h1a1 1 0 001-1 1 1 0 00-1-1h-1v-1a1 1 0 00-1-1 1 1 0 00-1 1v1h-1a1 1 0 00-1 1 1 1 0 001 1h1v1a1 1 0 001 1zM7.06 8.94L5 8l2.06-.94L8 5l.94 2.06L11 8l-2.06.94L8 11l-.94-2.06zM8 21l.94-2.06L11 18l-2.06-.94L8 15l-.94 2.06L5 18l2.06.94L8 21zm-3.63-8.63L3 13l1.37.63L5 15l.63-1.37L7 13l-1.37-.63L5 11l-.63 1.37zM19 20.41a1 1 0 01-1.51.86A10.94 10.94 0 0112 12a11.3 11.3 0 012.75-7.25l-1.9-1.9a.5.5 0 01.36-.85h5.29c.28 0 .5.22.5.5v5.29a.5.5 0 01-.85.35l-1.97-1.97A9.36 9.36 0 0014 12a8.92 8.92 0 004.51 7.55c.3.18.49.51.49.86z" /></svg>