<svg viewBox="64 64 896 896" focusable="false" xmlns="http://www.w3.org/2000/svg"><path d="M0 0h24v24H0z" /><path d="M10 19a1 1 0 01-1 1H5a1 1 0 01-1-1 1 1 0 011-1h1.73A8 8 0 018.56 4.78c.67-.31 1.44.18 1.44.92 0 .38-.22.72-.57.88A5.96 5.96 0 008 16.44V15a1 1 0 011-1 1 1 0 011 1v4zm5-15a1 1 0 00-1 1v4a1 1 0 001 1 1 1 0 001-1V7.56c1.22 1.1 2 2.67 2 4.44h2c0-2.4-1.06-4.54-2.73-6H19a1 1 0 001-1 1 1 0 00-1-1h-4zm5 13v-1c0-1.1-.9-2-2-2s-2 .9-2 2v1a1 1 0 00-1 1v3a1 1 0 001 1h4a1 1 0 001-1v-3a1 1 0 00-1-1zm-1 0h-2v-1c0-.55.45-1 1-1s1 .45 1 1v1z" /></svg>