<svg viewBox="64 64 896 896" focusable="false" xmlns="http://www.w3.org/2000/svg"><path d="M0 0h24v24H0V0z" /><path d="M3 12c0 2.21.91 4.2 2.36 5.64l-1.51 1.51a.5.5 0 00.36.85H8.5a.5.5 0 00.5-.5v-4.29a.5.5 0 00-.85-.35l-1.39 1.39a6 6 0 011.67-9.67.94.94 0 00.57-.84v-.19a.92.92 0 00-1.32-.82A8 8 0 003 12zm8 5h2v-2h-2v2zm8.79-13H15.5a.5.5 0 00-.5.5v4.29c0 .45.54.67.85.35l1.39-1.39a6 6 0 01-1.67 9.67.94.94 0 00-.57.84v.18a.92.92 0 001.32.82 7.97 7.97 0 002.32-12.9l1.51-1.51a.5.5 0 00-.36-.85zM12 13a1 1 0 001-1V8c0-.55-.45-1-1-1s-1 .45-1 1v4a1 1 0 001 1z" /></svg>