<svg viewBox="64 64 896 896" focusable="false" xmlns="http://www.w3.org/2000/svg"><path d="M0 0h24v24H0z" /><path d="M22 10V2a1 1 0 00-1-1h-6a1 1 0 00-1 1v8a4 4 0 003 3.86V21h-1a1 1 0 00-1 1 1 1 0 001 1h4a1 1 0 001-1 1 1 0 00-1-1h-1v-7.14A4 4 0 0022 10zm-2-7v3h-4V3h4zM9.86 9H8V8h1.86c1.31 0 2.5-.94 2.63-2.24A2.5 2.5 0 0010 3H8V2a1 1 0 00-1-1 1 1 0 00-1 1v1H4.14c-1.31 0-2.5.94-2.63 2.24A2.5 2.5 0 004 8h2v1H4.14c-1.31 0-2.5.94-2.63 2.24A2.5 2.5 0 004 14h2v8a1 1 0 001 1 1 1 0 001-1v-8h2a2.5 2.5 0 002.49-2.76C12.36 9.94 11.17 9 9.86 9z" /></svg>