<svg viewBox="64 64 896 896" focusable="false" xmlns="http://www.w3.org/2000/svg"><g><path d="M0 0h24v24H0z" /><path d="M0 0h24v24H0z" /></g><path d="M21.85 9.01c-.41 0-.82.24-.95.63A1.99 1.99 0 0119.02 11H4.98c-.87 0-1.62-.57-1.88-1.36-.13-.39-.53-.62-.94-.62-.66 0-1.16.64-.95 1.26A4 4 0 004 12.86V20c0 1.1.9 2 2 2h4v-2.89c0-1 .68-1.92 1.66-2.08A2 2 0 0114 19v3h4a2 2 0 002-2v-7.14a4.16 4.16 0 002.81-2.58.99.99 0 00-.96-1.27z" /><path d="M6 8.86V10h12V8.86a4.16 4.16 0 002.81-2.58c.2-.63-.3-1.27-.96-1.27-.41 0-.82.24-.95.63A1.99 1.99 0 0117.02 7H6.98c-.87 0-1.62-.57-1.88-1.36-.13-.39-.53-.62-.94-.62-.66 0-1.16.64-.95 1.26A3.98 3.98 0 006 8.86z" /><path d="M11.2 2.07L8.25 6h7.5L12.8 2.07a1 1 0 00-1.6 0z" /></svg>