<svg viewBox="64 64 896 896" focusable="false" xmlns="http://www.w3.org/2000/svg"><path d="M0 0h24v24H0V0z" /><path d="M22 15.5h-5.52v-.77c0-.36-.44-.54-.69-.29l-1.51 1.52a.4.4 0 000 .57l1.51 1.52a.4.4 0 00.69-.29V17H22v-1.5zm-.28 4.71l-1.51-1.52a.4.4 0 00-.69.29v.77H14v1.5h5.52v.77c0 .36.44.54.69.29l1.51-1.52a.41.41 0 000-.58zM9.5 5.5c1.1 0 2-.9 2-2s-.9-2-2-2-2 .9-2 2 .9 2 2 2zM5.75 8.9L3.23 21.81A1 1 0 004.21 23h.09a1 1 0 00.98-.79L6.85 15 9 17v5c0 .55.45 1 1 1s1-.45 1-1v-5.72c0-.53-.21-1.04-.59-1.41L8.95 13.4l.6-3a6.97 6.97 0 004.31 2.51 1 1 0 00.3-1.98 5.14 5.14 0 01-3.51-2.38l-.95-1.6C9.35 6.35 8.7 6 8 6a2 2 0 00-.75.15L3.24 7.79A2 2 0 002 9.64V12c0 .55.45 1 1 1s1-.45 1-1V9.65l1.75-.75" /></svg>