<svg viewBox="64 64 896 896" focusable="false" xmlns="http://www.w3.org/2000/svg"><g><path d="M0 0h24v24H0z" /><path d="M0 0h24v24H0z" /></g><path d="M9.53 5.29L12 2.83l2.46 2.46a1 1 0 101.41-1.41L12.7.7a1 1 0 00-1.41 0L8.12 3.88a1 1 0 101.41 1.41z" /><path d="M9.53 10.29L12 7.83l2.46 2.46a1 1 0 101.41-1.41L12.7 5.7a1 1 0 00-1.41 0L8.12 8.88a1 1 0 101.41 1.41zM14.47 13.71L12 16.17l-2.46-2.46a1 1 0 10-1.41 1.41l3.17 3.18a1 1 0 001.41 0l3.17-3.18a1 1 0 10-1.41-1.41z" /><path d="M14.47 18.72L12 21.17l-2.46-2.46a1 1 0 10-1.41 1.41l3.17 3.18a1 1 0 001.41 0l3.17-3.17a1 1 0 10-1.41-1.41z" /></svg>