<svg viewBox="64 64 896 896" focusable="false" xmlns="http://www.w3.org/2000/svg"><g><path d="M0 0h24v24H0z" /><path d="M0 0h24v24H0z" /></g><path d="M20 4H4a2 2 0 00-2 2v12c0 1.1.9 2 2 2h16a2 2 0 002-2V6a2 2 0 00-2-2zm-9.25 12.75h-3a.5.5 0 01-.5-.5v-3c0-.28.22-.5.5-.5h3c.28 0 .5.22.5.5v3a.5.5 0 01-.5.5zm0-5.5h-3a.5.5 0 01-.5-.5v-3c0-.28.22-.5.5-.5h3c.28 0 .5.22.5.5v3a.5.5 0 01-.5.5zm5.5 5.5h-3a.5.5 0 01-.5-.5v-3c0-.28.22-.5.5-.5h3c.28 0 .5.22.5.5v3a.5.5 0 01-.5.5zm0-5.5h-3a.5.5 0 01-.5-.5v-3c0-.28.22-.5.5-.5h3c.28 0 .5.22.5.5v3a.5.5 0 01-.5.5z" /></svg>