<svg viewBox="64 64 896 896" focusable="false" xmlns="http://www.w3.org/2000/svg"><path d="M0 0h24v24H0z" /><path d="M14.67 6v4.5a1 1 0 01-1 1h-3.33a1 1 0 01-1-1V6a1 1 0 011-1h3.33a1 1 0 011 1zm2 5.5H20a1 1 0 001-1V6a1 1 0 00-1-1h-3.33a1 1 0 00-1 1v4.5a1 1 0 001 1zm-2 6.5v-4.5a1 1 0 00-1-1h-3.33a1 1 0 00-1 1V18a1 1 0 001 1h3.33a1 1 0 001-1zm1-4.5V18a1 1 0 001 1H20a1 1 0 001-1v-4.5a1 1 0 00-1-1h-3.33a1 1 0 00-1 1zm-8.34-1H4a1 1 0 00-1 1V18a1 1 0 001 1h3.33a1 1 0 001-1v-4.5a1 1 0 00-1-1zm1-2V6a1 1 0 00-1-1H4a1 1 0 00-1 1v4.5a1 1 0 001 1h3.33a1 1 0 001-1z" /></svg>