<svg viewBox="64 64 896 896" focusable="false" xmlns="http://www.w3.org/2000/svg"><path d="M0 0h24v24H0z" /><path d="M4 14h2a1 1 0 001-1v-2a1 1 0 00-1-1H4a1 1 0 00-1 1v2a1 1 0 001 1zm0 5h2a1 1 0 001-1v-2a1 1 0 00-1-1H4a1 1 0 00-1 1v2a1 1 0 001 1zM4 9h2a1 1 0 001-1V6a1 1 0 00-1-1H4a1 1 0 00-1 1v2a1 1 0 001 1zm5 5h11a1 1 0 001-1v-2a1 1 0 00-1-1H9a1 1 0 00-1 1v2a1 1 0 001 1zm0 5h11a1 1 0 001-1v-2a1 1 0 00-1-1H9a1 1 0 00-1 1v2a1 1 0 001 1zM8 6v2a1 1 0 001 1h11a1 1 0 001-1V6a1 1 0 00-1-1H9a1 1 0 00-1 1z" /></svg>