<svg viewBox="64 64 896 896" focusable="false" xmlns="http://www.w3.org/2000/svg"><path d="M0 0h24v24H0V0zm0 0h24v24H0V0zm0 0h24v24H0V0zm0 0h24v24H0V0z" /><path d="M12 6.5a5 5 0 014.76 6.46l3.06 3.06A11.8 11.8 0 0023 11.49 11.83 11.83 0 008.36 4.57l2.17 2.17c.47-.14.96-.24 1.47-.24zM2.71 3.16a1 1 0 000 1.41l1.97 1.97A11.9 11.9 0 001 11.5a11.83 11.83 0 0015.31 6.68l2.72 2.72a1 1 0 101.41-1.41L4.13 3.16a1 1 0 00-1.42 0zM12 16.5a5 5 0 01-4.51-7.14l1.57 1.57a3 3 0 003.51 3.5L14.14 16c-.65.32-1.37.5-2.14.5zm2.97-5.33a2.97 2.97 0 00-2.64-2.64l2.64 2.64z" /></svg>