<svg viewBox="64 64 896 896" focusable="false" xmlns="http://www.w3.org/2000/svg"><g><path d="M0 0h24v24H0z" /><path d="M0 0h24v24H0z" /></g><path d="M16.49 8h-4.14c-.82 0-1.55.5-1.86 1.26L9 13H7.3a2 2 0 00-1.83 1.19l-2.22 5A2 2 0 005.08 22h14.27a2 2 0 001.92-2.55l-2.86-10A2 2 0 0016.49 8zM14 1a1 1 0 00-1 1v2a1 1 0 001 1 1 1 0 001-1V2a1 1 0 00-1-1zM19.66 3.34a1 1 0 00-1.41 0l-1.41 1.41a1 1 0 101.41 1.41l1.41-1.41a1 1 0 000-1.41zM11.17 4.76L9.76 3.34a1 1 0 10-1.41 1.41l1.41 1.41a1 1 0 001.41 0 .98.98 0 000-1.4z" /></svg>