<svg viewBox="64 64 896 896" focusable="false" xmlns="http://www.w3.org/2000/svg"><path d="M0 0h24v24H0V0z" /><path d="M4 5a1 1 0 011-1h5c.55 0 1-.45 1-1s-.45-1-1-1H4a2 2 0 00-2 2v6c0 .55.45 1 1 1s1-.45 1-1V5zm5.61 8.49l-2.96 3.7a.5.5 0 00.39.81H17a.5.5 0 00.4-.8l-2-2.67a.5.5 0 00-.8 0l-1.63 2.18-2.58-3.22a.5.5 0 00-.78 0zM17 8.5a1.5 1.5 0 10-3 0 1.5 1.5 0 003 0zM20 2h-6c-.55 0-1 .45-1 1s.45 1 1 1h5a1 1 0 011 1v5c0 .55.45 1 1 1s1-.45 1-1V4a2 2 0 00-2-2zm0 17a1 1 0 01-1 1h-5c-.55 0-1 .45-1 1s.45 1 1 1h6a2 2 0 002-2v-6c0-.55-.45-1-1-1s-1 .45-1 1v5zM3 13a1 1 0 00-1 1v6c0 1.1.9 2 2 2h6c.55 0 1-.45 1-1s-.45-1-1-1H5a1 1 0 01-1-1v-5a1 1 0 00-1-1z" /></svg>