<svg viewBox="64 64 896 896" focusable="false" xmlns="http://www.w3.org/2000/svg"><path d="M0 0h24v24H0z" /><path d="M6.07 9.8a.5.5 0 000 .71 3 3 0 01.28 3.92.5.5 0 00.05.65.5.5 0 00.76-.05 4.02 4.02 0 00-.04-4.85l7.62-7.62a1.25 1.25 0 111.77 1.77l-5.13 5.13c-.2.2-.2.51 0 .71s.51.2.71 0l6.54-6.54A1.25 1.25 0 1120.4 5.4l-6.54 6.54c-.2.2-.2.51 0 .71s.51.2.71 0l5.48-5.48a1.25 1.25 0 111.77 1.77l-6.19 6.19a.5.5 0 000 .71c.2.2.51.2.71 0l4.07-4.07a1.25 1.25 0 111.77 1.77l-7.07 7.07A8.26 8.26 0 013.44 8.94l4.6-4.6a1.25 1.25 0 111.77 1.77L6.07 9.8zm.93-8a.76.76 0 00-.75-.75l-.11.01a6.01 6.01 0 00-5.08 5.08l-.01.11c0 .41.34.75.75.75.38 0 .69-.28.74-.64a4.5 4.5 0 013.81-3.81A.76.76 0 007 1.8zm10 20.4c0 .41.34.75.75.75l.11-.01a6.01 6.01 0 005.08-5.08l.01-.11a.76.76 0 00-.75-.75.75.75 0 00-.74.64 4.5 4.5 0 01-3.81 3.81.76.76 0 00-.65.75z" /></svg>