<svg viewBox="64 64 896 896" focusable="false" xmlns="http://www.w3.org/2000/svg"><path d="M0 0h24v24H0V0z" /><path d="M6.05 4.14l-.39-.39a1 1 0 00-1.4 0l-.01.01a.98.98 0 000 1.4l.39.39a.98.98 0 001.4 0l.01-.01a.98.98 0 000-1.4zM3.01 10.5H1.99a.99.99 0 00-.99.99v.01c0 .55.44.99.99.99H3c.56.01 1-.43 1-.98v-.01c0-.56-.44-1-.99-1zm9-9.95H12c-.56 0-1 .44-1 .99v.96c0 .55.44.99.99.99H12c.56.01 1-.43 1-.98v-.97a.99.99 0 00-.99-.99zm7.74 3.21a1 1 0 00-1.41-.01l-.39.39a.98.98 0 000 1.4l.01.01a.98.98 0 001.4 0l.39-.39a.98.98 0 000-1.4zm-1.81 15.1l.39.39a1 1 0 101.41-1.41l-.39-.39a1 1 0 00-1.4 0 .99.99 0 00-.01 1.41zM20 11.49v.01c0 .55.44.99.99.99H22c.55 0 .99-.44.99-.99v-.01a.99.99 0 00-.99-.99h-1.01a.99.99 0 00-.99.99zM12 5.5a6 6 0 10.01 12.01A6 6 0 0012 5.5zm-.01 16.95H12c.55 0 .99-.44.99-.99v-.96a.99.99 0 00-.99-.99h-.01a.99.99 0 00-.99.99v.96c0 .55.44.99.99.99zm-7.74-3.21a1 1 0 001.41 0l.39-.39a1 1 0 000-1.4l-.01-.01a1 1 0 00-1.41 0l-.39.39a1 1 0 00.01 1.41z" /></svg>