<svg viewBox="64 64 896 896" focusable="false" xmlns="http://www.w3.org/2000/svg"><g><path d="M0 0h24v24H0z" /><path d="M0 0h24v24H0z" /></g><path d="M2 16c0-1.84 1-3.45 2.48-4.32a1 1 0 011.52.86c0 .36-.19.68-.5.86a3 3 0 002.1 5.54 3.09 3.09 0 002.4-3.06c0-.49.39-.88.88-.88h5a1.5 1.5 0 110 2H11.9A5 5 0 012 16zm14.37-9a1 1 0 00.97-1.25 5 5 0 10-8.29 4.87l-2.35 3.9c-.68.14-1.2.75-1.2 1.48a1.5 1.5 0 102.93-.45l2.86-4.75a.86.86 0 00-.28-1.19A3 3 0 0112.5 4a3 3 0 012.89 2.2c.13.46.51.8.98.8zm.63 6c-.38 0-.75.07-1.09.2-.4.16-.86-.04-1.08-.41l-2.6-4.32a1.5 1.5 0 111.71-1.04l2.19 3.65a5 5 0 11-1.52 9.31c-.92-.5-.58-1.89.47-1.89.17 0 .34.05.49.14A3 3 0 0020 16a3 3 0 00-3-3z" /></svg>