<svg viewBox="64 64 896 896" focusable="false" xmlns="http://www.w3.org/2000/svg"><path d="M0 0h24v24H0z" /><path d="M11 14c0-3.36 2.64-6 6-6 2.2 0 4.08 1.13 5.13 2.86l.36-.37a2 2 0 00-.2-3.01A16.89 16.89 0 0012 4C8.13 4 4.56 5.3 1.71 7.48a2 2 0 00-.2 3.01l9.08 9.09a2 2 0 002.83 0l.45-.45A5.93 5.93 0 0111 14z" /><path d="M20.44 16.03A3.96 3.96 0 0017 10c-2.24 0-4 1.76-4 4a3.96 3.96 0 006.03 3.44l1.85 1.85a1 1 0 101.41-1.41l-1.85-1.85zM17 16c-1.12 0-2-.88-2-2s.88-2 2-2 2 .88 2 2-.88 2-2 2z" /></svg>