<svg viewBox="64 64 896 896" focusable="false" xmlns="http://www.w3.org/2000/svg"><path d="M0 0h24v24H0V0z" /><path d="M2.11 3.51a1 1 0 00-.01 1.42l1.98 1.98a9.96 9.96 0 00.11 12.33c.37.47 1.07.5 1.5.08A1 1 0 005.77 18a7.91 7.91 0 01-.26-9.66l1.43 1.43a6.02 6.02 0 00.09 6.58c.34.5 1.08.54 1.51.11.35-.35.37-.88.1-1.29a4.03 4.03 0 01-.23-3.93l1.61 1.61L10 13a2 2 0 00.59 1.41A2 2 0 0012 15l.16-.02 6.91 6.91a1 1 0 101.41-1.41L3.51 3.51a.98.98 0 00-1.4 0zM17.7 14.87a6 6 0 00-7.57-7.57l1.71 1.71L12 9a4 4 0 014 4l-.01.16 1.71 1.71zM12 5a8 8 0 017.23 11.4l1.49 1.49A10 10 0 007.11 4.28l1.48 1.48A7.96 7.96 0 0112 5z" /></svg>