<svg viewBox="64 64 896 896" focusable="false" xmlns="http://www.w3.org/2000/svg"><path d="M0 0h24v24H0V0z" /><path d="M21.54 4.8A7.9 7.9 0 0016.49 3c-1.92 0-3.67.67-5.05 1.8a.74.74 0 00-.05 1.1l.01.01c.27.27.7.29 1 .05a6.45 6.45 0 018.18 0c.3.24.73.23 1-.05l.01-.01a.74.74 0 00-.05-1.1z" /><path d="M19.45 8.04a.75.75 0 00-.11-1.15 4.97 4.97 0 00-5.7 0 .76.76 0 00-.11 1.15c.25.25.65.31.94.1a3.52 3.52 0 014.04 0c.29.21.69.15.94-.1zM16.49 8.9c-.32 0-.62.08-.89.21-.3.15-.34.56-.11.79l.65.65c.2.2.51.2.71 0l.65-.65c.23-.23.19-.64-.11-.79a1.95 1.95 0 00-.9-.21z" /><path d="M15.63 14.4l-2.52 2.5a16.14 16.14 0 01-6-6l2.5-2.52c.23-.24.33-.57.27-.9L9.13 3.8a1 1 0 00-.98-.8H4a1 1 0 00-1 1.03A18.07 18.07 0 0019.97 21 1 1 0 0021 20v-4.15a1 1 0 00-.8-.98l-3.67-.73a.98.98 0 00-.9.26z" /></svg>