<svg viewBox="64 64 896 896" focusable="false" xmlns="http://www.w3.org/2000/svg"><path d="M0 0h24v24H0V0z" /><path d="M10.66 7.14a5.96 5.96 0 00-3.63 9.2c.34.51 1.08.55 1.51.11a1 1 0 00.1-1.28 3.95 3.95 0 01-.61-2.73 4 4 0 117.33 2.72c-.27.41-.25.95.1 1.29.43.43 1.17.4 1.51-.11a6.02 6.02 0 00-6.31-9.2zm-.41-3.99a9.8 9.8 0 00-8.03 7.72c-.66 3.17.2 6.16 1.97 8.38a1 1 0 001.49.07.98.98 0 00.07-1.32A8 8 0 0117.94 7.66c.2.21.47.34.76.34.85 0 1.34-1.01.77-1.65a10.01 10.01 0 00-9.22-3.2zM12 11a2 2 0 00-1.41 3.41A2 2 0 1012 11zm9-1a1 1 0 011 1v4a1 1 0 01-1 1 1 1 0 01-1-1v-4a1 1 0 011-1zm0 8a1 1 0 011 1 1 1 0 01-1 1 1 1 0 01-1-1 1 1 0 011-1z" /></svg>