<svg viewBox="64 64 896 896" focusable="false" xmlns="http://www.w3.org/2000/svg"><path d="M0 0h24v24H0z" /><path d="M18.49 12.13a10.9 10.9 0 00-12.98 0c-.72.53-.76 1.6-.13 2.24a1.5 1.5 0 001.98.12 7.93 7.93 0 019.28 0c.62.44 1.45.41 1.98-.12.64-.64.6-1.71-.13-2.24zm4.31-4.24a16.9 16.9 0 00-21.6 0 1.5 1.5 0 001.93 2.3 13.93 13.93 0 0117.74 0 1.5 1.5 0 001.93-2.3zM12 16c-1.1 0-2 .9-2 2s.9 2 2 2 2-.9 2-2-.9-2-2-2zm11 3v-1c0-1.1-.9-2-2-2s-2 .9-2 2v1a1 1 0 00-1 1v3a1 1 0 001 1h4a1 1 0 001-1v-3a1 1 0 00-1-1zm-1 0h-2v-1c0-.55.45-1 1-1s1 .45 1 1v1z" /></svg>