<svg viewBox="64 64 896 896" focusable="false" xmlns="http://www.w3.org/2000/svg"><path d="M0 0h24v24H0z" /><path d="M20.42 4.5l1.38-1.38a1 1 0 10-1.41-1.41L19 3.08 17.62 1.7a1 1 0 10-1.41 1.41l1.38 1.38-1.38 1.38a1 1 0 101.41 1.41L19 5.92l1.38 1.38a1 1 0 101.41-1.41L20.42 4.5z" /><path d="M19.67 8L19 7.33l-.59.59c-.7.7-1.84.88-2.65.3a2 2 0 01-.26-3.05l.67-.67-.67-.67a1.95 1.95 0 01-.57-1.28A8.03 8.03 0 004 10.2c0 3.18 2.45 6.92 7.34 11.23.38.33.95.33 1.33 0C17.55 17.12 20 13.38 20 10.2c0-.76-.1-1.47-.26-2.14L19.67 8zM12 12c-1.1 0-2-.9-2-2s.9-2 2-2 2 .9 2 2-.9 2-2 2z" /></svg>