<svg viewBox="64 64 896 896" focusable="false" xmlns="http://www.w3.org/2000/svg"><path d="M0 0h24v24H0z" /><path d="M3 8a1 1 0 001 1h4a1 1 0 001-1V4c0-.55-.45-1-1-1s-1 .45-1 1v1.59L4.62 3.21a1 1 0 10-1.41 1.41L5.59 7H4a1 1 0 00-1 1zm17-1h-1.59l2.38-2.38a1 1 0 10-1.41-1.41L17 5.59V4a1 1 0 00-1-1 1 1 0 00-1 1v4a1 1 0 001 1h4c.55 0 1-.45 1-1s-.45-1-1-1zM4 17h1.59l-2.38 2.38a1 1 0 101.41 1.41L7 18.41V20c0 .55.45 1 1 1s1-.45 1-1v-4a1 1 0 00-1-1H4a1 1 0 00-1 1 1 1 0 001 1zm17-1a1 1 0 00-1-1h-4a1 1 0 00-1 1v4a1 1 0 001 1 1 1 0 001-1v-1.59l2.38 2.38a1 1 0 101.41-1.41L18.41 17H20a1 1 0 001-1z" /></svg>