<svg viewBox="64 64 896 896" focusable="false" xmlns="http://www.w3.org/2000/svg"><path d="M0 0h24v24H0z" /><path d="M21.81 12.74l-.82-.63v-.22l.8-.63c.16-.12.2-.34.1-.51l-.85-1.48a.4.4 0 00-.35-.2.4.4 0 00-.15.03l-.95.38-.19-.11-.15-1.01a.4.4 0 00-.4-.36h-1.71a.4.4 0 00-.4.34l-.14 1.01-.1.05-.09.06-.95-.38a.4.4 0 00-.5.17l-.85 1.48c-.1.17-.06.39.1.51l.8.63v.23l-.8.63a.39.39 0 00-.1.51l.85 1.48c.07.13.21.2.35.2a.4.4 0 00.15-.03l.95-.37.2.11.15 1.01c.03.2.2.34.4.34h1.71a.4.4 0 00.4-.34l.15-1.01.1-.05.09-.06.95.38a.4.4 0 00.5-.17l.85-1.48a.39.39 0 00-.1-.51zM18 13.5a1.5 1.5 0 110-3 1.5 1.5 0 010 3zM5 23V1h14v6h-2V6H7v12h10v-1h2v6H5z" /></svg>