<svg viewBox="64 64 896 896" focusable="false" xmlns="http://www.w3.org/2000/svg"><path d="M0 0h24v24H0z" /><path d="M10.44 18.75a2.01 2.01 0 013.13 0c.39-.09.76-.21 1.12-.36l-1.42-3.18a3.52 3.52 0 01-2.56-.02l-1.43 3.19c.37.16.75.29 1.16.37zM5.16 10a7.06 7.06 0 00.08 4 2 2 0 011.67 2.78c.27.27.56.53.87.76l1.52-3.39a3.37 3.37 0 01-.75-2.13c0-1.89 1.55-3.41 3.46-3.41s3.46 1.53 3.46 3.41c0 .82-.29 1.57-.78 2.16l1.5 3.35c.32-.24.62-.5.9-.79A2 2 0 0118.73 14a7.03 7.03 0 00.09-4.02 1.97 1.97 0 01-1.6-1 2 2 0 01-.03-1.95 7.09 7.09 0 00-3.44-2.05 2 2 0 01-3.48.01 7.05 7.05 0 00-3.44 2.03A2 2 0 015.16 10zm-1.3-.42a2 2 0 011.98-3.43 8.53 8.53 0 014.18-2.42 2 2 0 013.97 0 8.41 8.41 0 014.18 2.42 2 2 0 011.98 3.43 8.43 8.43 0 010 4.84 2 2 0 01-1.98 3.43c-.4.43-.85.81-1.34 1.15l1.34 3h-1.86l-.97-2.17c-.43.18-.88.33-1.34.44-.14.98-.98 1.73-1.99 1.73s-1.85-.75-1.98-1.73a8.94 8.94 0 01-1.38-.46L7.66 22H5.79l1.36-3.03a8.72 8.72 0 01-1.3-1.12 2 2 0 01-1.99-3.43c-.24-.77-.35-1.58-.35-2.42s.11-1.65.35-2.42z" /></svg>