<svg viewBox="64 64 896 896" focusable="false" xmlns="http://www.w3.org/2000/svg"><path d="M0 0h24v24H0z" /><path d="M21.94 4.88A1.32 1.32 0 0020.68 4H19.6l-.31-.97A1.33 1.33 0 0018 2c-.61 0-1.15.43-1.29 1.04L16.4 4h-1.07c-.57 0-1.08.35-1.26.88-.19.56.04 1.17.56 1.48l.87.52-.4 1.24a1.4 1.4 0 00.45 1.62c.23.17.51.26.78.26.31 0 .61-.11.86-.32l.81-.7.81.7c.25.21.55.32.86.32.27 0 .55-.09.78-.26.5-.37.68-1.04.45-1.62l-.39-1.24.87-.52c.51-.31.74-.92.56-1.48zM18 7a1 1 0 01-1-1c0-.55.45-1 1-1s1 .45 1 1a1 1 0 01-1 1zM13.49 10.51A4.02 4.02 0 0012 9.58V8h-1v1.38l-.34-.03a4 4 0 00-3.26 1.7L6 10.52a3 3 0 00-3.83 1.82 2.94 2.94 0 001.12 3.45A3.98 3.98 0 008.2 20.7a2.97 2.97 0 003.46 1.13 3 3 0 001.82-3.85l-.52-1.37a3.97 3.97 0 001.67-3.6H16v-1h-1.59a3.99 3.99 0 00-.92-1.5zm-8.82 3.78c-.25-.09-.45-.27-.57-.51s-.13-.51-.04-.76a1 1 0 011.26-.61l3.16 1.19c-1.15.6-2.63 1.11-3.81.69zm6.32 5.65a.99.99 0 01-1.27-.61c-.42-1.18.09-2.65.7-3.8l1.18 3.13a1 1 0 01-.61 1.28zm1.21-5.34l-.61-1.61-.02-.03-.06-.12a.67.67 0 00-.07-.11l-.09-.09-.09-.09-.11-.07c-.04-.02-.07-.05-.12-.06L11 12.4l-1.6-.6a1.97 1.97 0 012.67.13 2 2 0 01.13 2.67z" /></svg>