<svg viewBox="64 64 896 896" focusable="false" xmlns="http://www.w3.org/2000/svg"><path d="M0 0h24v24H0V0z" /><circle cx="7" cy="6" r="2" /><path d="M11.15 12a4.8 4.8 0 01-.82-.72l-1.4-1.55a2.15 2.15 0 00-.69-.5A2.23 2.23 0 007.28 9h-.03A2.25 2.25 0 005 11.25V12H2v10h20V12H11.15zM7 20H5v-6h2v6zm4 0H9v-6h2v6zm4 0h-2v-6h2v6zm4 0h-2v-6h2v6zm-.35-14.14l-.07-.07a2.53 2.53 0 01-.67-2.2L18 3h-1.89l-.06.43a4.3 4.3 0 001.3 3.72l.07.06c.57.62.82 1.41.67 2.2l-.11.59h1.91l.06-.43a4.24 4.24 0 00-1.3-3.71zm-4 0l-.07-.07a2.53 2.53 0 01-.67-2.2L14 3h-1.89l-.06.43a4.3 4.3 0 001.3 3.72l.07.06c.57.62.82 1.41.67 2.2l-.11.59h1.91l.06-.43a4.24 4.24 0 00-1.3-3.71z" /></svg>