<svg viewBox="64 64 896 896" focusable="false" xmlns="http://www.w3.org/2000/svg"><path d="M0 0h24v24H0z" /><path d="M14.02 13.97l1.7-2.94-.23-.18-1.47-1.16-.01.02a5.65 5.65 0 00-.01-1.4l.01.01 1.71-1.34-1.7-2.95-2.01.81v.01a5.54 5.54 0 00-1.2-.7h.01L10.52 2H7.11L6.8 4.15h.01c-.43.18-.83.42-1.2.7v-.01L3.6 4.03 1.9 6.98l1.7 1.34.01-.01a5.09 5.09 0 000 1.4l-.01-.02-1.47 1.16-.23.18 1.7 2.94 2.02-.8-.02-.03c.37.29.77.53 1.21.71H6.8L7.11 16h3.4l.04-.3.27-1.85h-.01c.44-.18.84-.42 1.21-.71l-.02.03 2.02.8zM8.81 11c-1.1 0-2-.9-2-2s.9-2 2-2 2 .9 2 2-.9 2-2 2zM20.98 17.94l-.01.01a3.4 3.4 0 00-.01-.89l.01.01 1.1-.86-1.09-1.9-1.29.52v.01a3.7 3.7 0 00-.77-.45h.01l-.2-1.39h-2.19l-.2 1.38h.01a3.7 3.7 0 00-.77.45v-.01l-1.29-.52-1.09 1.9 1.09.86.01-.01a3.15 3.15 0 000 .9l-.01-.01-.94.75-.15.12 1.09 1.89 1.3-.51-.01-.02c.24.19.5.34.78.46h-.01l.2 1.38h2.19l.03-.19.17-1.19h-.01c.28-.12.54-.27.78-.46l-.01.02 1.3.51 1.09-1.89-.15-.12-.96-.75zm-3.35.85a1.3 1.3 0 010-2.58 1.3 1.3 0 010 2.58z" /></svg>