<svg viewBox="64 64 896 896" focusable="false" xmlns="http://www.w3.org/2000/svg"><path d="M0 0h24v24H0z" /><path d="M16 4c0-1.1.9-2 2-2s2 .9 2 2-.9 2-2 2-2-.9-2-2zm4.78 3.58a6.95 6.95 0 00-4.7-.3c.58.55.92 1.32.92 2.15V10h5v-.57c0-.81-.48-1.53-1.22-1.85zM6 6c1.1 0 2-.9 2-2s-.9-2-2-2-2 .9-2 2 .9 2 2 2zm1.92 1.28a6.75 6.75 0 00-4.7.3A2.01 2.01 0 002 9.43V10h5v-.57c0-.83.34-1.6.92-2.15zM10 4c0-1.1.9-2 2-2s2 .9 2 2-.9 2-2 2-2-.9-2-2zm6 6H8v-.57c0-.81.48-1.53 1.22-1.85a6.95 6.95 0 015.56 0A2.01 2.01 0 0116 9.43V10zm-1 6c0-1.1.9-2 2-2s2 .9 2 2-.9 2-2 2-2-.9-2-2zm6 6h-8v-.57c0-.81.48-1.53 1.22-1.85a6.95 6.95 0 015.56 0A2.01 2.01 0 0121 21.43V22zM5 16c0-1.1.9-2 2-2s2 .9 2 2-.9 2-2 2-2-.9-2-2zm6 6H3v-.57c0-.81.48-1.53 1.22-1.85a6.95 6.95 0 015.56 0A2.01 2.01 0 0111 21.43V22zm1.75-9v-2h-1.5v2H9l3 3 3-3h-2.25z" /></svg>