<svg viewBox="64 64 896 896" focusable="false" xmlns="http://www.w3.org/2000/svg"><path d="M0 0h24v24H0z" /><path d="M15.44.59l-3.18 3.18a2 2 0 000 2.83l1.24 1.24-.71.71-2.65-2.65-4.24 4.24 2.65 2.65-.71.71-1.24-1.25a2 2 0 00-2.83 0L.59 15.43a2 2 0 000 2.83l3.54 3.54a2 2 0 002.83 0l3.18-3.18a2 2 0 000-2.83L8.9 14.55l.71-.71 2.65 2.65 4.24-4.24-2.66-2.65.71-.71 1.24 1.24a2 2 0 002.83 0l3.18-3.18a2 2 0 000-2.83L18.26.58a1.98 1.98 0 00-2.82.01zM6.6 19.32l-1.06 1.06L2 16.85l1.06-1.06 3.54 3.53zm2.12-2.12l-1.06 1.06-3.54-3.54 1.06-1.06 3.54 3.54zm9.54-9.54L17.2 8.72l-3.54-3.54 1.06-1.06 3.54 3.54zm2.12-2.12L19.32 6.6l-3.54-3.54L16.85 2l3.53 3.54zM21 14h2a9 9 0 01-9 9v-2a7 7 0 007-7zm-4 0h2a5 5 0 01-5 5v-2a3 3 0 003-3z" /></svg>