<svg viewBox="64 64 896 896" focusable="false" xmlns="http://www.w3.org/2000/svg"><path d="M0 0h24v24H0z" /><path d="M7.76 16.24C6.67 15.16 6 13.66 6 12s.67-3.16 1.76-4.24l1.42 1.42a3.95 3.95 0 00-.01 5.65l-1.41 1.41zm8.48 0C17.33 15.16 18 13.66 18 12s-.67-3.16-1.76-4.24l-1.42 1.42a3.95 3.95 0 01.01 5.65l1.41 1.41zM12 10c-1.1 0-2 .9-2 2s.9 2 2 2 2-.9 2-2-.9-2-2-2zm8 2c0 2.21-.9 4.21-2.35 5.65l1.42 1.42a9.97 9.97 0 000-14.14l-1.42 1.42A7.94 7.94 0 0120 12zM6.35 6.35L4.93 4.93a9.97 9.97 0 000 14.14l1.42-1.42a7.94 7.94 0 010-11.3z" /></svg>