<svg viewBox="64 64 896 896" focusable="false" xmlns="http://www.w3.org/2000/svg"><path d="M0 0h24v24H0z" /><path d="M14 3c0-1.1.9-2 2-2s2 .9 2 2-.9 2-2 2-2-.9-2-2zm7.4 17.09a.75.75 0 00-.64.17c-.69.6-1.64.88-2.6.67L17 20.69l-1-6.19-3.32-2.67 1.8-2.89A6.5 6.5 0 0020 12v-2a4.5 4.5 0 01-4.13-2.72l-.52-1.21A1.83 1.83 0 0013.7 5H8L5.5 9l1.7 1.06L9.1 7h2.35L8.5 11.7l1 4.3L6 18.35l-.47-.1a3.01 3.01 0 01-2.1-1.67.74.74 0 00-.51-.42.76.76 0 00-.9.58.68.68 0 00.05.46 4.52 4.52 0 003.15 2.51l12.63 2.69a4.5 4.5 0 003.9-1.01.73.73 0 00.24-.41.77.77 0 00-.59-.89zM8.73 18.93l3.02-2.03-.44-3.32 2.84 2.02.75 4.64-6.17-1.31z" /></svg>