<svg viewBox="64 64 896 896" focusable="false" xmlns="http://www.w3.org/2000/svg"><path d="M0 0h24v24H0z" /><path d="M18 7a1 1 0 001.71.71c.4-.4 1.04-2.46 1.04-2.46s-2.06.64-2.46 1.04A1 1 0 0018 7z" /><path d="M19 2a5 5 0 00-2 9.58V13h1v6h-2v-6h-4V5a2 2 0 00-2-2H4a2 2 0 00-2 2v14c0 1.1.9 2 2 2h6a2 2 0 002-2v-4h2v6h6v-8h1v-1.42A4.99 4.99 0 0019 2zM6 19.5l-2-2v-2.83l2 2v2.83zm0-5l-2-2V9.67l2 2v2.83zm0-5l-2-2V4.67l2 2V9.5zm4 8l-2 2v-2.83l2-2v2.83zm0-5l-2 2v-2.83l2-2v2.83zm0-5l-2 2V6.67l2-2V7.5zm9 2.5a3 3 0 110-6 3 3 0 010 6z" /></svg>