<svg viewBox="64 64 896 896" focusable="false" xmlns="http://www.w3.org/2000/svg"><path d="M21 4H11l-1-3H3a2 2 0 00-2 2v15c0 1.1.9 2 2 2h8l1 3h9a2 2 0 002-2V6a2 2 0 00-2-2zM7 16a5 5 0 113.35-8.7L9.03 8.57A2.88 2.88 0 007 7.79c-1.74 0-3.15 1.44-3.15 3.21S5.26 14.21 7 14.21c2.01 0 2.84-1.44 2.92-2.41H7v-1.71h4.68c.07.31.12.61.12 1.02C11.8 13.97 9.89 16 7 16zm6.17-5.42h3.7a10.02 10.02 0 01-2.05 3.47c-.31-.35-.6-.72-.86-1.1l-.79-2.37zm8.33 9.92a1 1 0 01-1 1H14l2-2.5-1.04-3.1 3.1 3.1.92-.92-3.3-3.25.02-.02a11.16 11.16 0 002.4-4.22H20v-1.3h-4.53V8h-1.29v1.29h-1.44L11.46 5.5h9.04a1 1 0 011 1v14z" /><path d="M0 0h24v24H0zm0 0h24v24H0z" /></svg>