<svg viewBox="64 64 896 896" focusable="false" xmlns="http://www.w3.org/2000/svg"><path d="M0 0h24v24H0z" /><circle cx="12" cy="3.5" r=".75" /><circle cx="12" cy="3.5" r=".75" /><circle cx="12" cy="3.5" r=".75" /><path d="M19 3h-4.18C14.4 1.84 13.3 1 12 1s-2.4.84-2.82 2H5a2 2 0 00-2 2v14a2.05 2.05 0 00.59 1.42 2 2 0 001.01.55c.13.02.26.03.4.03h14a2 2 0 002-2V5a2 2 0 00-2-2zm-8 11.17l-1.41 1.42L6 12l3.59-3.59L11 9.83 8.83 12 11 14.17zm1-9.92c-.41 0-.75-.34-.75-.75s.34-.75.75-.75.75.34.75.75-.34.75-.75.75zm2.41 11.34L13 14.17 15.17 12 13 9.83l1.41-1.42L18 12l-3.59 3.59z" /></svg>