<svg viewBox="64 64 896 896" focusable="false" xmlns="http://www.w3.org/2000/svg"><path d="M0 0h24v24H0z" /><path d="M19.98 17.15A8.9 8.9 0 0021 13a8.9 8.9 0 00-4.15 1.02l3.13 3.13zM3 13a9 9 0 009 9 9 9 0 00-9-9zM12 5.5a2.5 2.5 0 011.08 4.75l2.48 2.48a2.5 2.5 0 001.42-4.72 2.5 2.5 0 00-1.07-4.75c-.53 0-1.01.16-1.42.44l.01-.2a2.5 2.5 0 00-5 0l.02.19a2.46 2.46 0 00-2.93.08l3.16 3.16A2.5 2.5 0 0112 5.5z" /><path d="M2.81 2.81L1.39 4.22l4.64 4.64a2.5 2.5 0 003.47 3.46l.02.02-.02.16A2.5 2.5 0 0012 15l.16-.02 1.64 1.64A8.9 8.9 0 0012 22a8.9 8.9 0 005.38-1.8l2.4 2.4 1.41-1.41L2.81 2.81z" /></svg>