<svg viewBox="64 64 896 896" focusable="false" xmlns="http://www.w3.org/2000/svg"><path d="M0 0h24v24H0z" /><path d="M21.4 11.32v2.93c-.1.05-2.17.85-3.33 1.17-.94.26-3.84.73-6.07.73-3.7 0-7-.7-9.16-1.8l-.24-.1V9.76a21.53 21.53 0 0118.8 0v1.56zm-9.39 8.88a8.14 8.14 0 01-6.41-3.12 22.73 22.73 0 0012.82-.01 8.14 8.14 0 01-6.41 3.13zM12 3.8c2.6 0 4.91 1.23 6.41 3.12a22.76 22.76 0 00-12.83.01A8.17 8.17 0 0112 3.8zm10.49 4.71c-.47-.23-.93-.44-1.4-.64a9.97 9.97 0 00-18.19.01c-.47.2-.93.41-1.4.63a.92.92 0 00-.5.83v5.32c0 .35.19.68.51.83.47.23.93.44 1.39.64 3.55 7.83 14.65 7.82 18.2 0 .47-.2.93-.41 1.39-.63a.97.97 0 00.51-.84V9.34a.9.9 0 00-.51-.83z" /></svg>