<svg viewBox="64 64 896 896" focusable="false" xmlns="http://www.w3.org/2000/svg"><path d="M0 0h24v24H0zm0 0h24v24H0z" /><path d="M17.56 14.24a6 6 0 00-7.8-7.8l1.62 1.62a4 4 0 014.57 4.57l1.61 1.61zM12 4a8 8 0 017.05 11.74l1.47 1.47A10 10 0 006.79 3.47l1.46 1.46A8.04 8.04 0 0112 4zM3.27 2.5L2 3.77l2.1 2.1a10 10 0 002.89 14.78l1-1.73A8 8 0 015.53 7.31l1.43 1.44A6 6 0 009 17.19l1-1.74A4 4 0 018 12c0-.65.17-1.25.44-1.79l1.58 1.58L10 12c0 1.1.9 2 2 2l.21-.02.01.01 7.51 7.51L21 20.23 4.27 3.5l-1-1z" /></svg>