<svg viewBox="64 64 896 896" focusable="false" xmlns="http://www.w3.org/2000/svg"><path d="M0 0h24v24H0z" /><path d="M19.93 8.21l-3.6 1.68L14 7.7V6.3l2.33-2.19 3.6 1.68a.75.75 0 00.64-1.36L16.65 2.6a1 1 0 00-1.13.2l-1.74 1.6A.98.98 0 0013 4a1 1 0 00-1 1v1H8.82A2.93 2.93 0 005.4 4.07 3.13 3.13 0 003.04 6.5a3 3 0 001.48 3.08L7.08 18H4v3h13v-3h-3.62L8.41 8.77c.17-.24.31-.49.41-.77H12v1a1 1 0 001 1c.32 0 .6-.16.78-.4l1.74 1.6a1 1 0 001.13.2l3.92-1.83a.75.75 0 00-.64-1.36zM6 8c-.55 0-1-.45-1-1s.45-1 1-1 1 .45 1 1-.45 1-1 1z" /></svg>