<svg viewBox="64 64 896 896" focusable="false" xmlns="http://www.w3.org/2000/svg"><path d="M0 0h24v24H0z" /><path d="M23.25 12.77l-2.57-2.57-1.41 1.41 2.22 2.22-5.66 5.66L4.51 8.17l5.66-5.66 2.1 2.1 1.41-1.41L11.23.75a1.5 1.5 0 00-2.12 0L2.75 7.11a1.5 1.5 0 000 2.12l12.02 12.02a1.5 1.5 0 002.12 0l6.36-6.36a1.5 1.5 0 000-2.12zM8.47 20.48A10.49 10.49 0 012.5 12H1a12 12 0 0011.95 11l.66-.03-3.81-3.82-1.33 1.33zM16 9h5a1 1 0 001-1V4a1 1 0 00-1-1v-.5a2.5 2.5 0 00-5 0V3a1 1 0 00-1 1v4a1 1 0 001 1zm.8-6.5a1.7 1.7 0 113.4 0V3h-3.4v-.5z" /></svg>