<svg viewBox="64 64 896 896" focusable="false" xmlns="http://www.w3.org/2000/svg"><path d="M0 0h24v24H0z" /><path d="M21 9a2 2 0 01-2-2c0-1.1 2-4 2-4s2 2.9 2 4a2 2 0 01-2 2zm-3.5-2c0-.73.41-1.71.92-2.66a10 10 0 103.44 6.04A3.5 3.5 0 0117.5 7zm-1.88.38l1.06 1.06-1.06 1.06 1.06 1.06-1.06 1.06L13.5 9.5l2.12-2.12zm-8.3 1.06l1.06-1.06L10.5 9.5l-2.12 2.12-1.06-1.06L8.38 9.5 7.32 8.44zM15.44 17c-.69-1.19-1.97-2-3.44-2s-2.75.81-3.44 2H6.88c.3-.76.76-1.43 1.34-1.99L5.24 13.3a1.5 1.5 0 11.01-2.6c.48.28.74.78.74 1.29l3.58 2.07A5.5 5.5 0 0117.12 17h-1.68z" /></svg>