<svg viewBox="64 64 896 896" focusable="false" xmlns="http://www.w3.org/2000/svg"><path d="M0 0v24h24V0H0zm22 22H2V8.86A6.26 6.26 0 016.2 2.8C8 2.09 10.14 2 12 2c1.86 0 4 .09 5.8.8A6.26 6.26 0 0122 8.86V22z" /><circle cx="15.5" cy="16" r="1" /><circle cx="8.5" cy="16" r="1" /><path d="M7.01 9h10v5h-10zM17.8 2.8C16 2.09 13.86 2 12 2c-1.86 0-4 .09-5.8.8A6.26 6.26 0 002 8.86V22h20V8.86a6.26 6.26 0 00-4.2-6.06zm.2 13.08a2.62 2.62 0 01-2.63 2.62l1.13 1.12V20H15l-1.5-1.5h-2.83L9.17 20H7.5v-.38l1.12-1.12A2.63 2.63 0 016 15.88V9c0-2.63 3-3 6-3 3.32 0 6 .38 6 3v6.88z" /></svg>