<svg viewBox="64 64 896 896" focusable="false" xmlns="http://www.w3.org/2000/svg"><path d="M0 0h24v24H0z" /><path d="M11.99 2a10 10 0 100 20 10 10 0 000-20zm3.61 6.34c1.07 0 1.93.86 1.93 1.93 0 1.07-.86 1.93-1.93 1.93a1.92 1.92 0 01-1.93-1.93 1.92 1.92 0 011.93-1.93zm-6-1.58a2.36 2.36 0 010 4.72 2.36 2.36 0 010-4.72zm0 9.13v3.75a8 8 0 01-5.14-4.96c1.05-1.12 3.67-1.69 5.14-1.69.53 0 1.2.08 1.9.22-1.64.87-1.9 2.02-1.9 2.68zM11.99 20c-.27 0-.53-.01-.79-.04v-4.07c0-1.42 2.94-2.13 4.4-2.13 1.07 0 2.92.39 3.84 1.15A8.02 8.02 0 0111.99 20z" /></svg>