<svg viewBox="64 64 896 896" focusable="false" xmlns="http://www.w3.org/2000/svg"><path d="M0 0h24v24H0z" /><path d="M2 16.5a5.5 5.5 0 1011 0V10H2v6.5zm5.5 2C6.12 18.5 5 17.83 5 17h5c0 .83-1.12 1.5-2.5 1.5zM10 13a1 1 0 011 1c0 .55-.45 1-1 1s-1-.45-1-1a1 1 0 011-1zm-5 0a1 1 0 011 1c0 .55-.45 1-1 1s-1-.45-1-1a1 1 0 011-1z" /><path d="M11 3v6h3v2.5c0-.83 1.12-1.5 2.5-1.5s2.5.67 2.5 1.5h-5v2.89a5.5 5.5 0 008-4.89V3H11zm3 5.08a1 1 0 01-1-1c0-.55.45-1 1-1s1 .45 1 1a1 1 0 01-1 1zm5 0a1 1 0 01-1-1c0-.55.45-1 1-1s1 .45 1 1a1 1 0 01-1 1z" /></svg>