<svg viewBox="64 64 896 896" focusable="false" xmlns="http://www.w3.org/2000/svg"><path d="M0 0h24v24H0V0z" /><path d="M16.49 3c-2.21 0-4.21.9-5.66 2.34l1.06 1.06a6.47 6.47 0 019.18 0l1.06-1.06A7.93 7.93 0 0016.49 3z" /><path d="M20.03 7.46a5.02 5.02 0 00-7.08 0l1.06 1.06a3.5 3.5 0 014.94 0l1.08-1.06zM15.08 9.59L16.49 11l1.41-1.41c-.36-.37-.86-.59-1.41-.59s-1.05.22-1.41.59z" /><path d="M15.63 14.4l-2.52 2.5a16.14 16.14 0 01-6-6l2.5-2.52c.23-.24.33-.57.27-.9L9.13 3.8a1 1 0 00-.98-.8H4a1 1 0 00-1 1.03A18.07 18.07 0 0019.97 21 1 1 0 0021 20v-4.15a1 1 0 00-.8-.98l-3.67-.73a.98.98 0 00-.9.26z" /></svg>