<svg viewBox="64 64 896 896" focusable="false" xmlns="http://www.w3.org/2000/svg"><path d="M24 .01c0-.01 0-.01 0 0L0 0v24h24V.01zM0 0h24v24H0V0zm0 0h24v24H0V0z" /><path d="M22.99 9A15.53 15.53 0 008.84 4.78l2.52 2.52a12.65 12.65 0 019.63 3.7l2-2zm-4 4a9.8 9.8 0 00-4.49-2.56l3.53 3.53.96-.97zM2 3.05L5.07 6.1A15.17 15.17 0 001 9l1.99 2a12.43 12.43 0 014.2-2.77l2.24 2.24A9.68 9.68 0 005 13v.01L6.99 15a7.04 7.04 0 014.92-2.06L18.98 20l1.27-1.26L3.29 1.79 2 3.05zM9 17l3 3 3-3a4.24 4.24 0 00-6 0z" /></svg>