<svg viewBox="64 64 896 896" focusable="false" xmlns="http://www.w3.org/2000/svg"><path d="M0 0h24v24H0V0z" /><path d="M20 2H4a2 2 0 00-2 2v16c0 1.1.9 2 2 2h16a2 2 0 002-2V4a2 2 0 00-2-2zM8 8.22a1.56 1.56 0 012.45-1.28l-.01-.12a1.56 1.56 0 013.12 0l-.01.12A1.56 1.56 0 0116 8.22c0 .62-.37 1.16-.89 1.4a1.56 1.56 0 11-1.56 2.69l.01.12a1.56 1.56 0 01-3.12 0l.01-.12A1.56 1.56 0 018 11.03c0-.62.37-1.16.89-1.4A1.57 1.57 0 018 8.22zM12 19a6 6 0 01-6-6 6 6 0 016 6 6 6 0 016-6 6 6 0 01-6 6z" /><circle cx="12" cy="9.62" r="1.56" /></svg>